<?xml version="1.0" encoding="utf-8"?>
<svg version="1.1" xmlns:xlink="http://www.w3.org/1999/xlink" width="13px" height="16px" xmlns="http://www.w3.org/2000/svg">
  <defs>
    <pattern id="BGPattern" patternUnits="userSpaceOnUse" alignment="0 0" imageRepeat="None" />
    <mask fill="white" id="Clip632">
      <path d="M 4.644176136363637 13.239583333333334  C 4.699573863636363 13.177083333333334  4.7272727272727275 13.097222222222221  4.7272727272727275 13  L 4.7272727272727275 5.666666666666666  C 4.7272727272727275 5.569444444444445  4.699573863636363 5.489583333333334  4.644176136363637 5.427083333333334  C 4.588778409090909 5.364583333333334  4.517992424242425 5.333333333333334  4.431818181818182 5.333333333333334  L 3.8409090909090913 5.333333333333334  C 3.754734848484849 5.333333333333334  3.683948863636364 5.364583333333334  3.6285511363636362 5.427083333333334  C 3.5731534090909087 5.489583333333334  3.545454545454545 5.569444444444445  3.545454545454545 5.666666666666666  L 3.545454545454545 13  C 3.545454545454545 13.097222222222221  3.5731534090909087 13.177083333333334  3.6285511363636362 13.239583333333334  C 3.683948863636364 13.302083333333334  3.754734848484849 13.333333333333334  3.8409090909090913 13.333333333333334  L 4.431818181818182 13.333333333333334  C 4.517992424242425 13.333333333333334  4.588778409090909 13.302083333333334  4.644176136363637 13.239583333333334  Z M 7.0078125 13.239583333333334  C 7.0632102272727275 13.177083333333334  7.09090909090909 13.097222222222221  7.09090909090909 13  L 7.09090909090909 5.666666666666666  C 7.09090909090909 5.569444444444445  7.0632102272727275 5.489583333333334  7.0078125 5.427083333333334  C 6.9524147727272725 5.364583333333334  6.881628787878789 5.333333333333334  6.795454545454545 5.333333333333334  L 6.204545454545455 5.333333333333334  C 6.118371212121213 5.333333333333334  6.0475852272727275 5.364583333333334  5.9921875 5.427083333333334  C 5.9367897727272725 5.489583333333334  5.909090909090909 5.569444444444445  5.909090909090909 5.666666666666666  L 5.909090909090909 13  C 5.909090909090909 13.097222222222221  5.9367897727272725 13.177083333333334  5.9921875 13.239583333333334  C 6.0475852272727275 13.302083333333334  6.118371212121213 13.333333333333334  6.204545454545455 13.333333333333334  L 6.795454545454545 13.333333333333334  C 6.881628787878789 13.333333333333334  6.9524147727272725 13.302083333333334  7.0078125 13.239583333333334  Z M 9.371448863636363 13.239583333333334  C 9.42684659090909 13.177083333333334  9.454545454545455 13.097222222222221  9.454545454545455 13  L 9.454545454545455 5.666666666666666  C 9.454545454545455 5.569444444444445  9.42684659090909 5.489583333333334  9.371448863636363 5.427083333333334  C 9.316051136363637 5.364583333333334  9.245265151515152 5.333333333333334  9.15909090909091 5.333333333333334  L 8.568181818181818 5.333333333333334  C 8.482007575757576 5.333333333333334  8.41122159090909 5.364583333333334  8.355823863636363 5.427083333333334  C 8.300426136363637 5.489583333333334  8.272727272727273 5.569444444444445  8.272727272727273 5.666666666666666  L 8.272727272727273 13  C 8.272727272727273 13.097222222222221  8.300426136363637 13.177083333333334  8.355823863636363 13.239583333333334  C 8.41122159090909 13.302083333333334  8.482007575757576 13.333333333333334  8.568181818181818 13.333333333333334  L 9.15909090909091 13.333333333333334  C 9.245265151515152 13.333333333333334  9.316051136363637 13.302083333333334  9.371448863636363 13.239583333333334  Z M 4.884232954545455 1.447916666666666  L 4.431818181818182 2.666666666666666  L 8.568181818181818 2.666666666666666  L 8.125 1.447916666666666  C 8.08191287878788 1.385416666666666  8.029592803030303 1.3472222222222214  7.9680397727272725 1.333333333333334  L 5.041193181818182 1.333333333333334  C 4.979640151515151 1.3472222222222214  4.927320075757576 1.385416666666666  4.884232954545455 1.447916666666666  Z M 12.91690340909091 2.760416666666666  C 12.972301136363637 2.822916666666666  13 2.902777777777777  13 3  L 13 3.666666666666666  C 13 3.7638888888888875  12.972301136363637 3.84375  12.91690340909091 3.90625  C 12.861505681818182 3.96875  12.790719696969699 4  12.704545454545455 4  L 11.818181818181818 4  L 11.818181818181818 13.875  C 11.818181818181818 14.451388888888888  11.673532196969699 14.949652777777779  11.384232954545455 15.369791666666666  C 11.094933712121213 15.789930555555555  10.74715909090909 16  10.34090909090909 16  L 2.659090909090909 16  C 2.252840909090909 16  1.9050662878787883 15.796875  1.6157670454545454 15.390625  C 1.3264678030303032 14.984375  1.1818181818181819 14.493055555555555  1.1818181818181819 13.916666666666666  L 1.1818181818181819 4  L 0.29545454545454547 4  C 0.20928030303030304 4  0.1384943181818182 3.96875  0.08309659090909091 3.90625  C 0.027698863636363633 3.84375  0 3.7638888888888875  0 3.666666666666666  L 0 3  C 0 2.902777777777777  0.027698863636363633 2.822916666666666  0.08309659090909091 2.760416666666666  C 0.1384943181818182 2.697916666666666  0.20928030303030304 2.666666666666666  0.29545454545454547 2.666666666666666  L 3.1484375 2.666666666666666  L 3.7947443181818183 0.9270833333333339  C 3.887073863636364 0.6701388888888875  4.053267045454546 0.4513888888888875  4.293323863636363 0.2708333333333339  C 4.5333806818181825 0.09027777777777679  4.776515151515151 0  5.0227272727272725 0  L 7.9772727272727275 0  C 8.22348484848485 0  8.466619318181818 0.09027777777777679  8.706676136363637 0.2708333333333339  C 8.946732954545455 0.4513888888888875  9.112926136363637 0.6701388888888875  9.205255681818182 0.9270833333333339  L 9.8515625 2.666666666666666  L 12.704545454545455 2.666666666666666  C 12.790719696969699 2.666666666666666  12.861505681818182 2.697916666666666  12.91690340909091 2.760416666666666  Z " fill-rule="evenodd" />
    </mask>
  </defs>
  <g transform="matrix(1 0 0 1 -420 -16 )">
    <path d="M 4.644176136363637 13.239583333333334  C 4.699573863636363 13.177083333333334  4.7272727272727275 13.097222222222221  4.7272727272727275 13  L 4.7272727272727275 5.666666666666666  C 4.7272727272727275 5.569444444444445  4.699573863636363 5.489583333333334  4.644176136363637 5.427083333333334  C 4.588778409090909 5.364583333333334  4.517992424242425 5.333333333333334  4.431818181818182 5.333333333333334  L 3.8409090909090913 5.333333333333334  C 3.754734848484849 5.333333333333334  3.683948863636364 5.364583333333334  3.6285511363636362 5.427083333333334  C 3.5731534090909087 5.489583333333334  3.545454545454545 5.569444444444445  3.545454545454545 5.666666666666666  L 3.545454545454545 13  C 3.545454545454545 13.097222222222221  3.5731534090909087 13.177083333333334  3.6285511363636362 13.239583333333334  C 3.683948863636364 13.302083333333334  3.754734848484849 13.333333333333334  3.8409090909090913 13.333333333333334  L 4.431818181818182 13.333333333333334  C 4.517992424242425 13.333333333333334  4.588778409090909 13.302083333333334  4.644176136363637 13.239583333333334  Z M 7.0078125 13.239583333333334  C 7.0632102272727275 13.177083333333334  7.09090909090909 13.097222222222221  7.09090909090909 13  L 7.09090909090909 5.666666666666666  C 7.09090909090909 5.569444444444445  7.0632102272727275 5.489583333333334  7.0078125 5.427083333333334  C 6.9524147727272725 5.364583333333334  6.881628787878789 5.333333333333334  6.795454545454545 5.333333333333334  L 6.204545454545455 5.333333333333334  C 6.118371212121213 5.333333333333334  6.0475852272727275 5.364583333333334  5.9921875 5.427083333333334  C 5.9367897727272725 5.489583333333334  5.909090909090909 5.569444444444445  5.909090909090909 5.666666666666666  L 5.909090909090909 13  C 5.909090909090909 13.097222222222221  5.9367897727272725 13.177083333333334  5.9921875 13.239583333333334  C 6.0475852272727275 13.302083333333334  6.118371212121213 13.333333333333334  6.204545454545455 13.333333333333334  L 6.795454545454545 13.333333333333334  C 6.881628787878789 13.333333333333334  6.9524147727272725 13.302083333333334  7.0078125 13.239583333333334  Z M 9.371448863636363 13.239583333333334  C 9.42684659090909 13.177083333333334  9.454545454545455 13.097222222222221  9.454545454545455 13  L 9.454545454545455 5.666666666666666  C 9.454545454545455 5.569444444444445  9.42684659090909 5.489583333333334  9.371448863636363 5.427083333333334  C 9.316051136363637 5.364583333333334  9.245265151515152 5.333333333333334  9.15909090909091 5.333333333333334  L 8.568181818181818 5.333333333333334  C 8.482007575757576 5.333333333333334  8.41122159090909 5.364583333333334  8.355823863636363 5.427083333333334  C 8.300426136363637 5.489583333333334  8.272727272727273 5.569444444444445  8.272727272727273 5.666666666666666  L 8.272727272727273 13  C 8.272727272727273 13.097222222222221  8.300426136363637 13.177083333333334  8.355823863636363 13.239583333333334  C 8.41122159090909 13.302083333333334  8.482007575757576 13.333333333333334  8.568181818181818 13.333333333333334  L 9.15909090909091 13.333333333333334  C 9.245265151515152 13.333333333333334  9.316051136363637 13.302083333333334  9.371448863636363 13.239583333333334  Z M 4.884232954545455 1.447916666666666  L 4.431818181818182 2.666666666666666  L 8.568181818181818 2.666666666666666  L 8.125 1.447916666666666  C 8.08191287878788 1.385416666666666  8.029592803030303 1.3472222222222214  7.9680397727272725 1.333333333333334  L 5.041193181818182 1.333333333333334  C 4.979640151515151 1.3472222222222214  4.927320075757576 1.385416666666666  4.884232954545455 1.447916666666666  Z M 12.91690340909091 2.760416666666666  C 12.972301136363637 2.822916666666666  13 2.902777777777777  13 3  L 13 3.666666666666666  C 13 3.7638888888888875  12.972301136363637 3.84375  12.91690340909091 3.90625  C 12.861505681818182 3.96875  12.790719696969699 4  12.704545454545455 4  L 11.818181818181818 4  L 11.818181818181818 13.875  C 11.818181818181818 14.451388888888888  11.673532196969699 14.949652777777779  11.384232954545455 15.369791666666666  C 11.094933712121213 15.789930555555555  10.74715909090909 16  10.34090909090909 16  L 2.659090909090909 16  C 2.252840909090909 16  1.9050662878787883 15.796875  1.6157670454545454 15.390625  C 1.3264678030303032 14.984375  1.1818181818181819 14.493055555555555  1.1818181818181819 13.916666666666666  L 1.1818181818181819 4  L 0.29545454545454547 4  C 0.20928030303030304 4  0.1384943181818182 3.96875  0.08309659090909091 3.90625  C 0.027698863636363633 3.84375  0 3.7638888888888875  0 3.666666666666666  L 0 3  C 0 2.902777777777777  0.027698863636363633 2.822916666666666  0.08309659090909091 2.760416666666666  C 0.1384943181818182 2.697916666666666  0.20928030303030304 2.666666666666666  0.29545454545454547 2.666666666666666  L 3.1484375 2.666666666666666  L 3.7947443181818183 0.9270833333333339  C 3.887073863636364 0.6701388888888875  4.053267045454546 0.4513888888888875  4.293323863636363 0.2708333333333339  C 4.5333806818181825 0.09027777777777679  4.776515151515151 0  5.0227272727272725 0  L 7.9772727272727275 0  C 8.22348484848485 0  8.466619318181818 0.09027777777777679  8.706676136363637 0.2708333333333339  C 8.946732954545455 0.4513888888888875  9.112926136363637 0.6701388888888875  9.205255681818182 0.9270833333333339  L 9.8515625 2.666666666666666  L 12.704545454545455 2.666666666666666  C 12.790719696969699 2.666666666666666  12.861505681818182 2.697916666666666  12.91690340909091 2.760416666666666  Z " fill-rule="nonzero" fill="rgba(158, 158, 158, 1)" stroke="none" transform="matrix(1 0 0 1 420 16 )" class="fill" />
    <path d="M 4.644176136363637 13.239583333333334  C 4.699573863636363 13.177083333333334  4.7272727272727275 13.097222222222221  4.7272727272727275 13  L 4.7272727272727275 5.666666666666666  C 4.7272727272727275 5.569444444444445  4.699573863636363 5.489583333333334  4.644176136363637 5.427083333333334  C 4.588778409090909 5.364583333333334  4.517992424242425 5.333333333333334  4.431818181818182 5.333333333333334  L 3.8409090909090913 5.333333333333334  C 3.754734848484849 5.333333333333334  3.683948863636364 5.364583333333334  3.6285511363636362 5.427083333333334  C 3.5731534090909087 5.489583333333334  3.545454545454545 5.569444444444445  3.545454545454545 5.666666666666666  L 3.545454545454545 13  C 3.545454545454545 13.097222222222221  3.5731534090909087 13.177083333333334  3.6285511363636362 13.239583333333334  C 3.683948863636364 13.302083333333334  3.754734848484849 13.333333333333334  3.8409090909090913 13.333333333333334  L 4.431818181818182 13.333333333333334  C 4.517992424242425 13.333333333333334  4.588778409090909 13.302083333333334  4.644176136363637 13.239583333333334  Z " stroke-width="0" stroke-dasharray="0" stroke="rgba(255, 255, 255, 0)" fill="none" transform="matrix(1 0 0 1 420 16 )" class="stroke" mask="url(#Clip632)" />
    <path d="M 7.0078125 13.239583333333334  C 7.0632102272727275 13.177083333333334  7.09090909090909 13.097222222222221  7.09090909090909 13  L 7.09090909090909 5.666666666666666  C 7.09090909090909 5.569444444444445  7.0632102272727275 5.489583333333334  7.0078125 5.427083333333334  C 6.9524147727272725 5.364583333333334  6.881628787878789 5.333333333333334  6.795454545454545 5.333333333333334  L 6.204545454545455 5.333333333333334  C 6.118371212121213 5.333333333333334  6.0475852272727275 5.364583333333334  5.9921875 5.427083333333334  C 5.9367897727272725 5.489583333333334  5.909090909090909 5.569444444444445  5.909090909090909 5.666666666666666  L 5.909090909090909 13  C 5.909090909090909 13.097222222222221  5.9367897727272725 13.177083333333334  5.9921875 13.239583333333334  C 6.0475852272727275 13.302083333333334  6.118371212121213 13.333333333333334  6.204545454545455 13.333333333333334  L 6.795454545454545 13.333333333333334  C 6.881628787878789 13.333333333333334  6.9524147727272725 13.302083333333334  7.0078125 13.239583333333334  Z " stroke-width="0" stroke-dasharray="0" stroke="rgba(255, 255, 255, 0)" fill="none" transform="matrix(1 0 0 1 420 16 )" class="stroke" mask="url(#Clip632)" />
    <path d="M 9.371448863636363 13.239583333333334  C 9.42684659090909 13.177083333333334  9.454545454545455 13.097222222222221  9.454545454545455 13  L 9.454545454545455 5.666666666666666  C 9.454545454545455 5.569444444444445  9.42684659090909 5.489583333333334  9.371448863636363 5.427083333333334  C 9.316051136363637 5.364583333333334  9.245265151515152 5.333333333333334  9.15909090909091 5.333333333333334  L 8.568181818181818 5.333333333333334  C 8.482007575757576 5.333333333333334  8.41122159090909 5.364583333333334  8.355823863636363 5.427083333333334  C 8.300426136363637 5.489583333333334  8.272727272727273 5.569444444444445  8.272727272727273 5.666666666666666  L 8.272727272727273 13  C 8.272727272727273 13.097222222222221  8.300426136363637 13.177083333333334  8.355823863636363 13.239583333333334  C 8.41122159090909 13.302083333333334  8.482007575757576 13.333333333333334  8.568181818181818 13.333333333333334  L 9.15909090909091 13.333333333333334  C 9.245265151515152 13.333333333333334  9.316051136363637 13.302083333333334  9.371448863636363 13.239583333333334  Z " stroke-width="0" stroke-dasharray="0" stroke="rgba(255, 255, 255, 0)" fill="none" transform="matrix(1 0 0 1 420 16 )" class="stroke" mask="url(#Clip632)" />
    <path d="M 4.884232954545455 1.447916666666666  L 4.431818181818182 2.666666666666666  L 8.568181818181818 2.666666666666666  L 8.125 1.447916666666666  C 8.08191287878788 1.385416666666666  8.029592803030303 1.3472222222222214  7.9680397727272725 1.333333333333334  L 5.041193181818182 1.333333333333334  C 4.979640151515151 1.3472222222222214  4.927320075757576 1.385416666666666  4.884232954545455 1.447916666666666  Z " stroke-width="0" stroke-dasharray="0" stroke="rgba(255, 255, 255, 0)" fill="none" transform="matrix(1 0 0 1 420 16 )" class="stroke" mask="url(#Clip632)" />
    <path d="M 12.91690340909091 2.760416666666666  C 12.972301136363637 2.822916666666666  13 2.902777777777777  13 3  L 13 3.666666666666666  C 13 3.7638888888888875  12.972301136363637 3.84375  12.91690340909091 3.90625  C 12.861505681818182 3.96875  12.790719696969699 4  12.704545454545455 4  L 11.818181818181818 4  L 11.818181818181818 13.875  C 11.818181818181818 14.451388888888888  11.673532196969699 14.949652777777779  11.384232954545455 15.369791666666666  C 11.094933712121213 15.789930555555555  10.74715909090909 16  10.34090909090909 16  L 2.659090909090909 16  C 2.252840909090909 16  1.9050662878787883 15.796875  1.6157670454545454 15.390625  C 1.3264678030303032 14.984375  1.1818181818181819 14.493055555555555  1.1818181818181819 13.916666666666666  L 1.1818181818181819 4  L 0.29545454545454547 4  C 0.20928030303030304 4  0.1384943181818182 3.96875  0.08309659090909091 3.90625  C 0.027698863636363633 3.84375  0 3.7638888888888875  0 3.666666666666666  L 0 3  C 0 2.902777777777777  0.027698863636363633 2.822916666666666  0.08309659090909091 2.760416666666666  C 0.1384943181818182 2.697916666666666  0.20928030303030304 2.666666666666666  0.29545454545454547 2.666666666666666  L 3.1484375 2.666666666666666  L 3.7947443181818183 0.9270833333333339  C 3.887073863636364 0.6701388888888875  4.053267045454546 0.4513888888888875  4.293323863636363 0.2708333333333339  C 4.5333806818181825 0.09027777777777679  4.776515151515151 0  5.0227272727272725 0  L 7.9772727272727275 0  C 8.22348484848485 0  8.466619318181818 0.09027777777777679  8.706676136363637 0.2708333333333339  C 8.946732954545455 0.4513888888888875  9.112926136363637 0.6701388888888875  9.205255681818182 0.9270833333333339  L 9.8515625 2.666666666666666  L 12.704545454545455 2.666666666666666  C 12.790719696969699 2.666666666666666  12.861505681818182 2.697916666666666  12.91690340909091 2.760416666666666  Z " stroke-width="0" stroke-dasharray="0" stroke="rgba(255, 255, 255, 0)" fill="none" transform="matrix(1 0 0 1 420 16 )" class="stroke" mask="url(#Clip632)" />
  </g>
</svg>