<?xml version="1.0" encoding="utf-8"?>
<svg version="1.1" xmlns:xlink="http://www.w3.org/1999/xlink" width="45px" height="46px" xmlns="http://www.w3.org/2000/svg">
  <defs>
    <pattern id="BGPattern" patternUnits="userSpaceOnUse" alignment="0 0" imageRepeat="None" />
    <mask fill="white" id="Clip830">
      <path d="M 0 18  C 0 7.919999999999999  7.699999999999999 0  17.5 0  C 27.3 0  35 7.919999999999999  35 18  C 35 28.080000000000002  27.3 36  17.5 36  C 7.699999999999999 36  0 28.080000000000002  0 18  Z " fill-rule="evenodd" />
    </mask>
  </defs>
  <g transform="matrix(1 0 0 1 -482 -308 )">
    <path d="M 0 18  C 0 7.919999999999999  7.699999999999999 0  17.5 0  C 27.3 0  35 7.919999999999999  35 18  C 35 28.080000000000002  27.3 36  17.5 36  C 7.699999999999999 36  0 28.080000000000002  0 18  Z " fill-rule="nonzero" fill="rgba(30, 152, 215, 1)" stroke="none" transform="matrix(1 0 0 1 487 310 )" class="fill" />
    <path d="M 0 18  C 0 7.919999999999999  7.699999999999999 0  17.5 0  C 27.3 0  35 7.919999999999999  35 18  C 35 28.080000000000002  27.3 36  17.5 36  C 7.699999999999999 36  0 28.080000000000002  0 18  Z " stroke-width="0" stroke-dasharray="0" stroke="rgba(22, 155, 213, 0)" fill="none" transform="matrix(1 0 0 1 487 310 )" class="stroke" mask="url(#Clip830)" />
  </g>
  <style>svg { filter: drop-shadow(0px 3px 2.5px rgba(0, 0, 0, 0.19607843137254902)); }</style>
</svg>