<?xml version="1.0" encoding="utf-8"?>
<svg version="1.1" xmlns:xlink="http://www.w3.org/1999/xlink" width="33px" height="34px" xmlns="http://www.w3.org/2000/svg">
  <defs>
    <pattern id="BGPattern" patternUnits="userSpaceOnUse" alignment="0 0" imageRepeat="None" />
    <mask fill="white" id="Clip910">
      <path d="M 20.23828125 20.8515625  C 21.976862980769234 19.06029647435897  22.846153846153847 16.904647435897434  22.846153846153847 14.384615384615387  C 22.846153846153847 11.86458333333333  21.976862980769234 9.708934294871792  20.23828125 7.917668269230769  C 18.49969951923077 6.126402243589741  16.407451923076923 5.230769230769231  13.961538461538462 5.230769230769231  C 11.515625000000002 5.230769230769231  9.423377403846155 6.126402243589741  7.6847956730769225 7.917668269230769  C 5.9462139423076925 9.708934294871792  5.0769230769230775 11.86458333333333  5.0769230769230775 14.384615384615387  C 5.0769230769230775 16.904647435897434  5.9462139423076925 19.06029647435897  7.6847956730769225 20.8515625  C 9.423377403846155 22.642828525641022  11.515625000000002 23.538461538461537  13.961538461538462 23.538461538461537  C 16.407451923076923 23.538461538461537  18.49969951923077 22.642828525641022  20.23828125 20.8515625  Z M 32.26622596153846 29.545673076923077  C 32.75540865384615 30.04967948717949  33 30.66266025641026  33 31.384615384615387  C 33 32.09294871794872  32.74879807692308 32.70592948717949  32.24639423076923 33.22355769230769  C 31.743990384615387 33.7411858974359  31.149038461538463 34  30.461538461538463 34  C 29.747596153846153 34  29.15264423076923 33.7411858974359  28.67668269230769 33.22355769230769  L 21.874399038461537 26.235576923076923  C 19.5078125 27.92467948717949  16.87019230769231 28.76923076923077  13.961538461538462 28.76923076923077  C 12.070913461538463 28.76923076923077  10.262920673076923 28.391225961538463  8.537560096153845 27.635216346153847  C 6.812199519230769 26.87920673076923  5.324819711538462 25.857572115384613  4.075420673076923 24.5703125  C 2.8260216346153846 23.283052884615387  1.8344350961538465 21.750600961538463  1.1006610576923077 19.97295673076923  C 0.3668870192307692 18.1953125  0 16.332532051282048  0 14.384615384615387  C 0 12.436698717948714  0.3668870192307692 10.573918269230768  1.1006610576923077 8.796274038461538  C 1.8344350961538465 7.018629807692307  2.8260216346153846 5.486177884615387  4.075420673076923 4.198918269230769  C 5.324819711538462 2.911658653846155  6.812199519230769 1.8900240384615379  8.537560096153845 1.1340144230769242  C 10.262920673076923 0.3780048076923068  12.070913461538463 0  13.961538461538462 0  C 15.852163461538462 0  17.66015625 0.3780048076923068  19.385516826923077 1.1340144230769242  C 21.110877403846153 1.8900240384615379  22.598257211538463 2.911658653846155  23.84765625 4.198918269230769  C 25.097055288461537 5.486177884615387  26.088641826923077 7.018629807692307  26.822415865384613 8.796274038461538  C 27.556189903846153 10.573918269230768  27.923076923076923 12.436698717948714  27.923076923076923 14.384615384615387  C 27.923076923076923 17.381410256410255  27.103365384615387 20.098958333333332  25.46394230769231 22.537259615384613  L 32.26622596153846 29.545673076923077  Z " fill-rule="evenodd" />
    </mask>
  </defs>
  <g transform="matrix(1 0 0 1 -650 -139 )">
    <path d="M 20.23828125 20.8515625  C 21.976862980769234 19.06029647435897  22.846153846153847 16.904647435897434  22.846153846153847 14.384615384615387  C 22.846153846153847 11.86458333333333  21.976862980769234 9.708934294871792  20.23828125 7.917668269230769  C 18.49969951923077 6.126402243589741  16.407451923076923 5.230769230769231  13.961538461538462 5.230769230769231  C 11.515625000000002 5.230769230769231  9.423377403846155 6.126402243589741  7.6847956730769225 7.917668269230769  C 5.9462139423076925 9.708934294871792  5.0769230769230775 11.86458333333333  5.0769230769230775 14.384615384615387  C 5.0769230769230775 16.904647435897434  5.9462139423076925 19.06029647435897  7.6847956730769225 20.8515625  C 9.423377403846155 22.642828525641022  11.515625000000002 23.538461538461537  13.961538461538462 23.538461538461537  C 16.407451923076923 23.538461538461537  18.49969951923077 22.642828525641022  20.23828125 20.8515625  Z M 32.26622596153846 29.545673076923077  C 32.75540865384615 30.04967948717949  33 30.66266025641026  33 31.384615384615387  C 33 32.09294871794872  32.74879807692308 32.70592948717949  32.24639423076923 33.22355769230769  C 31.743990384615387 33.7411858974359  31.149038461538463 34  30.461538461538463 34  C 29.747596153846153 34  29.15264423076923 33.7411858974359  28.67668269230769 33.22355769230769  L 21.874399038461537 26.235576923076923  C 19.5078125 27.92467948717949  16.87019230769231 28.76923076923077  13.961538461538462 28.76923076923077  C 12.070913461538463 28.76923076923077  10.262920673076923 28.391225961538463  8.537560096153845 27.635216346153847  C 6.812199519230769 26.87920673076923  5.324819711538462 25.857572115384613  4.075420673076923 24.5703125  C 2.8260216346153846 23.283052884615387  1.8344350961538465 21.750600961538463  1.1006610576923077 19.97295673076923  C 0.3668870192307692 18.1953125  0 16.332532051282048  0 14.384615384615387  C 0 12.436698717948714  0.3668870192307692 10.573918269230768  1.1006610576923077 8.796274038461538  C 1.8344350961538465 7.018629807692307  2.8260216346153846 5.486177884615387  4.075420673076923 4.198918269230769  C 5.324819711538462 2.911658653846155  6.812199519230769 1.8900240384615379  8.537560096153845 1.1340144230769242  C 10.262920673076923 0.3780048076923068  12.070913461538463 0  13.961538461538462 0  C 15.852163461538462 0  17.66015625 0.3780048076923068  19.385516826923077 1.1340144230769242  C 21.110877403846153 1.8900240384615379  22.598257211538463 2.911658653846155  23.84765625 4.198918269230769  C 25.097055288461537 5.486177884615387  26.088641826923077 7.018629807692307  26.822415865384613 8.796274038461538  C 27.556189903846153 10.573918269230768  27.923076923076923 12.436698717948714  27.923076923076923 14.384615384615387  C 27.923076923076923 17.381410256410255  27.103365384615387 20.098958333333332  25.46394230769231 22.537259615384613  L 32.26622596153846 29.545673076923077  Z " fill-rule="nonzero" fill="rgba(0, 0, 0, 1)" stroke="none" transform="matrix(1 0 0 1 650 139 )" class="fill" />
    <path d="M 20.23828125 20.8515625  C 21.976862980769234 19.06029647435897  22.846153846153847 16.904647435897434  22.846153846153847 14.384615384615387  C 22.846153846153847 11.86458333333333  21.976862980769234 9.708934294871792  20.23828125 7.917668269230769  C 18.49969951923077 6.126402243589741  16.407451923076923 5.230769230769231  13.961538461538462 5.230769230769231  C 11.515625000000002 5.230769230769231  9.423377403846155 6.126402243589741  7.6847956730769225 7.917668269230769  C 5.9462139423076925 9.708934294871792  5.0769230769230775 11.86458333333333  5.0769230769230775 14.384615384615387  C 5.0769230769230775 16.904647435897434  5.9462139423076925 19.06029647435897  7.6847956730769225 20.8515625  C 9.423377403846155 22.642828525641022  11.515625000000002 23.538461538461537  13.961538461538462 23.538461538461537  C 16.407451923076923 23.538461538461537  18.49969951923077 22.642828525641022  20.23828125 20.8515625  Z " stroke-width="0" stroke-dasharray="0" stroke="rgba(255, 255, 255, 0)" fill="none" transform="matrix(1 0 0 1 650 139 )" class="stroke" mask="url(#Clip910)" />
    <path d="M 32.26622596153846 29.545673076923077  C 32.75540865384615 30.04967948717949  33 30.66266025641026  33 31.384615384615387  C 33 32.09294871794872  32.74879807692308 32.70592948717949  32.24639423076923 33.22355769230769  C 31.743990384615387 33.7411858974359  31.149038461538463 34  30.461538461538463 34  C 29.747596153846153 34  29.15264423076923 33.7411858974359  28.67668269230769 33.22355769230769  L 21.874399038461537 26.235576923076923  C 19.5078125 27.92467948717949  16.87019230769231 28.76923076923077  13.961538461538462 28.76923076923077  C 12.070913461538463 28.76923076923077  10.262920673076923 28.391225961538463  8.537560096153845 27.635216346153847  C 6.812199519230769 26.87920673076923  5.324819711538462 25.857572115384613  4.075420673076923 24.5703125  C 2.8260216346153846 23.283052884615387  1.8344350961538465 21.750600961538463  1.1006610576923077 19.97295673076923  C 0.3668870192307692 18.1953125  0 16.332532051282048  0 14.384615384615387  C 0 12.436698717948714  0.3668870192307692 10.573918269230768  1.1006610576923077 8.796274038461538  C 1.8344350961538465 7.018629807692307  2.8260216346153846 5.486177884615387  4.075420673076923 4.198918269230769  C 5.324819711538462 2.911658653846155  6.812199519230769 1.8900240384615379  8.537560096153845 1.1340144230769242  C 10.262920673076923 0.3780048076923068  12.070913461538463 0  13.961538461538462 0  C 15.852163461538462 0  17.66015625 0.3780048076923068  19.385516826923077 1.1340144230769242  C 21.110877403846153 1.8900240384615379  22.598257211538463 2.911658653846155  23.84765625 4.198918269230769  C 25.097055288461537 5.486177884615387  26.088641826923077 7.018629807692307  26.822415865384613 8.796274038461538  C 27.556189903846153 10.573918269230768  27.923076923076923 12.436698717948714  27.923076923076923 14.384615384615387  C 27.923076923076923 17.381410256410255  27.103365384615387 20.098958333333332  25.46394230769231 22.537259615384613  L 32.26622596153846 29.545673076923077  Z " stroke-width="0" stroke-dasharray="0" stroke="rgba(255, 255, 255, 0)" fill="none" transform="matrix(1 0 0 1 650 139 )" class="stroke" mask="url(#Clip910)" />
  </g>
</svg>