<?xml version="1.0" encoding="utf-8"?>
<svg version="1.1" xmlns:xlink="http://www.w3.org/1999/xlink" width="18px" height="18px" viewBox="566 86 18 18" xmlns="http://www.w3.org/2000/svg">
  <path d="M 575 86  C 580.04 86  584 89.96  584 95  C 584 100.04  580.04 104  575 104  C 569.96 104  566 100.04  566 95  C 566 89.96  569.96 86  575 86  Z " fill-rule="nonzero" fill="rgba(255, 255, 255, 0)" stroke="none" class="fill" />
  <path d="M 575 87  C 579.48 87  583 90.52  583 95  C 583 99.48  579.48 103  575 103  C 570.52 103  567 99.48  567 95  C 567 90.52  570.52 87  575 87  Z " stroke-width="2" stroke-dasharray="0" stroke="rgba(121, 121, 121, 1)" fill="none" class="stroke" />
  <path d="M 575 99.5  C 572.48 99.5  570.5 97.52  570.5 95  C 570.5 92.48  572.48 90.5  575 90.5  C 577.52 90.5  579.5 92.48  579.5 95  C 579.5 97.52  577.52 99.5  575 99.5  " fill-rule="nonzero" fill="rgba(121, 121, 121, 1)" stroke="none" class="stroke btn_check" />
</svg>