<?xml version="1.0" encoding="utf-8"?>
<svg version="1.1" xmlns:xlink="http://www.w3.org/1999/xlink" width="18px" height="18px" viewBox="24 184 18 18" xmlns="http://www.w3.org/2000/svg">
  <path d="M 24 186  A 2 2 0 0 1 26 184 L 40 184  A 2 2 0 0 1 42 186 L 42 200  A 2 2 0 0 1 40 202 L 26 202  A 2 2 0 0 1 24 200 L 24 186  Z " fill-rule="nonzero" fill="rgba(255, 255, 255, 0)" stroke="none" class="fill" />
  <path d="M 25 186  A 1 1 0 0 1 26 185 L 40 185  A 1 1 0 0 1 41 186 L 41 200  A 1 1 0 0 1 40 201 L 26 201  A 1 1 0 0 1 25 200 L 25 186  Z " stroke-width="2" stroke-dasharray="0" stroke="rgba(121, 121, 121, 1)" fill="none" class="stroke" />
  <path d="M 27.857142857142858 193  L 31.714285714285715 196.85714285714286  L 38.14285714285714 187.85714285714286  " stroke-width="3.8571428571428577" stroke-dasharray="0" stroke="rgba(121, 121, 121, 1)" fill="none" class="stroke btn_check" />
</svg>