<?xml version="1.0" encoding="utf-8"?>
<svg version="1.1" xmlns:xlink="http://www.w3.org/1999/xlink" width="18px" height="18px" viewBox="202 111 18 18" xmlns="http://www.w3.org/2000/svg">
  <path d="M 211 111  C 216.04 111  220 114.96  220 120  C 220 125.04  216.04 129  211 129  C 205.96 129  202 125.04  202 120  C 202 114.96  205.96 111  211 111  Z " fill-rule="nonzero" fill="rgba(98, 0, 238, 0)" stroke="none" class="fill" />
  <path d="M 211 112  C 215.48 112  219 115.52  219 120  C 219 124.48  215.48 128  211 128  C 206.52 128  203 124.48  203 120  C 203 115.52  206.52 112  211 112  Z " stroke-width="2" stroke-dasharray="0" stroke="rgba(30, 152, 215, 1)" fill="none" class="stroke" />
  <path d="M 211 124.5  C 208.48 124.5  206.5 122.52  206.5 120  C 206.5 117.48  208.48 115.5  211 115.5  C 213.52 115.5  215.5 117.48  215.5 120  C 215.5 122.52  213.52 124.5  211 124.5  " fill-rule="nonzero" fill="rgba(30, 152, 215, 1)" stroke="none" class="stroke btn_check" />
</svg>