<?xml version="1.0" encoding="utf-8"?>
<svg version="1.1" xmlns:xlink="http://www.w3.org/1999/xlink" width="168px" height="33px" xmlns="http://www.w3.org/2000/svg">
  <defs>
    <linearGradient gradientUnits="userSpaceOnUse" x1="83" y1="0" x2="83" y2="31" id="LinearGradient147">
      <stop id="Stop148" stop-color="#fdfdfd" offset="0" />
      <stop id="Stop149" stop-color="#e0e0e0" offset="1" />
    </linearGradient>
    <pattern id="BGPattern" patternUnits="userSpaceOnUse" alignment="0 0" imageRepeat="None" />
    <filter x="-50.00%" y="-50.00%" width="200.00%" height="200.00%" filterUnits="objectBoundingBox" id="Filter150">
      <feOffset dx="0" dy="1" in="SourceGraphic" result="offset" id="offset" />
      <feMorphology radius="1" operator="erode" in="offset" result="morphology" id="morphology" />
      <feGaussianBlur stdDeviation="0" in="morphology" result="blur" id="blur" />
      <feComposite in2="blur" operator="out" in="SourceGraphic" result="inverse" id="inverse" />
      <feFlood flood-color="rgba(255, 255, 255, 0.11764705882352941)" in="inverse" result="color" id="color" />
      <feComposite in2="inverse" operator="in" in="color" result="shadow" id="shadow" />
      <feComposite in2="SourceGraphic" operator="over" in="shadow" />
    </filter>
    <mask fill="white" id="Clip151">
      <path d="M 0 25  L 0 6  C 0 2.6399999999999997  2.6399999999999992 0  6 0  L 160 0  C 163.36 0  166 2.6399999999999997  166 6  L 166 25  C 166 28.36  163.36 31  160 31  L 6 31  C 2.6399999999999992 31  0 28.36  0 25  Z " fill-rule="evenodd" />
    </mask>
  </defs>
  <g transform="matrix(1 0 0 1 -666 -127 )">
    <path d="M 0 25  L 0 6  C 0 2.6399999999999997  2.6399999999999992 0  6 0  L 160 0  C 163.36 0  166 2.6399999999999997  166 6  L 166 25  C 166 28.36  163.36 31  160 31  L 6 31  C 2.6399999999999992 31  0 28.36  0 25  Z " fill-rule="nonzero" fill="url(#LinearGradient147)" stroke="none" transform="matrix(1 0 0 1 667 127 )" class="fill" />
    <path d="M 0 25  L 0 6  C 0 2.6399999999999997  2.6399999999999992 0  6 0  L 160 0  C 163.36 0  166 2.6399999999999997  166 6  L 166 25  C 166 28.36  163.36 31  160 31  L 6 31  C 2.6399999999999992 31  0 28.36  0 25  Z " stroke-width="2" stroke-dasharray="0" stroke="rgba(204, 204, 204, 1)" fill="none" transform="matrix(1 0 0 1 667 127 )" class="stroke" mask="url(#Clip151)" />
  </g>
  <style>svg { filter: drop-shadow(0px 1px 0.5px rgba(0, 0, 0, 0.06666666666666667)); }path.fill { filter: url('#Filter150'); }</style>
</svg>