<?xml version="1.0" encoding="utf-8"?>
<svg version="1.1" xmlns:xlink="http://www.w3.org/1999/xlink" width="212px" height="209px" xmlns="http://www.w3.org/2000/svg">
  <defs>
    <pattern id="BGPattern" patternUnits="userSpaceOnUse" alignment="0 0" imageRepeat="None" />
    <mask fill="white" id="Clip1176">
      <path d="M 176.66666666666669 59.71428571428571  C 176.66666666666669 71.14397321428571  173.03211805555557 81.71837797619045  165.76302083333331 91.4375  C 170.08767361111114 92.52604166666666  174.20529513888889 94.00334821428571  178.11588541666669 95.86941964285714  C 182.02647569444446 97.73549107142858  186.12109375 100.57347470238093  190.39973958333331 104.38337053571429  C 194.67838541666669 108.19326636904762  198.3359375 112.68350074404762  201.37239583333331 117.85407366071429  C 204.40885416666669 123.02464657738093  206.93923611111114 129.71140252976187  208.96354166666669 137.91434151785717  C 210.9878472222222 146.11728050595238  212 155.3115699404762  212 165.49720982142858  C 212 177.47116815476193  207.39930555555554 187.71512276785714  198.19791666666669 196.22907366071428  C 188.9965277777778 204.74302455357142  177.90885416666669 209  164.93489583333331 209  L 47.06510416666667 209  C 34.09114583333333 209  23.003472222222225 204.74302455357142  13.802083333333334 196.22907366071428  C 4.600694444444444 187.71512276785714  0 177.47116815476193  0 165.49720982142858  C 0 155.3115699404762  1.0121527777777777 146.11728050595238  3.036458333333333 137.91434151785717  C 5.060763888888889 129.71140252976187  7.591145833333333 123.02464657738093  10.627604166666668 117.85407366071429  C 13.6640625 112.68350074404762  17.321614583333336 108.19326636904762  21.600260416666664 104.38337053571429  C 25.87890625 100.57347470238093  29.97352430555556 97.73549107142858  33.88411458333333 95.86941964285714  C 37.794704861111114 94.00334821428571  41.91232638888889 92.52604166666666  46.23697916666667 91.4375  C 38.96788194444445 81.71837797619045  35.33333333333333 71.14397321428571  35.33333333333333 59.71428571428571  C 35.33333333333333 51.62797619047617  37.19661458333333 43.91099330357142  40.92317708333333 36.56333705357142  C 44.64973958333333 29.215680803571423  49.6875 22.859375  56.036458333333336 17.49441964285713  C 62.385416666666664 12.129464285714288  69.90755208333334 7.872488839285711  78.60286458333334 4.723493303571422  C 87.29817708333334 1.574497767857133  96.43055555555557 0  106 0  C 115.56944444444446 0  124.70182291666667 1.574497767857133  133.39713541666669 4.723493303571422  C 142.09244791666669 7.872488839285711  149.61458333333331 12.129464285714288  155.96354166666669 17.49441964285713  C 162.3125 22.859375  167.35026041666669 29.215680803571423  171.07682291666669 36.56333705357142  C 174.80338541666669 43.91099330357142  176.66666666666669 51.62797619047617  176.66666666666669 59.71428571428571  Z M 143.47265625 28.04938616071429  C 133.12109375000003 19.30217633928571  120.63020833333334 14.928571428571422  106 14.928571428571422  C 91.36979166666666 14.928571428571422  78.87890625 19.30217633928571  68.52734375 28.04938616071429  C 58.17578125 36.79659598214287  53 47.3515625  53 59.71428571428571  C 53 72.07700892857142  58.17578125 82.63197544642858  68.52734375 91.37918526785714  C 78.87890625 100.12639508928571  91.36979166666666 104.5  106 104.5  C 120.63020833333334 104.5  133.12109375000003 100.12639508928571  143.47265625 91.37918526785714  C 153.82421875 82.63197544642858  159 72.07700892857142  159 59.71428571428571  C 159 47.3515625  153.82421875 36.79659598214287  143.47265625 28.04938616071429  Z M 47.06510416666667 194  L 164.93489583333331 194  C 173.03211805555557 194.07142857142858  179.95616319444446 191.29175967261907  185.70703125 185.732421875  C 191.45789930555557 180.17308407738093  194.33333333333331 173.42801339285717  194.33333333333331 165.49720982142858  C 194.33333333333331 146.91424851190476  190.72178819444446 132.2578125  183.49869791666669 121.52790178571429  C 176.27560763888889 110.79799107142858  165.90104166666669 105.16090029761904  152.375 104.61662946428571  C 139.03298611111111 114.49125744047619  123.57465277777779 119.42857142857142  106 119.42857142857142  C 88.42534722222223 119.42857142857142  72.9670138888889 114.49125744047619  59.625 104.61662946428571  C 46.09895833333333 105.16090029761904  35.724392361111114 110.79799107142858  28.501302083333332 121.52790178571429  C 21.278211805555557 132.2578125  17.666666666666664 146.91424851190476  17.666666666666664 165.49720982142858  C 17.666666666666664 173.42801339285717  20.542100694444446 180.17308407738093  26.29296875 185.732421875  C 32.04383680555556 191.29175967261907  38.96788194444445 194.07142857142858  47.06510416666667 194  Z " fill-rule="evenodd" />
    </mask>
  </defs>
  <g transform="matrix(1 0 0 1 -141 -256 )">
    <path d="M 176.66666666666669 59.71428571428571  C 176.66666666666669 71.14397321428571  173.03211805555557 81.71837797619045  165.76302083333331 91.4375  C 170.08767361111114 92.52604166666666  174.20529513888889 94.00334821428571  178.11588541666669 95.86941964285714  C 182.02647569444446 97.73549107142858  186.12109375 100.57347470238093  190.39973958333331 104.38337053571429  C 194.67838541666669 108.19326636904762  198.3359375 112.68350074404762  201.37239583333331 117.85407366071429  C 204.40885416666669 123.02464657738093  206.93923611111114 129.71140252976187  208.96354166666669 137.91434151785717  C 210.9878472222222 146.11728050595238  212 155.3115699404762  212 165.49720982142858  C 212 177.47116815476193  207.39930555555554 187.71512276785714  198.19791666666669 196.22907366071428  C 188.9965277777778 204.74302455357142  177.90885416666669 209  164.93489583333331 209  L 47.06510416666667 209  C 34.09114583333333 209  23.003472222222225 204.74302455357142  13.802083333333334 196.22907366071428  C 4.600694444444444 187.71512276785714  0 177.47116815476193  0 165.49720982142858  C 0 155.3115699404762  1.0121527777777777 146.11728050595238  3.036458333333333 137.91434151785717  C 5.060763888888889 129.71140252976187  7.591145833333333 123.02464657738093  10.627604166666668 117.85407366071429  C 13.6640625 112.68350074404762  17.321614583333336 108.19326636904762  21.600260416666664 104.38337053571429  C 25.87890625 100.57347470238093  29.97352430555556 97.73549107142858  33.88411458333333 95.86941964285714  C 37.794704861111114 94.00334821428571  41.91232638888889 92.52604166666666  46.23697916666667 91.4375  C 38.96788194444445 81.71837797619045  35.33333333333333 71.14397321428571  35.33333333333333 59.71428571428571  C 35.33333333333333 51.62797619047617  37.19661458333333 43.91099330357142  40.92317708333333 36.56333705357142  C 44.64973958333333 29.215680803571423  49.6875 22.859375  56.036458333333336 17.49441964285713  C 62.385416666666664 12.129464285714288  69.90755208333334 7.872488839285711  78.60286458333334 4.723493303571422  C 87.29817708333334 1.574497767857133  96.43055555555557 0  106 0  C 115.56944444444446 0  124.70182291666667 1.574497767857133  133.39713541666669 4.723493303571422  C 142.09244791666669 7.872488839285711  149.61458333333331 12.129464285714288  155.96354166666669 17.49441964285713  C 162.3125 22.859375  167.35026041666669 29.215680803571423  171.07682291666669 36.56333705357142  C 174.80338541666669 43.91099330357142  176.66666666666669 51.62797619047617  176.66666666666669 59.71428571428571  Z M 143.47265625 28.04938616071429  C 133.12109375000003 19.30217633928571  120.63020833333334 14.928571428571422  106 14.928571428571422  C 91.36979166666666 14.928571428571422  78.87890625 19.30217633928571  68.52734375 28.04938616071429  C 58.17578125 36.79659598214287  53 47.3515625  53 59.71428571428571  C 53 72.07700892857142  58.17578125 82.63197544642858  68.52734375 91.37918526785714  C 78.87890625 100.12639508928571  91.36979166666666 104.5  106 104.5  C 120.63020833333334 104.5  133.12109375000003 100.12639508928571  143.47265625 91.37918526785714  C 153.82421875 82.63197544642858  159 72.07700892857142  159 59.71428571428571  C 159 47.3515625  153.82421875 36.79659598214287  143.47265625 28.04938616071429  Z M 47.06510416666667 194  L 164.93489583333331 194  C 173.03211805555557 194.07142857142858  179.95616319444446 191.29175967261907  185.70703125 185.732421875  C 191.45789930555557 180.17308407738093  194.33333333333331 173.42801339285717  194.33333333333331 165.49720982142858  C 194.33333333333331 146.91424851190476  190.72178819444446 132.2578125  183.49869791666669 121.52790178571429  C 176.27560763888889 110.79799107142858  165.90104166666669 105.16090029761904  152.375 104.61662946428571  C 139.03298611111111 114.49125744047619  123.57465277777779 119.42857142857142  106 119.42857142857142  C 88.42534722222223 119.42857142857142  72.9670138888889 114.49125744047619  59.625 104.61662946428571  C 46.09895833333333 105.16090029761904  35.724392361111114 110.79799107142858  28.501302083333332 121.52790178571429  C 21.278211805555557 132.2578125  17.666666666666664 146.91424851190476  17.666666666666664 165.49720982142858  C 17.666666666666664 173.42801339285717  20.542100694444446 180.17308407738093  26.29296875 185.732421875  C 32.04383680555556 191.29175967261907  38.96788194444445 194.07142857142858  47.06510416666667 194  Z " fill-rule="nonzero" fill="rgba(0, 0, 0, 1)" stroke="none" transform="matrix(1 0 0 1 141 256 )" class="fill" />
    <path d="M 176.66666666666669 59.71428571428571  C 176.66666666666669 71.14397321428571  173.03211805555557 81.71837797619045  165.76302083333331 91.4375  C 170.08767361111114 92.52604166666666  174.20529513888889 94.00334821428571  178.11588541666669 95.86941964285714  C 182.02647569444446 97.73549107142858  186.12109375 100.57347470238093  190.39973958333331 104.38337053571429  C 194.67838541666669 108.19326636904762  198.3359375 112.68350074404762  201.37239583333331 117.85407366071429  C 204.40885416666669 123.02464657738093  206.93923611111114 129.71140252976187  208.96354166666669 137.91434151785717  C 210.9878472222222 146.11728050595238  212 155.3115699404762  212 165.49720982142858  C 212 177.47116815476193  207.39930555555554 187.71512276785714  198.19791666666669 196.22907366071428  C 188.9965277777778 204.74302455357142  177.90885416666669 209  164.93489583333331 209  L 47.06510416666667 209  C 34.09114583333333 209  23.003472222222225 204.74302455357142  13.802083333333334 196.22907366071428  C 4.600694444444444 187.71512276785714  0 177.47116815476193  0 165.49720982142858  C 0 155.3115699404762  1.0121527777777777 146.11728050595238  3.036458333333333 137.91434151785717  C 5.060763888888889 129.71140252976187  7.591145833333333 123.02464657738093  10.627604166666668 117.85407366071429  C 13.6640625 112.68350074404762  17.321614583333336 108.19326636904762  21.600260416666664 104.38337053571429  C 25.87890625 100.57347470238093  29.97352430555556 97.73549107142858  33.88411458333333 95.86941964285714  C 37.794704861111114 94.00334821428571  41.91232638888889 92.52604166666666  46.23697916666667 91.4375  C 38.96788194444445 81.71837797619045  35.33333333333333 71.14397321428571  35.33333333333333 59.71428571428571  C 35.33333333333333 51.62797619047617  37.19661458333333 43.91099330357142  40.92317708333333 36.56333705357142  C 44.64973958333333 29.215680803571423  49.6875 22.859375  56.036458333333336 17.49441964285713  C 62.385416666666664 12.129464285714288  69.90755208333334 7.872488839285711  78.60286458333334 4.723493303571422  C 87.29817708333334 1.574497767857133  96.43055555555557 0  106 0  C 115.56944444444446 0  124.70182291666667 1.574497767857133  133.39713541666669 4.723493303571422  C 142.09244791666669 7.872488839285711  149.61458333333331 12.129464285714288  155.96354166666669 17.49441964285713  C 162.3125 22.859375  167.35026041666669 29.215680803571423  171.07682291666669 36.56333705357142  C 174.80338541666669 43.91099330357142  176.66666666666669 51.62797619047617  176.66666666666669 59.71428571428571  Z " stroke-width="0" stroke-dasharray="0" stroke="rgba(255, 255, 255, 0)" fill="none" transform="matrix(1 0 0 1 141 256 )" class="stroke" mask="url(#Clip1176)" />
    <path d="M 143.47265625 28.04938616071429  C 133.12109375000003 19.30217633928571  120.63020833333334 14.928571428571422  106 14.928571428571422  C 91.36979166666666 14.928571428571422  78.87890625 19.30217633928571  68.52734375 28.04938616071429  C 58.17578125 36.79659598214287  53 47.3515625  53 59.71428571428571  C 53 72.07700892857142  58.17578125 82.63197544642858  68.52734375 91.37918526785714  C 78.87890625 100.12639508928571  91.36979166666666 104.5  106 104.5  C 120.63020833333334 104.5  133.12109375000003 100.12639508928571  143.47265625 91.37918526785714  C 153.82421875 82.63197544642858  159 72.07700892857142  159 59.71428571428571  C 159 47.3515625  153.82421875 36.79659598214287  143.47265625 28.04938616071429  Z " stroke-width="0" stroke-dasharray="0" stroke="rgba(255, 255, 255, 0)" fill="none" transform="matrix(1 0 0 1 141 256 )" class="stroke" mask="url(#Clip1176)" />
    <path d="M 47.06510416666667 194  L 164.93489583333331 194  C 173.03211805555557 194.07142857142858  179.95616319444446 191.29175967261907  185.70703125 185.732421875  C 191.45789930555557 180.17308407738093  194.33333333333331 173.42801339285717  194.33333333333331 165.49720982142858  C 194.33333333333331 146.91424851190476  190.72178819444446 132.2578125  183.49869791666669 121.52790178571429  C 176.27560763888889 110.79799107142858  165.90104166666669 105.16090029761904  152.375 104.61662946428571  C 139.03298611111111 114.49125744047619  123.57465277777779 119.42857142857142  106 119.42857142857142  C 88.42534722222223 119.42857142857142  72.9670138888889 114.49125744047619  59.625 104.61662946428571  C 46.09895833333333 105.16090029761904  35.724392361111114 110.79799107142858  28.501302083333332 121.52790178571429  C 21.278211805555557 132.2578125  17.666666666666664 146.91424851190476  17.666666666666664 165.49720982142858  C 17.666666666666664 173.42801339285717  20.542100694444446 180.17308407738093  26.29296875 185.732421875  C 32.04383680555556 191.29175967261907  38.96788194444445 194.07142857142858  47.06510416666667 194  Z " stroke-width="0" stroke-dasharray="0" stroke="rgba(255, 255, 255, 0)" fill="none" transform="matrix(1 0 0 1 141 256 )" class="stroke" mask="url(#Clip1176)" />
  </g>
</svg>