<?xml version="1.0" encoding="utf-8"?>
<svg version="1.1" xmlns:xlink="http://www.w3.org/1999/xlink" width="164px" height="209px" xmlns="http://www.w3.org/2000/svg">
  <defs>
    <pattern id="BGPattern" patternUnits="userSpaceOnUse" alignment="0 0" imageRepeat="None" />
    <mask fill="white" id="Clip3">
      <path d="M 7.454545454545455 0  L 156.54545454545456 0  C 158.56439393939394 0  160.31155303030306 0.7386532738095415  161.7869318181818 2.2159598214285783  C 163.26231060606062 3.6932663690475915  164 5.442708333333326  164 7.464285714285711  L 164 201.53571428571428  C 164 203.55729166666666  163.26231060606062 205.30673363095235  161.7869318181818 206.78404017857142  C 160.31155303030306 208.26134672619048  158.56439393939394 209  156.54545454545456 209  L 7.454545454545455 209  C 5.435606060606061 209  3.6884469696969697 208.26134672619048  2.2130681818181817 206.78404017857142  C 0.7376893939393938 205.30673363095235  0 203.55729166666666  0 201.53571428571428  L 0 7.464285714285711  C 0 5.442708333333326  0.7376893939393938 3.6932663690475915  2.2130681818181817 2.2159598214285783  C 3.6884469696969697 0.7386532738095415  5.435606060606061 0  7.454545454545455 0  Z M 60.68465909090909 30.90680803571429  C 59.98579545454546 31.606584821428577  59.63636363636364 32.50074404761904  59.63636363636364 33.58928571428571  L 59.63636363636364 41.05357142857142  C 59.63636363636364 42.142113095238095  59.98579545454546 43.03627232142858  60.68465909090909 43.73604910714287  C 61.38352272727273 44.43582589285713  62.27651515151516 44.78571428571429  63.36363636363636 44.78571428571429  L 70.81818181818181 44.78571428571429  C 71.90530303030303 44.78571428571429  72.79829545454545 44.43582589285713  73.4971590909091 43.73604910714287  C 74.19602272727272 43.03627232142858  74.54545454545455 42.142113095238095  74.54545454545455 41.05357142857142  L 74.54545454545455 33.58928571428571  C 74.54545454545455 32.50074404761904  74.19602272727272 31.606584821428577  73.4971590909091 30.90680803571429  C 72.79829545454545 30.20703125  71.90530303030303 29.85714285714287  70.81818181818181 29.85714285714287  L 63.36363636363636 29.85714285714287  C 62.27651515151516 29.85714285714287  61.38352272727273 30.20703125  60.68465909090909 30.90680803571429  Z M 60.68465909090909 60.76395089285713  C 59.98579545454546 61.46372767857142  59.63636363636364 62.357886904761884  59.63636363636364 63.44642857142858  L 59.63636363636364 70.91071428571429  C 59.63636363636364 71.99925595238093  59.98579545454546 72.89341517857142  60.68465909090909 73.59319196428571  C 61.38352272727273 74.29296875  62.27651515151516 74.64285714285714  63.36363636363636 74.64285714285714  L 70.81818181818181 74.64285714285714  C 71.90530303030303 74.64285714285714  72.79829545454545 74.29296875  73.4971590909091 73.59319196428571  C 74.19602272727272 72.89341517857142  74.54545454545455 71.99925595238093  74.54545454545455 70.91071428571429  L 74.54545454545455 63.44642857142858  C 74.54545454545455 62.357886904761884  74.19602272727272 61.46372767857142  73.4971590909091 60.76395089285713  C 72.79829545454545 60.06417410714287  71.90530303030303 59.71428571428571  70.81818181818181 59.71428571428571  L 63.36363636363636 59.71428571428571  C 62.27651515151516 59.71428571428571  61.38352272727273 60.06417410714287  60.68465909090909 60.76395089285713  Z M 60.68465909090909 90.62109375  C 59.98579545454546 91.32087053571429  59.63636363636364 92.21502976190474  59.63636363636364 93.30357142857142  L 59.63636363636364 100.76785714285714  C 59.63636363636364 101.85639880952381  59.98579545454546 102.75055803571429  60.68465909090909 103.45033482142858  C 61.38352272727273 104.15011160714286  62.27651515151516 104.5  63.36363636363636 104.5  L 70.81818181818181 104.5  C 71.90530303030303 104.5  72.79829545454545 104.15011160714286  73.4971590909091 103.45033482142858  C 74.19602272727272 102.75055803571429  74.54545454545455 101.85639880952381  74.54545454545455 100.76785714285714  L 74.54545454545455 93.30357142857142  C 74.54545454545455 92.21502976190474  74.19602272727272 91.32087053571429  73.4971590909091 90.62109375  C 72.79829545454545 89.92131696428571  71.90530303030303 89.57142857142858  70.81818181818181 89.57142857142858  L 63.36363636363636 89.57142857142858  C 62.27651515151516 89.57142857142858  61.38352272727273 89.92131696428571  60.68465909090909 90.62109375  Z M 60.68465909090909 120.47823660714285  C 59.98579545454546 121.17801339285715  59.63636363636364 122.07217261904762  59.63636363636364 123.16071428571429  L 59.63636363636364 130.625  C 59.63636363636364 131.71354166666666  59.98579545454546 132.60770089285717  60.68465909090909 133.30747767857142  C 61.38352272727273 134.00725446428572  62.27651515151516 134.35714285714283  63.36363636363636 134.35714285714283  L 70.81818181818181 134.35714285714283  C 71.90530303030303 134.35714285714283  72.79829545454545 134.00725446428572  73.4971590909091 133.30747767857142  C 74.19602272727272 132.60770089285717  74.54545454545455 131.71354166666666  74.54545454545455 130.625  L 74.54545454545455 123.16071428571429  C 74.54545454545455 122.07217261904762  74.19602272727272 121.17801339285715  73.4971590909091 120.47823660714285  C 72.79829545454545 119.77845982142858  71.90530303030303 119.42857142857142  70.81818181818181 119.42857142857142  L 63.36363636363636 119.42857142857142  C 62.27651515151516 119.42857142857142  61.38352272727273 119.77845982142858  60.68465909090909 120.47823660714285  Z M 43.67897727272727 163.16462053571428  C 44.37784090909091 162.46484375  44.72727272727273 161.57068452380952  44.72727272727273 160.48214285714283  L 44.72727272727273 153.01785714285717  C 44.72727272727273 151.92931547619048  44.37784090909091 151.03515625  43.67897727272727 150.33537946428572  C 42.98011363636364 149.63560267857142  42.08712121212122 149.28571428571428  41 149.28571428571428  L 33.54545454545455 149.28571428571428  C 32.458333333333336 149.28571428571428  31.56534090909091 149.63560267857142  30.86647727272727 150.33537946428572  C 30.167613636363637 151.03515625  29.81818181818182 151.92931547619048  29.81818181818182 153.01785714285717  L 29.81818181818182 160.48214285714283  C 29.81818181818182 161.57068452380952  30.167613636363637 162.46484375  30.86647727272727 163.16462053571428  C 31.56534090909091 163.86439732142858  32.458333333333336 164.21428571428572  33.54545454545455 164.21428571428572  L 41 164.21428571428572  C 42.08712121212122 164.21428571428572  42.98011363636364 163.86439732142858  43.67897727272727 163.16462053571428  Z M 43.67897727272727 133.30747767857142  C 44.37784090909091 132.60770089285717  44.72727272727273 131.71354166666666  44.72727272727273 130.625  L 44.72727272727273 123.16071428571429  C 44.72727272727273 122.07217261904762  44.37784090909091 121.17801339285715  43.67897727272727 120.47823660714285  C 42.98011363636364 119.77845982142858  42.08712121212122 119.42857142857142  41 119.42857142857142  L 33.54545454545455 119.42857142857142  C 32.458333333333336 119.42857142857142  31.56534090909091 119.77845982142858  30.86647727272727 120.47823660714285  C 30.167613636363637 121.17801339285715  29.81818181818182 122.07217261904762  29.81818181818182 123.16071428571429  L 29.81818181818182 130.625  C 29.81818181818182 131.71354166666666  30.167613636363637 132.60770089285717  30.86647727272727 133.30747767857142  C 31.56534090909091 134.00725446428572  32.458333333333336 134.35714285714283  33.54545454545455 134.35714285714283  L 41 134.35714285714283  C 42.08712121212122 134.35714285714283  42.98011363636364 134.00725446428572  43.67897727272727 133.30747767857142  Z M 43.67897727272727 103.45033482142858  C 44.37784090909091 102.75055803571429  44.72727272727273 101.85639880952381  44.72727272727273 100.76785714285714  L 44.72727272727273 93.30357142857142  C 44.72727272727273 92.21502976190474  44.37784090909091 91.32087053571429  43.67897727272727 90.62109375  C 42.98011363636364 89.92131696428571  42.08712121212122 89.57142857142858  41 89.57142857142858  L 33.54545454545455 89.57142857142858  C 32.458333333333336 89.57142857142858  31.56534090909091 89.92131696428571  30.86647727272727 90.62109375  C 30.167613636363637 91.32087053571429  29.81818181818182 92.21502976190474  29.81818181818182 93.30357142857142  L 29.81818181818182 100.76785714285714  C 29.81818181818182 101.85639880952381  30.167613636363637 102.75055803571429  30.86647727272727 103.45033482142858  C 31.56534090909091 104.15011160714286  32.458333333333336 104.5  33.54545454545455 104.5  L 41 104.5  C 42.08712121212122 104.5  42.98011363636364 104.15011160714286  43.67897727272727 103.45033482142858  Z M 43.67897727272727 73.59319196428571  C 44.37784090909091 72.89341517857142  44.72727272727273 71.99925595238093  44.72727272727273 70.91071428571429  L 44.72727272727273 63.44642857142858  C 44.72727272727273 62.357886904761884  44.37784090909091 61.46372767857142  43.67897727272727 60.76395089285713  C 42.98011363636364 60.06417410714287  42.08712121212122 59.71428571428571  41 59.71428571428571  L 33.54545454545455 59.71428571428571  C 32.458333333333336 59.71428571428571  31.56534090909091 60.06417410714287  30.86647727272727 60.76395089285713  C 30.167613636363637 61.46372767857142  29.81818181818182 62.357886904761884  29.81818181818182 63.44642857142858  L 29.81818181818182 70.91071428571429  C 29.81818181818182 71.99925595238093  30.167613636363637 72.89341517857142  30.86647727272727 73.59319196428571  C 31.56534090909091 74.29296875  32.458333333333336 74.64285714285714  33.54545454545455 74.64285714285714  L 41 74.64285714285714  C 42.08712121212122 74.64285714285714  42.98011363636364 74.29296875  43.67897727272727 73.59319196428571  Z M 43.67897727272727 43.73604910714287  C 44.37784090909091 43.03627232142858  44.72727272727273 42.142113095238095  44.72727272727273 41.05357142857142  L 44.72727272727273 33.58928571428571  C 44.72727272727273 32.50074404761904  44.37784090909091 31.606584821428577  43.67897727272727 30.90680803571429  C 42.98011363636364 30.20703125  42.08712121212122 29.85714285714287  41 29.85714285714287  L 33.54545454545455 29.85714285714287  C 32.458333333333336 29.85714285714287  31.56534090909091 30.20703125  30.86647727272727 30.90680803571429  C 30.167613636363637 31.606584821428577  29.81818181818182 32.50074404761904  29.81818181818182 33.58928571428571  L 29.81818181818182 41.05357142857142  C 29.81818181818182 42.142113095238095  30.167613636363637 43.03627232142858  30.86647727272727 43.73604910714287  C 31.56534090909091 44.43582589285713  32.458333333333336 44.78571428571429  33.54545454545455 44.78571428571429  L 41 44.78571428571429  C 42.08712121212122 44.78571428571429  42.98011363636364 44.43582589285713  43.67897727272727 43.73604910714287  Z M 103.31534090909092 193.02176339285714  C 104.01420454545455 192.32198660714286  104.36363636363636 191.42782738095235  104 190.33928571428572  L 104 167.94642857142858  C 104.36363636363636 166.85788690476193  104.01420454545455 165.96372767857142  103.31534090909092 165.26395089285717  C 102.61647727272728 164.56417410714283  101.72348484848484 164.21428571428572  100.63636363636364 164  L 63.36363636363636 164  C 62.27651515151516 164.21428571428572  61.38352272727273 164.56417410714283  60.68465909090909 165.26395089285717  C 59.98579545454546 165.96372767857142  59.63636363636364 166.85788690476193  60 167.94642857142858  L 60 190.33928571428572  C 59.63636363636364 191.42782738095235  59.98579545454546 192.32198660714286  60.68465909090909 193.02176339285714  C 61.38352272727273 193.72154017857142  62.27651515151516 194.07142857142858  63.36363636363636 194  L 100.63636363636364 194  C 101.72348484848484 194.07142857142858  102.61647727272728 193.72154017857142  103.31534090909092 193.02176339285714  Z M 103.31534090909092 133.30747767857142  C 104.01420454545455 132.60770089285717  104.36363636363636 131.71354166666666  104.36363636363636 130.625  L 104.36363636363636 123.16071428571429  C 104.36363636363636 122.07217261904762  104.01420454545455 121.17801339285715  103.31534090909092 120.47823660714285  C 102.61647727272728 119.77845982142858  101.72348484848484 119.42857142857142  100.63636363636364 119.42857142857142  L 93.18181818181819 119.42857142857142  C 92.09469696969698 119.42857142857142  91.20170454545455 119.77845982142858  90.50284090909092 120.47823660714285  C 89.80397727272728 121.17801339285715  89.45454545454545 122.07217261904762  89.45454545454545 123.16071428571429  L 89.45454545454545 130.625  C 89.45454545454545 131.71354166666666  89.80397727272728 132.60770089285717  90.50284090909092 133.30747767857142  C 91.20170454545455 134.00725446428572  92.09469696969698 134.35714285714283  93.18181818181819 134.35714285714283  L 100.63636363636364 134.35714285714283  C 101.72348484848484 134.35714285714283  102.61647727272728 134.00725446428572  103.31534090909092 133.30747767857142  Z M 103.31534090909092 103.45033482142858  C 104.01420454545455 102.75055803571429  104.36363636363636 101.85639880952381  104.36363636363636 100.76785714285714  L 104.36363636363636 93.30357142857142  C 104.36363636363636 92.21502976190474  104.01420454545455 91.32087053571429  103.31534090909092 90.62109375  C 102.61647727272728 89.92131696428571  101.72348484848484 89.57142857142858  100.63636363636364 89.57142857142858  L 93.18181818181819 89.57142857142858  C 92.09469696969698 89.57142857142858  91.20170454545455 89.92131696428571  90.50284090909092 90.62109375  C 89.80397727272728 91.32087053571429  89.45454545454545 92.21502976190474  89.45454545454545 93.30357142857142  L 89.45454545454545 100.76785714285714  C 89.45454545454545 101.85639880952381  89.80397727272728 102.75055803571429  90.50284090909092 103.45033482142858  C 91.20170454545455 104.15011160714286  92.09469696969698 104.5  93.18181818181819 104.5  L 100.63636363636364 104.5  C 101.72348484848484 104.5  102.61647727272728 104.15011160714286  103.31534090909092 103.45033482142858  Z M 103.31534090909092 73.59319196428571  C 104.01420454545455 72.89341517857142  104.36363636363636 71.99925595238093  104.36363636363636 70.91071428571429  L 104.36363636363636 63.44642857142858  C 104.36363636363636 62.357886904761884  104.01420454545455 61.46372767857142  103.31534090909092 60.76395089285713  C 102.61647727272728 60.06417410714287  101.72348484848484 59.71428571428571  100.63636363636364 59.71428571428571  L 93.18181818181819 59.71428571428571  C 92.09469696969698 59.71428571428571  91.20170454545455 60.06417410714287  90.50284090909092 60.76395089285713  C 89.80397727272728 61.46372767857142  89.45454545454545 62.357886904761884  89.45454545454545 63.44642857142858  L 89.45454545454545 70.91071428571429  C 89.45454545454545 71.99925595238093  89.80397727272728 72.89341517857142  90.50284090909092 73.59319196428571  C 91.20170454545455 74.29296875  92.09469696969698 74.64285714285714  93.18181818181819 74.64285714285714  L 100.63636363636364 74.64285714285714  C 101.72348484848484 74.64285714285714  102.61647727272728 74.29296875  103.31534090909092 73.59319196428571  Z M 103.31534090909092 43.73604910714287  C 104.01420454545455 43.03627232142858  104.36363636363636 42.142113095238095  104.36363636363636 41.05357142857142  L 104.36363636363636 33.58928571428571  C 104.36363636363636 32.50074404761904  104.01420454545455 31.606584821428577  103.31534090909092 30.90680803571429  C 102.61647727272728 30.20703125  101.72348484848484 29.85714285714287  100.63636363636364 29.85714285714287  L 93.18181818181819 29.85714285714287  C 92.09469696969698 29.85714285714287  91.20170454545455 30.20703125  90.50284090909092 30.90680803571429  C 89.80397727272728 31.606584821428577  89.45454545454545 32.50074404761904  89.45454545454545 33.58928571428571  L 89.45454545454545 41.05357142857142  C 89.45454545454545 42.142113095238095  89.80397727272728 43.03627232142858  90.50284090909092 43.73604910714287  C 91.20170454545455 44.43582589285713  92.09469696969698 44.78571428571429  93.18181818181819 44.78571428571429  L 100.63636363636364 44.78571428571429  C 101.72348484848484 44.78571428571429  102.61647727272728 44.43582589285713  103.31534090909092 43.73604910714287  Z M 133.13352272727272 163.16462053571428  C 133.83238636363637 162.46484375  134.1818181818182 161.57068452380952  134.1818181818182 160.48214285714283  L 134.1818181818182 153.01785714285717  C 134.1818181818182 151.92931547619048  133.83238636363637 151.03515625  133.13352272727272 150.33537946428572  C 132.4346590909091 149.63560267857142  131.54166666666669 149.28571428571428  130.45454545454544 149.28571428571428  L 123 149.28571428571428  C 121.9128787878788 149.28571428571428  121.01988636363636 149.63560267857142  120.32102272727272 150.33537946428572  C 119.62215909090908 151.03515625  119.27272727272728 151.92931547619048  119.27272727272728 153.01785714285717  L 119.27272727272728 160.48214285714283  C 119.27272727272728 161.57068452380952  119.62215909090908 162.46484375  120.32102272727272 163.16462053571428  C 121.01988636363636 163.86439732142858  121.9128787878788 164.21428571428572  123 164.21428571428572  L 130.45454545454544 164.21428571428572  C 131.54166666666669 164.21428571428572  132.4346590909091 163.86439732142858  133.13352272727272 163.16462053571428  Z M 133.13352272727272 133.30747767857142  C 133.83238636363637 132.60770089285717  134.1818181818182 131.71354166666666  134.1818181818182 130.625  L 134.1818181818182 123.16071428571429  C 134.1818181818182 122.07217261904762  133.83238636363637 121.17801339285715  133.13352272727272 120.47823660714285  C 132.4346590909091 119.77845982142858  131.54166666666669 119.42857142857142  130.45454545454544 119.42857142857142  L 123 119.42857142857142  C 121.9128787878788 119.42857142857142  121.01988636363636 119.77845982142858  120.32102272727272 120.47823660714285  C 119.62215909090908 121.17801339285715  119.27272727272728 122.07217261904762  119.27272727272728 123.16071428571429  L 119.27272727272728 130.625  C 119.27272727272728 131.71354166666666  119.62215909090908 132.60770089285717  120.32102272727272 133.30747767857142  C 121.01988636363636 134.00725446428572  121.9128787878788 134.35714285714283  123 134.35714285714283  L 130.45454545454544 134.35714285714283  C 131.54166666666669 134.35714285714283  132.4346590909091 134.00725446428572  133.13352272727272 133.30747767857142  Z M 133.13352272727272 103.45033482142858  C 133.83238636363637 102.75055803571429  134.1818181818182 101.85639880952381  134.1818181818182 100.76785714285714  L 134.1818181818182 93.30357142857142  C 134.1818181818182 92.21502976190474  133.83238636363637 91.32087053571429  133.13352272727272 90.62109375  C 132.4346590909091 89.92131696428571  131.54166666666669 89.57142857142858  130.45454545454544 89.57142857142858  L 123 89.57142857142858  C 121.9128787878788 89.57142857142858  121.01988636363636 89.92131696428571  120.32102272727272 90.62109375  C 119.62215909090908 91.32087053571429  119.27272727272728 92.21502976190474  119.27272727272728 93.30357142857142  L 119.27272727272728 100.76785714285714  C 119.27272727272728 101.85639880952381  119.62215909090908 102.75055803571429  120.32102272727272 103.45033482142858  C 121.01988636363636 104.15011160714286  121.9128787878788 104.5  123 104.5  L 130.45454545454544 104.5  C 131.54166666666669 104.5  132.4346590909091 104.15011160714286  133.13352272727272 103.45033482142858  Z M 133.13352272727272 73.59319196428571  C 133.83238636363637 72.89341517857142  134.1818181818182 71.99925595238093  134.1818181818182 70.91071428571429  L 134.1818181818182 63.44642857142858  C 134.1818181818182 62.357886904761884  133.83238636363637 61.46372767857142  133.13352272727272 60.76395089285713  C 132.4346590909091 60.06417410714287  131.54166666666669 59.71428571428571  130.45454545454544 59.71428571428571  L 123 59.71428571428571  C 121.9128787878788 59.71428571428571  121.01988636363636 60.06417410714287  120.32102272727272 60.76395089285713  C 119.62215909090908 61.46372767857142  119.27272727272728 62.357886904761884  119.27272727272728 63.44642857142858  L 119.27272727272728 70.91071428571429  C 119.27272727272728 71.99925595238093  119.62215909090908 72.89341517857142  120.32102272727272 73.59319196428571  C 121.01988636363636 74.29296875  121.9128787878788 74.64285714285714  123 74.64285714285714  L 130.45454545454544 74.64285714285714  C 131.54166666666669 74.64285714285714  132.4346590909091 74.29296875  133.13352272727272 73.59319196428571  Z M 133.13352272727272 43.73604910714287  C 133.83238636363637 43.03627232142858  134.1818181818182 42.142113095238095  134.1818181818182 41.05357142857142  L 134.1818181818182 33.58928571428571  C 134.1818181818182 32.50074404761904  133.83238636363637 31.606584821428577  133.13352272727272 30.90680803571429  C 132.4346590909091 30.20703125  131.54166666666669 29.85714285714287  130.45454545454544 29.85714285714287  L 123 29.85714285714287  C 121.9128787878788 29.85714285714287  121.01988636363636 30.20703125  120.32102272727272 30.90680803571429  C 119.62215909090908 31.606584821428577  119.27272727272728 32.50074404761904  119.27272727272728 33.58928571428571  L 119.27272727272728 41.05357142857142  C 119.27272727272728 42.142113095238095  119.62215909090908 43.03627232142858  120.32102272727272 43.73604910714287  C 121.01988636363636 44.43582589285713  121.9128787878788 44.78571428571429  123 44.78571428571429  L 130.45454545454544 44.78571428571429  C 131.54166666666669 44.78571428571429  132.4346590909091 44.43582589285713  133.13352272727272 43.73604910714287  Z " fill-rule="evenodd" />
    </mask>
  </defs>
  <g transform="matrix(1 0 0 1 -528 -256 )">
    <path d="M 7.454545454545455 0  L 156.54545454545456 0  C 158.56439393939394 0  160.31155303030306 0.7386532738095415  161.7869318181818 2.2159598214285783  C 163.26231060606062 3.6932663690475915  164 5.442708333333326  164 7.464285714285711  L 164 201.53571428571428  C 164 203.55729166666666  163.26231060606062 205.30673363095235  161.7869318181818 206.78404017857142  C 160.31155303030306 208.26134672619048  158.56439393939394 209  156.54545454545456 209  L 7.454545454545455 209  C 5.435606060606061 209  3.6884469696969697 208.26134672619048  2.2130681818181817 206.78404017857142  C 0.7376893939393938 205.30673363095235  0 203.55729166666666  0 201.53571428571428  L 0 7.464285714285711  C 0 5.442708333333326  0.7376893939393938 3.6932663690475915  2.2130681818181817 2.2159598214285783  C 3.6884469696969697 0.7386532738095415  5.435606060606061 0  7.454545454545455 0  Z M 60.68465909090909 30.90680803571429  C 59.98579545454546 31.606584821428577  59.63636363636364 32.50074404761904  59.63636363636364 33.58928571428571  L 59.63636363636364 41.05357142857142  C 59.63636363636364 42.142113095238095  59.98579545454546 43.03627232142858  60.68465909090909 43.73604910714287  C 61.38352272727273 44.43582589285713  62.27651515151516 44.78571428571429  63.36363636363636 44.78571428571429  L 70.81818181818181 44.78571428571429  C 71.90530303030303 44.78571428571429  72.79829545454545 44.43582589285713  73.4971590909091 43.73604910714287  C 74.19602272727272 43.03627232142858  74.54545454545455 42.142113095238095  74.54545454545455 41.05357142857142  L 74.54545454545455 33.58928571428571  C 74.54545454545455 32.50074404761904  74.19602272727272 31.606584821428577  73.4971590909091 30.90680803571429  C 72.79829545454545 30.20703125  71.90530303030303 29.85714285714287  70.81818181818181 29.85714285714287  L 63.36363636363636 29.85714285714287  C 62.27651515151516 29.85714285714287  61.38352272727273 30.20703125  60.68465909090909 30.90680803571429  Z M 60.68465909090909 60.76395089285713  C 59.98579545454546 61.46372767857142  59.63636363636364 62.357886904761884  59.63636363636364 63.44642857142858  L 59.63636363636364 70.91071428571429  C 59.63636363636364 71.99925595238093  59.98579545454546 72.89341517857142  60.68465909090909 73.59319196428571  C 61.38352272727273 74.29296875  62.27651515151516 74.64285714285714  63.36363636363636 74.64285714285714  L 70.81818181818181 74.64285714285714  C 71.90530303030303 74.64285714285714  72.79829545454545 74.29296875  73.4971590909091 73.59319196428571  C 74.19602272727272 72.89341517857142  74.54545454545455 71.99925595238093  74.54545454545455 70.91071428571429  L 74.54545454545455 63.44642857142858  C 74.54545454545455 62.357886904761884  74.19602272727272 61.46372767857142  73.4971590909091 60.76395089285713  C 72.79829545454545 60.06417410714287  71.90530303030303 59.71428571428571  70.81818181818181 59.71428571428571  L 63.36363636363636 59.71428571428571  C 62.27651515151516 59.71428571428571  61.38352272727273 60.06417410714287  60.68465909090909 60.76395089285713  Z M 60.68465909090909 90.62109375  C 59.98579545454546 91.32087053571429  59.63636363636364 92.21502976190474  59.63636363636364 93.30357142857142  L 59.63636363636364 100.76785714285714  C 59.63636363636364 101.85639880952381  59.98579545454546 102.75055803571429  60.68465909090909 103.45033482142858  C 61.38352272727273 104.15011160714286  62.27651515151516 104.5  63.36363636363636 104.5  L 70.81818181818181 104.5  C 71.90530303030303 104.5  72.79829545454545 104.15011160714286  73.4971590909091 103.45033482142858  C 74.19602272727272 102.75055803571429  74.54545454545455 101.85639880952381  74.54545454545455 100.76785714285714  L 74.54545454545455 93.30357142857142  C 74.54545454545455 92.21502976190474  74.19602272727272 91.32087053571429  73.4971590909091 90.62109375  C 72.79829545454545 89.92131696428571  71.90530303030303 89.57142857142858  70.81818181818181 89.57142857142858  L 63.36363636363636 89.57142857142858  C 62.27651515151516 89.57142857142858  61.38352272727273 89.92131696428571  60.68465909090909 90.62109375  Z M 60.68465909090909 120.47823660714285  C 59.98579545454546 121.17801339285715  59.63636363636364 122.07217261904762  59.63636363636364 123.16071428571429  L 59.63636363636364 130.625  C 59.63636363636364 131.71354166666666  59.98579545454546 132.60770089285717  60.68465909090909 133.30747767857142  C 61.38352272727273 134.00725446428572  62.27651515151516 134.35714285714283  63.36363636363636 134.35714285714283  L 70.81818181818181 134.35714285714283  C 71.90530303030303 134.35714285714283  72.79829545454545 134.00725446428572  73.4971590909091 133.30747767857142  C 74.19602272727272 132.60770089285717  74.54545454545455 131.71354166666666  74.54545454545455 130.625  L 74.54545454545455 123.16071428571429  C 74.54545454545455 122.07217261904762  74.19602272727272 121.17801339285715  73.4971590909091 120.47823660714285  C 72.79829545454545 119.77845982142858  71.90530303030303 119.42857142857142  70.81818181818181 119.42857142857142  L 63.36363636363636 119.42857142857142  C 62.27651515151516 119.42857142857142  61.38352272727273 119.77845982142858  60.68465909090909 120.47823660714285  Z M 43.67897727272727 163.16462053571428  C 44.37784090909091 162.46484375  44.72727272727273 161.57068452380952  44.72727272727273 160.48214285714283  L 44.72727272727273 153.01785714285717  C 44.72727272727273 151.92931547619048  44.37784090909091 151.03515625  43.67897727272727 150.33537946428572  C 42.98011363636364 149.63560267857142  42.08712121212122 149.28571428571428  41 149.28571428571428  L 33.54545454545455 149.28571428571428  C 32.458333333333336 149.28571428571428  31.56534090909091 149.63560267857142  30.86647727272727 150.33537946428572  C 30.167613636363637 151.03515625  29.81818181818182 151.92931547619048  29.81818181818182 153.01785714285717  L 29.81818181818182 160.48214285714283  C 29.81818181818182 161.57068452380952  30.167613636363637 162.46484375  30.86647727272727 163.16462053571428  C 31.56534090909091 163.86439732142858  32.458333333333336 164.21428571428572  33.54545454545455 164.21428571428572  L 41 164.21428571428572  C 42.08712121212122 164.21428571428572  42.98011363636364 163.86439732142858  43.67897727272727 163.16462053571428  Z M 43.67897727272727 133.30747767857142  C 44.37784090909091 132.60770089285717  44.72727272727273 131.71354166666666  44.72727272727273 130.625  L 44.72727272727273 123.16071428571429  C 44.72727272727273 122.07217261904762  44.37784090909091 121.17801339285715  43.67897727272727 120.47823660714285  C 42.98011363636364 119.77845982142858  42.08712121212122 119.42857142857142  41 119.42857142857142  L 33.54545454545455 119.42857142857142  C 32.458333333333336 119.42857142857142  31.56534090909091 119.77845982142858  30.86647727272727 120.47823660714285  C 30.167613636363637 121.17801339285715  29.81818181818182 122.07217261904762  29.81818181818182 123.16071428571429  L 29.81818181818182 130.625  C 29.81818181818182 131.71354166666666  30.167613636363637 132.60770089285717  30.86647727272727 133.30747767857142  C 31.56534090909091 134.00725446428572  32.458333333333336 134.35714285714283  33.54545454545455 134.35714285714283  L 41 134.35714285714283  C 42.08712121212122 134.35714285714283  42.98011363636364 134.00725446428572  43.67897727272727 133.30747767857142  Z M 43.67897727272727 103.45033482142858  C 44.37784090909091 102.75055803571429  44.72727272727273 101.85639880952381  44.72727272727273 100.76785714285714  L 44.72727272727273 93.30357142857142  C 44.72727272727273 92.21502976190474  44.37784090909091 91.32087053571429  43.67897727272727 90.62109375  C 42.98011363636364 89.92131696428571  42.08712121212122 89.57142857142858  41 89.57142857142858  L 33.54545454545455 89.57142857142858  C 32.458333333333336 89.57142857142858  31.56534090909091 89.92131696428571  30.86647727272727 90.62109375  C 30.167613636363637 91.32087053571429  29.81818181818182 92.21502976190474  29.81818181818182 93.30357142857142  L 29.81818181818182 100.76785714285714  C 29.81818181818182 101.85639880952381  30.167613636363637 102.75055803571429  30.86647727272727 103.45033482142858  C 31.56534090909091 104.15011160714286  32.458333333333336 104.5  33.54545454545455 104.5  L 41 104.5  C 42.08712121212122 104.5  42.98011363636364 104.15011160714286  43.67897727272727 103.45033482142858  Z M 43.67897727272727 73.59319196428571  C 44.37784090909091 72.89341517857142  44.72727272727273 71.99925595238093  44.72727272727273 70.91071428571429  L 44.72727272727273 63.44642857142858  C 44.72727272727273 62.357886904761884  44.37784090909091 61.46372767857142  43.67897727272727 60.76395089285713  C 42.98011363636364 60.06417410714287  42.08712121212122 59.71428571428571  41 59.71428571428571  L 33.54545454545455 59.71428571428571  C 32.458333333333336 59.71428571428571  31.56534090909091 60.06417410714287  30.86647727272727 60.76395089285713  C 30.167613636363637 61.46372767857142  29.81818181818182 62.357886904761884  29.81818181818182 63.44642857142858  L 29.81818181818182 70.91071428571429  C 29.81818181818182 71.99925595238093  30.167613636363637 72.89341517857142  30.86647727272727 73.59319196428571  C 31.56534090909091 74.29296875  32.458333333333336 74.64285714285714  33.54545454545455 74.64285714285714  L 41 74.64285714285714  C 42.08712121212122 74.64285714285714  42.98011363636364 74.29296875  43.67897727272727 73.59319196428571  Z M 43.67897727272727 43.73604910714287  C 44.37784090909091 43.03627232142858  44.72727272727273 42.142113095238095  44.72727272727273 41.05357142857142  L 44.72727272727273 33.58928571428571  C 44.72727272727273 32.50074404761904  44.37784090909091 31.606584821428577  43.67897727272727 30.90680803571429  C 42.98011363636364 30.20703125  42.08712121212122 29.85714285714287  41 29.85714285714287  L 33.54545454545455 29.85714285714287  C 32.458333333333336 29.85714285714287  31.56534090909091 30.20703125  30.86647727272727 30.90680803571429  C 30.167613636363637 31.606584821428577  29.81818181818182 32.50074404761904  29.81818181818182 33.58928571428571  L 29.81818181818182 41.05357142857142  C 29.81818181818182 42.142113095238095  30.167613636363637 43.03627232142858  30.86647727272727 43.73604910714287  C 31.56534090909091 44.43582589285713  32.458333333333336 44.78571428571429  33.54545454545455 44.78571428571429  L 41 44.78571428571429  C 42.08712121212122 44.78571428571429  42.98011363636364 44.43582589285713  43.67897727272727 43.73604910714287  Z M 103.31534090909092 193.02176339285714  C 104.01420454545455 192.32198660714286  104.36363636363636 191.42782738095235  104 190.33928571428572  L 104 167.94642857142858  C 104.36363636363636 166.85788690476193  104.01420454545455 165.96372767857142  103.31534090909092 165.26395089285717  C 102.61647727272728 164.56417410714283  101.72348484848484 164.21428571428572  100.63636363636364 164  L 63.36363636363636 164  C 62.27651515151516 164.21428571428572  61.38352272727273 164.56417410714283  60.68465909090909 165.26395089285717  C 59.98579545454546 165.96372767857142  59.63636363636364 166.85788690476193  60 167.94642857142858  L 60 190.33928571428572  C 59.63636363636364 191.42782738095235  59.98579545454546 192.32198660714286  60.68465909090909 193.02176339285714  C 61.38352272727273 193.72154017857142  62.27651515151516 194.07142857142858  63.36363636363636 194  L 100.63636363636364 194  C 101.72348484848484 194.07142857142858  102.61647727272728 193.72154017857142  103.31534090909092 193.02176339285714  Z M 103.31534090909092 133.30747767857142  C 104.01420454545455 132.60770089285717  104.36363636363636 131.71354166666666  104.36363636363636 130.625  L 104.36363636363636 123.16071428571429  C 104.36363636363636 122.07217261904762  104.01420454545455 121.17801339285715  103.31534090909092 120.47823660714285  C 102.61647727272728 119.77845982142858  101.72348484848484 119.42857142857142  100.63636363636364 119.42857142857142  L 93.18181818181819 119.42857142857142  C 92.09469696969698 119.42857142857142  91.20170454545455 119.77845982142858  90.50284090909092 120.47823660714285  C 89.80397727272728 121.17801339285715  89.45454545454545 122.07217261904762  89.45454545454545 123.16071428571429  L 89.45454545454545 130.625  C 89.45454545454545 131.71354166666666  89.80397727272728 132.60770089285717  90.50284090909092 133.30747767857142  C 91.20170454545455 134.00725446428572  92.09469696969698 134.35714285714283  93.18181818181819 134.35714285714283  L 100.63636363636364 134.35714285714283  C 101.72348484848484 134.35714285714283  102.61647727272728 134.00725446428572  103.31534090909092 133.30747767857142  Z M 103.31534090909092 103.45033482142858  C 104.01420454545455 102.75055803571429  104.36363636363636 101.85639880952381  104.36363636363636 100.76785714285714  L 104.36363636363636 93.30357142857142  C 104.36363636363636 92.21502976190474  104.01420454545455 91.32087053571429  103.31534090909092 90.62109375  C 102.61647727272728 89.92131696428571  101.72348484848484 89.57142857142858  100.63636363636364 89.57142857142858  L 93.18181818181819 89.57142857142858  C 92.09469696969698 89.57142857142858  91.20170454545455 89.92131696428571  90.50284090909092 90.62109375  C 89.80397727272728 91.32087053571429  89.45454545454545 92.21502976190474  89.45454545454545 93.30357142857142  L 89.45454545454545 100.76785714285714  C 89.45454545454545 101.85639880952381  89.80397727272728 102.75055803571429  90.50284090909092 103.45033482142858  C 91.20170454545455 104.15011160714286  92.09469696969698 104.5  93.18181818181819 104.5  L 100.63636363636364 104.5  C 101.72348484848484 104.5  102.61647727272728 104.15011160714286  103.31534090909092 103.45033482142858  Z M 103.31534090909092 73.59319196428571  C 104.01420454545455 72.89341517857142  104.36363636363636 71.99925595238093  104.36363636363636 70.91071428571429  L 104.36363636363636 63.44642857142858  C 104.36363636363636 62.357886904761884  104.01420454545455 61.46372767857142  103.31534090909092 60.76395089285713  C 102.61647727272728 60.06417410714287  101.72348484848484 59.71428571428571  100.63636363636364 59.71428571428571  L 93.18181818181819 59.71428571428571  C 92.09469696969698 59.71428571428571  91.20170454545455 60.06417410714287  90.50284090909092 60.76395089285713  C 89.80397727272728 61.46372767857142  89.45454545454545 62.357886904761884  89.45454545454545 63.44642857142858  L 89.45454545454545 70.91071428571429  C 89.45454545454545 71.99925595238093  89.80397727272728 72.89341517857142  90.50284090909092 73.59319196428571  C 91.20170454545455 74.29296875  92.09469696969698 74.64285714285714  93.18181818181819 74.64285714285714  L 100.63636363636364 74.64285714285714  C 101.72348484848484 74.64285714285714  102.61647727272728 74.29296875  103.31534090909092 73.59319196428571  Z M 103.31534090909092 43.73604910714287  C 104.01420454545455 43.03627232142858  104.36363636363636 42.142113095238095  104.36363636363636 41.05357142857142  L 104.36363636363636 33.58928571428571  C 104.36363636363636 32.50074404761904  104.01420454545455 31.606584821428577  103.31534090909092 30.90680803571429  C 102.61647727272728 30.20703125  101.72348484848484 29.85714285714287  100.63636363636364 29.85714285714287  L 93.18181818181819 29.85714285714287  C 92.09469696969698 29.85714285714287  91.20170454545455 30.20703125  90.50284090909092 30.90680803571429  C 89.80397727272728 31.606584821428577  89.45454545454545 32.50074404761904  89.45454545454545 33.58928571428571  L 89.45454545454545 41.05357142857142  C 89.45454545454545 42.142113095238095  89.80397727272728 43.03627232142858  90.50284090909092 43.73604910714287  C 91.20170454545455 44.43582589285713  92.09469696969698 44.78571428571429  93.18181818181819 44.78571428571429  L 100.63636363636364 44.78571428571429  C 101.72348484848484 44.78571428571429  102.61647727272728 44.43582589285713  103.31534090909092 43.73604910714287  Z M 133.13352272727272 163.16462053571428  C 133.83238636363637 162.46484375  134.1818181818182 161.57068452380952  134.1818181818182 160.48214285714283  L 134.1818181818182 153.01785714285717  C 134.1818181818182 151.92931547619048  133.83238636363637 151.03515625  133.13352272727272 150.33537946428572  C 132.4346590909091 149.63560267857142  131.54166666666669 149.28571428571428  130.45454545454544 149.28571428571428  L 123 149.28571428571428  C 121.9128787878788 149.28571428571428  121.01988636363636 149.63560267857142  120.32102272727272 150.33537946428572  C 119.62215909090908 151.03515625  119.27272727272728 151.92931547619048  119.27272727272728 153.01785714285717  L 119.27272727272728 160.48214285714283  C 119.27272727272728 161.57068452380952  119.62215909090908 162.46484375  120.32102272727272 163.16462053571428  C 121.01988636363636 163.86439732142858  121.9128787878788 164.21428571428572  123 164.21428571428572  L 130.45454545454544 164.21428571428572  C 131.54166666666669 164.21428571428572  132.4346590909091 163.86439732142858  133.13352272727272 163.16462053571428  Z M 133.13352272727272 133.30747767857142  C 133.83238636363637 132.60770089285717  134.1818181818182 131.71354166666666  134.1818181818182 130.625  L 134.1818181818182 123.16071428571429  C 134.1818181818182 122.07217261904762  133.83238636363637 121.17801339285715  133.13352272727272 120.47823660714285  C 132.4346590909091 119.77845982142858  131.54166666666669 119.42857142857142  130.45454545454544 119.42857142857142  L 123 119.42857142857142  C 121.9128787878788 119.42857142857142  121.01988636363636 119.77845982142858  120.32102272727272 120.47823660714285  C 119.62215909090908 121.17801339285715  119.27272727272728 122.07217261904762  119.27272727272728 123.16071428571429  L 119.27272727272728 130.625  C 119.27272727272728 131.71354166666666  119.62215909090908 132.60770089285717  120.32102272727272 133.30747767857142  C 121.01988636363636 134.00725446428572  121.9128787878788 134.35714285714283  123 134.35714285714283  L 130.45454545454544 134.35714285714283  C 131.54166666666669 134.35714285714283  132.4346590909091 134.00725446428572  133.13352272727272 133.30747767857142  Z M 133.13352272727272 103.45033482142858  C 133.83238636363637 102.75055803571429  134.1818181818182 101.85639880952381  134.1818181818182 100.76785714285714  L 134.1818181818182 93.30357142857142  C 134.1818181818182 92.21502976190474  133.83238636363637 91.32087053571429  133.13352272727272 90.62109375  C 132.4346590909091 89.92131696428571  131.54166666666669 89.57142857142858  130.45454545454544 89.57142857142858  L 123 89.57142857142858  C 121.9128787878788 89.57142857142858  121.01988636363636 89.92131696428571  120.32102272727272 90.62109375  C 119.62215909090908 91.32087053571429  119.27272727272728 92.21502976190474  119.27272727272728 93.30357142857142  L 119.27272727272728 100.76785714285714  C 119.27272727272728 101.85639880952381  119.62215909090908 102.75055803571429  120.32102272727272 103.45033482142858  C 121.01988636363636 104.15011160714286  121.9128787878788 104.5  123 104.5  L 130.45454545454544 104.5  C 131.54166666666669 104.5  132.4346590909091 104.15011160714286  133.13352272727272 103.45033482142858  Z M 133.13352272727272 73.59319196428571  C 133.83238636363637 72.89341517857142  134.1818181818182 71.99925595238093  134.1818181818182 70.91071428571429  L 134.1818181818182 63.44642857142858  C 134.1818181818182 62.357886904761884  133.83238636363637 61.46372767857142  133.13352272727272 60.76395089285713  C 132.4346590909091 60.06417410714287  131.54166666666669 59.71428571428571  130.45454545454544 59.71428571428571  L 123 59.71428571428571  C 121.9128787878788 59.71428571428571  121.01988636363636 60.06417410714287  120.32102272727272 60.76395089285713  C 119.62215909090908 61.46372767857142  119.27272727272728 62.357886904761884  119.27272727272728 63.44642857142858  L 119.27272727272728 70.91071428571429  C 119.27272727272728 71.99925595238093  119.62215909090908 72.89341517857142  120.32102272727272 73.59319196428571  C 121.01988636363636 74.29296875  121.9128787878788 74.64285714285714  123 74.64285714285714  L 130.45454545454544 74.64285714285714  C 131.54166666666669 74.64285714285714  132.4346590909091 74.29296875  133.13352272727272 73.59319196428571  Z M 133.13352272727272 43.73604910714287  C 133.83238636363637 43.03627232142858  134.1818181818182 42.142113095238095  134.1818181818182 41.05357142857142  L 134.1818181818182 33.58928571428571  C 134.1818181818182 32.50074404761904  133.83238636363637 31.606584821428577  133.13352272727272 30.90680803571429  C 132.4346590909091 30.20703125  131.54166666666669 29.85714285714287  130.45454545454544 29.85714285714287  L 123 29.85714285714287  C 121.9128787878788 29.85714285714287  121.01988636363636 30.20703125  120.32102272727272 30.90680803571429  C 119.62215909090908 31.606584821428577  119.27272727272728 32.50074404761904  119.27272727272728 33.58928571428571  L 119.27272727272728 41.05357142857142  C 119.27272727272728 42.142113095238095  119.62215909090908 43.03627232142858  120.32102272727272 43.73604910714287  C 121.01988636363636 44.43582589285713  121.9128787878788 44.78571428571429  123 44.78571428571429  L 130.45454545454544 44.78571428571429  C 131.54166666666669 44.78571428571429  132.4346590909091 44.43582589285713  133.13352272727272 43.73604910714287  Z " fill-rule="nonzero" fill="rgba(0, 0, 0, 1)" stroke="none" transform="matrix(1 0 0 1 528 256 )" class="fill" />
    <path d="M 7.454545454545455 0  L 156.54545454545456 0  C 158.56439393939394 0  160.31155303030306 0.7386532738095415  161.7869318181818 2.2159598214285783  C 163.26231060606062 3.6932663690475915  164 5.442708333333326  164 7.464285714285711  L 164 201.53571428571428  C 164 203.55729166666666  163.26231060606062 205.30673363095235  161.7869318181818 206.78404017857142  C 160.31155303030306 208.26134672619048  158.56439393939394 209  156.54545454545456 209  L 7.454545454545455 209  C 5.435606060606061 209  3.6884469696969697 208.26134672619048  2.2130681818181817 206.78404017857142  C 0.7376893939393938 205.30673363095235  0 203.55729166666666  0 201.53571428571428  L 0 7.464285714285711  C 0 5.442708333333326  0.7376893939393938 3.6932663690475915  2.2130681818181817 2.2159598214285783  C 3.6884469696969697 0.7386532738095415  5.435606060606061 0  7.454545454545455 0  Z " stroke-width="0" stroke-dasharray="0" stroke="rgba(255, 255, 255, 0)" fill="none" transform="matrix(1 0 0 1 528 256 )" class="stroke" mask="url(#Clip3)" />
    <path d="M 60.68465909090909 30.90680803571429  C 59.98579545454546 31.606584821428577  59.63636363636364 32.50074404761904  59.63636363636364 33.58928571428571  L 59.63636363636364 41.05357142857142  C 59.63636363636364 42.142113095238095  59.98579545454546 43.03627232142858  60.68465909090909 43.73604910714287  C 61.38352272727273 44.43582589285713  62.27651515151516 44.78571428571429  63.36363636363636 44.78571428571429  L 70.81818181818181 44.78571428571429  C 71.90530303030303 44.78571428571429  72.79829545454545 44.43582589285713  73.4971590909091 43.73604910714287  C 74.19602272727272 43.03627232142858  74.54545454545455 42.142113095238095  74.54545454545455 41.05357142857142  L 74.54545454545455 33.58928571428571  C 74.54545454545455 32.50074404761904  74.19602272727272 31.606584821428577  73.4971590909091 30.90680803571429  C 72.79829545454545 30.20703125  71.90530303030303 29.85714285714287  70.81818181818181 29.85714285714287  L 63.36363636363636 29.85714285714287  C 62.27651515151516 29.85714285714287  61.38352272727273 30.20703125  60.68465909090909 30.90680803571429  Z " stroke-width="0" stroke-dasharray="0" stroke="rgba(255, 255, 255, 0)" fill="none" transform="matrix(1 0 0 1 528 256 )" class="stroke" mask="url(#Clip3)" />
    <path d="M 60.68465909090909 60.76395089285713  C 59.98579545454546 61.46372767857142  59.63636363636364 62.357886904761884  59.63636363636364 63.44642857142858  L 59.63636363636364 70.91071428571429  C 59.63636363636364 71.99925595238093  59.98579545454546 72.89341517857142  60.68465909090909 73.59319196428571  C 61.38352272727273 74.29296875  62.27651515151516 74.64285714285714  63.36363636363636 74.64285714285714  L 70.81818181818181 74.64285714285714  C 71.90530303030303 74.64285714285714  72.79829545454545 74.29296875  73.4971590909091 73.59319196428571  C 74.19602272727272 72.89341517857142  74.54545454545455 71.99925595238093  74.54545454545455 70.91071428571429  L 74.54545454545455 63.44642857142858  C 74.54545454545455 62.357886904761884  74.19602272727272 61.46372767857142  73.4971590909091 60.76395089285713  C 72.79829545454545 60.06417410714287  71.90530303030303 59.71428571428571  70.81818181818181 59.71428571428571  L 63.36363636363636 59.71428571428571  C 62.27651515151516 59.71428571428571  61.38352272727273 60.06417410714287  60.68465909090909 60.76395089285713  Z " stroke-width="0" stroke-dasharray="0" stroke="rgba(255, 255, 255, 0)" fill="none" transform="matrix(1 0 0 1 528 256 )" class="stroke" mask="url(#Clip3)" />
    <path d="M 60.68465909090909 90.62109375  C 59.98579545454546 91.32087053571429  59.63636363636364 92.21502976190474  59.63636363636364 93.30357142857142  L 59.63636363636364 100.76785714285714  C 59.63636363636364 101.85639880952381  59.98579545454546 102.75055803571429  60.68465909090909 103.45033482142858  C 61.38352272727273 104.15011160714286  62.27651515151516 104.5  63.36363636363636 104.5  L 70.81818181818181 104.5  C 71.90530303030303 104.5  72.79829545454545 104.15011160714286  73.4971590909091 103.45033482142858  C 74.19602272727272 102.75055803571429  74.54545454545455 101.85639880952381  74.54545454545455 100.76785714285714  L 74.54545454545455 93.30357142857142  C 74.54545454545455 92.21502976190474  74.19602272727272 91.32087053571429  73.4971590909091 90.62109375  C 72.79829545454545 89.92131696428571  71.90530303030303 89.57142857142858  70.81818181818181 89.57142857142858  L 63.36363636363636 89.57142857142858  C 62.27651515151516 89.57142857142858  61.38352272727273 89.92131696428571  60.68465909090909 90.62109375  Z " stroke-width="0" stroke-dasharray="0" stroke="rgba(255, 255, 255, 0)" fill="none" transform="matrix(1 0 0 1 528 256 )" class="stroke" mask="url(#Clip3)" />
    <path d="M 60.68465909090909 120.47823660714285  C 59.98579545454546 121.17801339285715  59.63636363636364 122.07217261904762  59.63636363636364 123.16071428571429  L 59.63636363636364 130.625  C 59.63636363636364 131.71354166666666  59.98579545454546 132.60770089285717  60.68465909090909 133.30747767857142  C 61.38352272727273 134.00725446428572  62.27651515151516 134.35714285714283  63.36363636363636 134.35714285714283  L 70.81818181818181 134.35714285714283  C 71.90530303030303 134.35714285714283  72.79829545454545 134.00725446428572  73.4971590909091 133.30747767857142  C 74.19602272727272 132.60770089285717  74.54545454545455 131.71354166666666  74.54545454545455 130.625  L 74.54545454545455 123.16071428571429  C 74.54545454545455 122.07217261904762  74.19602272727272 121.17801339285715  73.4971590909091 120.47823660714285  C 72.79829545454545 119.77845982142858  71.90530303030303 119.42857142857142  70.81818181818181 119.42857142857142  L 63.36363636363636 119.42857142857142  C 62.27651515151516 119.42857142857142  61.38352272727273 119.77845982142858  60.68465909090909 120.47823660714285  Z " stroke-width="0" stroke-dasharray="0" stroke="rgba(255, 255, 255, 0)" fill="none" transform="matrix(1 0 0 1 528 256 )" class="stroke" mask="url(#Clip3)" />
    <path d="M 43.67897727272727 163.16462053571428  C 44.37784090909091 162.46484375  44.72727272727273 161.57068452380952  44.72727272727273 160.48214285714283  L 44.72727272727273 153.01785714285717  C 44.72727272727273 151.92931547619048  44.37784090909091 151.03515625  43.67897727272727 150.33537946428572  C 42.98011363636364 149.63560267857142  42.08712121212122 149.28571428571428  41 149.28571428571428  L 33.54545454545455 149.28571428571428  C 32.458333333333336 149.28571428571428  31.56534090909091 149.63560267857142  30.86647727272727 150.33537946428572  C 30.167613636363637 151.03515625  29.81818181818182 151.92931547619048  29.81818181818182 153.01785714285717  L 29.81818181818182 160.48214285714283  C 29.81818181818182 161.57068452380952  30.167613636363637 162.46484375  30.86647727272727 163.16462053571428  C 31.56534090909091 163.86439732142858  32.458333333333336 164.21428571428572  33.54545454545455 164.21428571428572  L 41 164.21428571428572  C 42.08712121212122 164.21428571428572  42.98011363636364 163.86439732142858  43.67897727272727 163.16462053571428  Z " stroke-width="0" stroke-dasharray="0" stroke="rgba(255, 255, 255, 0)" fill="none" transform="matrix(1 0 0 1 528 256 )" class="stroke" mask="url(#Clip3)" />
    <path d="M 43.67897727272727 133.30747767857142  C 44.37784090909091 132.60770089285717  44.72727272727273 131.71354166666666  44.72727272727273 130.625  L 44.72727272727273 123.16071428571429  C 44.72727272727273 122.07217261904762  44.37784090909091 121.17801339285715  43.67897727272727 120.47823660714285  C 42.98011363636364 119.77845982142858  42.08712121212122 119.42857142857142  41 119.42857142857142  L 33.54545454545455 119.42857142857142  C 32.458333333333336 119.42857142857142  31.56534090909091 119.77845982142858  30.86647727272727 120.47823660714285  C 30.167613636363637 121.17801339285715  29.81818181818182 122.07217261904762  29.81818181818182 123.16071428571429  L 29.81818181818182 130.625  C 29.81818181818182 131.71354166666666  30.167613636363637 132.60770089285717  30.86647727272727 133.30747767857142  C 31.56534090909091 134.00725446428572  32.458333333333336 134.35714285714283  33.54545454545455 134.35714285714283  L 41 134.35714285714283  C 42.08712121212122 134.35714285714283  42.98011363636364 134.00725446428572  43.67897727272727 133.30747767857142  Z " stroke-width="0" stroke-dasharray="0" stroke="rgba(255, 255, 255, 0)" fill="none" transform="matrix(1 0 0 1 528 256 )" class="stroke" mask="url(#Clip3)" />
    <path d="M 43.67897727272727 103.45033482142858  C 44.37784090909091 102.75055803571429  44.72727272727273 101.85639880952381  44.72727272727273 100.76785714285714  L 44.72727272727273 93.30357142857142  C 44.72727272727273 92.21502976190474  44.37784090909091 91.32087053571429  43.67897727272727 90.62109375  C 42.98011363636364 89.92131696428571  42.08712121212122 89.57142857142858  41 89.57142857142858  L 33.54545454545455 89.57142857142858  C 32.458333333333336 89.57142857142858  31.56534090909091 89.92131696428571  30.86647727272727 90.62109375  C 30.167613636363637 91.32087053571429  29.81818181818182 92.21502976190474  29.81818181818182 93.30357142857142  L 29.81818181818182 100.76785714285714  C 29.81818181818182 101.85639880952381  30.167613636363637 102.75055803571429  30.86647727272727 103.45033482142858  C 31.56534090909091 104.15011160714286  32.458333333333336 104.5  33.54545454545455 104.5  L 41 104.5  C 42.08712121212122 104.5  42.98011363636364 104.15011160714286  43.67897727272727 103.45033482142858  Z " stroke-width="0" stroke-dasharray="0" stroke="rgba(255, 255, 255, 0)" fill="none" transform="matrix(1 0 0 1 528 256 )" class="stroke" mask="url(#Clip3)" />
    <path d="M 43.67897727272727 73.59319196428571  C 44.37784090909091 72.89341517857142  44.72727272727273 71.99925595238093  44.72727272727273 70.91071428571429  L 44.72727272727273 63.44642857142858  C 44.72727272727273 62.357886904761884  44.37784090909091 61.46372767857142  43.67897727272727 60.76395089285713  C 42.98011363636364 60.06417410714287  42.08712121212122 59.71428571428571  41 59.71428571428571  L 33.54545454545455 59.71428571428571  C 32.458333333333336 59.71428571428571  31.56534090909091 60.06417410714287  30.86647727272727 60.76395089285713  C 30.167613636363637 61.46372767857142  29.81818181818182 62.357886904761884  29.81818181818182 63.44642857142858  L 29.81818181818182 70.91071428571429  C 29.81818181818182 71.99925595238093  30.167613636363637 72.89341517857142  30.86647727272727 73.59319196428571  C 31.56534090909091 74.29296875  32.458333333333336 74.64285714285714  33.54545454545455 74.64285714285714  L 41 74.64285714285714  C 42.08712121212122 74.64285714285714  42.98011363636364 74.29296875  43.67897727272727 73.59319196428571  Z " stroke-width="0" stroke-dasharray="0" stroke="rgba(255, 255, 255, 0)" fill="none" transform="matrix(1 0 0 1 528 256 )" class="stroke" mask="url(#Clip3)" />
    <path d="M 43.67897727272727 43.73604910714287  C 44.37784090909091 43.03627232142858  44.72727272727273 42.142113095238095  44.72727272727273 41.05357142857142  L 44.72727272727273 33.58928571428571  C 44.72727272727273 32.50074404761904  44.37784090909091 31.606584821428577  43.67897727272727 30.90680803571429  C 42.98011363636364 30.20703125  42.08712121212122 29.85714285714287  41 29.85714285714287  L 33.54545454545455 29.85714285714287  C 32.458333333333336 29.85714285714287  31.56534090909091 30.20703125  30.86647727272727 30.90680803571429  C 30.167613636363637 31.606584821428577  29.81818181818182 32.50074404761904  29.81818181818182 33.58928571428571  L 29.81818181818182 41.05357142857142  C 29.81818181818182 42.142113095238095  30.167613636363637 43.03627232142858  30.86647727272727 43.73604910714287  C 31.56534090909091 44.43582589285713  32.458333333333336 44.78571428571429  33.54545454545455 44.78571428571429  L 41 44.78571428571429  C 42.08712121212122 44.78571428571429  42.98011363636364 44.43582589285713  43.67897727272727 43.73604910714287  Z " stroke-width="0" stroke-dasharray="0" stroke="rgba(255, 255, 255, 0)" fill="none" transform="matrix(1 0 0 1 528 256 )" class="stroke" mask="url(#Clip3)" />
    <path d="M 103.31534090909092 193.02176339285714  C 104.01420454545455 192.32198660714286  104.36363636363636 191.42782738095235  104 190.33928571428572  L 104 167.94642857142858  C 104.36363636363636 166.85788690476193  104.01420454545455 165.96372767857142  103.31534090909092 165.26395089285717  C 102.61647727272728 164.56417410714283  101.72348484848484 164.21428571428572  100.63636363636364 164  L 63.36363636363636 164  C 62.27651515151516 164.21428571428572  61.38352272727273 164.56417410714283  60.68465909090909 165.26395089285717  C 59.98579545454546 165.96372767857142  59.63636363636364 166.85788690476193  60 167.94642857142858  L 60 190.33928571428572  C 59.63636363636364 191.42782738095235  59.98579545454546 192.32198660714286  60.68465909090909 193.02176339285714  C 61.38352272727273 193.72154017857142  62.27651515151516 194.07142857142858  63.36363636363636 194  L 100.63636363636364 194  C 101.72348484848484 194.07142857142858  102.61647727272728 193.72154017857142  103.31534090909092 193.02176339285714  Z " stroke-width="0" stroke-dasharray="0" stroke="rgba(255, 255, 255, 0)" fill="none" transform="matrix(1 0 0 1 528 256 )" class="stroke" mask="url(#Clip3)" />
    <path d="M 103.31534090909092 133.30747767857142  C 104.01420454545455 132.60770089285717  104.36363636363636 131.71354166666666  104.36363636363636 130.625  L 104.36363636363636 123.16071428571429  C 104.36363636363636 122.07217261904762  104.01420454545455 121.17801339285715  103.31534090909092 120.47823660714285  C 102.61647727272728 119.77845982142858  101.72348484848484 119.42857142857142  100.63636363636364 119.42857142857142  L 93.18181818181819 119.42857142857142  C 92.09469696969698 119.42857142857142  91.20170454545455 119.77845982142858  90.50284090909092 120.47823660714285  C 89.80397727272728 121.17801339285715  89.45454545454545 122.07217261904762  89.45454545454545 123.16071428571429  L 89.45454545454545 130.625  C 89.45454545454545 131.71354166666666  89.80397727272728 132.60770089285717  90.50284090909092 133.30747767857142  C 91.20170454545455 134.00725446428572  92.09469696969698 134.35714285714283  93.18181818181819 134.35714285714283  L 100.63636363636364 134.35714285714283  C 101.72348484848484 134.35714285714283  102.61647727272728 134.00725446428572  103.31534090909092 133.30747767857142  Z " stroke-width="0" stroke-dasharray="0" stroke="rgba(255, 255, 255, 0)" fill="none" transform="matrix(1 0 0 1 528 256 )" class="stroke" mask="url(#Clip3)" />
    <path d="M 103.31534090909092 103.45033482142858  C 104.01420454545455 102.75055803571429  104.36363636363636 101.85639880952381  104.36363636363636 100.76785714285714  L 104.36363636363636 93.30357142857142  C 104.36363636363636 92.21502976190474  104.01420454545455 91.32087053571429  103.31534090909092 90.62109375  C 102.61647727272728 89.92131696428571  101.72348484848484 89.57142857142858  100.63636363636364 89.57142857142858  L 93.18181818181819 89.57142857142858  C 92.09469696969698 89.57142857142858  91.20170454545455 89.92131696428571  90.50284090909092 90.62109375  C 89.80397727272728 91.32087053571429  89.45454545454545 92.21502976190474  89.45454545454545 93.30357142857142  L 89.45454545454545 100.76785714285714  C 89.45454545454545 101.85639880952381  89.80397727272728 102.75055803571429  90.50284090909092 103.45033482142858  C 91.20170454545455 104.15011160714286  92.09469696969698 104.5  93.18181818181819 104.5  L 100.63636363636364 104.5  C 101.72348484848484 104.5  102.61647727272728 104.15011160714286  103.31534090909092 103.45033482142858  Z " stroke-width="0" stroke-dasharray="0" stroke="rgba(255, 255, 255, 0)" fill="none" transform="matrix(1 0 0 1 528 256 )" class="stroke" mask="url(#Clip3)" />
    <path d="M 103.31534090909092 73.59319196428571  C 104.01420454545455 72.89341517857142  104.36363636363636 71.99925595238093  104.36363636363636 70.91071428571429  L 104.36363636363636 63.44642857142858  C 104.36363636363636 62.357886904761884  104.01420454545455 61.46372767857142  103.31534090909092 60.76395089285713  C 102.61647727272728 60.06417410714287  101.72348484848484 59.71428571428571  100.63636363636364 59.71428571428571  L 93.18181818181819 59.71428571428571  C 92.09469696969698 59.71428571428571  91.20170454545455 60.06417410714287  90.50284090909092 60.76395089285713  C 89.80397727272728 61.46372767857142  89.45454545454545 62.357886904761884  89.45454545454545 63.44642857142858  L 89.45454545454545 70.91071428571429  C 89.45454545454545 71.99925595238093  89.80397727272728 72.89341517857142  90.50284090909092 73.59319196428571  C 91.20170454545455 74.29296875  92.09469696969698 74.64285714285714  93.18181818181819 74.64285714285714  L 100.63636363636364 74.64285714285714  C 101.72348484848484 74.64285714285714  102.61647727272728 74.29296875  103.31534090909092 73.59319196428571  Z " stroke-width="0" stroke-dasharray="0" stroke="rgba(255, 255, 255, 0)" fill="none" transform="matrix(1 0 0 1 528 256 )" class="stroke" mask="url(#Clip3)" />
    <path d="M 103.31534090909092 43.73604910714287  C 104.01420454545455 43.03627232142858  104.36363636363636 42.142113095238095  104.36363636363636 41.05357142857142  L 104.36363636363636 33.58928571428571  C 104.36363636363636 32.50074404761904  104.01420454545455 31.606584821428577  103.31534090909092 30.90680803571429  C 102.61647727272728 30.20703125  101.72348484848484 29.85714285714287  100.63636363636364 29.85714285714287  L 93.18181818181819 29.85714285714287  C 92.09469696969698 29.85714285714287  91.20170454545455 30.20703125  90.50284090909092 30.90680803571429  C 89.80397727272728 31.606584821428577  89.45454545454545 32.50074404761904  89.45454545454545 33.58928571428571  L 89.45454545454545 41.05357142857142  C 89.45454545454545 42.142113095238095  89.80397727272728 43.03627232142858  90.50284090909092 43.73604910714287  C 91.20170454545455 44.43582589285713  92.09469696969698 44.78571428571429  93.18181818181819 44.78571428571429  L 100.63636363636364 44.78571428571429  C 101.72348484848484 44.78571428571429  102.61647727272728 44.43582589285713  103.31534090909092 43.73604910714287  Z " stroke-width="0" stroke-dasharray="0" stroke="rgba(255, 255, 255, 0)" fill="none" transform="matrix(1 0 0 1 528 256 )" class="stroke" mask="url(#Clip3)" />
    <path d="M 133.13352272727272 163.16462053571428  C 133.83238636363637 162.46484375  134.1818181818182 161.57068452380952  134.1818181818182 160.48214285714283  L 134.1818181818182 153.01785714285717  C 134.1818181818182 151.92931547619048  133.83238636363637 151.03515625  133.13352272727272 150.33537946428572  C 132.4346590909091 149.63560267857142  131.54166666666669 149.28571428571428  130.45454545454544 149.28571428571428  L 123 149.28571428571428  C 121.9128787878788 149.28571428571428  121.01988636363636 149.63560267857142  120.32102272727272 150.33537946428572  C 119.62215909090908 151.03515625  119.27272727272728 151.92931547619048  119.27272727272728 153.01785714285717  L 119.27272727272728 160.48214285714283  C 119.27272727272728 161.57068452380952  119.62215909090908 162.46484375  120.32102272727272 163.16462053571428  C 121.01988636363636 163.86439732142858  121.9128787878788 164.21428571428572  123 164.21428571428572  L 130.45454545454544 164.21428571428572  C 131.54166666666669 164.21428571428572  132.4346590909091 163.86439732142858  133.13352272727272 163.16462053571428  Z " stroke-width="0" stroke-dasharray="0" stroke="rgba(255, 255, 255, 0)" fill="none" transform="matrix(1 0 0 1 528 256 )" class="stroke" mask="url(#Clip3)" />
    <path d="M 133.13352272727272 133.30747767857142  C 133.83238636363637 132.60770089285717  134.1818181818182 131.71354166666666  134.1818181818182 130.625  L 134.1818181818182 123.16071428571429  C 134.1818181818182 122.07217261904762  133.83238636363637 121.17801339285715  133.13352272727272 120.47823660714285  C 132.4346590909091 119.77845982142858  131.54166666666669 119.42857142857142  130.45454545454544 119.42857142857142  L 123 119.42857142857142  C 121.9128787878788 119.42857142857142  121.01988636363636 119.77845982142858  120.32102272727272 120.47823660714285  C 119.62215909090908 121.17801339285715  119.27272727272728 122.07217261904762  119.27272727272728 123.16071428571429  L 119.27272727272728 130.625  C 119.27272727272728 131.71354166666666  119.62215909090908 132.60770089285717  120.32102272727272 133.30747767857142  C 121.01988636363636 134.00725446428572  121.9128787878788 134.35714285714283  123 134.35714285714283  L 130.45454545454544 134.35714285714283  C 131.54166666666669 134.35714285714283  132.4346590909091 134.00725446428572  133.13352272727272 133.30747767857142  Z " stroke-width="0" stroke-dasharray="0" stroke="rgba(255, 255, 255, 0)" fill="none" transform="matrix(1 0 0 1 528 256 )" class="stroke" mask="url(#Clip3)" />
    <path d="M 133.13352272727272 103.45033482142858  C 133.83238636363637 102.75055803571429  134.1818181818182 101.85639880952381  134.1818181818182 100.76785714285714  L 134.1818181818182 93.30357142857142  C 134.1818181818182 92.21502976190474  133.83238636363637 91.32087053571429  133.13352272727272 90.62109375  C 132.4346590909091 89.92131696428571  131.54166666666669 89.57142857142858  130.45454545454544 89.57142857142858  L 123 89.57142857142858  C 121.9128787878788 89.57142857142858  121.01988636363636 89.92131696428571  120.32102272727272 90.62109375  C 119.62215909090908 91.32087053571429  119.27272727272728 92.21502976190474  119.27272727272728 93.30357142857142  L 119.27272727272728 100.76785714285714  C 119.27272727272728 101.85639880952381  119.62215909090908 102.75055803571429  120.32102272727272 103.45033482142858  C 121.01988636363636 104.15011160714286  121.9128787878788 104.5  123 104.5  L 130.45454545454544 104.5  C 131.54166666666669 104.5  132.4346590909091 104.15011160714286  133.13352272727272 103.45033482142858  Z " stroke-width="0" stroke-dasharray="0" stroke="rgba(255, 255, 255, 0)" fill="none" transform="matrix(1 0 0 1 528 256 )" class="stroke" mask="url(#Clip3)" />
    <path d="M 133.13352272727272 73.59319196428571  C 133.83238636363637 72.89341517857142  134.1818181818182 71.99925595238093  134.1818181818182 70.91071428571429  L 134.1818181818182 63.44642857142858  C 134.1818181818182 62.357886904761884  133.83238636363637 61.46372767857142  133.13352272727272 60.76395089285713  C 132.4346590909091 60.06417410714287  131.54166666666669 59.71428571428571  130.45454545454544 59.71428571428571  L 123 59.71428571428571  C 121.9128787878788 59.71428571428571  121.01988636363636 60.06417410714287  120.32102272727272 60.76395089285713  C 119.62215909090908 61.46372767857142  119.27272727272728 62.357886904761884  119.27272727272728 63.44642857142858  L 119.27272727272728 70.91071428571429  C 119.27272727272728 71.99925595238093  119.62215909090908 72.89341517857142  120.32102272727272 73.59319196428571  C 121.01988636363636 74.29296875  121.9128787878788 74.64285714285714  123 74.64285714285714  L 130.45454545454544 74.64285714285714  C 131.54166666666669 74.64285714285714  132.4346590909091 74.29296875  133.13352272727272 73.59319196428571  Z " stroke-width="0" stroke-dasharray="0" stroke="rgba(255, 255, 255, 0)" fill="none" transform="matrix(1 0 0 1 528 256 )" class="stroke" mask="url(#Clip3)" />
    <path d="M 133.13352272727272 43.73604910714287  C 133.83238636363637 43.03627232142858  134.1818181818182 42.142113095238095  134.1818181818182 41.05357142857142  L 134.1818181818182 33.58928571428571  C 134.1818181818182 32.50074404761904  133.83238636363637 31.606584821428577  133.13352272727272 30.90680803571429  C 132.4346590909091 30.20703125  131.54166666666669 29.85714285714287  130.45454545454544 29.85714285714287  L 123 29.85714285714287  C 121.9128787878788 29.85714285714287  121.01988636363636 30.20703125  120.32102272727272 30.90680803571429  C 119.62215909090908 31.606584821428577  119.27272727272728 32.50074404761904  119.27272727272728 33.58928571428571  L 119.27272727272728 41.05357142857142  C 119.27272727272728 42.142113095238095  119.62215909090908 43.03627232142858  120.32102272727272 43.73604910714287  C 121.01988636363636 44.43582589285713  121.9128787878788 44.78571428571429  123 44.78571428571429  L 130.45454545454544 44.78571428571429  C 131.54166666666669 44.78571428571429  132.4346590909091 44.43582589285713  133.13352272727272 43.73604910714287  Z " stroke-width="0" stroke-dasharray="0" stroke="rgba(255, 255, 255, 0)" fill="none" transform="matrix(1 0 0 1 528 256 )" class="stroke" mask="url(#Clip3)" />
  </g>
</svg>