<?xml version="1.0" encoding="utf-8"?>
<svg version="1.1" xmlns:xlink="http://www.w3.org/1999/xlink" width="300px" height="170px" xmlns="http://www.w3.org/2000/svg">
  <defs>
    <mask fill="white" id="Clip618">
      <path d="M 19 382  L 19 217  C 19 214.225  21.225 212  24 212  L 314 212  C 316.775 212  319 214.225  319 217  L 319 382  " fill-rule="evenodd" />
    </mask>
  </defs>
  <g transform="matrix(1 0 0 1 -19 -212 )">
    <path d="M 19 212  L 319 212  L 319 382  L 19 382  L 19 212  " fill-rule="nonzero" fill="rgba(204, 204, 204, 1)" stroke="none" class="fill" mask="url(#Clip618)" />
    <path d="M 31 224  L 307 224  L 307 370  L 31 370  L 31 224  " fill-rule="nonzero" fill="rgba(255, 255, 255, 1)" stroke="none" class="fill" mask="url(#Clip618)" />
    <path d="M 187.75 263  C 180.61 263  175 257.39  175 250.25  C 175 243.11  180.61 237.5  187.75 237.5  C 194.89 237.5  200.5 243.11  200.5 250.25  C 200.5 257.39  194.89 263  187.75 263  " fill-rule="nonzero" fill="rgba(204, 204, 204, 1)" stroke="none" class="fill" mask="url(#Clip618)" />
    <path d="M 36 366  L 36 290.65  L 102.75 256.4  L 196.2 319.42  L 249.60000000000002 276.95  L 303 319.42  L 303 366  L 36 366  " fill-rule="nonzero" fill="rgba(22, 155, 213, 1)" stroke="none" class="fill" mask="url(#Clip618)" />
  </g>
</svg>