<?xml version="1.0" encoding="utf-8"?>
<svg version="1.1" xmlns:xlink="http://www.w3.org/1999/xlink" width="200px" height="50px" xmlns="http://www.w3.org/2000/svg">
  <defs>
    <pattern id="BGPattern" patternUnits="userSpaceOnUse" alignment="0 0" imageRepeat="None" />
    <mask fill="white" id="Clip608">
      <path d="M 5 34  C 2.238576250846033 34.66614906832297  0 32.42757281747694  0 29.666149068322973  L 0 5  C 0 2.238576250846033  2.238576250846033 0  5 0  L 195 0  C 197.76142374915398 0  200 2.238576250846033  200 5  L 200 29.666149068322973  C 200 32.42757281747694  197.76142374915398 34.66614906832297  195 34  L 113.56776556776558 34  L 100.46886446886447 48.771367521367395  L 89.47985347985349 34  L 5 34  Z " fill-rule="evenodd" />
    </mask>
  </defs>
  <g transform="matrix(1 0 0 1 -19 -704 )">
    <path d="M 5 34  C 2.238576250846033 34.66614906832297  0 32.42757281747694  0 29.666149068322973  L 0 5  C 0 2.238576250846033  2.238576250846033 0  5 0  L 195 0  C 197.76142374915398 0  200 2.238576250846033  200 5  L 200 29.666149068322973  C 200 32.42757281747694  197.76142374915398 34.66614906832297  195 34  L 113.56776556776558 34  L 100.46886446886447 48.771367521367395  L 89.47985347985349 34  L 5 34  Z " fill-rule="nonzero" fill="rgba(255, 255, 255, 1)" stroke="none" transform="matrix(1 0 0 1 19 704 )" class="fill" />
    <path d="M 5 34  C 2.238576250846033 34.66614906832297  0 32.42757281747694  0 29.666149068322973  L 0 5  C 0 2.238576250846033  2.238576250846033 0  5 0  L 195 0  C 197.76142374915398 0  200 2.238576250846033  200 5  L 200 29.666149068322973  C 200 32.42757281747694  197.76142374915398 34.66614906832297  195 34  L 113.56776556776558 34  L 100.46886446886447 48.771367521367395  L 89.47985347985349 34  L 5 34  Z " stroke-width="2" stroke-dasharray="0" stroke="rgba(215, 215, 215, 1)" fill="none" transform="matrix(1 0 0 1 19 704 )" class="stroke" mask="url(#Clip608)" />
  </g>
</svg>