<?xml version="1.0" encoding="utf-8"?>
<svg version="1.1" xmlns:xlink="http://www.w3.org/1999/xlink" width="150px" height="150px" xmlns="http://www.w3.org/2000/svg">
  <defs>
    <pattern id="BGPattern" patternUnits="userSpaceOnUse" alignment="0 0" imageRepeat="None" />
    <mask fill="white" id="Clip612">
      <path d="M 21.793526548672563 96.10286283185842  C 13.945408407079647 76.33117699115046  17.807410619469028 54.54507079646018  30.641616371681415 38.86225221238939  L 30.517481469026546 47.627540707964606  L 48.165463327433635 47.999952477876114  L 48.83442390265487 9.111576371681423  L 9.95310974336283 8.449518849557528  L 9.587601026548674 26.097500707964606  L 18.173692619469026 26.214741384955754  C 0.40230323893804915 46.84975023451329  -5.128966672566373 76.12505111946903  5.380799256637167 102.61971041150444  C 16.884004566371683 131.62665731415933  44.655816955752215 149.87472811061946  74.80679925663716 149.87472811061946  C 79.89634438938053 149.87472811061946  85.05492005309735 149.3505904115044  90.21349571681414 148.28165881858408  L 86.60660633628319 130.99913271238938  C 59.33160191150442 136.68188138495577  32.0689558938053 122.0131583761062  21.79382315044247 96.10252209292037  Z M 144.6113761061947 47.37189823008849  C 131.16331061946903 13.48338053097345  95.48847345132744 -5.716287610619471  59.79209734513275 1.7181769911504392  L 63.39210132743363 19.000703097345127  C 90.6671057522124 13.317954424778755  117.92975176991152 27.986677433628312  128.20488451327432 53.883189823008834  C 136.05988805309735 73.66899955752211  132.19100044247787 95.47629159292032  119.34302389380534 111.15734469026548  L 119.4533668141593 102.31614026548671  L 101.79849955752215 101.98511150442475  L 101.1985165486726 140.8664256637168  L 140.07983070796462 141.46640867256636  L 140.41085946902658 123.81842681415927  L 131.88691300884955 123.70808389380528  C 149.61063424778763 103.08719893805306  155.12071831858404 73.84720778761059  144.61077584070796 47.3719688495575  Z " fill-rule="evenodd" />
    </mask>
  </defs>
  <g transform="matrix(1 0 0 1 -19 -2871 )">
    <path d="M 21.793526548672563 96.10286283185842  C 13.945408407079647 76.33117699115046  17.807410619469028 54.54507079646018  30.641616371681415 38.86225221238939  L 30.517481469026546 47.627540707964606  L 48.165463327433635 47.999952477876114  L 48.83442390265487 9.111576371681423  L 9.95310974336283 8.449518849557528  L 9.587601026548674 26.097500707964606  L 18.173692619469026 26.214741384955754  C 0.40230323893804915 46.84975023451329  -5.128966672566373 76.12505111946903  5.380799256637167 102.61971041150444  C 16.884004566371683 131.62665731415933  44.655816955752215 149.87472811061946  74.80679925663716 149.87472811061946  C 79.89634438938053 149.87472811061946  85.05492005309735 149.3505904115044  90.21349571681414 148.28165881858408  L 86.60660633628319 130.99913271238938  C 59.33160191150442 136.68188138495577  32.0689558938053 122.0131583761062  21.79382315044247 96.10252209292037  Z M 144.6113761061947 47.37189823008849  C 131.16331061946903 13.48338053097345  95.48847345132744 -5.716287610619471  59.79209734513275 1.7181769911504392  L 63.39210132743363 19.000703097345127  C 90.6671057522124 13.317954424778755  117.92975176991152 27.986677433628312  128.20488451327432 53.883189823008834  C 136.05988805309735 73.66899955752211  132.19100044247787 95.47629159292032  119.34302389380534 111.15734469026548  L 119.4533668141593 102.31614026548671  L 101.79849955752215 101.98511150442475  L 101.1985165486726 140.8664256637168  L 140.07983070796462 141.46640867256636  L 140.41085946902658 123.81842681415927  L 131.88691300884955 123.70808389380528  C 149.61063424778763 103.08719893805306  155.12071831858404 73.84720778761059  144.61077584070796 47.3719688495575  Z " fill-rule="nonzero" fill="rgba(215, 215, 215, 1)" stroke="none" transform="matrix(1 0 0 1 19 2871 )" class="fill" />
    <path d="M 21.793526548672563 96.10286283185842  C 13.945408407079647 76.33117699115046  17.807410619469028 54.54507079646018  30.641616371681415 38.86225221238939  L 30.517481469026546 47.627540707964606  L 48.165463327433635 47.999952477876114  L 48.83442390265487 9.111576371681423  L 9.95310974336283 8.449518849557528  L 9.587601026548674 26.097500707964606  L 18.173692619469026 26.214741384955754  C 0.40230323893804915 46.84975023451329  -5.128966672566373 76.12505111946903  5.380799256637167 102.61971041150444  C 16.884004566371683 131.62665731415933  44.655816955752215 149.87472811061946  74.80679925663716 149.87472811061946  C 79.89634438938053 149.87472811061946  85.05492005309735 149.3505904115044  90.21349571681414 148.28165881858408  L 86.60660633628319 130.99913271238938  C 59.33160191150442 136.68188138495577  32.0689558938053 122.0131583761062  21.79382315044247 96.10252209292037  Z " stroke-width="0" stroke-dasharray="0" stroke="rgba(255, 255, 255, 0)" fill="none" transform="matrix(1 0 0 1 19 2871 )" class="stroke" mask="url(#Clip612)" />
    <path d="M 144.6113761061947 47.37189823008849  C 131.16331061946903 13.48338053097345  95.48847345132744 -5.716287610619471  59.79209734513275 1.7181769911504392  L 63.39210132743363 19.000703097345127  C 90.6671057522124 13.317954424778755  117.92975176991152 27.986677433628312  128.20488451327432 53.883189823008834  C 136.05988805309735 73.66899955752211  132.19100044247787 95.47629159292032  119.34302389380534 111.15734469026548  L 119.4533668141593 102.31614026548671  L 101.79849955752215 101.98511150442475  L 101.1985165486726 140.8664256637168  L 140.07983070796462 141.46640867256636  L 140.41085946902658 123.81842681415927  L 131.88691300884955 123.70808389380528  C 149.61063424778763 103.08719893805306  155.12071831858404 73.84720778761059  144.61077584070796 47.3719688495575  Z " stroke-width="0" stroke-dasharray="0" stroke="rgba(255, 255, 255, 0)" fill="none" transform="matrix(1 0 0 1 19 2871 )" class="stroke" mask="url(#Clip612)" />
  </g>
</svg>