<?xml version="1.0" encoding="utf-8"?>
<svg version="1.1" xmlns:xlink="http://www.w3.org/1999/xlink" width="32px" height="27px" xmlns="http://www.w3.org/2000/svg">
  <defs>
    <pattern id="BGPattern" patternUnits="userSpaceOnUse" alignment="0 0" imageRepeat="None" />
    <mask fill="white" id="Clip670">
      <path d="M 27.400247831474598 15.425565081839437  C 27.413465510119785 15.453624318004676  27.42007434944238 15.495713172252533  27 15.55183164458301  L 27 25.65315666406859  C 27.42007434944238 26.017926734216676  27.294506402313097 26.333593141075603  27.043370508054522 26.60015588464536  C 26.792234613795955 26.86671862821512  26.494836844279227 27  26.151177199504335 27  L 18.537794299876083 27  L 18.537794299876083 18.918939984411537  L 13.462205700123915 18.918939984411537  L 13.462205700123915 27  L 5.848822800495663 27  C 5.505163155720777 27  5.2077653862040485 26.86671862821512  4.956629491945477 26.60015588464536  C 4.705493597686907 26.333593141075603  4.5799256505576205 26.017926734216676  5 25.65315666406859  L 5 15.55183164458301  C 4.5799256505576205 15.537802026500389  4.583230070218918 15.516757599376461  4.589838909541512 15.488698363211224  C 4.596447748864106 15.460639127045987  4.599752168525403 15.439594699922058  4.599752168525403 15.425565081839437  L 16 5.450506625097428  L 27.400247831474598 15.425565081839437  Z M 31.980173482032217 13.605222135619643  C 31.993391160677408 13.794621979734995  31.94712928541925 13.959469992205767  31.841387856257743 14.099766173031957  L 30.612143742255267 15.657053780202652  C 30.506402313093766 15.783320342946222  30.36761668731929 15.860483242400624  30.195786864931847 15.888542478565862  L 30.1363073110285 15.888542478565862  C 29.96447748864106 15.888542478565862  29.825691862866588 15.839438815276694  29.71995043370508 15.74123148869836  L 16 3.5985970381917385  L 2.2800495662949194 15.74123148869836  C 2.121437422552664 15.85346843335931  1.962825278810409 15.902572096648479  1.8042131350681536 15.888542478565862  C 1.6323833126807106 15.860483242400624  1.4935976869062373 15.783320342946222  1.3878562577447335 15.657053780202652  L 0.15861214374225527 14.099766173031957  C 0.05287071458075178 13.959469992205767  0.006608839322594017 13.794621979734995  0.01982651796778191 13.605222135619643  C 0.033044196612969944 13.415822291504288  0.10574142916150356 13.265003897116133  0.2379182156133829 13.152766952455183  L 14.493184634448575 0.5471551052221364  C 14.91615035109459 0.18238503507404247  15.418422139611732 0  16 0  C 16.581577860388272 0  17.083849648905414 0.18238503507404247  17.506815365551425 0.5471551052221364  L 22.34448574969021 4.840218238503506  L 22.34448574969021 0.736554949337489  C 22.34448574969021 0.5401402961808233  22.403965303593555 0.3787996882307082  22.522924411400247 0.2525331254871408  C 22.64188351920694 0.1262665627435704  22.7938868236266 0.0631332813717852  22.97893432465923 0.0631332813717852  L 26.78562577447336 0.0631332813717852  C 26.97067327550599 0.0631332813717852  27.12267657992565 0.1262665627435704  27.24163568773234 0.2525331254871408  C 27.360594795539033 0.3787996882307082  27.42007434944238 0.5401402961808233  27.42007434944238 0.736554949337489  L 27.42007434944238 9.322681215900234  L 31.762081784386616 13.152766952455183  C 31.8942585708385 13.265003897116133  31.966955803387034 13.415822291504288  31.980173482032217 13.605222135619643  Z " fill-rule="evenodd" />
    </mask>
  </defs>
  <g transform="matrix(1 0 0 1 -10 -87 )">
    <path d="M 27.400247831474598 15.425565081839437  C 27.413465510119785 15.453624318004676  27.42007434944238 15.495713172252533  27 15.55183164458301  L 27 25.65315666406859  C 27.42007434944238 26.017926734216676  27.294506402313097 26.333593141075603  27.043370508054522 26.60015588464536  C 26.792234613795955 26.86671862821512  26.494836844279227 27  26.151177199504335 27  L 18.537794299876083 27  L 18.537794299876083 18.918939984411537  L 13.462205700123915 18.918939984411537  L 13.462205700123915 27  L 5.848822800495663 27  C 5.505163155720777 27  5.2077653862040485 26.86671862821512  4.956629491945477 26.60015588464536  C 4.705493597686907 26.333593141075603  4.5799256505576205 26.017926734216676  5 25.65315666406859  L 5 15.55183164458301  C 4.5799256505576205 15.537802026500389  4.583230070218918 15.516757599376461  4.589838909541512 15.488698363211224  C 4.596447748864106 15.460639127045987  4.599752168525403 15.439594699922058  4.599752168525403 15.425565081839437  L 16 5.450506625097428  L 27.400247831474598 15.425565081839437  Z M 31.980173482032217 13.605222135619643  C 31.993391160677408 13.794621979734995  31.94712928541925 13.959469992205767  31.841387856257743 14.099766173031957  L 30.612143742255267 15.657053780202652  C 30.506402313093766 15.783320342946222  30.36761668731929 15.860483242400624  30.195786864931847 15.888542478565862  L 30.1363073110285 15.888542478565862  C 29.96447748864106 15.888542478565862  29.825691862866588 15.839438815276694  29.71995043370508 15.74123148869836  L 16 3.5985970381917385  L 2.2800495662949194 15.74123148869836  C 2.121437422552664 15.85346843335931  1.962825278810409 15.902572096648479  1.8042131350681536 15.888542478565862  C 1.6323833126807106 15.860483242400624  1.4935976869062373 15.783320342946222  1.3878562577447335 15.657053780202652  L 0.15861214374225527 14.099766173031957  C 0.05287071458075178 13.959469992205767  0.006608839322594017 13.794621979734995  0.01982651796778191 13.605222135619643  C 0.033044196612969944 13.415822291504288  0.10574142916150356 13.265003897116133  0.2379182156133829 13.152766952455183  L 14.493184634448575 0.5471551052221364  C 14.91615035109459 0.18238503507404247  15.418422139611732 0  16 0  C 16.581577860388272 0  17.083849648905414 0.18238503507404247  17.506815365551425 0.5471551052221364  L 22.34448574969021 4.840218238503506  L 22.34448574969021 0.736554949337489  C 22.34448574969021 0.5401402961808233  22.403965303593555 0.3787996882307082  22.522924411400247 0.2525331254871408  C 22.64188351920694 0.1262665627435704  22.7938868236266 0.0631332813717852  22.97893432465923 0.0631332813717852  L 26.78562577447336 0.0631332813717852  C 26.97067327550599 0.0631332813717852  27.12267657992565 0.1262665627435704  27.24163568773234 0.2525331254871408  C 27.360594795539033 0.3787996882307082  27.42007434944238 0.5401402961808233  27.42007434944238 0.736554949337489  L 27.42007434944238 9.322681215900234  L 31.762081784386616 13.152766952455183  C 31.8942585708385 13.265003897116133  31.966955803387034 13.415822291504288  31.980173482032217 13.605222135619643  Z " fill-rule="nonzero" fill="rgba(0, 0, 0, 1)" stroke="none" transform="matrix(1 0 0 1 10 87 )" class="fill" />
    <path d="M 27.400247831474598 15.425565081839437  C 27.413465510119785 15.453624318004676  27.42007434944238 15.495713172252533  27 15.55183164458301  L 27 25.65315666406859  C 27.42007434944238 26.017926734216676  27.294506402313097 26.333593141075603  27.043370508054522 26.60015588464536  C 26.792234613795955 26.86671862821512  26.494836844279227 27  26.151177199504335 27  L 18.537794299876083 27  L 18.537794299876083 18.918939984411537  L 13.462205700123915 18.918939984411537  L 13.462205700123915 27  L 5.848822800495663 27  C 5.505163155720777 27  5.2077653862040485 26.86671862821512  4.956629491945477 26.60015588464536  C 4.705493597686907 26.333593141075603  4.5799256505576205 26.017926734216676  5 25.65315666406859  L 5 15.55183164458301  C 4.5799256505576205 15.537802026500389  4.583230070218918 15.516757599376461  4.589838909541512 15.488698363211224  C 4.596447748864106 15.460639127045987  4.599752168525403 15.439594699922058  4.599752168525403 15.425565081839437  L 16 5.450506625097428  L 27.400247831474598 15.425565081839437  Z " stroke-width="0" stroke-dasharray="0" stroke="rgba(255, 255, 255, 0)" fill="none" transform="matrix(1 0 0 1 10 87 )" class="stroke" mask="url(#Clip670)" />
    <path d="M 31.980173482032217 13.605222135619643  C 31.993391160677408 13.794621979734995  31.94712928541925 13.959469992205767  31.841387856257743 14.099766173031957  L 30.612143742255267 15.657053780202652  C 30.506402313093766 15.783320342946222  30.36761668731929 15.860483242400624  30.195786864931847 15.888542478565862  L 30.1363073110285 15.888542478565862  C 29.96447748864106 15.888542478565862  29.825691862866588 15.839438815276694  29.71995043370508 15.74123148869836  L 16 3.5985970381917385  L 2.2800495662949194 15.74123148869836  C 2.121437422552664 15.85346843335931  1.962825278810409 15.902572096648479  1.8042131350681536 15.888542478565862  C 1.6323833126807106 15.860483242400624  1.4935976869062373 15.783320342946222  1.3878562577447335 15.657053780202652  L 0.15861214374225527 14.099766173031957  C 0.05287071458075178 13.959469992205767  0.006608839322594017 13.794621979734995  0.01982651796778191 13.605222135619643  C 0.033044196612969944 13.415822291504288  0.10574142916150356 13.265003897116133  0.2379182156133829 13.152766952455183  L 14.493184634448575 0.5471551052221364  C 14.91615035109459 0.18238503507404247  15.418422139611732 0  16 0  C 16.581577860388272 0  17.083849648905414 0.18238503507404247  17.506815365551425 0.5471551052221364  L 22.34448574969021 4.840218238503506  L 22.34448574969021 0.736554949337489  C 22.34448574969021 0.5401402961808233  22.403965303593555 0.3787996882307082  22.522924411400247 0.2525331254871408  C 22.64188351920694 0.1262665627435704  22.7938868236266 0.0631332813717852  22.97893432465923 0.0631332813717852  L 26.78562577447336 0.0631332813717852  C 26.97067327550599 0.0631332813717852  27.12267657992565 0.1262665627435704  27.24163568773234 0.2525331254871408  C 27.360594795539033 0.3787996882307082  27.42007434944238 0.5401402961808233  27.42007434944238 0.736554949337489  L 27.42007434944238 9.322681215900234  L 31.762081784386616 13.152766952455183  C 31.8942585708385 13.265003897116133  31.966955803387034 13.415822291504288  31.980173482032217 13.605222135619643  Z " stroke-width="0" stroke-dasharray="0" stroke="rgba(255, 255, 255, 0)" fill="none" transform="matrix(1 0 0 1 10 87 )" class="stroke" mask="url(#Clip670)" />
  </g>
</svg>