<?xml version="1.0" encoding="utf-8"?>
<svg version="1.1" xmlns:xlink="http://www.w3.org/1999/xlink" width="26px" height="26px" xmlns="http://www.w3.org/2000/svg">
  <defs>
    <pattern id="BGPattern" patternUnits="userSpaceOnUse" alignment="0 0" imageRepeat="None" />
    <mask fill="white" id="Clip672">
      <path d="M 3.8512500000000003 21.353515625  C 4.057083333333334 21.14474826388889  4.16 20.888020833333332  4.16 20.583333333333332  C 4.16 20.289930555555557  4.057083333333334 20.036024305555557  3.8512500000000003 19.821614583333332  C 3.645416666666667 19.60720486111111  3.4016666666666664 19.5  3.12 19.5  C 2.8275 19.5  2.5810416666666667 19.60720486111111  2.380625 19.821614583333332  C 2.1802083333333337 20.036024305555557  2.08 20.289930555555557  2.08 20.583333333333332  C 2.08 20.888020833333332  2.1802083333333337 21.14474826388889  2.380625 21.353515625  C 2.5810416666666667 21.56228298611111  2.8275 21.666666666666668  3.12 21.666666666666668  C 3.4016666666666664 21.666666666666668  3.645416666666667 21.56228298611111  3.8512500000000003 21.353515625  Z M 6.45125 11.154947916666668  C 6.6570833333333335 11.369357638888888  6.76 11.623263888888888  7 11.916666666666668  L 7 22.75  C 6.76 23.04340277777778  6.6570833333333335 23.29730902777778  6.45125 23.51171875  C 6.245416666666667 23.72612847222222  6.001666666666668 23.833333333333332  5.72 23.833333333333332  L 1.04 23.833333333333332  C 0.7583333333333334 23.833333333333332  0.5145833333333333 23.72612847222222  0.30875 23.51171875  C 0.10291666666666666 23.29730902777778  0 23.04340277777778  0 22.75  L 0 11.916666666666668  C 0 11.623263888888888  0.10291666666666666 11.369357638888888  0.30875 11.154947916666668  C 0.5145833333333333 10.940538194444445  0.7583333333333334 10.833333333333332  1.04 10.833333333333332  L 5.72 10.833333333333332  C 6.001666666666668 10.833333333333332  6.245416666666667 10.940538194444445  6.45125 11.154947916666668  Z M 25.07375 9.631510416666668  C 25.69125 10.274739583333332  26 11.036458333333332  26 11.916666666666668  C 26 12.887152777777777  25.702083333333334 13.727864583333336  25.10625 14.438802083333336  C 25.268750000000004 14.93532986111111  25.35 15.364149305555555  25.349999999999998 15.725260416666664  C 25.382500000000004 16.582899305555554  25.14958333333334 17.355902777777775  24.65125 18.044270833333336  C 24.83541666666667 18.676215277777775  24.83541666666667 19.336371527777775  24.65125 20.024739583333332  C 24.48875 20.66796875  24.19625 21.198350694444443  23.77375 21.615885416666668  C 23.87125 22.879774305555557  23.605833333333333 23.901041666666668  22.9775 24.6796875  C 22.284166666666668 25.53732638888889  21.217083333333335 25.977430555555557  19.77625 26  L 19.19125 26  L 17.95625 26  L 17.68 26  C 16.965 26  16.185000000000002 25.91254340277778  15.34 25.737630208333332  C 14.495 25.56271701388889  13.836875000000001 25.399088541666668  13.365625 25.246744791666668  C 12.894375 25.094401041666668  12.241666666666667 24.87152777777778  11.407499999999999 24.578125  C 10.075000000000001 24.092881944444443  9.219166666666668 23.844618055555557  8.84 23.833333333333332  C 8.558333333333335 23.82204861111111  8.314583333333335 23.712022569444443  8.10875 23.503255208333332  C 7.902916666666666 23.29448784722222  7.800000000000001 23.04340277777778  8 22.75  L 8 11.899739583333332  C 7.800000000000001 11.617621527777777  7.897500000000001 11.372178819444443  8.092500000000001 11.163411458333332  C 8.287500000000001 10.954644097222223  8.520416666666668 10.838975694444443  8.79125 10.81640625  C 9.05125 10.793836805555552  9.462916666666668 10.460937499999996  10.02625 9.817708333333332  C 10.589583333333335 9.174479166666664  11.136666666666667 8.49175347222222  11.6675 7.76953125  C 12.404166666666669 6.787760416666668  12.951250000000002 6.110677083333332  13.30875 5.73828125  C 13.50375 5.53515625  13.671666666666667 5.264322916666668  13.8125 4.92578125  C 13.953333333333335 4.587239583333332  14.048124999999999 4.313585069444442  14.096875 4.104817708333332  C 14.145625 3.8960503472222197  14.21875 3.5546875  14.31625 3.080729166666668  C 14.392083333333334 2.640625  14.45979166666667 2.2964409722222197  14.519375 2.048177083333332  C 14.578958333333334 1.7999131944444422  14.684583333333334 1.5065104166666676  14.836250000000001 1.16796875  C 14.987916666666669 0.8294270833333324  15.172083333333335 0.5473090277777775  15.388750000000002 0.32161458333333237  C 15.594583333333334 0.10720486111110983  15.838333333333335 0  16.12 0  C 16.618333333333332 0  17.065208333333334 0.05924479166666763  17.460625 0.177734375  C 17.85604166666667 0.29622395833333237  18.18104166666667 0.44292534722221966  18.435625 0.6178385416666676  C 18.690208333333334 0.7927517361111098  18.906875 1.0212673611111098  19.085625 1.3033854166666676  C 19.264375 1.5855034722222197  19.394375 1.8394097222222197  19.475625 2.065104166666668  C 19.556875 2.29079861111111  19.621875 2.572916666666668  19.670625 2.911458333333332  C 19.719375 3.25  19.746458333333333 3.50390625  19.751875 3.673177083333332  C 19.75729166666667 3.842447916666668  19.76 4.0625  19.76 4.333333333333332  C 19.76 4.762152777777778  19.70854166666667 5.19097222222222  19.605625 5.619791666666668  C 19.502708333333334 6.04861111111111  19.39979166666667 6.387152777777778  19.296875 6.635416666666668  C 19.193958333333335 6.883680555555552  19.045 7.199652777777778  18.849999999999998 7.583333333333332  C 18.8175 7.651041666666668  18.763333333333335 7.752604166666668  18.6875 7.888020833333332  C 18.611666666666668 8.0234375  18.552083333333336 8.147569444444443  18.50875 8.260416666666668  C 18.46541666666667 8.373263888888888  18.422083333333337 8.508680555555552  18.37875 8.666666666666668  L 22.88 8.666666666666668  C 23.724999999999998 8.666666666666668  24.45625 8.98828125  25.07375 9.631510416666668  Z " fill-rule="evenodd" />
    </mask>
  </defs>
  <g transform="matrix(1 0 0 1 -134 -1608 )">
    <path d="M 3.8512500000000003 21.353515625  C 4.057083333333334 21.14474826388889  4.16 20.888020833333332  4.16 20.583333333333332  C 4.16 20.289930555555557  4.057083333333334 20.036024305555557  3.8512500000000003 19.821614583333332  C 3.645416666666667 19.60720486111111  3.4016666666666664 19.5  3.12 19.5  C 2.8275 19.5  2.5810416666666667 19.60720486111111  2.380625 19.821614583333332  C 2.1802083333333337 20.036024305555557  2.08 20.289930555555557  2.08 20.583333333333332  C 2.08 20.888020833333332  2.1802083333333337 21.14474826388889  2.380625 21.353515625  C 2.5810416666666667 21.56228298611111  2.8275 21.666666666666668  3.12 21.666666666666668  C 3.4016666666666664 21.666666666666668  3.645416666666667 21.56228298611111  3.8512500000000003 21.353515625  Z M 6.45125 11.154947916666668  C 6.6570833333333335 11.369357638888888  6.76 11.623263888888888  7 11.916666666666668  L 7 22.75  C 6.76 23.04340277777778  6.6570833333333335 23.29730902777778  6.45125 23.51171875  C 6.245416666666667 23.72612847222222  6.001666666666668 23.833333333333332  5.72 23.833333333333332  L 1.04 23.833333333333332  C 0.7583333333333334 23.833333333333332  0.5145833333333333 23.72612847222222  0.30875 23.51171875  C 0.10291666666666666 23.29730902777778  0 23.04340277777778  0 22.75  L 0 11.916666666666668  C 0 11.623263888888888  0.10291666666666666 11.369357638888888  0.30875 11.154947916666668  C 0.5145833333333333 10.940538194444445  0.7583333333333334 10.833333333333332  1.04 10.833333333333332  L 5.72 10.833333333333332  C 6.001666666666668 10.833333333333332  6.245416666666667 10.940538194444445  6.45125 11.154947916666668  Z M 25.07375 9.631510416666668  C 25.69125 10.274739583333332  26 11.036458333333332  26 11.916666666666668  C 26 12.887152777777777  25.702083333333334 13.727864583333336  25.10625 14.438802083333336  C 25.268750000000004 14.93532986111111  25.35 15.364149305555555  25.349999999999998 15.725260416666664  C 25.382500000000004 16.582899305555554  25.14958333333334 17.355902777777775  24.65125 18.044270833333336  C 24.83541666666667 18.676215277777775  24.83541666666667 19.336371527777775  24.65125 20.024739583333332  C 24.48875 20.66796875  24.19625 21.198350694444443  23.77375 21.615885416666668  C 23.87125 22.879774305555557  23.605833333333333 23.901041666666668  22.9775 24.6796875  C 22.284166666666668 25.53732638888889  21.217083333333335 25.977430555555557  19.77625 26  L 19.19125 26  L 17.95625 26  L 17.68 26  C 16.965 26  16.185000000000002 25.91254340277778  15.34 25.737630208333332  C 14.495 25.56271701388889  13.836875000000001 25.399088541666668  13.365625 25.246744791666668  C 12.894375 25.094401041666668  12.241666666666667 24.87152777777778  11.407499999999999 24.578125  C 10.075000000000001 24.092881944444443  9.219166666666668 23.844618055555557  8.84 23.833333333333332  C 8.558333333333335 23.82204861111111  8.314583333333335 23.712022569444443  8.10875 23.503255208333332  C 7.902916666666666 23.29448784722222  7.800000000000001 23.04340277777778  8 22.75  L 8 11.899739583333332  C 7.800000000000001 11.617621527777777  7.897500000000001 11.372178819444443  8.092500000000001 11.163411458333332  C 8.287500000000001 10.954644097222223  8.520416666666668 10.838975694444443  8.79125 10.81640625  C 9.05125 10.793836805555552  9.462916666666668 10.460937499999996  10.02625 9.817708333333332  C 10.589583333333335 9.174479166666664  11.136666666666667 8.49175347222222  11.6675 7.76953125  C 12.404166666666669 6.787760416666668  12.951250000000002 6.110677083333332  13.30875 5.73828125  C 13.50375 5.53515625  13.671666666666667 5.264322916666668  13.8125 4.92578125  C 13.953333333333335 4.587239583333332  14.048124999999999 4.313585069444442  14.096875 4.104817708333332  C 14.145625 3.8960503472222197  14.21875 3.5546875  14.31625 3.080729166666668  C 14.392083333333334 2.640625  14.45979166666667 2.2964409722222197  14.519375 2.048177083333332  C 14.578958333333334 1.7999131944444422  14.684583333333334 1.5065104166666676  14.836250000000001 1.16796875  C 14.987916666666669 0.8294270833333324  15.172083333333335 0.5473090277777775  15.388750000000002 0.32161458333333237  C 15.594583333333334 0.10720486111110983  15.838333333333335 0  16.12 0  C 16.618333333333332 0  17.065208333333334 0.05924479166666763  17.460625 0.177734375  C 17.85604166666667 0.29622395833333237  18.18104166666667 0.44292534722221966  18.435625 0.6178385416666676  C 18.690208333333334 0.7927517361111098  18.906875 1.0212673611111098  19.085625 1.3033854166666676  C 19.264375 1.5855034722222197  19.394375 1.8394097222222197  19.475625 2.065104166666668  C 19.556875 2.29079861111111  19.621875 2.572916666666668  19.670625 2.911458333333332  C 19.719375 3.25  19.746458333333333 3.50390625  19.751875 3.673177083333332  C 19.75729166666667 3.842447916666668  19.76 4.0625  19.76 4.333333333333332  C 19.76 4.762152777777778  19.70854166666667 5.19097222222222  19.605625 5.619791666666668  C 19.502708333333334 6.04861111111111  19.39979166666667 6.387152777777778  19.296875 6.635416666666668  C 19.193958333333335 6.883680555555552  19.045 7.199652777777778  18.849999999999998 7.583333333333332  C 18.8175 7.651041666666668  18.763333333333335 7.752604166666668  18.6875 7.888020833333332  C 18.611666666666668 8.0234375  18.552083333333336 8.147569444444443  18.50875 8.260416666666668  C 18.46541666666667 8.373263888888888  18.422083333333337 8.508680555555552  18.37875 8.666666666666668  L 22.88 8.666666666666668  C 23.724999999999998 8.666666666666668  24.45625 8.98828125  25.07375 9.631510416666668  Z " fill-rule="nonzero" fill="rgba(144, 144, 144, 1)" stroke="none" transform="matrix(1 0 0 1 134 1608 )" class="fill" />
    <path d="M 3.8512500000000003 21.353515625  C 4.057083333333334 21.14474826388889  4.16 20.888020833333332  4.16 20.583333333333332  C 4.16 20.289930555555557  4.057083333333334 20.036024305555557  3.8512500000000003 19.821614583333332  C 3.645416666666667 19.60720486111111  3.4016666666666664 19.5  3.12 19.5  C 2.8275 19.5  2.5810416666666667 19.60720486111111  2.380625 19.821614583333332  C 2.1802083333333337 20.036024305555557  2.08 20.289930555555557  2.08 20.583333333333332  C 2.08 20.888020833333332  2.1802083333333337 21.14474826388889  2.380625 21.353515625  C 2.5810416666666667 21.56228298611111  2.8275 21.666666666666668  3.12 21.666666666666668  C 3.4016666666666664 21.666666666666668  3.645416666666667 21.56228298611111  3.8512500000000003 21.353515625  Z " stroke-width="0" stroke-dasharray="0" stroke="rgba(255, 255, 255, 0)" fill="none" transform="matrix(1 0 0 1 134 1608 )" class="stroke" mask="url(#Clip672)" />
    <path d="M 6.45125 11.154947916666668  C 6.6570833333333335 11.369357638888888  6.76 11.623263888888888  7 11.916666666666668  L 7 22.75  C 6.76 23.04340277777778  6.6570833333333335 23.29730902777778  6.45125 23.51171875  C 6.245416666666667 23.72612847222222  6.001666666666668 23.833333333333332  5.72 23.833333333333332  L 1.04 23.833333333333332  C 0.7583333333333334 23.833333333333332  0.5145833333333333 23.72612847222222  0.30875 23.51171875  C 0.10291666666666666 23.29730902777778  0 23.04340277777778  0 22.75  L 0 11.916666666666668  C 0 11.623263888888888  0.10291666666666666 11.369357638888888  0.30875 11.154947916666668  C 0.5145833333333333 10.940538194444445  0.7583333333333334 10.833333333333332  1.04 10.833333333333332  L 5.72 10.833333333333332  C 6.001666666666668 10.833333333333332  6.245416666666667 10.940538194444445  6.45125 11.154947916666668  Z " stroke-width="0" stroke-dasharray="0" stroke="rgba(255, 255, 255, 0)" fill="none" transform="matrix(1 0 0 1 134 1608 )" class="stroke" mask="url(#Clip672)" />
    <path d="M 25.07375 9.631510416666668  C 25.69125 10.274739583333332  26 11.036458333333332  26 11.916666666666668  C 26 12.887152777777777  25.702083333333334 13.727864583333336  25.10625 14.438802083333336  C 25.268750000000004 14.93532986111111  25.35 15.364149305555555  25.349999999999998 15.725260416666664  C 25.382500000000004 16.582899305555554  25.14958333333334 17.355902777777775  24.65125 18.044270833333336  C 24.83541666666667 18.676215277777775  24.83541666666667 19.336371527777775  24.65125 20.024739583333332  C 24.48875 20.66796875  24.19625 21.198350694444443  23.77375 21.615885416666668  C 23.87125 22.879774305555557  23.605833333333333 23.901041666666668  22.9775 24.6796875  C 22.284166666666668 25.53732638888889  21.217083333333335 25.977430555555557  19.77625 26  L 19.19125 26  L 17.95625 26  L 17.68 26  C 16.965 26  16.185000000000002 25.91254340277778  15.34 25.737630208333332  C 14.495 25.56271701388889  13.836875000000001 25.399088541666668  13.365625 25.246744791666668  C 12.894375 25.094401041666668  12.241666666666667 24.87152777777778  11.407499999999999 24.578125  C 10.075000000000001 24.092881944444443  9.219166666666668 23.844618055555557  8.84 23.833333333333332  C 8.558333333333335 23.82204861111111  8.314583333333335 23.712022569444443  8.10875 23.503255208333332  C 7.902916666666666 23.29448784722222  7.800000000000001 23.04340277777778  8 22.75  L 8 11.899739583333332  C 7.800000000000001 11.617621527777777  7.897500000000001 11.372178819444443  8.092500000000001 11.163411458333332  C 8.287500000000001 10.954644097222223  8.520416666666668 10.838975694444443  8.79125 10.81640625  C 9.05125 10.793836805555552  9.462916666666668 10.460937499999996  10.02625 9.817708333333332  C 10.589583333333335 9.174479166666664  11.136666666666667 8.49175347222222  11.6675 7.76953125  C 12.404166666666669 6.787760416666668  12.951250000000002 6.110677083333332  13.30875 5.73828125  C 13.50375 5.53515625  13.671666666666667 5.264322916666668  13.8125 4.92578125  C 13.953333333333335 4.587239583333332  14.048124999999999 4.313585069444442  14.096875 4.104817708333332  C 14.145625 3.8960503472222197  14.21875 3.5546875  14.31625 3.080729166666668  C 14.392083333333334 2.640625  14.45979166666667 2.2964409722222197  14.519375 2.048177083333332  C 14.578958333333334 1.7999131944444422  14.684583333333334 1.5065104166666676  14.836250000000001 1.16796875  C 14.987916666666669 0.8294270833333324  15.172083333333335 0.5473090277777775  15.388750000000002 0.32161458333333237  C 15.594583333333334 0.10720486111110983  15.838333333333335 0  16.12 0  C 16.618333333333332 0  17.065208333333334 0.05924479166666763  17.460625 0.177734375  C 17.85604166666667 0.29622395833333237  18.18104166666667 0.44292534722221966  18.435625 0.6178385416666676  C 18.690208333333334 0.7927517361111098  18.906875 1.0212673611111098  19.085625 1.3033854166666676  C 19.264375 1.5855034722222197  19.394375 1.8394097222222197  19.475625 2.065104166666668  C 19.556875 2.29079861111111  19.621875 2.572916666666668  19.670625 2.911458333333332  C 19.719375 3.25  19.746458333333333 3.50390625  19.751875 3.673177083333332  C 19.75729166666667 3.842447916666668  19.76 4.0625  19.76 4.333333333333332  C 19.76 4.762152777777778  19.70854166666667 5.19097222222222  19.605625 5.619791666666668  C 19.502708333333334 6.04861111111111  19.39979166666667 6.387152777777778  19.296875 6.635416666666668  C 19.193958333333335 6.883680555555552  19.045 7.199652777777778  18.849999999999998 7.583333333333332  C 18.8175 7.651041666666668  18.763333333333335 7.752604166666668  18.6875 7.888020833333332  C 18.611666666666668 8.0234375  18.552083333333336 8.147569444444443  18.50875 8.260416666666668  C 18.46541666666667 8.373263888888888  18.422083333333337 8.508680555555552  18.37875 8.666666666666668  L 22.88 8.666666666666668  C 23.724999999999998 8.666666666666668  24.45625 8.98828125  25.07375 9.631510416666668  Z " stroke-width="0" stroke-dasharray="0" stroke="rgba(255, 255, 255, 0)" fill="none" transform="matrix(1 0 0 1 134 1608 )" class="stroke" mask="url(#Clip672)" />
  </g>
</svg>