<?xml version="1.0" encoding="utf-8"?>
<svg version="1.1" xmlns:xlink="http://www.w3.org/1999/xlink" width="66px" height="66px" xmlns="http://www.w3.org/2000/svg">
  <defs>
    <pattern id="BGPattern" patternUnits="userSpaceOnUse" alignment="0 0" imageRepeat="None" />
    <mask fill="white" id="Clip660">
      <path d="M 0 28  C 0 12.319999999999999  12.319999999999999 0  28 0  C 43.68 0  56 12.319999999999999  56 28  C 56 43.68  43.68 56  28 56  C 12.319999999999999 56  0 43.68  0 28  Z " fill-rule="evenodd" />
    </mask>
  </defs>
  <g transform="matrix(1 0 0 1 -48 -286 )">
    <path d="M 0 28  C 0 12.319999999999999  12.319999999999999 0  28 0  C 43.68 0  56 12.319999999999999  56 28  C 56 43.68  43.68 56  28 56  C 12.319999999999999 56  0 43.68  0 28  Z " fill-rule="nonzero" fill="rgba(30, 152, 215, 1)" stroke="none" transform="matrix(1 0 0 1 53 288 )" class="fill" />
    <path d="M 0 28  C 0 12.319999999999999  12.319999999999999 0  28 0  C 43.68 0  56 12.319999999999999  56 28  C 56 43.68  43.68 56  28 56  C 12.319999999999999 56  0 43.68  0 28  Z " stroke-width="0" stroke-dasharray="0" stroke="rgba(22, 155, 213, 0)" fill="none" transform="matrix(1 0 0 1 53 288 )" class="stroke" mask="url(#Clip660)" />
  </g>
  <style>svg { filter: drop-shadow(0px 3px 2.5px rgba(0, 0, 0, 0.19607843137254902)); }</style>
</svg>