<?xml version="1.0" encoding="utf-8"?>
<svg version="1.1" xmlns:xlink="http://www.w3.org/1999/xlink" width="14px" height="14px" viewBox="10 11.5 14 14" xmlns="http://www.w3.org/2000/svg">
  <path d="M 10 13.5  A 2 2 0 0 1 12 11.5 L 22 11.5  A 2 2 0 0 1 24 13.5 L 24 23.5  A 2 2 0 0 1 22 25.5 L 12 25.5  A 2 2 0 0 1 10 23.5 L 10 13.5  Z " fill-rule="nonzero" fill="rgba(255, 255, 255, 1)" stroke="none" class="fill" />
  <path d="M 10.5 13.5  A 1.5 1.5 0 0 1 12 12 L 22 12  A 1.5 1.5 0 0 1 23.5 13.5 L 23.5 23.5  A 1.5 1.5 0 0 1 22 25 L 12 25  A 1.5 1.5 0 0 1 10.5 23.5 L 10.5 13.5  Z " stroke-width="1" stroke-dasharray="0" stroke="rgba(51, 51, 51, 1)" fill="none" class="stroke" stroke-dashoffset="0.5" />
</svg>