<?xml version="1.0" encoding="utf-8"?>
<svg version="1.1" xmlns:xlink="http://www.w3.org/1999/xlink" width="30px" height="30px" xmlns="http://www.w3.org/2000/svg">
  <defs>
    <mask fill="white" id="Clip658">
      <path d="M 14.5 39.5  C 12.28 39.5  10.5 37.72  10.5 35.5  L 10.5 14.5  C 10.5 12.28  12.28 10.5  14.5 10.5  L 35.5 10.5  C 37.72 10.5  39.5 12.28  39.5 14.5  L 39.5 35.5  C 39.5 37.72  37.72 39.5  35.5 39.5  L 14.5 39.5  " fill-rule="evenodd" />
    </mask>
  </defs>
  <g transform="matrix(1 0 0 1 -10 -10 )">
    <path d="M 10 10  L 40 10  L 40 40  L 10 40  L 10 10  " fill-rule="nonzero" fill="rgba(204, 204, 204, 1)" stroke="none" class="fill" mask="url(#Clip658)" />
    <path d="M 12 12  L 38 12  L 38 38  L 12 38  L 12 12  " fill-rule="nonzero" fill="rgba(255, 255, 255, 1)" stroke="none" class="fill" mask="url(#Clip658)" />
    <path d="M 27.85 19  C 26.59 19  25.6 18.01  25.6 16.75  C 25.6 15.49  26.59 14.5  27.85 14.5  C 29.110000000000003 14.5  30.1 15.49  30.1 16.75  C 30.1 18.01  29.110000000000003 19  27.85 19  " fill-rule="nonzero" fill="rgba(204, 204, 204, 1)" stroke="none" class="fill" mask="url(#Clip658)" />
    <path d="M 13 37  L 13 23.799999999999997  L 19 17.799999999999997  L 27.4 22.6  L 32.2 21.4  L 37 22.6  L 37 37  L 13 37  " fill-rule="nonzero" fill="rgba(22, 155, 213, 1)" stroke="none" class="fill" mask="url(#Clip658)" />
    <path d="M 14 39.5  C 12.057500000000001 39.5  10.5 37.9425  10.5 36  L 10.5 14  C 10.5 12.057500000000001  12.057500000000001 10.5  14 10.5  L 36 10.5  C 37.9425 10.5  39.5 12.057500000000001  39.5 14  L 39.5 36  C 39.5 37.9425  37.9425 39.5  36 39.5  L 14 39.5  Z " stroke-width="1" stroke-dasharray="0" stroke="rgba(222, 222, 222, 1)" fill="none" class="stroke" mask="url(#Clip658)" />
  </g>
</svg>