<?xml version="1.0" encoding="utf-8"?>
<svg version="1.1" xmlns:xlink="http://www.w3.org/1999/xlink" width="18px" height="18px" viewBox="42 3631 18 18" xmlns="http://www.w3.org/2000/svg">
  <path d="M 42 3633  A 2 2 0 0 1 44 3631 L 58 3631  A 2 2 0 0 1 60 3633 L 60 3647  A 2 2 0 0 1 58 3649 L 44 3649  A 2 2 0 0 1 42 3647 L 42 3633  Z " fill-rule="nonzero" fill="rgba(30, 152, 215, 1)" stroke="none" class="fill" />
  <path d="M 42 3633  A 2 2 0 0 1 44 3631 L 58 3631  A 2 2 0 0 1 60 3633 L 60 3647  A 2 2 0 0 1 58 3649 L 44 3649  A 2 2 0 0 1 42 3647 L 42 3633  Z " stroke-width="0" stroke-dasharray="0" stroke="rgba(255, 255, 255, 1)" fill="none" class="stroke" />
  <path d="M 45.85714285714286 3640  L 49.714285714285715 3643.857142857143  L 56.14285714285714 3634.8571428571427  " stroke-width="3.8571428571428577" stroke-dasharray="0" stroke="rgba(255, 255, 255, 1)" fill="none" class="stroke btn_check" />
</svg>