<?xml version="1.0" encoding="utf-8"?>
<svg version="1.1" xmlns:xlink="http://www.w3.org/1999/xlink" width="189px" height="120px" xmlns="http://www.w3.org/2000/svg">
  <defs>
    <mask fill="white" id="Clip863">
      <path d="M 11 180  L 11 65  C 11 62.225  13.225 60  16 60  L 195 60  C 197.775 60  200 62.225  200 65  L 200 180  " fill-rule="evenodd" />
    </mask>
  </defs>
  <g transform="matrix(1 0 0 1 -11 -60 )">
    <path d="M 11 60  L 200 60  L 200 180  L 11 180  L 11 60  " fill-rule="nonzero" fill="rgba(204, 204, 204, 1)" stroke="none" class="fill" mask="url(#Clip863)" />
    <path d="M 19 68  L 192 68  L 192 172  L 19 172  L 19 68  " fill-rule="nonzero" fill="rgba(255, 255, 255, 1)" stroke="none" class="fill" mask="url(#Clip863)" />
    <path d="M 118.28 96  C 113.24 96  109.28 92.04  109.28 87  C 109.28 81.96  113.24 78  118.28 78  C 123.32000000000001 78  127.28 81.96  127.28 87  C 127.28 92.04  123.32000000000001 96  118.28 96  " fill-rule="nonzero" fill="rgba(204, 204, 204, 1)" stroke="none" class="fill" mask="url(#Clip863)" />
    <path d="M 22 169  L 22 115.1  L 63.75 90.6  L 122.2 131.66666666666669  L 155.6 105.3  L 189 131.66666666666669  L 189 169  L 22 169  " fill-rule="nonzero" fill="rgba(22, 155, 213, 1)" stroke="none" class="fill" mask="url(#Clip863)" />
  </g>
</svg>