<?xml version="1.0" encoding="utf-8"?>
<svg version="1.1" xmlns:xlink="http://www.w3.org/1999/xlink" width="50px" height="42px" xmlns="http://www.w3.org/2000/svg">
  <defs>
    <pattern id="BGPattern" patternUnits="userSpaceOnUse" alignment="0 0" imageRepeat="None" />
    <mask fill="white" id="Clip195">
      <path d="M 21.935096153846153 24.04261363636364  C 22.6963141025641 24.79829545454545  23.076923076923077 25.693181818181817  23 26.727272727272727  L 23 38.18181818181818  C 23.076923076923077 39.21590909090909  22.6963141025641 40.11079545454545  21.935096153846153 40.86647727272727  C 21.173878205128208 41.622159090909086  20.2724358974359 42  19.230769230769234 42  L 3.8461538461538463 42  C 2.8044871794871797 42  1.903044871794872 41.622159090909086  1.141826923076923 40.86647727272727  C 0.38060897435897434 40.11079545454545  0 39.21590909090909  0 38.18181818181818  L 0 26.727272727272727  C 0 25.693181818181817  0.38060897435897434 24.79829545454545  1.141826923076923 24.04261363636364  C 1.903044871794872 23.286931818181817  2.8044871794871797 22.909090909090907  3.8461538461538463 23  L 19.230769230769234 23  C 20.2724358974359 22.909090909090907  21.173878205128208 23.286931818181817  21.935096153846153 24.04261363636364  Z M 21.935096153846153 1.1335227272727268  C 22.6963141025641 1.8892045454545432  23.076923076923077 2.784090909090909  23 3.8181818181818192  L 23 15.272727272727273  C 23.076923076923077 16.30681818181818  22.6963141025641 17.201704545454543  21.935096153846153 17.957386363636367  C 21.173878205128208 18.713068181818183  20.2724358974359 19.090909090909093  19.230769230769234 19  L 3.8461538461538463 19  C 2.8044871794871797 19.090909090909093  1.903044871794872 18.713068181818183  1.141826923076923 17.957386363636367  C 0.38060897435897434 17.201704545454543  0 16.30681818181818  0 15.272727272727273  L 0 3.8181818181818192  C 0 2.784090909090909  0.38060897435897434 1.8892045454545432  1.141826923076923 1.1335227272727268  C 1.903044871794872 0.37784090909090584  2.8044871794871797 0  3.8461538461538463 0  L 19.230769230769234 0  C 20.2724358974359 0  21.173878205128208 0.37784090909090584  21.935096153846153 1.1335227272727268  Z M 48.85817307692308 24.04261363636364  C 49.61939102564103 24.79829545454545  50 25.693181818181817  50 26.727272727272727  L 50 38.18181818181818  C 50 39.21590909090909  49.61939102564103 40.11079545454545  48.85817307692308 40.86647727272727  C 48.09695512820513 41.622159090909086  47.195512820512825 42  46.15384615384615 42  L 30.76923076923077 42  C 29.72756410256411 42  28.8261217948718 41.622159090909086  28.064903846153843 40.86647727272727  C 27.303685897435898 40.11079545454545  26.923076923076923 39.21590909090909  27 38.18181818181818  L 27 26.727272727272727  C 26.923076923076923 25.693181818181817  27.303685897435898 24.79829545454545  28.064903846153843 24.04261363636364  C 28.8261217948718 23.286931818181817  29.72756410256411 22.909090909090907  30.76923076923077 23  L 46.15384615384615 23  C 47.195512820512825 22.909090909090907  48.09695512820513 23.286931818181817  48.85817307692308 24.04261363636364  Z M 48.85817307692308 1.1335227272727268  C 49.61939102564103 1.8892045454545432  50 2.784090909090909  50 3.8181818181818192  L 50 15.272727272727273  C 50 16.30681818181818  49.61939102564103 17.201704545454543  48.85817307692308 17.957386363636367  C 48.09695512820513 18.713068181818183  47.195512820512825 19.090909090909093  46.15384615384615 19  L 30.76923076923077 19  C 29.72756410256411 19.090909090909093  28.8261217948718 18.713068181818183  28.064903846153843 17.957386363636367  C 27.303685897435898 17.201704545454543  26.923076923076923 16.30681818181818  27 15.272727272727273  L 27 3.8181818181818192  C 26.923076923076923 2.784090909090909  27.303685897435898 1.8892045454545432  28.064903846153843 1.1335227272727268  C 28.8261217948718 0.37784090909090584  29.72756410256411 0  30.76923076923077 0  L 46.15384615384615 0  C 47.195512820512825 0  48.09695512820513 0.37784090909090584  48.85817307692308 1.1335227272727268  Z " fill-rule="evenodd" />
    </mask>
  </defs>
  <g transform="matrix(1 0 0 1 -11 -8 )">
    <path d="M 21.935096153846153 24.04261363636364  C 22.6963141025641 24.79829545454545  23.076923076923077 25.693181818181817  23 26.727272727272727  L 23 38.18181818181818  C 23.076923076923077 39.21590909090909  22.6963141025641 40.11079545454545  21.935096153846153 40.86647727272727  C 21.173878205128208 41.622159090909086  20.2724358974359 42  19.230769230769234 42  L 3.8461538461538463 42  C 2.8044871794871797 42  1.903044871794872 41.622159090909086  1.141826923076923 40.86647727272727  C 0.38060897435897434 40.11079545454545  0 39.21590909090909  0 38.18181818181818  L 0 26.727272727272727  C 0 25.693181818181817  0.38060897435897434 24.79829545454545  1.141826923076923 24.04261363636364  C 1.903044871794872 23.286931818181817  2.8044871794871797 22.909090909090907  3.8461538461538463 23  L 19.230769230769234 23  C 20.2724358974359 22.909090909090907  21.173878205128208 23.286931818181817  21.935096153846153 24.04261363636364  Z M 21.935096153846153 1.1335227272727268  C 22.6963141025641 1.8892045454545432  23.076923076923077 2.784090909090909  23 3.8181818181818192  L 23 15.272727272727273  C 23.076923076923077 16.30681818181818  22.6963141025641 17.201704545454543  21.935096153846153 17.957386363636367  C 21.173878205128208 18.713068181818183  20.2724358974359 19.090909090909093  19.230769230769234 19  L 3.8461538461538463 19  C 2.8044871794871797 19.090909090909093  1.903044871794872 18.713068181818183  1.141826923076923 17.957386363636367  C 0.38060897435897434 17.201704545454543  0 16.30681818181818  0 15.272727272727273  L 0 3.8181818181818192  C 0 2.784090909090909  0.38060897435897434 1.8892045454545432  1.141826923076923 1.1335227272727268  C 1.903044871794872 0.37784090909090584  2.8044871794871797 0  3.8461538461538463 0  L 19.230769230769234 0  C 20.2724358974359 0  21.173878205128208 0.37784090909090584  21.935096153846153 1.1335227272727268  Z M 48.85817307692308 24.04261363636364  C 49.61939102564103 24.79829545454545  50 25.693181818181817  50 26.727272727272727  L 50 38.18181818181818  C 50 39.21590909090909  49.61939102564103 40.11079545454545  48.85817307692308 40.86647727272727  C 48.09695512820513 41.622159090909086  47.195512820512825 42  46.15384615384615 42  L 30.76923076923077 42  C 29.72756410256411 42  28.8261217948718 41.622159090909086  28.064903846153843 40.86647727272727  C 27.303685897435898 40.11079545454545  26.923076923076923 39.21590909090909  27 38.18181818181818  L 27 26.727272727272727  C 26.923076923076923 25.693181818181817  27.303685897435898 24.79829545454545  28.064903846153843 24.04261363636364  C 28.8261217948718 23.286931818181817  29.72756410256411 22.909090909090907  30.76923076923077 23  L 46.15384615384615 23  C 47.195512820512825 22.909090909090907  48.09695512820513 23.286931818181817  48.85817307692308 24.04261363636364  Z M 48.85817307692308 1.1335227272727268  C 49.61939102564103 1.8892045454545432  50 2.784090909090909  50 3.8181818181818192  L 50 15.272727272727273  C 50 16.30681818181818  49.61939102564103 17.201704545454543  48.85817307692308 17.957386363636367  C 48.09695512820513 18.713068181818183  47.195512820512825 19.090909090909093  46.15384615384615 19  L 30.76923076923077 19  C 29.72756410256411 19.090909090909093  28.8261217948718 18.713068181818183  28.064903846153843 17.957386363636367  C 27.303685897435898 17.201704545454543  26.923076923076923 16.30681818181818  27 15.272727272727273  L 27 3.8181818181818192  C 26.923076923076923 2.784090909090909  27.303685897435898 1.8892045454545432  28.064903846153843 1.1335227272727268  C 28.8261217948718 0.37784090909090584  29.72756410256411 0  30.76923076923077 0  L 46.15384615384615 0  C 47.195512820512825 0  48.09695512820513 0.37784090909090584  48.85817307692308 1.1335227272727268  Z " fill-rule="nonzero" fill="rgba(0, 0, 0, 1)" stroke="none" transform="matrix(1 0 0 1 11 8 )" class="fill" />
    <path d="M 21.935096153846153 24.04261363636364  C 22.6963141025641 24.79829545454545  23.076923076923077 25.693181818181817  23 26.727272727272727  L 23 38.18181818181818  C 23.076923076923077 39.21590909090909  22.6963141025641 40.11079545454545  21.935096153846153 40.86647727272727  C 21.173878205128208 41.622159090909086  20.2724358974359 42  19.230769230769234 42  L 3.8461538461538463 42  C 2.8044871794871797 42  1.903044871794872 41.622159090909086  1.141826923076923 40.86647727272727  C 0.38060897435897434 40.11079545454545  0 39.21590909090909  0 38.18181818181818  L 0 26.727272727272727  C 0 25.693181818181817  0.38060897435897434 24.79829545454545  1.141826923076923 24.04261363636364  C 1.903044871794872 23.286931818181817  2.8044871794871797 22.909090909090907  3.8461538461538463 23  L 19.230769230769234 23  C 20.2724358974359 22.909090909090907  21.173878205128208 23.286931818181817  21.935096153846153 24.04261363636364  Z " stroke-width="0" stroke-dasharray="0" stroke="rgba(255, 255, 255, 0)" fill="none" transform="matrix(1 0 0 1 11 8 )" class="stroke" mask="url(#Clip195)" />
    <path d="M 21.935096153846153 1.1335227272727268  C 22.6963141025641 1.8892045454545432  23.076923076923077 2.784090909090909  23 3.8181818181818192  L 23 15.272727272727273  C 23.076923076923077 16.30681818181818  22.6963141025641 17.201704545454543  21.935096153846153 17.957386363636367  C 21.173878205128208 18.713068181818183  20.2724358974359 19.090909090909093  19.230769230769234 19  L 3.8461538461538463 19  C 2.8044871794871797 19.090909090909093  1.903044871794872 18.713068181818183  1.141826923076923 17.957386363636367  C 0.38060897435897434 17.201704545454543  0 16.30681818181818  0 15.272727272727273  L 0 3.8181818181818192  C 0 2.784090909090909  0.38060897435897434 1.8892045454545432  1.141826923076923 1.1335227272727268  C 1.903044871794872 0.37784090909090584  2.8044871794871797 0  3.8461538461538463 0  L 19.230769230769234 0  C 20.2724358974359 0  21.173878205128208 0.37784090909090584  21.935096153846153 1.1335227272727268  Z " stroke-width="0" stroke-dasharray="0" stroke="rgba(255, 255, 255, 0)" fill="none" transform="matrix(1 0 0 1 11 8 )" class="stroke" mask="url(#Clip195)" />
    <path d="M 48.85817307692308 24.04261363636364  C 49.61939102564103 24.79829545454545  50 25.693181818181817  50 26.727272727272727  L 50 38.18181818181818  C 50 39.21590909090909  49.61939102564103 40.11079545454545  48.85817307692308 40.86647727272727  C 48.09695512820513 41.622159090909086  47.195512820512825 42  46.15384615384615 42  L 30.76923076923077 42  C 29.72756410256411 42  28.8261217948718 41.622159090909086  28.064903846153843 40.86647727272727  C 27.303685897435898 40.11079545454545  26.923076923076923 39.21590909090909  27 38.18181818181818  L 27 26.727272727272727  C 26.923076923076923 25.693181818181817  27.303685897435898 24.79829545454545  28.064903846153843 24.04261363636364  C 28.8261217948718 23.286931818181817  29.72756410256411 22.909090909090907  30.76923076923077 23  L 46.15384615384615 23  C 47.195512820512825 22.909090909090907  48.09695512820513 23.286931818181817  48.85817307692308 24.04261363636364  Z " stroke-width="0" stroke-dasharray="0" stroke="rgba(255, 255, 255, 0)" fill="none" transform="matrix(1 0 0 1 11 8 )" class="stroke" mask="url(#Clip195)" />
    <path d="M 48.85817307692308 1.1335227272727268  C 49.61939102564103 1.8892045454545432  50 2.784090909090909  50 3.8181818181818192  L 50 15.272727272727273  C 50 16.30681818181818  49.61939102564103 17.201704545454543  48.85817307692308 17.957386363636367  C 48.09695512820513 18.713068181818183  47.195512820512825 19.090909090909093  46.15384615384615 19  L 30.76923076923077 19  C 29.72756410256411 19.090909090909093  28.8261217948718 18.713068181818183  28.064903846153843 17.957386363636367  C 27.303685897435898 17.201704545454543  26.923076923076923 16.30681818181818  27 15.272727272727273  L 27 3.8181818181818192  C 26.923076923076923 2.784090909090909  27.303685897435898 1.8892045454545432  28.064903846153843 1.1335227272727268  C 28.8261217948718 0.37784090909090584  29.72756410256411 0  30.76923076923077 0  L 46.15384615384615 0  C 47.195512820512825 0  48.09695512820513 0.37784090909090584  48.85817307692308 1.1335227272727268  Z " stroke-width="0" stroke-dasharray="0" stroke="rgba(255, 255, 255, 0)" fill="none" transform="matrix(1 0 0 1 11 8 )" class="stroke" mask="url(#Clip195)" />
  </g>
</svg>