<?xml version="1.0" encoding="utf-8"?>
<svg version="1.1" xmlns:xlink="http://www.w3.org/1999/xlink" width="18px" height="18px" viewBox="156 659 18 18" xmlns="http://www.w3.org/2000/svg">
  <path d="M 165 659  C 170.04 659  174 662.96  174 668  C 174 673.04  170.04 677  165 677  C 159.96 677  156 673.04  156 668  C 156 662.96  159.96 659  165 659  Z " fill-rule="nonzero" fill="rgba(98, 0, 238, 0)" stroke="none" class="fill" />
  <path d="M 165 660  C 169.48 660  173 663.52  173 668  C 173 672.48  169.48 676  165 676  C 160.52 676  157 672.48  157 668  C 157 663.52  160.52 660  165 660  Z " stroke-width="2" stroke-dasharray="0" stroke="rgba(30, 152, 215, 1)" fill="none" class="stroke" />
  <path d="M 165 672.5  C 162.48 672.5  160.5 670.52  160.5 668  C 160.5 665.48  162.48 663.5  165 663.5  C 167.52 663.5  169.5 665.48  169.5 668  C 169.5 670.52  167.52 672.5  165 672.5  " fill-rule="nonzero" fill="rgba(30, 152, 215, 1)" stroke="none" class="stroke btn_check" />
</svg>