<?xml version="1.0" encoding="utf-8"?>
<svg version="1.1" xmlns:xlink="http://www.w3.org/1999/xlink" width="31px" height="26px" xmlns="http://www.w3.org/2000/svg">
  <defs>
    <pattern id="BGPattern" patternUnits="userSpaceOnUse" alignment="0 0" imageRepeat="None" />
    <mask fill="white" id="Clip167">
      <path d="M 2.583333333333333 0  L 28.416666666666664 0  C 29.12708333333333 0  29.735243055555557 0.26519097222221966  30.24114583333333 0.7955729166666676  C 30.74704861111111 1.3259548611111098  31.000000000000007 1.9635416666666676  31 2.708333333333332  L 31 23.291666666666668  C 31.000000000000007 24.036458333333332  30.74704861111111 24.67404513888889  30.24114583333333 25.204427083333332  C 29.735243055555557 25.73480902777778  29.12708333333333 26  28.416666666666664 26  L 2.583333333333333 26  C 1.8729166666666668 26  1.2647569444444446 25.73480902777778  0.7588541666666666 25.204427083333332  C 0.2529513888888889 24.67404513888889  0 24.036458333333332  0 23.291666666666668  L 0 2.708333333333332  C 0 1.9635416666666676  0.2529513888888889 1.3259548611111098  0.7588541666666666 0.7955729166666676  C 1.2647569444444446 0.26519097222221966  1.8729166666666668 0  2.583333333333333 0  Z M 28.416666666666664 2.166666666666668  L 2.583333333333333 2.166666666666668  C 2.443402777777778 2.166666666666668  2.322309027777778 2.2202690972222197  2.220052083333333 2.327473958333332  C 2.117795138888889 2.434678819444442  2.0666666666666664 2.561631944444442  2.0666666666666664 2.708333333333332  L 2.0666666666666664 7  L 28.933333333333334 7  L 28.933333333333334 2.708333333333332  C 28.933333333333334 2.561631944444442  28.882204861111113 2.434678819444442  28.779947916666664 2.327473958333332  C 28.677690972222226 2.2202690972222197  28.556597222222226 2.166666666666668  28.416666666666664 2.166666666666668  Z M 2.583333333333333 23.833333333333332  L 28.416666666666664 23.833333333333332  C 28.556597222222226 23.833333333333332  28.677690972222226 23.77973090277778  28.779947916666664 23.672526041666668  C 28.882204861111113 23.565321180555557  28.933333333333334 23.438368055555557  29 23.291666666666668  L 29 13  L 2 13  L 2 23.291666666666668  C 2.0666666666666664 23.438368055555557  2.117795138888889 23.565321180555557  2.220052083333333 23.672526041666668  C 2.322309027777778 23.77973090277778  2.443402777777778 23.833333333333332  2.583333333333333 23.833333333333332  Z M 8.266666666666666 21.666666666666668  L 4.133333333333333 21.666666666666668  L 4.133333333333333 19.5  L 8.266666666666666 19.5  L 8.266666666666666 21.666666666666668  Z M 16.53333333333333 21.666666666666668  L 10.333333333333332 21.666666666666668  L 10.333333333333332 19.5  L 16.53333333333333 19.5  L 16.53333333333333 21.666666666666668  Z " fill-rule="evenodd" />
    </mask>
  </defs>
  <g transform="matrix(1 0 0 1 -12 -339 )">
    <path d="M 2.583333333333333 0  L 28.416666666666664 0  C 29.12708333333333 0  29.735243055555557 0.26519097222221966  30.24114583333333 0.7955729166666676  C 30.74704861111111 1.3259548611111098  31.000000000000007 1.9635416666666676  31 2.708333333333332  L 31 23.291666666666668  C 31.000000000000007 24.036458333333332  30.74704861111111 24.67404513888889  30.24114583333333 25.204427083333332  C 29.735243055555557 25.73480902777778  29.12708333333333 26  28.416666666666664 26  L 2.583333333333333 26  C 1.8729166666666668 26  1.2647569444444446 25.73480902777778  0.7588541666666666 25.204427083333332  C 0.2529513888888889 24.67404513888889  0 24.036458333333332  0 23.291666666666668  L 0 2.708333333333332  C 0 1.9635416666666676  0.2529513888888889 1.3259548611111098  0.7588541666666666 0.7955729166666676  C 1.2647569444444446 0.26519097222221966  1.8729166666666668 0  2.583333333333333 0  Z M 28.416666666666664 2.166666666666668  L 2.583333333333333 2.166666666666668  C 2.443402777777778 2.166666666666668  2.322309027777778 2.2202690972222197  2.220052083333333 2.327473958333332  C 2.117795138888889 2.434678819444442  2.0666666666666664 2.561631944444442  2.0666666666666664 2.708333333333332  L 2.0666666666666664 7  L 28.933333333333334 7  L 28.933333333333334 2.708333333333332  C 28.933333333333334 2.561631944444442  28.882204861111113 2.434678819444442  28.779947916666664 2.327473958333332  C 28.677690972222226 2.2202690972222197  28.556597222222226 2.166666666666668  28.416666666666664 2.166666666666668  Z M 2.583333333333333 23.833333333333332  L 28.416666666666664 23.833333333333332  C 28.556597222222226 23.833333333333332  28.677690972222226 23.77973090277778  28.779947916666664 23.672526041666668  C 28.882204861111113 23.565321180555557  28.933333333333334 23.438368055555557  29 23.291666666666668  L 29 13  L 2 13  L 2 23.291666666666668  C 2.0666666666666664 23.438368055555557  2.117795138888889 23.565321180555557  2.220052083333333 23.672526041666668  C 2.322309027777778 23.77973090277778  2.443402777777778 23.833333333333332  2.583333333333333 23.833333333333332  Z M 8.266666666666666 21.666666666666668  L 4.133333333333333 21.666666666666668  L 4.133333333333333 19.5  L 8.266666666666666 19.5  L 8.266666666666666 21.666666666666668  Z M 16.53333333333333 21.666666666666668  L 10.333333333333332 21.666666666666668  L 10.333333333333332 19.5  L 16.53333333333333 19.5  L 16.53333333333333 21.666666666666668  Z " fill-rule="nonzero" fill="rgba(0, 0, 0, 1)" stroke="none" transform="matrix(1 0 0 1 12 339 )" class="fill" />
    <path d="M 2.583333333333333 0  L 28.416666666666664 0  C 29.12708333333333 0  29.735243055555557 0.26519097222221966  30.24114583333333 0.7955729166666676  C 30.74704861111111 1.3259548611111098  31.000000000000007 1.9635416666666676  31 2.708333333333332  L 31 23.291666666666668  C 31.000000000000007 24.036458333333332  30.74704861111111 24.67404513888889  30.24114583333333 25.204427083333332  C 29.735243055555557 25.73480902777778  29.12708333333333 26  28.416666666666664 26  L 2.583333333333333 26  C 1.8729166666666668 26  1.2647569444444446 25.73480902777778  0.7588541666666666 25.204427083333332  C 0.2529513888888889 24.67404513888889  0 24.036458333333332  0 23.291666666666668  L 0 2.708333333333332  C 0 1.9635416666666676  0.2529513888888889 1.3259548611111098  0.7588541666666666 0.7955729166666676  C 1.2647569444444446 0.26519097222221966  1.8729166666666668 0  2.583333333333333 0  Z " stroke-width="0" stroke-dasharray="0" stroke="rgba(255, 255, 255, 0)" fill="none" transform="matrix(1 0 0 1 12 339 )" class="stroke" mask="url(#Clip167)" />
    <path d="M 28.416666666666664 2.166666666666668  L 2.583333333333333 2.166666666666668  C 2.443402777777778 2.166666666666668  2.322309027777778 2.2202690972222197  2.220052083333333 2.327473958333332  C 2.117795138888889 2.434678819444442  2.0666666666666664 2.561631944444442  2.0666666666666664 2.708333333333332  L 2.0666666666666664 7  L 28.933333333333334 7  L 28.933333333333334 2.708333333333332  C 28.933333333333334 2.561631944444442  28.882204861111113 2.434678819444442  28.779947916666664 2.327473958333332  C 28.677690972222226 2.2202690972222197  28.556597222222226 2.166666666666668  28.416666666666664 2.166666666666668  Z " stroke-width="0" stroke-dasharray="0" stroke="rgba(255, 255, 255, 0)" fill="none" transform="matrix(1 0 0 1 12 339 )" class="stroke" mask="url(#Clip167)" />
    <path d="M 2.583333333333333 23.833333333333332  L 28.416666666666664 23.833333333333332  C 28.556597222222226 23.833333333333332  28.677690972222226 23.77973090277778  28.779947916666664 23.672526041666668  C 28.882204861111113 23.565321180555557  28.933333333333334 23.438368055555557  29 23.291666666666668  L 29 13  L 2 13  L 2 23.291666666666668  C 2.0666666666666664 23.438368055555557  2.117795138888889 23.565321180555557  2.220052083333333 23.672526041666668  C 2.322309027777778 23.77973090277778  2.443402777777778 23.833333333333332  2.583333333333333 23.833333333333332  Z " stroke-width="0" stroke-dasharray="0" stroke="rgba(255, 255, 255, 0)" fill="none" transform="matrix(1 0 0 1 12 339 )" class="stroke" mask="url(#Clip167)" />
    <path d="M 8.266666666666666 21.666666666666668  L 4.133333333333333 21.666666666666668  L 4.133333333333333 19.5  L 8.266666666666666 19.5  L 8.266666666666666 21.666666666666668  Z " stroke-width="0" stroke-dasharray="0" stroke="rgba(255, 255, 255, 0)" fill="none" transform="matrix(1 0 0 1 12 339 )" class="stroke" mask="url(#Clip167)" />
    <path d="M 16.53333333333333 21.666666666666668  L 10.333333333333332 21.666666666666668  L 10.333333333333332 19.5  L 16.53333333333333 19.5  L 16.53333333333333 21.666666666666668  Z " stroke-width="0" stroke-dasharray="0" stroke="rgba(255, 255, 255, 0)" fill="none" transform="matrix(1 0 0 1 12 339 )" class="stroke" mask="url(#Clip167)" />
  </g>
</svg>