<?xml version="1.0" encoding="utf-8"?>
<svg version="1.1" xmlns:xlink="http://www.w3.org/1999/xlink" width="28px" height="27px" xmlns="http://www.w3.org/2000/svg">
  <defs>
    <pattern id="BGPattern" patternUnits="userSpaceOnUse" alignment="0 0" imageRepeat="None" />
    <mask fill="white" id="Clip61">
      <path d="M 27.176470588235293 17.357142857142854  L 22.235294117647058 6.75  L 17.294117647058826 17.357142857142854  L 27.176470588235293 17.357142857142854  Z M 10.705882352941176 17.357142857142854  L 5.764705882352941 6.75  L 0.8235294117647058 17.357142857142854  L 10.705882352941176 17.357142857142854  Z M 22.647058823529413 3.8571428571428585  L 16.329044117647058 3.8571428571428585  C 16.208946078431374 4.2589285714285685  16.01378676470588 4.618024553571428  15.743566176470587 4.934430803571428  C 15.473345588235293 5.250837053571428  15.166666666666668 5.479352678571427  14.823529411764707 5.619977678571428  L 14.823529411764707 25.071428571428573  L 22.647058823529413 25.071428571428573  C 22.7671568627451 25.071428571428573  22.865808823529413 25.116629464285715  22.94301470588235 25.20703125  C 23.020220588235293 25.297433035714285  23.058823529411764 25.41294642857143  23.058823529411764 25.553571428571427  L 23.058823529411764 26.517857142857142  C 23.058823529411764 26.658482142857142  23.020220588235293 26.773995535714285  22.94301470588235 26.864397321428573  C 22.865808823529413 26.954799107142858  22.7671568627451 27  22.647058823529413 27  L 5.352941176470588 27  C 5.2328431372549025 27  5.134191176470589 26.954799107142858  5.056985294117647 26.864397321428573  C 4.9797794117647065 26.773995535714285  4.9411764705882355 26.658482142857142  4.9411764705882355 26.517857142857142  L 4.9411764705882355 25.553571428571427  C 4.9411764705882355 25.41294642857143  4.9797794117647065 25.297433035714285  5.056985294117647 25.20703125  C 5.134191176470589 25.116629464285715  5.2328431372549025 25.071428571428573  5.352941176470588 25.071428571428573  L 13.176470588235293 25.071428571428573  L 13.176470588235293 5.619977678571428  C 12.833333333333336 5.479352678571427  12.526654411764708 5.250837053571428  12.256433823529413 4.934430803571428  C 11.98621323529412 4.618024553571428  11.79105392156863 4.2589285714285685  11.67095588235294 3.8571428571428585  L 5.352941176470588 3.8571428571428585  C 5.2328431372549025 3.8571428571428585  5.134191176470589 3.811941964285714  5.056985294117647 3.721540178571428  C 4.9797794117647065 3.6311383928571415  4.9411764705882355 3.5156249999999982  4.9411764705882355 3.375  L 4.9411764705882355 2.410714285714286  C 4.9411764705882355 2.270089285714282  4.9797794117647065 2.1545758928571415  5.056985294117647 2.0641741071428585  C 5.134191176470589 1.9737723214285723  5.2328431372549025 1.9285714285714277  5.352941176470588 1.9285714285714277  L 11.67095588235294 1.9285714285714277  C 11.851102941176471 1.356026785714286  12.151348039215687 0.8914620535714267  12.571691176470587 0.5348772321428584  C 12.992034313725492 0.17829241071428714  13.468137254901961 0  14 0  C 14.53186274509804 0  15.007965686274513 0.17829241071428714  15.428308823529413 0.5348772321428584  C 15.848651960784315 0.8914620535714267  16.14889705882353 1.356026785714286  16.329044117647058 1.9285714285714277  L 22.647058823529413 1.9285714285714277  C 22.7671568627451 1.9285714285714277  22.865808823529413 1.9737723214285723  22.94301470588235 2.0641741071428585  C 23.020220588235293 2.1545758928571415  23.058823529411764 2.270089285714282  23.058823529411764 2.410714285714286  L 23.058823529411764 3.375  C 23.058823529411764 3.5156249999999982  23.020220588235293 3.6311383928571415  22.94301470588235 3.721540178571428  C 22.865808823529413 3.811941964285714  22.7671568627451 3.8571428571428585  22.647058823529413 3.8571428571428585  Z M 13.272977941176471 3.744140625  C 13.474571078431373 3.9801897321428545  13.716911764705882 4.0982142857142865  14 4.0982142857142865  C 14.283088235294118 4.0982142857142865  14.52542892156863 3.9801897321428545  14.72702205882353 3.744140625  C 14.928615196078432 3.5080915178571423  15.029411764705882 3.2243303571428585  15.029411764705882 2.8928571428571415  C 15.029411764705882 2.561383928571428  14.928615196078432 2.2776227678571406  14.72702205882353 2.041573660714286  C 14.52542892156863 1.8055245535714288  14.283088235294118 1.6875  14 1.6875  C 13.716911764705882 1.6875  13.474571078431373 1.8055245535714288  13.272977941176471 2.041573660714286  C 13.071384803921571 2.2776227678571406  12.97058823529412 2.561383928571428  12.970588235294118 2.8928571428571415  C 12.97058823529412 3.2243303571428585  13.071384803921571 3.5080915178571423  13.272977941176471 3.744140625  Z M 27.549632352941174 16.13671875  C 27.849877450980394 16.839843749999996  28 17.246651785714285  28 17.357142857142854  C 28 18.090401785714285  27.800551470588236 18.748325892857142  27.401654411764707 19.330915178571427  C 27.002757352941174 19.91350446428571  26.498774509803923 20.370535714285715  25.889705882352942 20.702008928571427  C 25.280637254901965 21.033482142857146  24.660845588235297 21.282087053571427  24.030330882352942 21.447823660714285  C 23.39981617647059 21.613560267857146  22.801470588235297 21.696428571428573  22.235294117647058 21.696428571428573  C 21.669117647058826 21.696428571428573  21.070772058823533 21.613560267857146  20.440257352941174 21.447823660714285  C 19.809742647058826 21.282087053571427  19.189950980392158 21.033482142857146  18.580882352941174 20.702008928571427  C 17.971813725490197 20.370535714285715  17.467830882352942 19.91350446428571  17.068933823529413 19.330915178571427  C 16.67003676470588 18.748325892857142  16.47058823529412 18.090401785714285  16.47058823529412 17.357142857142854  C 16.47058823529412 17.246651785714285  16.620710784313726 16.839843749999996  16.920955882352942 16.13671875  C 17.221200980392158 15.433593749999998  17.615808823529413 14.557198660714285  18.104779411764707 13.507533482142856  C 18.59375 12.457868303571429  19.052696078431374 11.476004464285714  19.481617647058826 10.561941964285714  C 19.910539215686278 9.647879464285712  20.348039215686278 8.723772321428573  20.794117647058826 7.7896205357142865  C 21.240196078431378 6.85546875  21.480392156862745 6.353236607142854  21.514705882352942 6.2829241071428585  C 21.669117647058826 5.9514508928571415  21.909313725490197 5.7857142857142865  22.235294117647058 5.7857142857142865  C 22.561274509803923 5.7857142857142865  22.801470588235293 5.9514508928571415  22.955882352941174 6.2829241071428585  C 22.990196078431378 6.353236607142854  23.230392156862745 6.85546875  23.676470588235293 7.7896205357142865  C 24.122549019607845 8.723772321428573  24.560049019607845 9.647879464285712  24.988970588235293 10.561941964285714  C 25.417892156862745 11.476004464285714  25.876838235294123 12.457868303571429  26.365808823529413 13.507533482142856  C 26.854779411764707 14.557198660714285  27.249387254901965 15.433593749999998  27.549632352941174 16.13671875  Z M 11.07904411764706 16.13671875  C 11.379289215686276 16.839843749999996  11.529411764705882 17.246651785714285  11.529411764705882 17.357142857142854  C 11.529411764705882 18.090401785714285  11.329963235294118 18.748325892857142  10.931066176470587 19.330915178571427  C 10.53216911764706 19.91350446428571  10.028186274509803 20.370535714285715  9.419117647058824 20.702008928571427  C 8.810049019607845 21.033482142857146  8.190257352941176 21.282087053571427  7.559742647058824 21.447823660714285  C 6.92922794117647 21.613560267857146  6.330882352941177 21.696428571428573  5.764705882352941 21.696428571428573  C 5.1985294117647065 21.696428571428573  4.600183823529412 21.613560267857146  3.969669117647059 21.447823660714285  C 3.339154411764706 21.282087053571427  2.719362745098039 21.033482142857146  2.110294117647059 20.702008928571427  C 1.5012254901960786 20.370535714285715  0.9972426470588235 19.91350446428571  0.5983455882352942 19.330915178571427  C 0.1994485294117647 18.748325892857142  0 18.090401785714285  0 17.357142857142854  C 0 17.246651785714285  0.15012254901960784 16.839843749999996  0.4503676470588235 16.13671875  C 0.7506127450980393 15.433593749999998  1.1452205882352942 14.557198660714285  1.6341911764705883 13.507533482142856  C 2.1231617647058822 12.457868303571429  2.582107843137255 11.476004464285714  3.011029411764706 10.561941964285714  C 3.4399509803921573 9.647879464285712  3.8774509803921573 8.723772321428573  4.3235294117647065 7.7896205357142865  C 4.769607843137255 6.85546875  5.009803921568628 6.353236607142854  5.044117647058823 6.2829241071428585  C 5.1985294117647065 5.9514508928571415  5.438725490196078 5.7857142857142865  5.764705882352941 5.7857142857142865  C 6.090686274509804 5.7857142857142865  6.3308823529411775 5.9514508928571415  6.485294117647059 6.2829241071428585  C 6.519607843137255 6.353236607142854  6.759803921568628 6.85546875  7.205882352941176 7.7896205357142865  C 7.651960784313726 8.723772321428573  8.089460784313726 9.647879464285712  8.518382352941176 10.561941964285714  C 8.94730392156863 11.476004464285714  9.40625 12.457868303571429  9.895220588235293 13.507533482142856  C 10.384191176470587 14.557198660714285  10.778799019607845 15.433593749999998  11.07904411764706 16.13671875  Z " fill-rule="evenodd" />
    </mask>
  </defs>
  <g transform="matrix(1 0 0 1 -17 -437 )">
    <path d="M 27.176470588235293 17.357142857142854  L 22.235294117647058 6.75  L 17.294117647058826 17.357142857142854  L 27.176470588235293 17.357142857142854  Z M 10.705882352941176 17.357142857142854  L 5.764705882352941 6.75  L 0.8235294117647058 17.357142857142854  L 10.705882352941176 17.357142857142854  Z M 22.647058823529413 3.8571428571428585  L 16.329044117647058 3.8571428571428585  C 16.208946078431374 4.2589285714285685  16.01378676470588 4.618024553571428  15.743566176470587 4.934430803571428  C 15.473345588235293 5.250837053571428  15.166666666666668 5.479352678571427  14.823529411764707 5.619977678571428  L 14.823529411764707 25.071428571428573  L 22.647058823529413 25.071428571428573  C 22.7671568627451 25.071428571428573  22.865808823529413 25.116629464285715  22.94301470588235 25.20703125  C 23.020220588235293 25.297433035714285  23.058823529411764 25.41294642857143  23.058823529411764 25.553571428571427  L 23.058823529411764 26.517857142857142  C 23.058823529411764 26.658482142857142  23.020220588235293 26.773995535714285  22.94301470588235 26.864397321428573  C 22.865808823529413 26.954799107142858  22.7671568627451 27  22.647058823529413 27  L 5.352941176470588 27  C 5.2328431372549025 27  5.134191176470589 26.954799107142858  5.056985294117647 26.864397321428573  C 4.9797794117647065 26.773995535714285  4.9411764705882355 26.658482142857142  4.9411764705882355 26.517857142857142  L 4.9411764705882355 25.553571428571427  C 4.9411764705882355 25.41294642857143  4.9797794117647065 25.297433035714285  5.056985294117647 25.20703125  C 5.134191176470589 25.116629464285715  5.2328431372549025 25.071428571428573  5.352941176470588 25.071428571428573  L 13.176470588235293 25.071428571428573  L 13.176470588235293 5.619977678571428  C 12.833333333333336 5.479352678571427  12.526654411764708 5.250837053571428  12.256433823529413 4.934430803571428  C 11.98621323529412 4.618024553571428  11.79105392156863 4.2589285714285685  11.67095588235294 3.8571428571428585  L 5.352941176470588 3.8571428571428585  C 5.2328431372549025 3.8571428571428585  5.134191176470589 3.811941964285714  5.056985294117647 3.721540178571428  C 4.9797794117647065 3.6311383928571415  4.9411764705882355 3.5156249999999982  4.9411764705882355 3.375  L 4.9411764705882355 2.410714285714286  C 4.9411764705882355 2.270089285714282  4.9797794117647065 2.1545758928571415  5.056985294117647 2.0641741071428585  C 5.134191176470589 1.9737723214285723  5.2328431372549025 1.9285714285714277  5.352941176470588 1.9285714285714277  L 11.67095588235294 1.9285714285714277  C 11.851102941176471 1.356026785714286  12.151348039215687 0.8914620535714267  12.571691176470587 0.5348772321428584  C 12.992034313725492 0.17829241071428714  13.468137254901961 0  14 0  C 14.53186274509804 0  15.007965686274513 0.17829241071428714  15.428308823529413 0.5348772321428584  C 15.848651960784315 0.8914620535714267  16.14889705882353 1.356026785714286  16.329044117647058 1.9285714285714277  L 22.647058823529413 1.9285714285714277  C 22.7671568627451 1.9285714285714277  22.865808823529413 1.9737723214285723  22.94301470588235 2.0641741071428585  C 23.020220588235293 2.1545758928571415  23.058823529411764 2.270089285714282  23.058823529411764 2.410714285714286  L 23.058823529411764 3.375  C 23.058823529411764 3.5156249999999982  23.020220588235293 3.6311383928571415  22.94301470588235 3.721540178571428  C 22.865808823529413 3.811941964285714  22.7671568627451 3.8571428571428585  22.647058823529413 3.8571428571428585  Z M 13.272977941176471 3.744140625  C 13.474571078431373 3.9801897321428545  13.716911764705882 4.0982142857142865  14 4.0982142857142865  C 14.283088235294118 4.0982142857142865  14.52542892156863 3.9801897321428545  14.72702205882353 3.744140625  C 14.928615196078432 3.5080915178571423  15.029411764705882 3.2243303571428585  15.029411764705882 2.8928571428571415  C 15.029411764705882 2.561383928571428  14.928615196078432 2.2776227678571406  14.72702205882353 2.041573660714286  C 14.52542892156863 1.8055245535714288  14.283088235294118 1.6875  14 1.6875  C 13.716911764705882 1.6875  13.474571078431373 1.8055245535714288  13.272977941176471 2.041573660714286  C 13.071384803921571 2.2776227678571406  12.97058823529412 2.561383928571428  12.970588235294118 2.8928571428571415  C 12.97058823529412 3.2243303571428585  13.071384803921571 3.5080915178571423  13.272977941176471 3.744140625  Z M 27.549632352941174 16.13671875  C 27.849877450980394 16.839843749999996  28 17.246651785714285  28 17.357142857142854  C 28 18.090401785714285  27.800551470588236 18.748325892857142  27.401654411764707 19.330915178571427  C 27.002757352941174 19.91350446428571  26.498774509803923 20.370535714285715  25.889705882352942 20.702008928571427  C 25.280637254901965 21.033482142857146  24.660845588235297 21.282087053571427  24.030330882352942 21.447823660714285  C 23.39981617647059 21.613560267857146  22.801470588235297 21.696428571428573  22.235294117647058 21.696428571428573  C 21.669117647058826 21.696428571428573  21.070772058823533 21.613560267857146  20.440257352941174 21.447823660714285  C 19.809742647058826 21.282087053571427  19.189950980392158 21.033482142857146  18.580882352941174 20.702008928571427  C 17.971813725490197 20.370535714285715  17.467830882352942 19.91350446428571  17.068933823529413 19.330915178571427  C 16.67003676470588 18.748325892857142  16.47058823529412 18.090401785714285  16.47058823529412 17.357142857142854  C 16.47058823529412 17.246651785714285  16.620710784313726 16.839843749999996  16.920955882352942 16.13671875  C 17.221200980392158 15.433593749999998  17.615808823529413 14.557198660714285  18.104779411764707 13.507533482142856  C 18.59375 12.457868303571429  19.052696078431374 11.476004464285714  19.481617647058826 10.561941964285714  C 19.910539215686278 9.647879464285712  20.348039215686278 8.723772321428573  20.794117647058826 7.7896205357142865  C 21.240196078431378 6.85546875  21.480392156862745 6.353236607142854  21.514705882352942 6.2829241071428585  C 21.669117647058826 5.9514508928571415  21.909313725490197 5.7857142857142865  22.235294117647058 5.7857142857142865  C 22.561274509803923 5.7857142857142865  22.801470588235293 5.9514508928571415  22.955882352941174 6.2829241071428585  C 22.990196078431378 6.353236607142854  23.230392156862745 6.85546875  23.676470588235293 7.7896205357142865  C 24.122549019607845 8.723772321428573  24.560049019607845 9.647879464285712  24.988970588235293 10.561941964285714  C 25.417892156862745 11.476004464285714  25.876838235294123 12.457868303571429  26.365808823529413 13.507533482142856  C 26.854779411764707 14.557198660714285  27.249387254901965 15.433593749999998  27.549632352941174 16.13671875  Z M 11.07904411764706 16.13671875  C 11.379289215686276 16.839843749999996  11.529411764705882 17.246651785714285  11.529411764705882 17.357142857142854  C 11.529411764705882 18.090401785714285  11.329963235294118 18.748325892857142  10.931066176470587 19.330915178571427  C 10.53216911764706 19.91350446428571  10.028186274509803 20.370535714285715  9.419117647058824 20.702008928571427  C 8.810049019607845 21.033482142857146  8.190257352941176 21.282087053571427  7.559742647058824 21.447823660714285  C 6.92922794117647 21.613560267857146  6.330882352941177 21.696428571428573  5.764705882352941 21.696428571428573  C 5.1985294117647065 21.696428571428573  4.600183823529412 21.613560267857146  3.969669117647059 21.447823660714285  C 3.339154411764706 21.282087053571427  2.719362745098039 21.033482142857146  2.110294117647059 20.702008928571427  C 1.5012254901960786 20.370535714285715  0.9972426470588235 19.91350446428571  0.5983455882352942 19.330915178571427  C 0.1994485294117647 18.748325892857142  0 18.090401785714285  0 17.357142857142854  C 0 17.246651785714285  0.15012254901960784 16.839843749999996  0.4503676470588235 16.13671875  C 0.7506127450980393 15.433593749999998  1.1452205882352942 14.557198660714285  1.6341911764705883 13.507533482142856  C 2.1231617647058822 12.457868303571429  2.582107843137255 11.476004464285714  3.011029411764706 10.561941964285714  C 3.4399509803921573 9.647879464285712  3.8774509803921573 8.723772321428573  4.3235294117647065 7.7896205357142865  C 4.769607843137255 6.85546875  5.009803921568628 6.353236607142854  5.044117647058823 6.2829241071428585  C 5.1985294117647065 5.9514508928571415  5.438725490196078 5.7857142857142865  5.764705882352941 5.7857142857142865  C 6.090686274509804 5.7857142857142865  6.3308823529411775 5.9514508928571415  6.485294117647059 6.2829241071428585  C 6.519607843137255 6.353236607142854  6.759803921568628 6.85546875  7.205882352941176 7.7896205357142865  C 7.651960784313726 8.723772321428573  8.089460784313726 9.647879464285712  8.518382352941176 10.561941964285714  C 8.94730392156863 11.476004464285714  9.40625 12.457868303571429  9.895220588235293 13.507533482142856  C 10.384191176470587 14.557198660714285  10.778799019607845 15.433593749999998  11.07904411764706 16.13671875  Z " fill-rule="nonzero" fill="rgba(0, 0, 0, 1)" stroke="none" transform="matrix(1 0 0 1 17 437 )" class="fill" />
    <path d="M 27.176470588235293 17.357142857142854  L 22.235294117647058 6.75  L 17.294117647058826 17.357142857142854  L 27.176470588235293 17.357142857142854  Z " stroke-width="0" stroke-dasharray="0" stroke="rgba(255, 255, 255, 0)" fill="none" transform="matrix(1 0 0 1 17 437 )" class="stroke" mask="url(#Clip61)" />
    <path d="M 10.705882352941176 17.357142857142854  L 5.764705882352941 6.75  L 0.8235294117647058 17.357142857142854  L 10.705882352941176 17.357142857142854  Z " stroke-width="0" stroke-dasharray="0" stroke="rgba(255, 255, 255, 0)" fill="none" transform="matrix(1 0 0 1 17 437 )" class="stroke" mask="url(#Clip61)" />
    <path d="M 22.647058823529413 3.8571428571428585  L 16.329044117647058 3.8571428571428585  C 16.208946078431374 4.2589285714285685  16.01378676470588 4.618024553571428  15.743566176470587 4.934430803571428  C 15.473345588235293 5.250837053571428  15.166666666666668 5.479352678571427  14.823529411764707 5.619977678571428  L 14.823529411764707 25.071428571428573  L 22.647058823529413 25.071428571428573  C 22.7671568627451 25.071428571428573  22.865808823529413 25.116629464285715  22.94301470588235 25.20703125  C 23.020220588235293 25.297433035714285  23.058823529411764 25.41294642857143  23.058823529411764 25.553571428571427  L 23.058823529411764 26.517857142857142  C 23.058823529411764 26.658482142857142  23.020220588235293 26.773995535714285  22.94301470588235 26.864397321428573  C 22.865808823529413 26.954799107142858  22.7671568627451 27  22.647058823529413 27  L 5.352941176470588 27  C 5.2328431372549025 27  5.134191176470589 26.954799107142858  5.056985294117647 26.864397321428573  C 4.9797794117647065 26.773995535714285  4.9411764705882355 26.658482142857142  4.9411764705882355 26.517857142857142  L 4.9411764705882355 25.553571428571427  C 4.9411764705882355 25.41294642857143  4.9797794117647065 25.297433035714285  5.056985294117647 25.20703125  C 5.134191176470589 25.116629464285715  5.2328431372549025 25.071428571428573  5.352941176470588 25.071428571428573  L 13.176470588235293 25.071428571428573  L 13.176470588235293 5.619977678571428  C 12.833333333333336 5.479352678571427  12.526654411764708 5.250837053571428  12.256433823529413 4.934430803571428  C 11.98621323529412 4.618024553571428  11.79105392156863 4.2589285714285685  11.67095588235294 3.8571428571428585  L 5.352941176470588 3.8571428571428585  C 5.2328431372549025 3.8571428571428585  5.134191176470589 3.811941964285714  5.056985294117647 3.721540178571428  C 4.9797794117647065 3.6311383928571415  4.9411764705882355 3.5156249999999982  4.9411764705882355 3.375  L 4.9411764705882355 2.410714285714286  C 4.9411764705882355 2.270089285714282  4.9797794117647065 2.1545758928571415  5.056985294117647 2.0641741071428585  C 5.134191176470589 1.9737723214285723  5.2328431372549025 1.9285714285714277  5.352941176470588 1.9285714285714277  L 11.67095588235294 1.9285714285714277  C 11.851102941176471 1.356026785714286  12.151348039215687 0.8914620535714267  12.571691176470587 0.5348772321428584  C 12.992034313725492 0.17829241071428714  13.468137254901961 0  14 0  C 14.53186274509804 0  15.007965686274513 0.17829241071428714  15.428308823529413 0.5348772321428584  C 15.848651960784315 0.8914620535714267  16.14889705882353 1.356026785714286  16.329044117647058 1.9285714285714277  L 22.647058823529413 1.9285714285714277  C 22.7671568627451 1.9285714285714277  22.865808823529413 1.9737723214285723  22.94301470588235 2.0641741071428585  C 23.020220588235293 2.1545758928571415  23.058823529411764 2.270089285714282  23.058823529411764 2.410714285714286  L 23.058823529411764 3.375  C 23.058823529411764 3.5156249999999982  23.020220588235293 3.6311383928571415  22.94301470588235 3.721540178571428  C 22.865808823529413 3.811941964285714  22.7671568627451 3.8571428571428585  22.647058823529413 3.8571428571428585  Z " stroke-width="0" stroke-dasharray="0" stroke="rgba(255, 255, 255, 0)" fill="none" transform="matrix(1 0 0 1 17 437 )" class="stroke" mask="url(#Clip61)" />
    <path d="M 13.272977941176471 3.744140625  C 13.474571078431373 3.9801897321428545  13.716911764705882 4.0982142857142865  14 4.0982142857142865  C 14.283088235294118 4.0982142857142865  14.52542892156863 3.9801897321428545  14.72702205882353 3.744140625  C 14.928615196078432 3.5080915178571423  15.029411764705882 3.2243303571428585  15.029411764705882 2.8928571428571415  C 15.029411764705882 2.561383928571428  14.928615196078432 2.2776227678571406  14.72702205882353 2.041573660714286  C 14.52542892156863 1.8055245535714288  14.283088235294118 1.6875  14 1.6875  C 13.716911764705882 1.6875  13.474571078431373 1.8055245535714288  13.272977941176471 2.041573660714286  C 13.071384803921571 2.2776227678571406  12.97058823529412 2.561383928571428  12.970588235294118 2.8928571428571415  C 12.97058823529412 3.2243303571428585  13.071384803921571 3.5080915178571423  13.272977941176471 3.744140625  Z " stroke-width="0" stroke-dasharray="0" stroke="rgba(255, 255, 255, 0)" fill="none" transform="matrix(1 0 0 1 17 437 )" class="stroke" mask="url(#Clip61)" />
    <path d="M 27.549632352941174 16.13671875  C 27.849877450980394 16.839843749999996  28 17.246651785714285  28 17.357142857142854  C 28 18.090401785714285  27.800551470588236 18.748325892857142  27.401654411764707 19.330915178571427  C 27.002757352941174 19.91350446428571  26.498774509803923 20.370535714285715  25.889705882352942 20.702008928571427  C 25.280637254901965 21.033482142857146  24.660845588235297 21.282087053571427  24.030330882352942 21.447823660714285  C 23.39981617647059 21.613560267857146  22.801470588235297 21.696428571428573  22.235294117647058 21.696428571428573  C 21.669117647058826 21.696428571428573  21.070772058823533 21.613560267857146  20.440257352941174 21.447823660714285  C 19.809742647058826 21.282087053571427  19.189950980392158 21.033482142857146  18.580882352941174 20.702008928571427  C 17.971813725490197 20.370535714285715  17.467830882352942 19.91350446428571  17.068933823529413 19.330915178571427  C 16.67003676470588 18.748325892857142  16.47058823529412 18.090401785714285  16.47058823529412 17.357142857142854  C 16.47058823529412 17.246651785714285  16.620710784313726 16.839843749999996  16.920955882352942 16.13671875  C 17.221200980392158 15.433593749999998  17.615808823529413 14.557198660714285  18.104779411764707 13.507533482142856  C 18.59375 12.457868303571429  19.052696078431374 11.476004464285714  19.481617647058826 10.561941964285714  C 19.910539215686278 9.647879464285712  20.348039215686278 8.723772321428573  20.794117647058826 7.7896205357142865  C 21.240196078431378 6.85546875  21.480392156862745 6.353236607142854  21.514705882352942 6.2829241071428585  C 21.669117647058826 5.9514508928571415  21.909313725490197 5.7857142857142865  22.235294117647058 5.7857142857142865  C 22.561274509803923 5.7857142857142865  22.801470588235293 5.9514508928571415  22.955882352941174 6.2829241071428585  C 22.990196078431378 6.353236607142854  23.230392156862745 6.85546875  23.676470588235293 7.7896205357142865  C 24.122549019607845 8.723772321428573  24.560049019607845 9.647879464285712  24.988970588235293 10.561941964285714  C 25.417892156862745 11.476004464285714  25.876838235294123 12.457868303571429  26.365808823529413 13.507533482142856  C 26.854779411764707 14.557198660714285  27.249387254901965 15.433593749999998  27.549632352941174 16.13671875  Z " stroke-width="0" stroke-dasharray="0" stroke="rgba(255, 255, 255, 0)" fill="none" transform="matrix(1 0 0 1 17 437 )" class="stroke" mask="url(#Clip61)" />
    <path d="M 11.07904411764706 16.13671875  C 11.379289215686276 16.839843749999996  11.529411764705882 17.246651785714285  11.529411764705882 17.357142857142854  C 11.529411764705882 18.090401785714285  11.329963235294118 18.748325892857142  10.931066176470587 19.330915178571427  C 10.53216911764706 19.91350446428571  10.028186274509803 20.370535714285715  9.419117647058824 20.702008928571427  C 8.810049019607845 21.033482142857146  8.190257352941176 21.282087053571427  7.559742647058824 21.447823660714285  C 6.92922794117647 21.613560267857146  6.330882352941177 21.696428571428573  5.764705882352941 21.696428571428573  C 5.1985294117647065 21.696428571428573  4.600183823529412 21.613560267857146  3.969669117647059 21.447823660714285  C 3.339154411764706 21.282087053571427  2.719362745098039 21.033482142857146  2.110294117647059 20.702008928571427  C 1.5012254901960786 20.370535714285715  0.9972426470588235 19.91350446428571  0.5983455882352942 19.330915178571427  C 0.1994485294117647 18.748325892857142  0 18.090401785714285  0 17.357142857142854  C 0 17.246651785714285  0.15012254901960784 16.839843749999996  0.4503676470588235 16.13671875  C 0.7506127450980393 15.433593749999998  1.1452205882352942 14.557198660714285  1.6341911764705883 13.507533482142856  C 2.1231617647058822 12.457868303571429  2.582107843137255 11.476004464285714  3.011029411764706 10.561941964285714  C 3.4399509803921573 9.647879464285712  3.8774509803921573 8.723772321428573  4.3235294117647065 7.7896205357142865  C 4.769607843137255 6.85546875  5.009803921568628 6.353236607142854  5.044117647058823 6.2829241071428585  C 5.1985294117647065 5.9514508928571415  5.438725490196078 5.7857142857142865  5.764705882352941 5.7857142857142865  C 6.090686274509804 5.7857142857142865  6.3308823529411775 5.9514508928571415  6.485294117647059 6.2829241071428585  C 6.519607843137255 6.353236607142854  6.759803921568628 6.85546875  7.205882352941176 7.7896205357142865  C 7.651960784313726 8.723772321428573  8.089460784313726 9.647879464285712  8.518382352941176 10.561941964285714  C 8.94730392156863 11.476004464285714  9.40625 12.457868303571429  9.895220588235293 13.507533482142856  C 10.384191176470587 14.557198660714285  10.778799019607845 15.433593749999998  11.07904411764706 16.13671875  Z " stroke-width="0" stroke-dasharray="0" stroke="rgba(255, 255, 255, 0)" fill="none" transform="matrix(1 0 0 1 17 437 )" class="stroke" mask="url(#Clip61)" />
  </g>
</svg>