<?xml version="1.0" encoding="utf-8"?>
<svg version="1.1" xmlns:xlink="http://www.w3.org/1999/xlink" width="24px" height="25px" xmlns="http://www.w3.org/2000/svg">
  <defs>
    <pattern id="BGPattern" patternUnits="userSpaceOnUse" alignment="0 0" imageRepeat="None" />
    <mask fill="white" id="Clip931">
      <path d="M 1.8461538461538463 19.19642857142857  L 1.8461538461538463 23.214285714285715  L 6 23.214285714285715  L 6 19.19642857142857  L 1.8461538461538463 19.19642857142857  Z M 6.9230769230769225 19.19642857142857  L 6.9230769230769225 23.214285714285715  L 11.538461538461538 23.214285714285715  L 11.538461538461538 19.19642857142857  L 6.9230769230769225 19.19642857142857  Z M 1.8461538461538463 13.839285714285715  L 1.8461538461538463 18.30357142857143  L 6 18.30357142857143  L 6 13.839285714285715  L 1.8461538461538463 13.839285714285715  Z M 6.9230769230769225 13.839285714285715  L 6.9230769230769225 18.30357142857143  L 11.538461538461538 18.30357142857143  L 11.538461538461538 13.839285714285715  L 6.9230769230769225 13.839285714285715  Z M 1.8461538461538463 8.928571428571427  L 1.8461538461538463 12.94642857142857  L 6 12.94642857142857  L 6 8.928571428571427  L 1.8461538461538463 8.928571428571427  Z M 12.461538461538463 19.19642857142857  L 12.461538461538463 23.214285714285715  L 17.076923076923077 23.214285714285715  L 17.076923076923077 19.19642857142857  L 12.461538461538463 19.19642857142857  Z M 6.9230769230769225 8.928571428571427  L 6.9230769230769225 12.94642857142857  L 11.538461538461538 12.94642857142857  L 11.538461538461538 8.928571428571427  L 6.9230769230769225 8.928571428571427  Z M 18 19.19642857142857  L 18 23.214285714285715  L 22.153846153846153 23.214285714285715  L 22.153846153846153 19.19642857142857  L 18 19.19642857142857  Z M 12.461538461538463 13.839285714285715  L 12.461538461538463 18.30357142857143  L 17.076923076923077 18.30357142857143  L 17.076923076923077 13.839285714285715  L 12.461538461538463 13.839285714285715  Z M 7.247596153846153 6.563895089285715  C 7.338942307692308 6.475539434523808  7.384615384615385 6.3709077380952355  7.384615384615385 6.25  L 7.384615384615385 2.2321428571428577  C 7.384615384615385 2.111235119047619  7.338942307692308 2.0066034226190466  7.247596153846153 1.9182477678571423  C 7.156250000000001 1.8298921130952355  7.048076923076923 1.785714285714285  6.9230769230769225 1.785714285714285  L 6 1.785714285714285  C 5.875 1.785714285714285  5.766826923076923 1.8298921130952355  5.675480769230769 1.9182477678571423  C 5.584134615384615 2.0066034226190466  5.538461538461538 2.111235119047619  5.538461538461538 2.2321428571428577  L 5.538461538461538 6.25  C 5.538461538461538 6.3709077380952355  5.584134615384615 6.475539434523808  5.675480769230769 6.563895089285715  C 5.766826923076923 6.6522507440476195  5.875 6.696428571428573  6 6.696428571428573  L 6.9230769230769225 6.696428571428573  C 7.048076923076923 6.696428571428573  7.156250000000001 6.6522507440476195  7.247596153846153 6.563895089285715  Z M 18 13.839285714285715  L 18 18.30357142857143  L 22.153846153846153 18.30357142857143  L 22.153846153846153 13.839285714285715  L 18 13.839285714285715  Z M 12.461538461538463 8.928571428571427  L 12.461538461538463 12.94642857142857  L 17.076923076923077 12.94642857142857  L 17.076923076923077 8.928571428571427  L 12.461538461538463 8.928571428571427  Z M 18 8.928571428571427  L 18 12.94642857142857  L 22.153846153846153 12.94642857142857  L 22.153846153846153 8.928571428571427  L 18 8.928571428571427  Z M 18.32451923076923 6.563895089285715  C 18.415865384615387 6.475539434523808  18.461538461538463 6.3709077380952355  18.461538461538463 6.25  L 18.461538461538463 2.2321428571428577  C 18.461538461538463 2.111235119047619  18.415865384615387 2.0066034226190466  18.32451923076923 1.9182477678571423  C 18.23317307692308 1.8298921130952355  18.125 1.785714285714285  18 1.785714285714285  L 17.076923076923077 1.785714285714285  C 16.95192307692308 1.785714285714285  16.84375 1.8298921130952355  16.752403846153847 1.9182477678571423  C 16.661057692307693 2.0066034226190466  16.615384615384613 2.111235119047619  16.615384615384613 2.2321428571428577  L 16.615384615384613 6.25  C 16.615384615384613 6.3709077380952355  16.661057692307693 6.475539434523808  16.752403846153847 6.563895089285715  C 16.84375 6.6522507440476195  16.95192307692308 6.696428571428573  17.076923076923077 6.696428571428573  L 18 6.696428571428573  C 18.125 6.696428571428573  18.23317307692308 6.6522507440476195  18.32451923076923 6.563895089285715  Z M 23.451923076923077 4.1015625  C 23.817307692307693 4.4549851190476195  24 4.873511904761904  24 5.357142857142858  L 24 23.214285714285715  C 24 23.697916666666668  23.817307692307693 24.116443452380953  23.451923076923077 24.469866071428573  C 23.086538461538463 24.82328869047619  22.653846153846157 25  22.153846153846153 25  L 1.8461538461538463 25  C 1.3461538461538463 25  0.9134615384615385 24.82328869047619  0.548076923076923 24.469866071428573  C 0.18269230769230768 24.116443452380953  0 23.697916666666668  0 23.214285714285715  L 0 5.357142857142858  C 0 4.873511904761904  0.18269230769230768 4.4549851190476195  0.548076923076923 4.1015625  C 0.9134615384615385 3.748139880952378  1.3461538461538463 3.5714285714285725  1.8461538461538463 3.5714285714285725  L 3.6923076923076925 3.5714285714285725  L 3.6923076923076925 2.2321428571428577  C 3.6923076923076925 1.6183035714285725  3.918269230769231 1.092819940476189  4.3701923076923075 0.6556919642857151  C 4.822115384615385 0.21856398809523836  5.365384615384616 0  6 0  L 6.9230769230769225 0  C 7.5576923076923075 0  8.10096153846154 0.21856398809523836  8.552884615384615 0.6556919642857151  C 9.004807692307693 1.092819940476189  9.230769230769232 1.6183035714285725  9.230769230769232 2.2321428571428577  L 9.230769230769232 3.5714285714285725  L 14.76923076923077 3.5714285714285725  L 14.76923076923077 2.2321428571428577  C 14.76923076923077 1.6183035714285725  14.995192307692308 1.092819940476189  15.447115384615385 0.6556919642857151  C 15.899038461538463 0.21856398809523836  16.442307692307693 0  17.076923076923077 0  L 18 0  C 18.634615384615387 0  19.177884615384617 0.21856398809523836  19.629807692307693 0.6556919642857151  C 20.081730769230774 1.092819940476189  20.307692307692307 1.6183035714285725  20.307692307692307 2.2321428571428577  L 20.307692307692307 3.5714285714285725  L 22.153846153846153 3.5714285714285725  C 22.653846153846157 3.5714285714285725  23.086538461538463 3.748139880952378  23.451923076923077 4.1015625  Z " fill-rule="evenodd" />
    </mask>
  </defs>
  <g transform="matrix(1 0 0 1 -19 -387 )">
    <path d="M 1.8461538461538463 19.19642857142857  L 1.8461538461538463 23.214285714285715  L 6 23.214285714285715  L 6 19.19642857142857  L 1.8461538461538463 19.19642857142857  Z M 6.9230769230769225 19.19642857142857  L 6.9230769230769225 23.214285714285715  L 11.538461538461538 23.214285714285715  L 11.538461538461538 19.19642857142857  L 6.9230769230769225 19.19642857142857  Z M 1.8461538461538463 13.839285714285715  L 1.8461538461538463 18.30357142857143  L 6 18.30357142857143  L 6 13.839285714285715  L 1.8461538461538463 13.839285714285715  Z M 6.9230769230769225 13.839285714285715  L 6.9230769230769225 18.30357142857143  L 11.538461538461538 18.30357142857143  L 11.538461538461538 13.839285714285715  L 6.9230769230769225 13.839285714285715  Z M 1.8461538461538463 8.928571428571427  L 1.8461538461538463 12.94642857142857  L 6 12.94642857142857  L 6 8.928571428571427  L 1.8461538461538463 8.928571428571427  Z M 12.461538461538463 19.19642857142857  L 12.461538461538463 23.214285714285715  L 17.076923076923077 23.214285714285715  L 17.076923076923077 19.19642857142857  L 12.461538461538463 19.19642857142857  Z M 6.9230769230769225 8.928571428571427  L 6.9230769230769225 12.94642857142857  L 11.538461538461538 12.94642857142857  L 11.538461538461538 8.928571428571427  L 6.9230769230769225 8.928571428571427  Z M 18 19.19642857142857  L 18 23.214285714285715  L 22.153846153846153 23.214285714285715  L 22.153846153846153 19.19642857142857  L 18 19.19642857142857  Z M 12.461538461538463 13.839285714285715  L 12.461538461538463 18.30357142857143  L 17.076923076923077 18.30357142857143  L 17.076923076923077 13.839285714285715  L 12.461538461538463 13.839285714285715  Z M 7.247596153846153 6.563895089285715  C 7.338942307692308 6.475539434523808  7.384615384615385 6.3709077380952355  7.384615384615385 6.25  L 7.384615384615385 2.2321428571428577  C 7.384615384615385 2.111235119047619  7.338942307692308 2.0066034226190466  7.247596153846153 1.9182477678571423  C 7.156250000000001 1.8298921130952355  7.048076923076923 1.785714285714285  6.9230769230769225 1.785714285714285  L 6 1.785714285714285  C 5.875 1.785714285714285  5.766826923076923 1.8298921130952355  5.675480769230769 1.9182477678571423  C 5.584134615384615 2.0066034226190466  5.538461538461538 2.111235119047619  5.538461538461538 2.2321428571428577  L 5.538461538461538 6.25  C 5.538461538461538 6.3709077380952355  5.584134615384615 6.475539434523808  5.675480769230769 6.563895089285715  C 5.766826923076923 6.6522507440476195  5.875 6.696428571428573  6 6.696428571428573  L 6.9230769230769225 6.696428571428573  C 7.048076923076923 6.696428571428573  7.156250000000001 6.6522507440476195  7.247596153846153 6.563895089285715  Z M 18 13.839285714285715  L 18 18.30357142857143  L 22.153846153846153 18.30357142857143  L 22.153846153846153 13.839285714285715  L 18 13.839285714285715  Z M 12.461538461538463 8.928571428571427  L 12.461538461538463 12.94642857142857  L 17.076923076923077 12.94642857142857  L 17.076923076923077 8.928571428571427  L 12.461538461538463 8.928571428571427  Z M 18 8.928571428571427  L 18 12.94642857142857  L 22.153846153846153 12.94642857142857  L 22.153846153846153 8.928571428571427  L 18 8.928571428571427  Z M 18.32451923076923 6.563895089285715  C 18.415865384615387 6.475539434523808  18.461538461538463 6.3709077380952355  18.461538461538463 6.25  L 18.461538461538463 2.2321428571428577  C 18.461538461538463 2.111235119047619  18.415865384615387 2.0066034226190466  18.32451923076923 1.9182477678571423  C 18.23317307692308 1.8298921130952355  18.125 1.785714285714285  18 1.785714285714285  L 17.076923076923077 1.785714285714285  C 16.95192307692308 1.785714285714285  16.84375 1.8298921130952355  16.752403846153847 1.9182477678571423  C 16.661057692307693 2.0066034226190466  16.615384615384613 2.111235119047619  16.615384615384613 2.2321428571428577  L 16.615384615384613 6.25  C 16.615384615384613 6.3709077380952355  16.661057692307693 6.475539434523808  16.752403846153847 6.563895089285715  C 16.84375 6.6522507440476195  16.95192307692308 6.696428571428573  17.076923076923077 6.696428571428573  L 18 6.696428571428573  C 18.125 6.696428571428573  18.23317307692308 6.6522507440476195  18.32451923076923 6.563895089285715  Z M 23.451923076923077 4.1015625  C 23.817307692307693 4.4549851190476195  24 4.873511904761904  24 5.357142857142858  L 24 23.214285714285715  C 24 23.697916666666668  23.817307692307693 24.116443452380953  23.451923076923077 24.469866071428573  C 23.086538461538463 24.82328869047619  22.653846153846157 25  22.153846153846153 25  L 1.8461538461538463 25  C 1.3461538461538463 25  0.9134615384615385 24.82328869047619  0.548076923076923 24.469866071428573  C 0.18269230769230768 24.116443452380953  0 23.697916666666668  0 23.214285714285715  L 0 5.357142857142858  C 0 4.873511904761904  0.18269230769230768 4.4549851190476195  0.548076923076923 4.1015625  C 0.9134615384615385 3.748139880952378  1.3461538461538463 3.5714285714285725  1.8461538461538463 3.5714285714285725  L 3.6923076923076925 3.5714285714285725  L 3.6923076923076925 2.2321428571428577  C 3.6923076923076925 1.6183035714285725  3.918269230769231 1.092819940476189  4.3701923076923075 0.6556919642857151  C 4.822115384615385 0.21856398809523836  5.365384615384616 0  6 0  L 6.9230769230769225 0  C 7.5576923076923075 0  8.10096153846154 0.21856398809523836  8.552884615384615 0.6556919642857151  C 9.004807692307693 1.092819940476189  9.230769230769232 1.6183035714285725  9.230769230769232 2.2321428571428577  L 9.230769230769232 3.5714285714285725  L 14.76923076923077 3.5714285714285725  L 14.76923076923077 2.2321428571428577  C 14.76923076923077 1.6183035714285725  14.995192307692308 1.092819940476189  15.447115384615385 0.6556919642857151  C 15.899038461538463 0.21856398809523836  16.442307692307693 0  17.076923076923077 0  L 18 0  C 18.634615384615387 0  19.177884615384617 0.21856398809523836  19.629807692307693 0.6556919642857151  C 20.081730769230774 1.092819940476189  20.307692307692307 1.6183035714285725  20.307692307692307 2.2321428571428577  L 20.307692307692307 3.5714285714285725  L 22.153846153846153 3.5714285714285725  C 22.653846153846157 3.5714285714285725  23.086538461538463 3.748139880952378  23.451923076923077 4.1015625  Z " fill-rule="nonzero" fill="rgba(0, 0, 0, 1)" stroke="none" transform="matrix(1 0 0 1 19 387 )" class="fill" />
    <path d="M 1.8461538461538463 19.19642857142857  L 1.8461538461538463 23.214285714285715  L 6 23.214285714285715  L 6 19.19642857142857  L 1.8461538461538463 19.19642857142857  Z " stroke-width="0" stroke-dasharray="0" stroke="rgba(255, 255, 255, 0)" fill="none" transform="matrix(1 0 0 1 19 387 )" class="stroke" mask="url(#Clip931)" />
    <path d="M 6.9230769230769225 19.19642857142857  L 6.9230769230769225 23.214285714285715  L 11.538461538461538 23.214285714285715  L 11.538461538461538 19.19642857142857  L 6.9230769230769225 19.19642857142857  Z " stroke-width="0" stroke-dasharray="0" stroke="rgba(255, 255, 255, 0)" fill="none" transform="matrix(1 0 0 1 19 387 )" class="stroke" mask="url(#Clip931)" />
    <path d="M 1.8461538461538463 13.839285714285715  L 1.8461538461538463 18.30357142857143  L 6 18.30357142857143  L 6 13.839285714285715  L 1.8461538461538463 13.839285714285715  Z " stroke-width="0" stroke-dasharray="0" stroke="rgba(255, 255, 255, 0)" fill="none" transform="matrix(1 0 0 1 19 387 )" class="stroke" mask="url(#Clip931)" />
    <path d="M 6.9230769230769225 13.839285714285715  L 6.9230769230769225 18.30357142857143  L 11.538461538461538 18.30357142857143  L 11.538461538461538 13.839285714285715  L 6.9230769230769225 13.839285714285715  Z " stroke-width="0" stroke-dasharray="0" stroke="rgba(255, 255, 255, 0)" fill="none" transform="matrix(1 0 0 1 19 387 )" class="stroke" mask="url(#Clip931)" />
    <path d="M 1.8461538461538463 8.928571428571427  L 1.8461538461538463 12.94642857142857  L 6 12.94642857142857  L 6 8.928571428571427  L 1.8461538461538463 8.928571428571427  Z " stroke-width="0" stroke-dasharray="0" stroke="rgba(255, 255, 255, 0)" fill="none" transform="matrix(1 0 0 1 19 387 )" class="stroke" mask="url(#Clip931)" />
    <path d="M 12.461538461538463 19.19642857142857  L 12.461538461538463 23.214285714285715  L 17.076923076923077 23.214285714285715  L 17.076923076923077 19.19642857142857  L 12.461538461538463 19.19642857142857  Z " stroke-width="0" stroke-dasharray="0" stroke="rgba(255, 255, 255, 0)" fill="none" transform="matrix(1 0 0 1 19 387 )" class="stroke" mask="url(#Clip931)" />
    <path d="M 6.9230769230769225 8.928571428571427  L 6.9230769230769225 12.94642857142857  L 11.538461538461538 12.94642857142857  L 11.538461538461538 8.928571428571427  L 6.9230769230769225 8.928571428571427  Z " stroke-width="0" stroke-dasharray="0" stroke="rgba(255, 255, 255, 0)" fill="none" transform="matrix(1 0 0 1 19 387 )" class="stroke" mask="url(#Clip931)" />
    <path d="M 18 19.19642857142857  L 18 23.214285714285715  L 22.153846153846153 23.214285714285715  L 22.153846153846153 19.19642857142857  L 18 19.19642857142857  Z " stroke-width="0" stroke-dasharray="0" stroke="rgba(255, 255, 255, 0)" fill="none" transform="matrix(1 0 0 1 19 387 )" class="stroke" mask="url(#Clip931)" />
    <path d="M 12.461538461538463 13.839285714285715  L 12.461538461538463 18.30357142857143  L 17.076923076923077 18.30357142857143  L 17.076923076923077 13.839285714285715  L 12.461538461538463 13.839285714285715  Z " stroke-width="0" stroke-dasharray="0" stroke="rgba(255, 255, 255, 0)" fill="none" transform="matrix(1 0 0 1 19 387 )" class="stroke" mask="url(#Clip931)" />
    <path d="M 7.247596153846153 6.563895089285715  C 7.338942307692308 6.475539434523808  7.384615384615385 6.3709077380952355  7.384615384615385 6.25  L 7.384615384615385 2.2321428571428577  C 7.384615384615385 2.111235119047619  7.338942307692308 2.0066034226190466  7.247596153846153 1.9182477678571423  C 7.156250000000001 1.8298921130952355  7.048076923076923 1.785714285714285  6.9230769230769225 1.785714285714285  L 6 1.785714285714285  C 5.875 1.785714285714285  5.766826923076923 1.8298921130952355  5.675480769230769 1.9182477678571423  C 5.584134615384615 2.0066034226190466  5.538461538461538 2.111235119047619  5.538461538461538 2.2321428571428577  L 5.538461538461538 6.25  C 5.538461538461538 6.3709077380952355  5.584134615384615 6.475539434523808  5.675480769230769 6.563895089285715  C 5.766826923076923 6.6522507440476195  5.875 6.696428571428573  6 6.696428571428573  L 6.9230769230769225 6.696428571428573  C 7.048076923076923 6.696428571428573  7.156250000000001 6.6522507440476195  7.247596153846153 6.563895089285715  Z " stroke-width="0" stroke-dasharray="0" stroke="rgba(255, 255, 255, 0)" fill="none" transform="matrix(1 0 0 1 19 387 )" class="stroke" mask="url(#Clip931)" />
    <path d="M 18 13.839285714285715  L 18 18.30357142857143  L 22.153846153846153 18.30357142857143  L 22.153846153846153 13.839285714285715  L 18 13.839285714285715  Z " stroke-width="0" stroke-dasharray="0" stroke="rgba(255, 255, 255, 0)" fill="none" transform="matrix(1 0 0 1 19 387 )" class="stroke" mask="url(#Clip931)" />
    <path d="M 12.461538461538463 8.928571428571427  L 12.461538461538463 12.94642857142857  L 17.076923076923077 12.94642857142857  L 17.076923076923077 8.928571428571427  L 12.461538461538463 8.928571428571427  Z " stroke-width="0" stroke-dasharray="0" stroke="rgba(255, 255, 255, 0)" fill="none" transform="matrix(1 0 0 1 19 387 )" class="stroke" mask="url(#Clip931)" />
    <path d="M 18 8.928571428571427  L 18 12.94642857142857  L 22.153846153846153 12.94642857142857  L 22.153846153846153 8.928571428571427  L 18 8.928571428571427  Z " stroke-width="0" stroke-dasharray="0" stroke="rgba(255, 255, 255, 0)" fill="none" transform="matrix(1 0 0 1 19 387 )" class="stroke" mask="url(#Clip931)" />
    <path d="M 18.32451923076923 6.563895089285715  C 18.415865384615387 6.475539434523808  18.461538461538463 6.3709077380952355  18.461538461538463 6.25  L 18.461538461538463 2.2321428571428577  C 18.461538461538463 2.111235119047619  18.415865384615387 2.0066034226190466  18.32451923076923 1.9182477678571423  C 18.23317307692308 1.8298921130952355  18.125 1.785714285714285  18 1.785714285714285  L 17.076923076923077 1.785714285714285  C 16.95192307692308 1.785714285714285  16.84375 1.8298921130952355  16.752403846153847 1.9182477678571423  C 16.661057692307693 2.0066034226190466  16.615384615384613 2.111235119047619  16.615384615384613 2.2321428571428577  L 16.615384615384613 6.25  C 16.615384615384613 6.3709077380952355  16.661057692307693 6.475539434523808  16.752403846153847 6.563895089285715  C 16.84375 6.6522507440476195  16.95192307692308 6.696428571428573  17.076923076923077 6.696428571428573  L 18 6.696428571428573  C 18.125 6.696428571428573  18.23317307692308 6.6522507440476195  18.32451923076923 6.563895089285715  Z " stroke-width="0" stroke-dasharray="0" stroke="rgba(255, 255, 255, 0)" fill="none" transform="matrix(1 0 0 1 19 387 )" class="stroke" mask="url(#Clip931)" />
    <path d="M 23.451923076923077 4.1015625  C 23.817307692307693 4.4549851190476195  24 4.873511904761904  24 5.357142857142858  L 24 23.214285714285715  C 24 23.697916666666668  23.817307692307693 24.116443452380953  23.451923076923077 24.469866071428573  C 23.086538461538463 24.82328869047619  22.653846153846157 25  22.153846153846153 25  L 1.8461538461538463 25  C 1.3461538461538463 25  0.9134615384615385 24.82328869047619  0.548076923076923 24.469866071428573  C 0.18269230769230768 24.116443452380953  0 23.697916666666668  0 23.214285714285715  L 0 5.357142857142858  C 0 4.873511904761904  0.18269230769230768 4.4549851190476195  0.548076923076923 4.1015625  C 0.9134615384615385 3.748139880952378  1.3461538461538463 3.5714285714285725  1.8461538461538463 3.5714285714285725  L 3.6923076923076925 3.5714285714285725  L 3.6923076923076925 2.2321428571428577  C 3.6923076923076925 1.6183035714285725  3.918269230769231 1.092819940476189  4.3701923076923075 0.6556919642857151  C 4.822115384615385 0.21856398809523836  5.365384615384616 0  6 0  L 6.9230769230769225 0  C 7.5576923076923075 0  8.10096153846154 0.21856398809523836  8.552884615384615 0.6556919642857151  C 9.004807692307693 1.092819940476189  9.230769230769232 1.6183035714285725  9.230769230769232 2.2321428571428577  L 9.230769230769232 3.5714285714285725  L 14.76923076923077 3.5714285714285725  L 14.76923076923077 2.2321428571428577  C 14.76923076923077 1.6183035714285725  14.995192307692308 1.092819940476189  15.447115384615385 0.6556919642857151  C 15.899038461538463 0.21856398809523836  16.442307692307693 0  17.076923076923077 0  L 18 0  C 18.634615384615387 0  19.177884615384617 0.21856398809523836  19.629807692307693 0.6556919642857151  C 20.081730769230774 1.092819940476189  20.307692307692307 1.6183035714285725  20.307692307692307 2.2321428571428577  L 20.307692307692307 3.5714285714285725  L 22.153846153846153 3.5714285714285725  C 22.653846153846157 3.5714285714285725  23.086538461538463 3.748139880952378  23.451923076923077 4.1015625  Z " stroke-width="0" stroke-dasharray="0" stroke="rgba(255, 255, 255, 0)" fill="none" transform="matrix(1 0 0 1 19 387 )" class="stroke" mask="url(#Clip931)" />
  </g>
</svg>