<?xml version="1.0" encoding="utf-8"?>
<svg version="1.1" xmlns:xlink="http://www.w3.org/1999/xlink" width="26px" height="23px" xmlns="http://www.w3.org/2000/svg">
  <defs>
    <pattern id="BGPattern" patternUnits="userSpaceOnUse" alignment="0 0" imageRepeat="None" />
    <mask fill="white" id="Clip532">
      <path d="M 16.112165178571427 8.554408482142858  C 16.494233630952383 8.892392113095235  16.685267857142858 9.30096726190476  16.685267857142858 9.780133928571429  C 16.685267857142858 10.259300595238093  16.494233630952383 10.665736607142858  16.112165178571427 10.999441964285714  C 15.730096726190476 11.333147321428571  15.268229166666668 11.5  14.7265625 11.5  L 11.055803571428571 11.5  L 11.055803571428571 8.047433035714286  L 14.7265625 8.047433035714286  C 15.268229166666668 8.047433035714286  15.730096726190476 8.216424851190474  16.112165178571427 8.554408482142858  Z M 17.947544642857142 12.623046875  C 18.8374255952381 11.840122767857142  19.282366071428573 10.892485119047619  19.282366071428573 9.780133928571429  C 19.282366071428573 8.667782738095235  18.83984375 7.718005952380952  17.954799107142858 6.930803571428571  C 17.069754464285715 6.143601190476188  15.993675595238098 5.75  14.7265625 5.75  L 8.444196428571429 5.75  L 8.444196428571429 17.25  L 11.055803571428571 17.25  L 11.055803571428571 13.797433035714285  L 14.7265625 13.797433035714285  C 15.984002976190476 13.797433035714285  17.05766369047619 13.405970982142858  17.947544642857142 12.623046875  Z M 24.969866071428573 7.033482142857142  C 25.656622023809526 8.453869047619046  26 9.942708333333332  26 11.5  C 26 13.057291666666664  25.656622023809526 14.546130952380953  24.969866071428573 15.966517857142858  C 24.283110119047624 17.386904761904763  23.359375000000004 18.61049107142857  22.198660714285715 19.637276785714285  C 21.037946428571427 20.6640625  19.65476190476191 21.481212797619047  18.049107142857142 22.08872767857143  C 16.443452380952383 22.69624255952381  14.760416666666668 23  13 23  C 11.239583333333334 23  9.55654761904762 22.69624255952381  7.950892857142858 22.08872767857143  C 6.345238095238096 21.481212797619047  4.962053571428571 20.6640625  3.801339285714286 19.637276785714285  C 2.640625 18.61049107142857  1.716889880952381 17.386904761904763  1.0301339285714286 15.966517857142858  C 0.34337797619047616 14.546130952380953  0 13.057291666666664  0 11.5  C 0 9.942708333333332  0.34337797619047616 8.453869047619046  1.0301339285714286 7.033482142857142  C 1.716889880952381 5.613095238095236  2.640625 4.389508928571429  3.801339285714286 3.362723214285713  C 4.962053571428571 2.3359375  6.345238095238096 1.5187872023809517  7.950892857142858 0.9112723214285711  C 9.55654761904762 0.30375744047619035  11.239583333333334 0  13 0  C 14.760416666666668 0  16.443452380952383 0.30375744047619035  18.049107142857142 0.9112723214285711  C 19.65476190476191 1.5187872023809517  21.037946428571427 2.3359375  22.198660714285715 3.362723214285713  C 23.359375000000004 4.389508928571429  24.283110119047624 5.613095238095236  24.969866071428573 7.033482142857142  Z " fill-rule="evenodd" />
    </mask>
  </defs>
  <g transform="matrix(1 0 0 1 -16 -292 )">
    <path d="M 16.112165178571427 8.554408482142858  C 16.494233630952383 8.892392113095235  16.685267857142858 9.30096726190476  16.685267857142858 9.780133928571429  C 16.685267857142858 10.259300595238093  16.494233630952383 10.665736607142858  16.112165178571427 10.999441964285714  C 15.730096726190476 11.333147321428571  15.268229166666668 11.5  14.7265625 11.5  L 11.055803571428571 11.5  L 11.055803571428571 8.047433035714286  L 14.7265625 8.047433035714286  C 15.268229166666668 8.047433035714286  15.730096726190476 8.216424851190474  16.112165178571427 8.554408482142858  Z M 17.947544642857142 12.623046875  C 18.8374255952381 11.840122767857142  19.282366071428573 10.892485119047619  19.282366071428573 9.780133928571429  C 19.282366071428573 8.667782738095235  18.83984375 7.718005952380952  17.954799107142858 6.930803571428571  C 17.069754464285715 6.143601190476188  15.993675595238098 5.75  14.7265625 5.75  L 8.444196428571429 5.75  L 8.444196428571429 17.25  L 11.055803571428571 17.25  L 11.055803571428571 13.797433035714285  L 14.7265625 13.797433035714285  C 15.984002976190476 13.797433035714285  17.05766369047619 13.405970982142858  17.947544642857142 12.623046875  Z M 24.969866071428573 7.033482142857142  C 25.656622023809526 8.453869047619046  26 9.942708333333332  26 11.5  C 26 13.057291666666664  25.656622023809526 14.546130952380953  24.969866071428573 15.966517857142858  C 24.283110119047624 17.386904761904763  23.359375000000004 18.61049107142857  22.198660714285715 19.637276785714285  C 21.037946428571427 20.6640625  19.65476190476191 21.481212797619047  18.049107142857142 22.08872767857143  C 16.443452380952383 22.69624255952381  14.760416666666668 23  13 23  C 11.239583333333334 23  9.55654761904762 22.69624255952381  7.950892857142858 22.08872767857143  C 6.345238095238096 21.481212797619047  4.962053571428571 20.6640625  3.801339285714286 19.637276785714285  C 2.640625 18.61049107142857  1.716889880952381 17.386904761904763  1.0301339285714286 15.966517857142858  C 0.34337797619047616 14.546130952380953  0 13.057291666666664  0 11.5  C 0 9.942708333333332  0.34337797619047616 8.453869047619046  1.0301339285714286 7.033482142857142  C 1.716889880952381 5.613095238095236  2.640625 4.389508928571429  3.801339285714286 3.362723214285713  C 4.962053571428571 2.3359375  6.345238095238096 1.5187872023809517  7.950892857142858 0.9112723214285711  C 9.55654761904762 0.30375744047619035  11.239583333333334 0  13 0  C 14.760416666666668 0  16.443452380952383 0.30375744047619035  18.049107142857142 0.9112723214285711  C 19.65476190476191 1.5187872023809517  21.037946428571427 2.3359375  22.198660714285715 3.362723214285713  C 23.359375000000004 4.389508928571429  24.283110119047624 5.613095238095236  24.969866071428573 7.033482142857142  Z " fill-rule="nonzero" fill="rgba(0, 0, 0, 1)" stroke="none" transform="matrix(1 0 0 1 16 292 )" class="fill" />
    <path d="M 16.112165178571427 8.554408482142858  C 16.494233630952383 8.892392113095235  16.685267857142858 9.30096726190476  16.685267857142858 9.780133928571429  C 16.685267857142858 10.259300595238093  16.494233630952383 10.665736607142858  16.112165178571427 10.999441964285714  C 15.730096726190476 11.333147321428571  15.268229166666668 11.5  14.7265625 11.5  L 11.055803571428571 11.5  L 11.055803571428571 8.047433035714286  L 14.7265625 8.047433035714286  C 15.268229166666668 8.047433035714286  15.730096726190476 8.216424851190474  16.112165178571427 8.554408482142858  Z " stroke-width="0" stroke-dasharray="0" stroke="rgba(255, 255, 255, 0)" fill="none" transform="matrix(1 0 0 1 16 292 )" class="stroke" mask="url(#Clip532)" />
    <path d="M 17.947544642857142 12.623046875  C 18.8374255952381 11.840122767857142  19.282366071428573 10.892485119047619  19.282366071428573 9.780133928571429  C 19.282366071428573 8.667782738095235  18.83984375 7.718005952380952  17.954799107142858 6.930803571428571  C 17.069754464285715 6.143601190476188  15.993675595238098 5.75  14.7265625 5.75  L 8.444196428571429 5.75  L 8.444196428571429 17.25  L 11.055803571428571 17.25  L 11.055803571428571 13.797433035714285  L 14.7265625 13.797433035714285  C 15.984002976190476 13.797433035714285  17.05766369047619 13.405970982142858  17.947544642857142 12.623046875  Z " stroke-width="0" stroke-dasharray="0" stroke="rgba(255, 255, 255, 0)" fill="none" transform="matrix(1 0 0 1 16 292 )" class="stroke" mask="url(#Clip532)" />
    <path d="M 24.969866071428573 7.033482142857142  C 25.656622023809526 8.453869047619046  26 9.942708333333332  26 11.5  C 26 13.057291666666664  25.656622023809526 14.546130952380953  24.969866071428573 15.966517857142858  C 24.283110119047624 17.386904761904763  23.359375000000004 18.61049107142857  22.198660714285715 19.637276785714285  C 21.037946428571427 20.6640625  19.65476190476191 21.481212797619047  18.049107142857142 22.08872767857143  C 16.443452380952383 22.69624255952381  14.760416666666668 23  13 23  C 11.239583333333334 23  9.55654761904762 22.69624255952381  7.950892857142858 22.08872767857143  C 6.345238095238096 21.481212797619047  4.962053571428571 20.6640625  3.801339285714286 19.637276785714285  C 2.640625 18.61049107142857  1.716889880952381 17.386904761904763  1.0301339285714286 15.966517857142858  C 0.34337797619047616 14.546130952380953  0 13.057291666666664  0 11.5  C 0 9.942708333333332  0.34337797619047616 8.453869047619046  1.0301339285714286 7.033482142857142  C 1.716889880952381 5.613095238095236  2.640625 4.389508928571429  3.801339285714286 3.362723214285713  C 4.962053571428571 2.3359375  6.345238095238096 1.5187872023809517  7.950892857142858 0.9112723214285711  C 9.55654761904762 0.30375744047619035  11.239583333333334 0  13 0  C 14.760416666666668 0  16.443452380952383 0.30375744047619035  18.049107142857142 0.9112723214285711  C 19.65476190476191 1.5187872023809517  21.037946428571427 2.3359375  22.198660714285715 3.362723214285713  C 23.359375000000004 4.389508928571429  24.283110119047624 5.613095238095236  24.969866071428573 7.033482142857142  Z " stroke-width="0" stroke-dasharray="0" stroke="rgba(255, 255, 255, 0)" fill="none" transform="matrix(1 0 0 1 16 292 )" class="stroke" mask="url(#Clip532)" />
  </g>
</svg>