<?xml version="1.0" encoding="utf-8"?>
<svg version="1.1" xmlns:xlink="http://www.w3.org/1999/xlink" width="11px" height="11px" xmlns="http://www.w3.org/2000/svg">
  <defs>
    <pattern id="BGPattern" patternUnits="userSpaceOnUse" alignment="0 0" imageRepeat="None" />
    <mask fill="white" id="Clip484">
      <path d="M 11 5.5  C 11 2.4584999999999995  8.541500000000001 0  5.5 0  C 2.4585 0  0 2.4585  0 5.5  C 0 8.541500000000001  2.4585 11  5.5 11  C 8.541500000000001 11  11 8.541500000000001  11 5.5  Z M 6.2755 5.5  L 8.25 7.4745  L 7.4745 8.25  L 5.5 6.2755  L 3.5255 8.25  L 2.75 7.4745  L 4.7245 5.5  L 2.75 3.5255  L 3.5255 2.75  L 5.5 4.7245  L 7.4745 2.75  L 8.25 3.5255  L 6.2755 5.5  Z " fill-rule="evenodd" />
    </mask>
  </defs>
  <g transform="matrix(1 0 0 1 -413 -140 )">
    <path d="M 11 5.5  C 11 2.4584999999999995  8.541500000000001 0  5.5 0  C 2.4585 0  0 2.4585  0 5.5  C 0 8.541500000000001  2.4585 11  5.5 11  C 8.541500000000001 11  11 8.541500000000001  11 5.5  Z M 6.2755 5.5  L 8.25 7.4745  L 7.4745 8.25  L 5.5 6.2755  L 3.5255 8.25  L 2.75 7.4745  L 4.7245 5.5  L 2.75 3.5255  L 3.5255 2.75  L 5.5 4.7245  L 7.4745 2.75  L 8.25 3.5255  L 6.2755 5.5  Z " fill-rule="nonzero" fill="rgba(105, 105, 105, 1)" stroke="none" transform="matrix(1 0 0 1 413 140 )" class="fill" />
    <path d="M 11 5.5  C 11 2.4584999999999995  8.541500000000001 0  5.5 0  C 2.4585 0  0 2.4585  0 5.5  C 0 8.541500000000001  2.4585 11  5.5 11  C 8.541500000000001 11  11 8.541500000000001  11 5.5  Z " stroke-width="0" stroke-dasharray="0" stroke="rgba(255, 255, 255, 0)" fill="none" transform="matrix(1 0 0 1 413 140 )" class="stroke" mask="url(#Clip484)" />
    <path d="M 6.2755 5.5  L 8.25 7.4745  L 7.4745 8.25  L 5.5 6.2755  L 3.5255 8.25  L 2.75 7.4745  L 4.7245 5.5  L 2.75 3.5255  L 3.5255 2.75  L 5.5 4.7245  L 7.4745 2.75  L 8.25 3.5255  L 6.2755 5.5  Z " stroke-width="0" stroke-dasharray="0" stroke="rgba(255, 255, 255, 0)" fill="none" transform="matrix(1 0 0 1 413 140 )" class="stroke" mask="url(#Clip484)" />
  </g>
</svg>