<?xml version="1.0" encoding="utf-8"?>
<svg version="1.1" xmlns:xlink="http://www.w3.org/1999/xlink" width="10px" height="10px" xmlns="http://www.w3.org/2000/svg">
  <defs>
    <pattern id="BGPattern" patternUnits="userSpaceOnUse" alignment="0 0" imageRepeat="None" />
    <mask fill="white" id="Clip293">
      <path d="M 10 5  C 10 2.2349999999999994  7.765000000000001 0  5 0  C 2.235 0  0 2.235  0 5  C 0 7.765000000000001  2.235 10  5 10  C 7.765000000000001 10  10 7.765000000000001  10 5  Z M 5.705 5  L 7.5 6.795  L 6.795 7.5  L 5 5.705  L 3.205 7.5  L 2.5 6.795  L 4.295 5  L 2.5 3.205  L 3.205 2.5  L 5 4.295  L 6.795 2.5  L 7.5 3.205  L 5.705 5  Z " fill-rule="evenodd" />
    </mask>
  </defs>
  <g transform="matrix(1 0 0 1 -427 -111 )">
    <path d="M 10 5  C 10 2.2349999999999994  7.765000000000001 0  5 0  C 2.235 0  0 2.235  0 5  C 0 7.765000000000001  2.235 10  5 10  C 7.765000000000001 10  10 7.765000000000001  10 5  Z M 5.705 5  L 7.5 6.795  L 6.795 7.5  L 5 5.705  L 3.205 7.5  L 2.5 6.795  L 4.295 5  L 2.5 3.205  L 3.205 2.5  L 5 4.295  L 6.795 2.5  L 7.5 3.205  L 5.705 5  Z " fill-rule="nonzero" fill="rgba(105, 105, 105, 1)" stroke="none" transform="matrix(1 0 0 1 427 111 )" class="fill" />
    <path d="M 10 5  C 10 2.2349999999999994  7.765000000000001 0  5 0  C 2.235 0  0 2.235  0 5  C 0 7.765000000000001  2.235 10  5 10  C 7.765000000000001 10  10 7.765000000000001  10 5  Z " stroke-width="0" stroke-dasharray="0" stroke="rgba(255, 255, 255, 0)" fill="none" transform="matrix(1 0 0 1 427 111 )" class="stroke" mask="url(#Clip293)" />
    <path d="M 5.705 5  L 7.5 6.795  L 6.795 7.5  L 5 5.705  L 3.205 7.5  L 2.5 6.795  L 4.295 5  L 2.5 3.205  L 3.205 2.5  L 5 4.295  L 6.795 2.5  L 7.5 3.205  L 5.705 5  Z " stroke-width="0" stroke-dasharray="0" stroke="rgba(255, 255, 255, 0)" fill="none" transform="matrix(1 0 0 1 427 111 )" class="stroke" mask="url(#Clip293)" />
  </g>
</svg>