<?xml version="1.0" encoding="utf-8"?>
<svg version="1.1" xmlns:xlink="http://www.w3.org/1999/xlink" width="40px" height="40px" xmlns="http://www.w3.org/2000/svg">
  <g transform="matrix(1 0 0 1 -255 -291 )">
    <path d="M 255 291  L 295 291  L 295 331  L 255 331  L 255 291  " fill-rule="nonzero" fill="rgba(204, 204, 204, 1)" stroke="none" class="fill" />
    <path d="M 258 294  L 292 294  L 292 328  L 258 328  L 258 294  " fill-rule="nonzero" fill="rgba(255, 255, 255, 1)" stroke="none" class="fill" />
    <path d="M 278.8 303  C 277.12 303  275.8 301.68  275.8 300  C 275.8 298.32  277.12 297  278.8 297  C 280.48 297  281.8 298.32  281.8 300  C 281.8 301.68  280.48 303  278.8 303  " fill-rule="nonzero" fill="rgba(204, 204, 204, 1)" stroke="none" class="fill" />
    <path d="M 259 327  L 259 309.4  L 267 301.4  L 278.2 307.8  L 284.6 306.2  L 291 307.8  L 291 327  L 259 327  " fill-rule="nonzero" fill="rgba(22, 155, 213, 1)" stroke="none" class="fill" />
  </g>
</svg>