<?xml version="1.0" encoding="utf-8"?>
<svg version="1.1" xmlns:xlink="http://www.w3.org/1999/xlink" width="18px" height="18px" viewBox="1018 201 18 18" xmlns="http://www.w3.org/2000/svg">
  <path d="M 1018 203  A 2 2 0 0 1 1020 201 L 1034 201  A 2 2 0 0 1 1036 203 L 1036 217  A 2 2 0 0 1 1034 219 L 1020 219  A 2 2 0 0 1 1018 217 L 1018 203  Z " fill-rule="nonzero" fill="rgba(255, 255, 255, 0)" stroke="none" class="fill" />
  <path d="M 1019 203  A 1 1 0 0 1 1020 202 L 1034 202  A 1 1 0 0 1 1035 203 L 1035 217  A 1 1 0 0 1 1034 218 L 1020 218  A 1 1 0 0 1 1019 217 L 1019 203  Z " stroke-width="2" stroke-dasharray="0" stroke="rgba(121, 121, 121, 1)" fill="none" class="stroke" />
  <path d="M 1021.8571428571429 210  L 1025.7142857142858 213.85714285714286  L 1032.142857142857 204.85714285714286  " stroke-width="3.8571428571428577" stroke-dasharray="0" stroke="rgba(121, 121, 121, 1)" fill="none" class="stroke btn_check" />
</svg>