<?xml version="1.0" encoding="utf-8"?>
<svg version="1.1" xmlns:xlink="http://www.w3.org/1999/xlink" width="18px" height="18px" viewBox="1018 269 18 18" xmlns="http://www.w3.org/2000/svg">
  <path d="M 1018 271  A 2 2 0 0 1 1020 269 L 1034 269  A 2 2 0 0 1 1036 271 L 1036 285  A 2 2 0 0 1 1034 287 L 1020 287  A 2 2 0 0 1 1018 285 L 1018 271  Z " fill-rule="nonzero" fill="rgba(30, 152, 215, 1)" stroke="none" class="fill" />
  <path d="M 1018 271  A 2 2 0 0 1 1020 269 L 1034 269  A 2 2 0 0 1 1036 271 L 1036 285  A 2 2 0 0 1 1034 287 L 1020 287  A 2 2 0 0 1 1018 285 L 1018 271  Z " stroke-width="0" stroke-dasharray="0" stroke="rgba(255, 255, 255, 1)" fill="none" class="stroke" />
  <path d="M 1021.8571428571429 278  L 1025.7142857142858 281.8571428571429  L 1032.142857142857 272.85714285714283  " stroke-width="3.8571428571428577" stroke-dasharray="0" stroke="rgba(255, 255, 255, 1)" fill="none" class="stroke btn_check" />
</svg>