<?xml version="1.0" encoding="utf-8"?>
<svg version="1.1" xmlns:xlink="http://www.w3.org/1999/xlink" width="18px" height="18px" viewBox="1018 303 18 18" xmlns="http://www.w3.org/2000/svg">
  <path d="M 1018 305  A 2 2 0 0 1 1020 303 L 1034 303  A 2 2 0 0 1 1036 305 L 1036 319  A 2 2 0 0 1 1034 321 L 1020 321  A 2 2 0 0 1 1018 319 L 1018 305  Z " fill-rule="nonzero" fill="rgba(30, 152, 215, 1)" stroke="none" class="fill" />
  <path d="M 1018 305  A 2 2 0 0 1 1020 303 L 1034 303  A 2 2 0 0 1 1036 305 L 1036 319  A 2 2 0 0 1 1034 321 L 1020 321  A 2 2 0 0 1 1018 319 L 1018 305  Z " stroke-width="0" stroke-dasharray="0" stroke="rgba(255, 255, 255, 1)" fill="none" class="stroke" />
  <path d="M 1021.8571428571429 312  L 1025.7142857142858 315.8571428571429  L 1032.142857142857 306.85714285714283  " stroke-width="3.8571428571428577" stroke-dasharray="0" stroke="rgba(255, 255, 255, 1)" fill="none" class="stroke btn_check" />
</svg>