<?xml version="1.0" encoding="utf-8"?>
<svg version="1.1" xmlns:xlink="http://www.w3.org/1999/xlink" width="46px" height="46px" xmlns="http://www.w3.org/2000/svg">
  <defs>
    <pattern id="BGPattern" patternUnits="userSpaceOnUse" alignment="0 0" imageRepeat="None" />
    <mask fill="white" id="Clip236">
      <path d="M 0 18  C 0 7.919999999999999  7.919999999999999 0  18 0  C 28.080000000000002 0  36 7.919999999999999  36 18  C 36 28.080000000000002  28.080000000000002 36  18 36  C 7.919999999999999 36  0 28.080000000000002  0 18  Z " fill-rule="evenodd" />
    </mask>
  </defs>
  <g transform="matrix(1 0 0 1 -907 -242 )">
    <path d="M 0 18  C 0 7.919999999999999  7.919999999999999 0  18 0  C 28.080000000000002 0  36 7.919999999999999  36 18  C 36 28.080000000000002  28.080000000000002 36  18 36  C 7.919999999999999 36  0 28.080000000000002  0 18  Z " fill-rule="nonzero" fill="rgba(30, 152, 215, 1)" stroke="none" transform="matrix(1 0 0 1 912 244 )" class="fill" />
    <path d="M 0 18  C 0 7.919999999999999  7.919999999999999 0  18 0  C 28.080000000000002 0  36 7.919999999999999  36 18  C 36 28.080000000000002  28.080000000000002 36  18 36  C 7.919999999999999 36  0 28.080000000000002  0 18  Z " stroke-width="0" stroke-dasharray="0" stroke="rgba(22, 155, 213, 0)" fill="none" transform="matrix(1 0 0 1 912 244 )" class="stroke" mask="url(#Clip236)" />
  </g>
  <style>svg { filter: drop-shadow(0px 3px 2.5px rgba(0, 0, 0, 0.19607843137254902)); }</style>
</svg>