<?xml version="1.0" encoding="utf-8"?>
<svg version="1.1" xmlns:xlink="http://www.w3.org/1999/xlink" width="22px" height="21px" xmlns="http://www.w3.org/2000/svg">
  <defs>
    <pattern id="BGPattern" patternUnits="userSpaceOnUse" alignment="0 0" imageRepeat="None" />
    <mask fill="white" id="Clip1088">
      <path d="M 3.1963838938053097 13.454400796460178  C 2.0453265663716818 10.686364778761064  2.6117535575221242 7.6363099115044255  4.494103734513274 5.440715309734515  L 4.475897282123894 6.667855699115045  L 7.0642679546902665 6.7199933469026565  L 7.162382172389381 1.2756206920353992  L 1.4597894290265485 1.182932638938054  L 1.4061814838938056 3.653650099115045  L 2.6654749175221237 3.6700637938938057  C 0.059004475044247204 6.55896503283186  -0.7522484453097348 10.657507156725664  0.7891838909734512 14.366759457610621  C 2.4763206697345135 18.427732023982305  6.549519820176992 20.982461935486725  10.971663890973451 20.982461935486725  C 11.718130510442478 20.982461935486725  12.474721607787611 20.909082657610618  13.23131270513274 20.75943223460177  L 12.702302262654868 18.339878579734513  C 8.701968280353983 19.135463393893808  4.7034468644247776 17.081842172654866  3.196427395398229 13.454353093008852  Z M 21.209668495575222 6.632065752212389  C 19.237285557522128 1.8876732743362832  14.004976106194691 -0.8002802654867259  8.76950761061947 0.2405447787610615  L 9.297508194690266 2.6600984336283178  C 13.29784217699115 1.8645136194690257  17.296363592920358 3.9181348407079635  18.803383061946903 7.543646575221237  C 19.955450247787613 10.313659938053096  19.38801339823009 13.366680823008846  17.503643504424783 15.562028256637166  L 17.519827132743366 14.324259637168138  L 14.930446601769916 14.277915610619466  L 14.842449093805314 19.721299592920353  L 20.545041837168146 19.80529721415929  L 20.593592722123898 17.334579753982297  L 19.343413907964603 17.31913174513274  C 21.94289302300885 14.43220785132743  22.75103868672566 10.338609090265482  21.209580456637166 6.6320756389380495  Z " fill-rule="evenodd" />
    </mask>
  </defs>
  <g transform="matrix(1 0 0 1 -550 -207 )">
    <path d="M 3.1963838938053097 13.454400796460178  C 2.0453265663716818 10.686364778761064  2.6117535575221242 7.6363099115044255  4.494103734513274 5.440715309734515  L 4.475897282123894 6.667855699115045  L 7.0642679546902665 6.7199933469026565  L 7.162382172389381 1.2756206920353992  L 1.4597894290265485 1.182932638938054  L 1.4061814838938056 3.653650099115045  L 2.6654749175221237 3.6700637938938057  C 0.059004475044247204 6.55896503283186  -0.7522484453097348 10.657507156725664  0.7891838909734512 14.366759457610621  C 2.4763206697345135 18.427732023982305  6.549519820176992 20.982461935486725  10.971663890973451 20.982461935486725  C 11.718130510442478 20.982461935486725  12.474721607787611 20.909082657610618  13.23131270513274 20.75943223460177  L 12.702302262654868 18.339878579734513  C 8.701968280353983 19.135463393893808  4.7034468644247776 17.081842172654866  3.196427395398229 13.454353093008852  Z M 21.209668495575222 6.632065752212389  C 19.237285557522128 1.8876732743362832  14.004976106194691 -0.8002802654867259  8.76950761061947 0.2405447787610615  L 9.297508194690266 2.6600984336283178  C 13.29784217699115 1.8645136194690257  17.296363592920358 3.9181348407079635  18.803383061946903 7.543646575221237  C 19.955450247787613 10.313659938053096  19.38801339823009 13.366680823008846  17.503643504424783 15.562028256637166  L 17.519827132743366 14.324259637168138  L 14.930446601769916 14.277915610619466  L 14.842449093805314 19.721299592920353  L 20.545041837168146 19.80529721415929  L 20.593592722123898 17.334579753982297  L 19.343413907964603 17.31913174513274  C 21.94289302300885 14.43220785132743  22.75103868672566 10.338609090265482  21.209580456637166 6.6320756389380495  Z " fill-rule="nonzero" fill="rgba(215, 215, 215, 1)" stroke="none" transform="matrix(1 0 0 1 550 207 )" class="fill" />
    <path d="M 3.1963838938053097 13.454400796460178  C 2.0453265663716818 10.686364778761064  2.6117535575221242 7.6363099115044255  4.494103734513274 5.440715309734515  L 4.475897282123894 6.667855699115045  L 7.0642679546902665 6.7199933469026565  L 7.162382172389381 1.2756206920353992  L 1.4597894290265485 1.182932638938054  L 1.4061814838938056 3.653650099115045  L 2.6654749175221237 3.6700637938938057  C 0.059004475044247204 6.55896503283186  -0.7522484453097348 10.657507156725664  0.7891838909734512 14.366759457610621  C 2.4763206697345135 18.427732023982305  6.549519820176992 20.982461935486725  10.971663890973451 20.982461935486725  C 11.718130510442478 20.982461935486725  12.474721607787611 20.909082657610618  13.23131270513274 20.75943223460177  L 12.702302262654868 18.339878579734513  C 8.701968280353983 19.135463393893808  4.7034468644247776 17.081842172654866  3.196427395398229 13.454353093008852  Z " stroke-width="0" stroke-dasharray="0" stroke="rgba(255, 255, 255, 0)" fill="none" transform="matrix(1 0 0 1 550 207 )" class="stroke" mask="url(#Clip1088)" />
    <path d="M 21.209668495575222 6.632065752212389  C 19.237285557522128 1.8876732743362832  14.004976106194691 -0.8002802654867259  8.76950761061947 0.2405447787610615  L 9.297508194690266 2.6600984336283178  C 13.29784217699115 1.8645136194690257  17.296363592920358 3.9181348407079635  18.803383061946903 7.543646575221237  C 19.955450247787613 10.313659938053096  19.38801339823009 13.366680823008846  17.503643504424783 15.562028256637166  L 17.519827132743366 14.324259637168138  L 14.930446601769916 14.277915610619466  L 14.842449093805314 19.721299592920353  L 20.545041837168146 19.80529721415929  L 20.593592722123898 17.334579753982297  L 19.343413907964603 17.31913174513274  C 21.94289302300885 14.43220785132743  22.75103868672566 10.338609090265482  21.209580456637166 6.6320756389380495  Z " stroke-width="0" stroke-dasharray="0" stroke="rgba(255, 255, 255, 0)" fill="none" transform="matrix(1 0 0 1 550 207 )" class="stroke" mask="url(#Clip1088)" />
  </g>
</svg>