<?xml version="1.0" encoding="utf-8"?>
<svg version="1.1" xmlns:xlink="http://www.w3.org/1999/xlink" width="26px" height="23px" xmlns="http://www.w3.org/2000/svg">
  <defs>
    <pattern id="BGPattern" patternUnits="userSpaceOnUse" alignment="0 0" imageRepeat="None" />
    <mask fill="white" id="Clip975">
      <path d="M 10.579081632653061 21.032421875  C 10.568027210884354 21.098307291666668  10.579081632653061 21.179166666666667  10.612244897959183 21.275000000000002  C 10.612244897959183 21.322916666666668  10.617772108843537 21.442708333333332  10.628826530612244 21.634375000000002  C 10.639880952380954 21.82604166666667  10.64264455782313 21.984765624999998  10.637117346938776 22.110546875  C 10.631590136054424 22.236328125  10.615008503401361 22.37708333333333  10.587372448979592 22.532812500000002  C 10.559736394557824 22.68854166666667  10.504464285714286 22.805338541666668  10.42155612244898 22.883203124999998  C 10.338647959183675 22.96106770833333  10.225340136054424 23  10.081632653061224 23  L 4.775510204081633 23  C 3.460034013605443 23  2.335246598639456 22.49388020833333  1.4011479591836735 21.481640625  C 0.46704931972789115 20.469401041666668  0 19.250520833333333  0 17.825  L 0 5.175  C 0 3.7494791666666627  0.46704931972789115 2.5305989583333326  1.4011479591836735 1.5183593750000006  C 2.335246598639456 0.5061197916666634  3.460034013605443 0  4.775510204081633 0  L 10.081632653061224 0  C 10.225340136054424 0  10.349702380952381 0.05690104166666343  10.454719387755102 0.1707031250000005  C 10.559736394557824 0.2845052083333325  10.612244897959183 0.4192708333333325  10.612244897959183 0.5750000000000005  C 10.612244897959183 0.6229166666666645  10.617772108843537 0.742708333333332  10.628826530612244 0.9343750000000005  C 10.639880952380954 1.126041666666664  10.64264455782313 1.284765625000001  10.637117346938776 1.410546874999999  C 10.631590136054424 1.5363281249999994  10.615008503401361 1.6770833333333326  10.587372448979592 1.8328125000000006  C 10.559736394557824 1.9885416666666633  10.504464285714286 2.1053385416666646  10.42155612244898 2.1832031250000012  C 10.338647959183675 2.2610677083333326  10.225340136054424 2.2999999999999994  10.081632653061224 2.2999999999999994  L 4.775510204081633 2.2999999999999994  C 4.045918367346939 2.2999999999999994  3.4213435374149666 2.5815104166666627  2.9017857142857144 3.14453125  C 2.3822278911564627 3.707552083333332  2.1224489795918364 4.384375000000001  2.1224489795918364 5.175  L 2.1224489795918364 17.825  C 2.1224489795918364 18.615624999999998  2.3822278911564627 19.292447916666664  2.9017857142857144 19.85546875  C 3.4213435374149666 20.418489583333333  4.045918367346939 20.7  4.775510204081633 20.7  L 9.551020408163266 20.7  L 9.733418367346939 20.7  L 9.948979591836734 20.7  C 9.948979591836734 20.7  10.012542517006803 20.70598958333333  10.139668367346939 20.71796875  C 10.266794217687076 20.729947916666667  10.330357142857142 20.74791666666667  10.330357142857142 20.771874999999998  C 10.330357142857142 20.79583333333333  10.374574829931973 20.828776041666668  10.463010204081632 20.870703125000002  C 10.551445578231293 20.912630208333333  10.59013605442177 20.96653645833333  10.579081632653061 21.032421875  Z M 25.684948979591837 10.69140625  C 25.89498299319728 10.919010416666666  26 11.188541666666666  26 11.5  C 26 11.81145833333333  25.89498299319728 12.08098958333333  25.684948979591837 12.30859375  L 16.664540816326532 22.083593750000002  C 16.454506802721088 22.311197916666668  16.205782312925173 22.425  15.918367346938776 22.425  C 15.630952380952383 22.425  15.382227891156464 22.311197916666668  15.17219387755102 22.083593750000002  C 14.96215986394558 21.855989583333333  14.857142857142856 21.586458333333333  14.857142857142856 21.275000000000002  L 14.857142857142856 16.099999999999998  L 7.428571428571428 16.099999999999998  C 7.141156462585034 16.099999999999998  6.892431972789116 15.986197916666667  6.682397959183674 15.758593750000001  C 6.472363945578231 15.530989583333332  6.36734693877551 15.261458333333332  6.36734693877551 14.950000000000001  L 6.36734693877551 8.049999999999999  C 6.36734693877551 7.738541666666664  6.472363945578231 7.469010416666664  6.682397959183674 7.24140625  C 6.892431972789116 7.013802083333333  7.141156462585034 6.900000000000001  7.428571428571428 6.900000000000001  L 14.857142857142856 6.900000000000001  L 14.857142857142856 1.724999999999999  C 14.857142857142856 1.413541666666663  14.96215986394558 1.144010416666663  15.17219387755102 0.916406249999999  C 15.382227891156464 0.6888020833333325  15.630952380952383 0.5750000000000005  15.918367346938776 0.5750000000000005  C 16.205782312925173 0.5750000000000005  16.454506802721088 0.6888020833333325  16.664540816326532 0.916406249999999  L 25.684948979591837 10.69140625  Z " fill-rule="evenodd" />
    </mask>
  </defs>
  <g transform="matrix(1 0 0 1 -20 -494 )">
    <path d="M 10.579081632653061 21.032421875  C 10.568027210884354 21.098307291666668  10.579081632653061 21.179166666666667  10.612244897959183 21.275000000000002  C 10.612244897959183 21.322916666666668  10.617772108843537 21.442708333333332  10.628826530612244 21.634375000000002  C 10.639880952380954 21.82604166666667  10.64264455782313 21.984765624999998  10.637117346938776 22.110546875  C 10.631590136054424 22.236328125  10.615008503401361 22.37708333333333  10.587372448979592 22.532812500000002  C 10.559736394557824 22.68854166666667  10.504464285714286 22.805338541666668  10.42155612244898 22.883203124999998  C 10.338647959183675 22.96106770833333  10.225340136054424 23  10.081632653061224 23  L 4.775510204081633 23  C 3.460034013605443 23  2.335246598639456 22.49388020833333  1.4011479591836735 21.481640625  C 0.46704931972789115 20.469401041666668  0 19.250520833333333  0 17.825  L 0 5.175  C 0 3.7494791666666627  0.46704931972789115 2.5305989583333326  1.4011479591836735 1.5183593750000006  C 2.335246598639456 0.5061197916666634  3.460034013605443 0  4.775510204081633 0  L 10.081632653061224 0  C 10.225340136054424 0  10.349702380952381 0.05690104166666343  10.454719387755102 0.1707031250000005  C 10.559736394557824 0.2845052083333325  10.612244897959183 0.4192708333333325  10.612244897959183 0.5750000000000005  C 10.612244897959183 0.6229166666666645  10.617772108843537 0.742708333333332  10.628826530612244 0.9343750000000005  C 10.639880952380954 1.126041666666664  10.64264455782313 1.284765625000001  10.637117346938776 1.410546874999999  C 10.631590136054424 1.5363281249999994  10.615008503401361 1.6770833333333326  10.587372448979592 1.8328125000000006  C 10.559736394557824 1.9885416666666633  10.504464285714286 2.1053385416666646  10.42155612244898 2.1832031250000012  C 10.338647959183675 2.2610677083333326  10.225340136054424 2.2999999999999994  10.081632653061224 2.2999999999999994  L 4.775510204081633 2.2999999999999994  C 4.045918367346939 2.2999999999999994  3.4213435374149666 2.5815104166666627  2.9017857142857144 3.14453125  C 2.3822278911564627 3.707552083333332  2.1224489795918364 4.384375000000001  2.1224489795918364 5.175  L 2.1224489795918364 17.825  C 2.1224489795918364 18.615624999999998  2.3822278911564627 19.292447916666664  2.9017857142857144 19.85546875  C 3.4213435374149666 20.418489583333333  4.045918367346939 20.7  4.775510204081633 20.7  L 9.551020408163266 20.7  L 9.733418367346939 20.7  L 9.948979591836734 20.7  C 9.948979591836734 20.7  10.012542517006803 20.70598958333333  10.139668367346939 20.71796875  C 10.266794217687076 20.729947916666667  10.330357142857142 20.74791666666667  10.330357142857142 20.771874999999998  C 10.330357142857142 20.79583333333333  10.374574829931973 20.828776041666668  10.463010204081632 20.870703125000002  C 10.551445578231293 20.912630208333333  10.59013605442177 20.96653645833333  10.579081632653061 21.032421875  Z M 25.684948979591837 10.69140625  C 25.89498299319728 10.919010416666666  26 11.188541666666666  26 11.5  C 26 11.81145833333333  25.89498299319728 12.08098958333333  25.684948979591837 12.30859375  L 16.664540816326532 22.083593750000002  C 16.454506802721088 22.311197916666668  16.205782312925173 22.425  15.918367346938776 22.425  C 15.630952380952383 22.425  15.382227891156464 22.311197916666668  15.17219387755102 22.083593750000002  C 14.96215986394558 21.855989583333333  14.857142857142856 21.586458333333333  14.857142857142856 21.275000000000002  L 14.857142857142856 16.099999999999998  L 7.428571428571428 16.099999999999998  C 7.141156462585034 16.099999999999998  6.892431972789116 15.986197916666667  6.682397959183674 15.758593750000001  C 6.472363945578231 15.530989583333332  6.36734693877551 15.261458333333332  6.36734693877551 14.950000000000001  L 6.36734693877551 8.049999999999999  C 6.36734693877551 7.738541666666664  6.472363945578231 7.469010416666664  6.682397959183674 7.24140625  C 6.892431972789116 7.013802083333333  7.141156462585034 6.900000000000001  7.428571428571428 6.900000000000001  L 14.857142857142856 6.900000000000001  L 14.857142857142856 1.724999999999999  C 14.857142857142856 1.413541666666663  14.96215986394558 1.144010416666663  15.17219387755102 0.916406249999999  C 15.382227891156464 0.6888020833333325  15.630952380952383 0.5750000000000005  15.918367346938776 0.5750000000000005  C 16.205782312925173 0.5750000000000005  16.454506802721088 0.6888020833333325  16.664540816326532 0.916406249999999  L 25.684948979591837 10.69140625  Z " fill-rule="nonzero" fill="rgba(0, 0, 0, 1)" stroke="none" transform="matrix(1 0 0 1 20 494 )" class="fill" />
    <path d="M 10.579081632653061 21.032421875  C 10.568027210884354 21.098307291666668  10.579081632653061 21.179166666666667  10.612244897959183 21.275000000000002  C 10.612244897959183 21.322916666666668  10.617772108843537 21.442708333333332  10.628826530612244 21.634375000000002  C 10.639880952380954 21.82604166666667  10.64264455782313 21.984765624999998  10.637117346938776 22.110546875  C 10.631590136054424 22.236328125  10.615008503401361 22.37708333333333  10.587372448979592 22.532812500000002  C 10.559736394557824 22.68854166666667  10.504464285714286 22.805338541666668  10.42155612244898 22.883203124999998  C 10.338647959183675 22.96106770833333  10.225340136054424 23  10.081632653061224 23  L 4.775510204081633 23  C 3.460034013605443 23  2.335246598639456 22.49388020833333  1.4011479591836735 21.481640625  C 0.46704931972789115 20.469401041666668  0 19.250520833333333  0 17.825  L 0 5.175  C 0 3.7494791666666627  0.46704931972789115 2.5305989583333326  1.4011479591836735 1.5183593750000006  C 2.335246598639456 0.5061197916666634  3.460034013605443 0  4.775510204081633 0  L 10.081632653061224 0  C 10.225340136054424 0  10.349702380952381 0.05690104166666343  10.454719387755102 0.1707031250000005  C 10.559736394557824 0.2845052083333325  10.612244897959183 0.4192708333333325  10.612244897959183 0.5750000000000005  C 10.612244897959183 0.6229166666666645  10.617772108843537 0.742708333333332  10.628826530612244 0.9343750000000005  C 10.639880952380954 1.126041666666664  10.64264455782313 1.284765625000001  10.637117346938776 1.410546874999999  C 10.631590136054424 1.5363281249999994  10.615008503401361 1.6770833333333326  10.587372448979592 1.8328125000000006  C 10.559736394557824 1.9885416666666633  10.504464285714286 2.1053385416666646  10.42155612244898 2.1832031250000012  C 10.338647959183675 2.2610677083333326  10.225340136054424 2.2999999999999994  10.081632653061224 2.2999999999999994  L 4.775510204081633 2.2999999999999994  C 4.045918367346939 2.2999999999999994  3.4213435374149666 2.5815104166666627  2.9017857142857144 3.14453125  C 2.3822278911564627 3.707552083333332  2.1224489795918364 4.384375000000001  2.1224489795918364 5.175  L 2.1224489795918364 17.825  C 2.1224489795918364 18.615624999999998  2.3822278911564627 19.292447916666664  2.9017857142857144 19.85546875  C 3.4213435374149666 20.418489583333333  4.045918367346939 20.7  4.775510204081633 20.7  L 9.551020408163266 20.7  L 9.733418367346939 20.7  L 9.948979591836734 20.7  C 9.948979591836734 20.7  10.012542517006803 20.70598958333333  10.139668367346939 20.71796875  C 10.266794217687076 20.729947916666667  10.330357142857142 20.74791666666667  10.330357142857142 20.771874999999998  C 10.330357142857142 20.79583333333333  10.374574829931973 20.828776041666668  10.463010204081632 20.870703125000002  C 10.551445578231293 20.912630208333333  10.59013605442177 20.96653645833333  10.579081632653061 21.032421875  Z " stroke-width="0" stroke-dasharray="0" stroke="rgba(255, 255, 255, 0)" fill="none" transform="matrix(1 0 0 1 20 494 )" class="stroke" mask="url(#Clip975)" />
    <path d="M 25.684948979591837 10.69140625  C 25.89498299319728 10.919010416666666  26 11.188541666666666  26 11.5  C 26 11.81145833333333  25.89498299319728 12.08098958333333  25.684948979591837 12.30859375  L 16.664540816326532 22.083593750000002  C 16.454506802721088 22.311197916666668  16.205782312925173 22.425  15.918367346938776 22.425  C 15.630952380952383 22.425  15.382227891156464 22.311197916666668  15.17219387755102 22.083593750000002  C 14.96215986394558 21.855989583333333  14.857142857142856 21.586458333333333  14.857142857142856 21.275000000000002  L 14.857142857142856 16.099999999999998  L 7.428571428571428 16.099999999999998  C 7.141156462585034 16.099999999999998  6.892431972789116 15.986197916666667  6.682397959183674 15.758593750000001  C 6.472363945578231 15.530989583333332  6.36734693877551 15.261458333333332  6.36734693877551 14.950000000000001  L 6.36734693877551 8.049999999999999  C 6.36734693877551 7.738541666666664  6.472363945578231 7.469010416666664  6.682397959183674 7.24140625  C 6.892431972789116 7.013802083333333  7.141156462585034 6.900000000000001  7.428571428571428 6.900000000000001  L 14.857142857142856 6.900000000000001  L 14.857142857142856 1.724999999999999  C 14.857142857142856 1.413541666666663  14.96215986394558 1.144010416666663  15.17219387755102 0.916406249999999  C 15.382227891156464 0.6888020833333325  15.630952380952383 0.5750000000000005  15.918367346938776 0.5750000000000005  C 16.205782312925173 0.5750000000000005  16.454506802721088 0.6888020833333325  16.664540816326532 0.916406249999999  L 25.684948979591837 10.69140625  Z " stroke-width="0" stroke-dasharray="0" stroke="rgba(255, 255, 255, 0)" fill="none" transform="matrix(1 0 0 1 20 494 )" class="stroke" mask="url(#Clip975)" />
  </g>
</svg>