<?xml version="1.0" encoding="utf-8"?>
<svg version="1.1" xmlns:xlink="http://www.w3.org/1999/xlink" width="27px" height="26px" xmlns="http://www.w3.org/2000/svg">
  <defs>
    <pattern id="BGPattern" patternUnits="userSpaceOnUse" alignment="0 0" imageRepeat="None" />
    <mask fill="white" id="Clip307">
      <path d="M 0 5.571428571428572  L 13.5 0  L 27 5.571428571428572  L 27 7.428571428571428  L 25.2 7.428571428571428  C 25.2 7.680059523809524  25.10390625 7.8976934523809526  24.91171875 8.081473214285715  C 24.719531250000003 8.265252976190473  24.4921875 8.357142857142856  24.229687499999997 8.357142857142856  L 2.7703124999999997 8.357142857142856  C 2.5078125 8.357142857142856  2.2804687500000003 8.265252976190473  2.08828125 8.081473214285715  C 1.89609375 7.8976934523809526  1.8 7.680059523809524  1.8 7.428571428571428  L 0 7.428571428571428  L 0 5.571428571428572  Z M 4 20.428571428571427  L 4 9.285714285714285  L 7.2 9.285714285714285  L 7.2 20.428571428571427  L 9 20.428571428571427  L 9 9.285714285714285  L 13 9.285714285714285  L 13 20.428571428571427  L 14 20.428571428571427  L 14 9.285714285714285  L 18 9.285714285714285  L 18 20.428571428571427  L 19.799999999999997 20.428571428571427  L 19.799999999999997 9.285714285714285  L 23 9.285714285714285  L 23 20.428571428571427  L 24.229687499999997 20.428571428571427  C 24.4921875 20.428571428571427  24.719531250000003 20.52046130952381  24.91171875 20.704241071428573  C 25.10390625 20.888020833333336  25.2 21.105654761904763  25.2 21.357142857142858  L 25.2 22  L 1.8 22  L 1.8 21.357142857142858  C 1.8 21.105654761904763  1.89609375 20.888020833333336  2.08828125 20.704241071428573  C 2.2804687500000003 20.52046130952381  2.5078125 20.428571428571427  2.7703124999999997 20.428571428571427  L 4 20.428571428571427  Z M 0.9703124999999999 23  L 26.0296875 23  C 26.2921875 23.214285714285715  26.51953125 23.30617559523809  26.711718750000003 23.489955357142858  C 26.903906250000006 23.67373511904762  27.000000000000007 23.891369047619047  27 24.142857142857142  L 27 26  L 0 26  L 0 24.142857142857142  C 0 23.891369047619047  0.09609374999999999 23.67373511904762  0.28828125 23.489955357142858  C 0.48046875000000006 23.30617559523809  0.7078125000000001 23.214285714285715  0.9703124999999999 23  Z " fill-rule="evenodd" />
    </mask>
  </defs>
  <g transform="matrix(1 0 0 1 -20 -292 )">
    <path d="M 0 5.571428571428572  L 13.5 0  L 27 5.571428571428572  L 27 7.428571428571428  L 25.2 7.428571428571428  C 25.2 7.680059523809524  25.10390625 7.8976934523809526  24.91171875 8.081473214285715  C 24.719531250000003 8.265252976190473  24.4921875 8.357142857142856  24.229687499999997 8.357142857142856  L 2.7703124999999997 8.357142857142856  C 2.5078125 8.357142857142856  2.2804687500000003 8.265252976190473  2.08828125 8.081473214285715  C 1.89609375 7.8976934523809526  1.8 7.680059523809524  1.8 7.428571428571428  L 0 7.428571428571428  L 0 5.571428571428572  Z M 4 20.428571428571427  L 4 9.285714285714285  L 7.2 9.285714285714285  L 7.2 20.428571428571427  L 9 20.428571428571427  L 9 9.285714285714285  L 13 9.285714285714285  L 13 20.428571428571427  L 14 20.428571428571427  L 14 9.285714285714285  L 18 9.285714285714285  L 18 20.428571428571427  L 19.799999999999997 20.428571428571427  L 19.799999999999997 9.285714285714285  L 23 9.285714285714285  L 23 20.428571428571427  L 24.229687499999997 20.428571428571427  C 24.4921875 20.428571428571427  24.719531250000003 20.52046130952381  24.91171875 20.704241071428573  C 25.10390625 20.888020833333336  25.2 21.105654761904763  25.2 21.357142857142858  L 25.2 22  L 1.8 22  L 1.8 21.357142857142858  C 1.8 21.105654761904763  1.89609375 20.888020833333336  2.08828125 20.704241071428573  C 2.2804687500000003 20.52046130952381  2.5078125 20.428571428571427  2.7703124999999997 20.428571428571427  L 4 20.428571428571427  Z M 0.9703124999999999 23  L 26.0296875 23  C 26.2921875 23.214285714285715  26.51953125 23.30617559523809  26.711718750000003 23.489955357142858  C 26.903906250000006 23.67373511904762  27.000000000000007 23.891369047619047  27 24.142857142857142  L 27 26  L 0 26  L 0 24.142857142857142  C 0 23.891369047619047  0.09609374999999999 23.67373511904762  0.28828125 23.489955357142858  C 0.48046875000000006 23.30617559523809  0.7078125000000001 23.214285714285715  0.9703124999999999 23  Z " fill-rule="nonzero" fill="rgba(0, 0, 0, 1)" stroke="none" transform="matrix(1 0 0 1 20 292 )" class="fill" />
    <path d="M 0 5.571428571428572  L 13.5 0  L 27 5.571428571428572  L 27 7.428571428571428  L 25.2 7.428571428571428  C 25.2 7.680059523809524  25.10390625 7.8976934523809526  24.91171875 8.081473214285715  C 24.719531250000003 8.265252976190473  24.4921875 8.357142857142856  24.229687499999997 8.357142857142856  L 2.7703124999999997 8.357142857142856  C 2.5078125 8.357142857142856  2.2804687500000003 8.265252976190473  2.08828125 8.081473214285715  C 1.89609375 7.8976934523809526  1.8 7.680059523809524  1.8 7.428571428571428  L 0 7.428571428571428  L 0 5.571428571428572  Z " stroke-width="0" stroke-dasharray="0" stroke="rgba(255, 255, 255, 0)" fill="none" transform="matrix(1 0 0 1 20 292 )" class="stroke" mask="url(#Clip307)" />
    <path d="M 4 20.428571428571427  L 4 9.285714285714285  L 7.2 9.285714285714285  L 7.2 20.428571428571427  L 9 20.428571428571427  L 9 9.285714285714285  L 13 9.285714285714285  L 13 20.428571428571427  L 14 20.428571428571427  L 14 9.285714285714285  L 18 9.285714285714285  L 18 20.428571428571427  L 19.799999999999997 20.428571428571427  L 19.799999999999997 9.285714285714285  L 23 9.285714285714285  L 23 20.428571428571427  L 24.229687499999997 20.428571428571427  C 24.4921875 20.428571428571427  24.719531250000003 20.52046130952381  24.91171875 20.704241071428573  C 25.10390625 20.888020833333336  25.2 21.105654761904763  25.2 21.357142857142858  L 25.2 22  L 1.8 22  L 1.8 21.357142857142858  C 1.8 21.105654761904763  1.89609375 20.888020833333336  2.08828125 20.704241071428573  C 2.2804687500000003 20.52046130952381  2.5078125 20.428571428571427  2.7703124999999997 20.428571428571427  L 4 20.428571428571427  Z " stroke-width="0" stroke-dasharray="0" stroke="rgba(255, 255, 255, 0)" fill="none" transform="matrix(1 0 0 1 20 292 )" class="stroke" mask="url(#Clip307)" />
    <path d="M 0.9703124999999999 23  L 26.0296875 23  C 26.2921875 23.214285714285715  26.51953125 23.30617559523809  26.711718750000003 23.489955357142858  C 26.903906250000006 23.67373511904762  27.000000000000007 23.891369047619047  27 24.142857142857142  L 27 26  L 0 26  L 0 24.142857142857142  C 0 23.891369047619047  0.09609374999999999 23.67373511904762  0.28828125 23.489955357142858  C 0.48046875000000006 23.30617559523809  0.7078125000000001 23.214285714285715  0.9703124999999999 23  Z " stroke-width="0" stroke-dasharray="0" stroke="rgba(255, 255, 255, 0)" fill="none" transform="matrix(1 0 0 1 20 292 )" class="stroke" mask="url(#Clip307)" />
  </g>
</svg>