<?xml version="1.0" encoding="utf-8"?>
<svg version="1.1" xmlns:xlink="http://www.w3.org/1999/xlink" width="30px" height="20px" xmlns="http://www.w3.org/2000/svg">
  <defs>
    <pattern id="BGPattern" patternUnits="userSpaceOnUse" alignment="0 0" imageRepeat="None" />
    <mask fill="white" id="Clip134">
      <path d="M 14.8681640625 11.529947916666664  C 14.9560546875 11.99435763888889  15 12.504340277777777  15 13.059895833333336  C 15 13.61545138888889  14.819335937500002 14.077690972222218  14.4580078125 14.446614583333336  C 14.0966796875 14.815538194444443  13.65234375 15  13.125 15  L 5.625 15  C 5.09765625 15  4.6533203125 14.815538194444443  4.2919921875 14.446614583333336  C 3.9306640625000004 14.077690972222218  3.75 13.61545138888889  3.75 13.059895833333336  C 3.75 12.504340277777777  3.7939453125 11.99435763888889  3.8818359375 11.529947916666664  C 3.9697265625 11.065538194444443  4.113769531250001 10.618489583333336  4.31396484375 10.188802083333336  C 4.51416015625 9.759114583333332  4.809570312500001 9.420572916666668  5.2001953125 9.173177083333332  C 5.5908203125 8.92578125  6.064453125 8.802083333333332  6.62109375 8.802083333333332  C 6.6796875 8.836805555555555  6.826171875 8.914930555555555  7.060546875 9.036458333333332  C 7.294921875 9.157986111111109  7.47802734375 9.251302083333332  7.60986328125 9.31640625  C 7.74169921875 9.381510416666668  7.915039062500001 9.457465277777777  8.1298828125 9.544270833333332  C 8.344726562500002 9.63107638888889  8.5546875 9.694010416666668  8.759765625 9.733072916666668  C 8.96484375 9.772135416666668  9.169921875 9.791666666666668  9.375 9.791666666666668  C 9.580078125 9.791666666666668  9.78515625 9.772135416666668  9.990234375 9.733072916666668  C 10.1953125 9.694010416666668  10.4052734375 9.63107638888889  10.6201171875 9.544270833333332  C 10.834960937500002 9.457465277777777  11.00830078125 9.381510416666668  11.14013671875 9.31640625  C 11.271972656250002 9.251302083333332  11.455078125000002 9.157986111111109  11.689453125 9.036458333333332  C 11.923828125000002 8.914930555555555  12.070312500000002 8.836805555555555  12.12890625 8.802083333333332  C 12.685546875000002 8.802083333333332  13.159179687500002 8.92578125  13.5498046875 9.173177083333332  C 13.940429687500002 9.420572916666668  14.23583984375 9.759114583333332  14.43603515625 10.188802083333336  C 14.636230468750002 10.618489583333336  14.7802734375 11.065538194444443  14.8681640625 11.529947916666664  Z M 11.72607421875 4.19921875  C 12.375488281250002 4.776475694444445  12.700195312500002 5.473090277777777  12.7001953125 6.2890625  C 12.700195312500002 7.105034722222221  12.375488281250002 7.801649305555554  11.72607421875 8.37890625  C 11.076660156250002 8.956163194444445  10.292968750000002 9.244791666666668  9.375 9.244791666666668  C 8.45703125 9.244791666666668  7.673339843750001 8.956163194444445  7.02392578125 8.37890625  C 6.37451171875 7.801649305555554  6.0498046875 7.105034722222221  6.0498046875 6.2890625  C 6.0498046875 5.473090277777777  6.37451171875 4.776475694444445  7.02392578125 4.19921875  C 7.673339843750001 3.6219618055555536  8.45703125 3.3333333333333326  9.375 3.3333333333333326  C 10.292968750000002 3.3333333333333326  11.076660156250002 3.6219618055555536  11.72607421875 4.19921875  Z M 26.1181640625 11.783854166666664  C 26.2060546875 11.861979166666664  26.25 11.961805555555554  26.25 12.083333333333336  L 26.25 12.916666666666664  C 26.25 13.038194444444443  26.2060546875 13.138020833333336  26.1181640625 13.216145833333336  C 26.0302734375 13.294270833333336  25.917968750000004 13.333333333333336  25.78125 13.333333333333336  L 17.34375 13.333333333333336  C 17.20703125 13.333333333333336  17.0947265625 13.294270833333336  17.0068359375 13.216145833333336  C 16.9189453125 13.138020833333336  16.875 13.038194444444443  16.875 12.916666666666664  L 16.875 12.083333333333336  C 16.875 11.961805555555554  16.9189453125 11.861979166666664  17.0068359375 11.783854166666664  C 17.0947265625 11.705729166666664  17.20703125 11.666666666666664  17.34375 11.666666666666664  L 25.78125 11.666666666666664  C 25.917968750000004 11.666666666666664  26.0302734375 11.705729166666664  26.1181640625 11.783854166666664  Z M 26.09619140625 8.470052083333332  C 26.19873046875 8.561197916666668  26.25 8.671875  26.25 8.802083333333332  L 26.25 9.53125  C 26.25 9.661458333333332  26.19873046875 9.772135416666668  26.09619140625 9.86328125  C 25.99365234375 9.954427083333332  25.869140625 10  25.72265625 10  L 17.40234375 10  C 17.255859375 10  17.13134765625 9.954427083333332  17.02880859375 9.86328125  C 16.92626953125 9.772135416666668  16.875 9.661458333333332  16.875 9.53125  L 16.875 8.802083333333332  C 16.875 8.671875  16.92626953125 8.561197916666668  17.02880859375 8.470052083333332  C 17.13134765625 8.37890625  17.255859375 8.333333333333332  17.40234375 8.333333333333332  L 25.72265625 8.333333333333332  C 25.869140625 8.333333333333332  25.99365234375 8.37890625  26.09619140625 8.470052083333332  Z M 26.1181640625 5.1171875  C 26.2060546875 5.1953125  26.25 5.295138888888886  26.25 5.416666666666668  L 26.25 6.25  C 26.25 6.371527777777777  26.2060546875 6.471354166666668  26.1181640625 6.549479166666668  C 26.0302734375 6.627604166666668  25.917968750000004 6.666666666666668  25.78125 6.666666666666668  L 17.34375 6.666666666666668  C 17.20703125 6.666666666666668  17.0947265625 6.627604166666668  17.0068359375 6.549479166666668  C 16.9189453125 6.471354166666668  16.875 6.371527777777777  16.875 6.25  L 16.875 5.416666666666668  C 16.875 5.295138888888886  16.9189453125 5.1953125  17.0068359375 5.1171875  C 17.0947265625 5.0390625  17.20703125 5  17.34375 5  L 25.78125 5  C 25.917968750000004 5  26.0302734375 5.0390625  26.1181640625 5.1171875  Z M 27.98583984375 18.209635416666668  C 28.078613281250004 18.12717013888889  28.125000000000004 18.02951388888889  28 17.916666666666668  L 28 2.0833333333333326  C 28.125000000000004 1.9704861111111094  28.078613281250004 1.8728298611111094  27.98583984375 1.7903645833333326  C 27.89306640625 1.7078993055555536  27.783203125 1.6666666666666674  27.65625 2  L 2.34375 2  C 2.216796875 1.6666666666666674  2.10693359375 1.7078993055555536  2.01416015625 1.7903645833333326  C 1.9213867187500002 1.8728298611111094  1.875 1.9704861111111094  2 2.0833333333333326  L 2 17.916666666666668  C 1.875 18.02951388888889  1.9213867187500002 18.12717013888889  2.01416015625 18.209635416666668  C 2.10693359375 18.292100694444443  2.216796875 18.333333333333332  2.34375 18.333333333333332  L 7.5 18.333333333333332  L 7.5 17.083333333333332  C 7.5 16.961805555555557  7.5439453125 16.861979166666668  7.6318359375 16.783854166666668  C 7.7197265625 16.705729166666668  7.832031250000001 16.666666666666668  7.96875 16.666666666666668  L 8.90625 16.666666666666668  C 9.04296875 16.666666666666668  9.1552734375 16.705729166666668  9.2431640625 16.783854166666668  C 9.3310546875 16.861979166666668  9.375 16.961805555555557  9.375 17.083333333333332  L 9.375 18  L 20.625 18  L 20.625 17.083333333333332  C 20.625 16.961805555555557  20.6689453125 16.861979166666668  20.7568359375 16.783854166666668  C 20.8447265625 16.705729166666668  20.95703125 16.666666666666668  21.09375 16.666666666666668  L 22.03125 16.666666666666668  C 22.167968750000004 16.666666666666668  22.2802734375 16.705729166666668  22.3681640625 16.783854166666668  C 22.4560546875 16.861979166666668  22.5 16.961805555555557  22.5 17.083333333333332  L 22.5 18.333333333333332  L 27.65625 18.333333333333332  C 27.783203125 18.333333333333332  27.89306640625 18.292100694444443  27.98583984375 18.209635416666668  Z M 29.3115234375 0.6119791666666674  C 29.770507812500004 1.0199652777777768  30 1.5104166666666674  30 2.0833333333333326  L 30 17.916666666666668  C 30 18.489583333333332  29.770507812500004 18.98003472222222  29.3115234375 19.388020833333332  C 28.8525390625 19.796006944444443  28.30078125 20  27.65625 20  L 2.34375 20  C 1.69921875 20  1.1474609375000002 19.796006944444443  0.6884765625 19.388020833333332  C 0.2294921875 18.98003472222222  0 18.489583333333332  0 17.916666666666668  L 0 2.0833333333333326  C 0 1.5104166666666674  0.2294921875 1.0199652777777768  0.6884765625 0.6119791666666674  C 1.1474609375000002 0.20399305555555358  1.69921875 0  2.34375 0  L 27.65625 0  C 28.30078125 0  28.8525390625 0.20399305555555358  29.3115234375 0.6119791666666674  Z " fill-rule="evenodd" />
    </mask>
  </defs>
  <g transform="matrix(1 0 0 1 -17 -195 )">
    <path d="M 14.8681640625 11.529947916666664  C 14.9560546875 11.99435763888889  15 12.504340277777777  15 13.059895833333336  C 15 13.61545138888889  14.819335937500002 14.077690972222218  14.4580078125 14.446614583333336  C 14.0966796875 14.815538194444443  13.65234375 15  13.125 15  L 5.625 15  C 5.09765625 15  4.6533203125 14.815538194444443  4.2919921875 14.446614583333336  C 3.9306640625000004 14.077690972222218  3.75 13.61545138888889  3.75 13.059895833333336  C 3.75 12.504340277777777  3.7939453125 11.99435763888889  3.8818359375 11.529947916666664  C 3.9697265625 11.065538194444443  4.113769531250001 10.618489583333336  4.31396484375 10.188802083333336  C 4.51416015625 9.759114583333332  4.809570312500001 9.420572916666668  5.2001953125 9.173177083333332  C 5.5908203125 8.92578125  6.064453125 8.802083333333332  6.62109375 8.802083333333332  C 6.6796875 8.836805555555555  6.826171875 8.914930555555555  7.060546875 9.036458333333332  C 7.294921875 9.157986111111109  7.47802734375 9.251302083333332  7.60986328125 9.31640625  C 7.74169921875 9.381510416666668  7.915039062500001 9.457465277777777  8.1298828125 9.544270833333332  C 8.344726562500002 9.63107638888889  8.5546875 9.694010416666668  8.759765625 9.733072916666668  C 8.96484375 9.772135416666668  9.169921875 9.791666666666668  9.375 9.791666666666668  C 9.580078125 9.791666666666668  9.78515625 9.772135416666668  9.990234375 9.733072916666668  C 10.1953125 9.694010416666668  10.4052734375 9.63107638888889  10.6201171875 9.544270833333332  C 10.834960937500002 9.457465277777777  11.00830078125 9.381510416666668  11.14013671875 9.31640625  C 11.271972656250002 9.251302083333332  11.455078125000002 9.157986111111109  11.689453125 9.036458333333332  C 11.923828125000002 8.914930555555555  12.070312500000002 8.836805555555555  12.12890625 8.802083333333332  C 12.685546875000002 8.802083333333332  13.159179687500002 8.92578125  13.5498046875 9.173177083333332  C 13.940429687500002 9.420572916666668  14.23583984375 9.759114583333332  14.43603515625 10.188802083333336  C 14.636230468750002 10.618489583333336  14.7802734375 11.065538194444443  14.8681640625 11.529947916666664  Z M 11.72607421875 4.19921875  C 12.375488281250002 4.776475694444445  12.700195312500002 5.473090277777777  12.7001953125 6.2890625  C 12.700195312500002 7.105034722222221  12.375488281250002 7.801649305555554  11.72607421875 8.37890625  C 11.076660156250002 8.956163194444445  10.292968750000002 9.244791666666668  9.375 9.244791666666668  C 8.45703125 9.244791666666668  7.673339843750001 8.956163194444445  7.02392578125 8.37890625  C 6.37451171875 7.801649305555554  6.0498046875 7.105034722222221  6.0498046875 6.2890625  C 6.0498046875 5.473090277777777  6.37451171875 4.776475694444445  7.02392578125 4.19921875  C 7.673339843750001 3.6219618055555536  8.45703125 3.3333333333333326  9.375 3.3333333333333326  C 10.292968750000002 3.3333333333333326  11.076660156250002 3.6219618055555536  11.72607421875 4.19921875  Z M 26.1181640625 11.783854166666664  C 26.2060546875 11.861979166666664  26.25 11.961805555555554  26.25 12.083333333333336  L 26.25 12.916666666666664  C 26.25 13.038194444444443  26.2060546875 13.138020833333336  26.1181640625 13.216145833333336  C 26.0302734375 13.294270833333336  25.917968750000004 13.333333333333336  25.78125 13.333333333333336  L 17.34375 13.333333333333336  C 17.20703125 13.333333333333336  17.0947265625 13.294270833333336  17.0068359375 13.216145833333336  C 16.9189453125 13.138020833333336  16.875 13.038194444444443  16.875 12.916666666666664  L 16.875 12.083333333333336  C 16.875 11.961805555555554  16.9189453125 11.861979166666664  17.0068359375 11.783854166666664  C 17.0947265625 11.705729166666664  17.20703125 11.666666666666664  17.34375 11.666666666666664  L 25.78125 11.666666666666664  C 25.917968750000004 11.666666666666664  26.0302734375 11.705729166666664  26.1181640625 11.783854166666664  Z M 26.09619140625 8.470052083333332  C 26.19873046875 8.561197916666668  26.25 8.671875  26.25 8.802083333333332  L 26.25 9.53125  C 26.25 9.661458333333332  26.19873046875 9.772135416666668  26.09619140625 9.86328125  C 25.99365234375 9.954427083333332  25.869140625 10  25.72265625 10  L 17.40234375 10  C 17.255859375 10  17.13134765625 9.954427083333332  17.02880859375 9.86328125  C 16.92626953125 9.772135416666668  16.875 9.661458333333332  16.875 9.53125  L 16.875 8.802083333333332  C 16.875 8.671875  16.92626953125 8.561197916666668  17.02880859375 8.470052083333332  C 17.13134765625 8.37890625  17.255859375 8.333333333333332  17.40234375 8.333333333333332  L 25.72265625 8.333333333333332  C 25.869140625 8.333333333333332  25.99365234375 8.37890625  26.09619140625 8.470052083333332  Z M 26.1181640625 5.1171875  C 26.2060546875 5.1953125  26.25 5.295138888888886  26.25 5.416666666666668  L 26.25 6.25  C 26.25 6.371527777777777  26.2060546875 6.471354166666668  26.1181640625 6.549479166666668  C 26.0302734375 6.627604166666668  25.917968750000004 6.666666666666668  25.78125 6.666666666666668  L 17.34375 6.666666666666668  C 17.20703125 6.666666666666668  17.0947265625 6.627604166666668  17.0068359375 6.549479166666668  C 16.9189453125 6.471354166666668  16.875 6.371527777777777  16.875 6.25  L 16.875 5.416666666666668  C 16.875 5.295138888888886  16.9189453125 5.1953125  17.0068359375 5.1171875  C 17.0947265625 5.0390625  17.20703125 5  17.34375 5  L 25.78125 5  C 25.917968750000004 5  26.0302734375 5.0390625  26.1181640625 5.1171875  Z M 27.98583984375 18.209635416666668  C 28.078613281250004 18.12717013888889  28.125000000000004 18.02951388888889  28 17.916666666666668  L 28 2.0833333333333326  C 28.125000000000004 1.9704861111111094  28.078613281250004 1.8728298611111094  27.98583984375 1.7903645833333326  C 27.89306640625 1.7078993055555536  27.783203125 1.6666666666666674  27.65625 2  L 2.34375 2  C 2.216796875 1.6666666666666674  2.10693359375 1.7078993055555536  2.01416015625 1.7903645833333326  C 1.9213867187500002 1.8728298611111094  1.875 1.9704861111111094  2 2.0833333333333326  L 2 17.916666666666668  C 1.875 18.02951388888889  1.9213867187500002 18.12717013888889  2.01416015625 18.209635416666668  C 2.10693359375 18.292100694444443  2.216796875 18.333333333333332  2.34375 18.333333333333332  L 7.5 18.333333333333332  L 7.5 17.083333333333332  C 7.5 16.961805555555557  7.5439453125 16.861979166666668  7.6318359375 16.783854166666668  C 7.7197265625 16.705729166666668  7.832031250000001 16.666666666666668  7.96875 16.666666666666668  L 8.90625 16.666666666666668  C 9.04296875 16.666666666666668  9.1552734375 16.705729166666668  9.2431640625 16.783854166666668  C 9.3310546875 16.861979166666668  9.375 16.961805555555557  9.375 17.083333333333332  L 9.375 18  L 20.625 18  L 20.625 17.083333333333332  C 20.625 16.961805555555557  20.6689453125 16.861979166666668  20.7568359375 16.783854166666668  C 20.8447265625 16.705729166666668  20.95703125 16.666666666666668  21.09375 16.666666666666668  L 22.03125 16.666666666666668  C 22.167968750000004 16.666666666666668  22.2802734375 16.705729166666668  22.3681640625 16.783854166666668  C 22.4560546875 16.861979166666668  22.5 16.961805555555557  22.5 17.083333333333332  L 22.5 18.333333333333332  L 27.65625 18.333333333333332  C 27.783203125 18.333333333333332  27.89306640625 18.292100694444443  27.98583984375 18.209635416666668  Z M 29.3115234375 0.6119791666666674  C 29.770507812500004 1.0199652777777768  30 1.5104166666666674  30 2.0833333333333326  L 30 17.916666666666668  C 30 18.489583333333332  29.770507812500004 18.98003472222222  29.3115234375 19.388020833333332  C 28.8525390625 19.796006944444443  28.30078125 20  27.65625 20  L 2.34375 20  C 1.69921875 20  1.1474609375000002 19.796006944444443  0.6884765625 19.388020833333332  C 0.2294921875 18.98003472222222  0 18.489583333333332  0 17.916666666666668  L 0 2.0833333333333326  C 0 1.5104166666666674  0.2294921875 1.0199652777777768  0.6884765625 0.6119791666666674  C 1.1474609375000002 0.20399305555555358  1.69921875 0  2.34375 0  L 27.65625 0  C 28.30078125 0  28.8525390625 0.20399305555555358  29.3115234375 0.6119791666666674  Z " fill-rule="nonzero" fill="rgba(0, 0, 0, 1)" stroke="none" transform="matrix(1 0 0 1 17 195 )" class="fill" />
    <path d="M 14.8681640625 11.529947916666664  C 14.9560546875 11.99435763888889  15 12.504340277777777  15 13.059895833333336  C 15 13.61545138888889  14.819335937500002 14.077690972222218  14.4580078125 14.446614583333336  C 14.0966796875 14.815538194444443  13.65234375 15  13.125 15  L 5.625 15  C 5.09765625 15  4.6533203125 14.815538194444443  4.2919921875 14.446614583333336  C 3.9306640625000004 14.077690972222218  3.75 13.61545138888889  3.75 13.059895833333336  C 3.75 12.504340277777777  3.7939453125 11.99435763888889  3.8818359375 11.529947916666664  C 3.9697265625 11.065538194444443  4.113769531250001 10.618489583333336  4.31396484375 10.188802083333336  C 4.51416015625 9.759114583333332  4.809570312500001 9.420572916666668  5.2001953125 9.173177083333332  C 5.5908203125 8.92578125  6.064453125 8.802083333333332  6.62109375 8.802083333333332  C 6.6796875 8.836805555555555  6.826171875 8.914930555555555  7.060546875 9.036458333333332  C 7.294921875 9.157986111111109  7.47802734375 9.251302083333332  7.60986328125 9.31640625  C 7.74169921875 9.381510416666668  7.915039062500001 9.457465277777777  8.1298828125 9.544270833333332  C 8.344726562500002 9.63107638888889  8.5546875 9.694010416666668  8.759765625 9.733072916666668  C 8.96484375 9.772135416666668  9.169921875 9.791666666666668  9.375 9.791666666666668  C 9.580078125 9.791666666666668  9.78515625 9.772135416666668  9.990234375 9.733072916666668  C 10.1953125 9.694010416666668  10.4052734375 9.63107638888889  10.6201171875 9.544270833333332  C 10.834960937500002 9.457465277777777  11.00830078125 9.381510416666668  11.14013671875 9.31640625  C 11.271972656250002 9.251302083333332  11.455078125000002 9.157986111111109  11.689453125 9.036458333333332  C 11.923828125000002 8.914930555555555  12.070312500000002 8.836805555555555  12.12890625 8.802083333333332  C 12.685546875000002 8.802083333333332  13.159179687500002 8.92578125  13.5498046875 9.173177083333332  C 13.940429687500002 9.420572916666668  14.23583984375 9.759114583333332  14.43603515625 10.188802083333336  C 14.636230468750002 10.618489583333336  14.7802734375 11.065538194444443  14.8681640625 11.529947916666664  Z " stroke-width="0" stroke-dasharray="0" stroke="rgba(255, 255, 255, 0)" fill="none" transform="matrix(1 0 0 1 17 195 )" class="stroke" mask="url(#Clip134)" />
    <path d="M 11.72607421875 4.19921875  C 12.375488281250002 4.776475694444445  12.700195312500002 5.473090277777777  12.7001953125 6.2890625  C 12.700195312500002 7.105034722222221  12.375488281250002 7.801649305555554  11.72607421875 8.37890625  C 11.076660156250002 8.956163194444445  10.292968750000002 9.244791666666668  9.375 9.244791666666668  C 8.45703125 9.244791666666668  7.673339843750001 8.956163194444445  7.02392578125 8.37890625  C 6.37451171875 7.801649305555554  6.0498046875 7.105034722222221  6.0498046875 6.2890625  C 6.0498046875 5.473090277777777  6.37451171875 4.776475694444445  7.02392578125 4.19921875  C 7.673339843750001 3.6219618055555536  8.45703125 3.3333333333333326  9.375 3.3333333333333326  C 10.292968750000002 3.3333333333333326  11.076660156250002 3.6219618055555536  11.72607421875 4.19921875  Z " stroke-width="0" stroke-dasharray="0" stroke="rgba(255, 255, 255, 0)" fill="none" transform="matrix(1 0 0 1 17 195 )" class="stroke" mask="url(#Clip134)" />
    <path d="M 26.1181640625 11.783854166666664  C 26.2060546875 11.861979166666664  26.25 11.961805555555554  26.25 12.083333333333336  L 26.25 12.916666666666664  C 26.25 13.038194444444443  26.2060546875 13.138020833333336  26.1181640625 13.216145833333336  C 26.0302734375 13.294270833333336  25.917968750000004 13.333333333333336  25.78125 13.333333333333336  L 17.34375 13.333333333333336  C 17.20703125 13.333333333333336  17.0947265625 13.294270833333336  17.0068359375 13.216145833333336  C 16.9189453125 13.138020833333336  16.875 13.038194444444443  16.875 12.916666666666664  L 16.875 12.083333333333336  C 16.875 11.961805555555554  16.9189453125 11.861979166666664  17.0068359375 11.783854166666664  C 17.0947265625 11.705729166666664  17.20703125 11.666666666666664  17.34375 11.666666666666664  L 25.78125 11.666666666666664  C 25.917968750000004 11.666666666666664  26.0302734375 11.705729166666664  26.1181640625 11.783854166666664  Z " stroke-width="0" stroke-dasharray="0" stroke="rgba(255, 255, 255, 0)" fill="none" transform="matrix(1 0 0 1 17 195 )" class="stroke" mask="url(#Clip134)" />
    <path d="M 26.09619140625 8.470052083333332  C 26.19873046875 8.561197916666668  26.25 8.671875  26.25 8.802083333333332  L 26.25 9.53125  C 26.25 9.661458333333332  26.19873046875 9.772135416666668  26.09619140625 9.86328125  C 25.99365234375 9.954427083333332  25.869140625 10  25.72265625 10  L 17.40234375 10  C 17.255859375 10  17.13134765625 9.954427083333332  17.02880859375 9.86328125  C 16.92626953125 9.772135416666668  16.875 9.661458333333332  16.875 9.53125  L 16.875 8.802083333333332  C 16.875 8.671875  16.92626953125 8.561197916666668  17.02880859375 8.470052083333332  C 17.13134765625 8.37890625  17.255859375 8.333333333333332  17.40234375 8.333333333333332  L 25.72265625 8.333333333333332  C 25.869140625 8.333333333333332  25.99365234375 8.37890625  26.09619140625 8.470052083333332  Z " stroke-width="0" stroke-dasharray="0" stroke="rgba(255, 255, 255, 0)" fill="none" transform="matrix(1 0 0 1 17 195 )" class="stroke" mask="url(#Clip134)" />
    <path d="M 26.1181640625 5.1171875  C 26.2060546875 5.1953125  26.25 5.295138888888886  26.25 5.416666666666668  L 26.25 6.25  C 26.25 6.371527777777777  26.2060546875 6.471354166666668  26.1181640625 6.549479166666668  C 26.0302734375 6.627604166666668  25.917968750000004 6.666666666666668  25.78125 6.666666666666668  L 17.34375 6.666666666666668  C 17.20703125 6.666666666666668  17.0947265625 6.627604166666668  17.0068359375 6.549479166666668  C 16.9189453125 6.471354166666668  16.875 6.371527777777777  16.875 6.25  L 16.875 5.416666666666668  C 16.875 5.295138888888886  16.9189453125 5.1953125  17.0068359375 5.1171875  C 17.0947265625 5.0390625  17.20703125 5  17.34375 5  L 25.78125 5  C 25.917968750000004 5  26.0302734375 5.0390625  26.1181640625 5.1171875  Z " stroke-width="0" stroke-dasharray="0" stroke="rgba(255, 255, 255, 0)" fill="none" transform="matrix(1 0 0 1 17 195 )" class="stroke" mask="url(#Clip134)" />
    <path d="M 27.98583984375 18.209635416666668  C 28.078613281250004 18.12717013888889  28.125000000000004 18.02951388888889  28 17.916666666666668  L 28 2.0833333333333326  C 28.125000000000004 1.9704861111111094  28.078613281250004 1.8728298611111094  27.98583984375 1.7903645833333326  C 27.89306640625 1.7078993055555536  27.783203125 1.6666666666666674  27.65625 2  L 2.34375 2  C 2.216796875 1.6666666666666674  2.10693359375 1.7078993055555536  2.01416015625 1.7903645833333326  C 1.9213867187500002 1.8728298611111094  1.875 1.9704861111111094  2 2.0833333333333326  L 2 17.916666666666668  C 1.875 18.02951388888889  1.9213867187500002 18.12717013888889  2.01416015625 18.209635416666668  C 2.10693359375 18.292100694444443  2.216796875 18.333333333333332  2.34375 18.333333333333332  L 7.5 18.333333333333332  L 7.5 17.083333333333332  C 7.5 16.961805555555557  7.5439453125 16.861979166666668  7.6318359375 16.783854166666668  C 7.7197265625 16.705729166666668  7.832031250000001 16.666666666666668  7.96875 16.666666666666668  L 8.90625 16.666666666666668  C 9.04296875 16.666666666666668  9.1552734375 16.705729166666668  9.2431640625 16.783854166666668  C 9.3310546875 16.861979166666668  9.375 16.961805555555557  9.375 17.083333333333332  L 9.375 18  L 20.625 18  L 20.625 17.083333333333332  C 20.625 16.961805555555557  20.6689453125 16.861979166666668  20.7568359375 16.783854166666668  C 20.8447265625 16.705729166666668  20.95703125 16.666666666666668  21.09375 16.666666666666668  L 22.03125 16.666666666666668  C 22.167968750000004 16.666666666666668  22.2802734375 16.705729166666668  22.3681640625 16.783854166666668  C 22.4560546875 16.861979166666668  22.5 16.961805555555557  22.5 17.083333333333332  L 22.5 18.333333333333332  L 27.65625 18.333333333333332  C 27.783203125 18.333333333333332  27.89306640625 18.292100694444443  27.98583984375 18.209635416666668  Z " stroke-width="0" stroke-dasharray="0" stroke="rgba(255, 255, 255, 0)" fill="none" transform="matrix(1 0 0 1 17 195 )" class="stroke" mask="url(#Clip134)" />
    <path d="M 29.3115234375 0.6119791666666674  C 29.770507812500004 1.0199652777777768  30 1.5104166666666674  30 2.0833333333333326  L 30 17.916666666666668  C 30 18.489583333333332  29.770507812500004 18.98003472222222  29.3115234375 19.388020833333332  C 28.8525390625 19.796006944444443  28.30078125 20  27.65625 20  L 2.34375 20  C 1.69921875 20  1.1474609375000002 19.796006944444443  0.6884765625 19.388020833333332  C 0.2294921875 18.98003472222222  0 18.489583333333332  0 17.916666666666668  L 0 2.0833333333333326  C 0 1.5104166666666674  0.2294921875 1.0199652777777768  0.6884765625 0.6119791666666674  C 1.1474609375000002 0.20399305555555358  1.69921875 0  2.34375 0  L 27.65625 0  C 28.30078125 0  28.8525390625 0.20399305555555358  29.3115234375 0.6119791666666674  Z " stroke-width="0" stroke-dasharray="0" stroke="rgba(255, 255, 255, 0)" fill="none" transform="matrix(1 0 0 1 17 195 )" class="stroke" mask="url(#Clip134)" />
  </g>
</svg>