<?xml version="1.0" encoding="utf-8"?>
<svg version="1.1" xmlns:xlink="http://www.w3.org/1999/xlink" width="25px" height="25px" xmlns="http://www.w3.org/2000/svg">
  <defs>
    <pattern id="BGPattern" patternUnits="userSpaceOnUse" alignment="0 0" imageRepeat="None" />
    <mask fill="white" id="Clip199">
      <path d="M 5.289713541666666 10.114397321428573  C 7.524956597222222 10.514322916666668  9.928385416666668 10.714285714285715  12.5 10.714285714285715  C 15.071614583333334 10.714285714285715  17.47504340277778 10.514322916666668  19.710286458333336 10.114397321428573  C 21.945529513888893 9.714471726190474  23.708767361111114 9.123883928571427  25 8.342633928571427  L 25 10.714285714285715  C 25 11.356026785714285  24.441189236111107 11.951264880952381  23.323567708333336 12.5  C 22.205946180555557 13.048735119047617  20.686848958333336 13.48353794642857  18.766276041666664 13.804408482142858  C 16.845703125 14.125279017857142  14.756944444444445 14.285714285714285  12.5 14.285714285714285  C 10.243055555555557 14.285714285714285  8.154296875 14.125279017857142  6.233723958333334 13.804408482142858  C 4.313151041666666 13.48353794642857  2.7940538194444446 13.048735119047617  1.6764322916666667 12.5  C 0.5588107638888888 11.951264880952381  0 11.356026785714285  0 10.714285714285715  L 0 8.342633928571427  C 1.291232638888889 9.123883928571427  3.0544704861111116 9.714471726190474  5.289713541666666 10.114397321428573  Z M 5.289713541666666 20.828683035714285  C 7.524956597222222 21.228608630952383  9.928385416666668 21.42857142857143  12.5 21.42857142857143  C 15.071614583333334 21.42857142857143  17.47504340277778 21.228608630952383  19.710286458333336 20.828683035714285  C 21.945529513888893 20.42875744047619  23.708767361111114 19.838169642857142  25 19.056919642857142  L 25 21.42857142857143  C 25 22.0703125  24.441189236111107 22.665550595238095  23.323567708333336 23.214285714285715  C 22.205946180555557 23.763020833333332  20.686848958333336 24.197823660714285  18.766276041666664 24.518694196428573  C 16.845703125 24.839564732142858  14.756944444444445 25  12.5 25  C 10.243055555555557 25  8.154296875 24.839564732142858  6.233723958333334 24.518694196428573  C 4.313151041666666 24.197823660714285  2.7940538194444446 23.763020833333332  1.6764322916666667 23.214285714285715  C 0.5588107638888888 22.665550595238095  0 22.0703125  0 21.42857142857143  L 0 19.056919642857142  C 1.291232638888889 19.838169642857142  3.0544704861111116 20.42875744047619  5.289713541666666 20.828683035714285  Z M 5.289713541666666 15.47154017857143  C 7.524956597222222 15.871465773809524  9.928385416666668 16.07142857142857  12.5 16.07142857142857  C 15.071614583333334 16.07142857142857  17.47504340277778 15.871465773809524  19.710286458333336 15.47154017857143  C 21.945529513888893 15.071614583333332  23.708767361111114 14.481026785714285  25 13.699776785714285  L 25 16.07142857142857  C 25 16.713169642857142  24.441189236111107 17.308407738095237  23.323567708333336 17.857142857142858  C 22.205946180555557 18.405877976190478  20.686848958333336 18.84068080357143  18.766276041666664 19.161551339285715  C 16.845703125 19.482421875  14.756944444444445 19.642857142857142  12.5 19.642857142857142  C 10.243055555555557 19.642857142857142  8.154296875 19.482421875  6.233723958333334 19.161551339285715  C 4.313151041666666 18.84068080357143  2.7940538194444446 18.405877976190478  1.6764322916666667 17.857142857142858  C 0.5588107638888888 17.308407738095237  0 16.713169642857142  0 16.07142857142857  L 0 13.699776785714285  C 1.291232638888889 14.481026785714285  3.0544704861111116 15.071614583333332  5.289713541666666 15.47154017857143  Z M 6.233723958333334 0.4813058035714274  C 8.154296875 0.16043526785714246  10.243055555555557 0  12.5 0  C 14.756944444444445 0  16.845703125 0.16043526785714246  18.766276041666664 0.4813058035714274  C 20.686848958333336 0.8021763392857151  22.205946180555557 1.2369791666666656  23.323567708333336 1.785714285714285  C 24.441189236111107 2.334449404761904  25 2.9296875  25 3.5714285714285725  L 25 5.357142857142858  C 25 5.998883928571427  24.441189236111107 6.59412202380952  23.323567708333336 7.142857142857142  C 22.205946180555557 7.691592261904762  20.686848958333336 8.126395089285715  18.766276041666664 8.447265625  C 16.845703125 8.768136160714285  14.756944444444445 8.928571428571427  12.5 8.928571428571427  C 10.243055555555557 8.928571428571427  8.154296875 8.768136160714285  6.233723958333334 8.447265625  C 4.313151041666666 8.126395089285715  2.7940538194444446 7.691592261904762  1.6764322916666667 7.142857142857142  C 0.5588107638888888 6.59412202380952  0 5.998883928571427  0 5.357142857142858  L 0 3.5714285714285725  C 0 2.9296875  0.5588107638888888 2.334449404761904  1.6764322916666667 1.785714285714285  C 2.7940538194444446 1.2369791666666656  4.313151041666666 0.8021763392857151  6.233723958333334 0.4813058035714274  Z " fill-rule="evenodd" />
    </mask>
  </defs>
  <g transform="matrix(1 0 0 1 -22 -391 )">
    <path d="M 5.289713541666666 10.114397321428573  C 7.524956597222222 10.514322916666668  9.928385416666668 10.714285714285715  12.5 10.714285714285715  C 15.071614583333334 10.714285714285715  17.47504340277778 10.514322916666668  19.710286458333336 10.114397321428573  C 21.945529513888893 9.714471726190474  23.708767361111114 9.123883928571427  25 8.342633928571427  L 25 10.714285714285715  C 25 11.356026785714285  24.441189236111107 11.951264880952381  23.323567708333336 12.5  C 22.205946180555557 13.048735119047617  20.686848958333336 13.48353794642857  18.766276041666664 13.804408482142858  C 16.845703125 14.125279017857142  14.756944444444445 14.285714285714285  12.5 14.285714285714285  C 10.243055555555557 14.285714285714285  8.154296875 14.125279017857142  6.233723958333334 13.804408482142858  C 4.313151041666666 13.48353794642857  2.7940538194444446 13.048735119047617  1.6764322916666667 12.5  C 0.5588107638888888 11.951264880952381  0 11.356026785714285  0 10.714285714285715  L 0 8.342633928571427  C 1.291232638888889 9.123883928571427  3.0544704861111116 9.714471726190474  5.289713541666666 10.114397321428573  Z M 5.289713541666666 20.828683035714285  C 7.524956597222222 21.228608630952383  9.928385416666668 21.42857142857143  12.5 21.42857142857143  C 15.071614583333334 21.42857142857143  17.47504340277778 21.228608630952383  19.710286458333336 20.828683035714285  C 21.945529513888893 20.42875744047619  23.708767361111114 19.838169642857142  25 19.056919642857142  L 25 21.42857142857143  C 25 22.0703125  24.441189236111107 22.665550595238095  23.323567708333336 23.214285714285715  C 22.205946180555557 23.763020833333332  20.686848958333336 24.197823660714285  18.766276041666664 24.518694196428573  C 16.845703125 24.839564732142858  14.756944444444445 25  12.5 25  C 10.243055555555557 25  8.154296875 24.839564732142858  6.233723958333334 24.518694196428573  C 4.313151041666666 24.197823660714285  2.7940538194444446 23.763020833333332  1.6764322916666667 23.214285714285715  C 0.5588107638888888 22.665550595238095  0 22.0703125  0 21.42857142857143  L 0 19.056919642857142  C 1.291232638888889 19.838169642857142  3.0544704861111116 20.42875744047619  5.289713541666666 20.828683035714285  Z M 5.289713541666666 15.47154017857143  C 7.524956597222222 15.871465773809524  9.928385416666668 16.07142857142857  12.5 16.07142857142857  C 15.071614583333334 16.07142857142857  17.47504340277778 15.871465773809524  19.710286458333336 15.47154017857143  C 21.945529513888893 15.071614583333332  23.708767361111114 14.481026785714285  25 13.699776785714285  L 25 16.07142857142857  C 25 16.713169642857142  24.441189236111107 17.308407738095237  23.323567708333336 17.857142857142858  C 22.205946180555557 18.405877976190478  20.686848958333336 18.84068080357143  18.766276041666664 19.161551339285715  C 16.845703125 19.482421875  14.756944444444445 19.642857142857142  12.5 19.642857142857142  C 10.243055555555557 19.642857142857142  8.154296875 19.482421875  6.233723958333334 19.161551339285715  C 4.313151041666666 18.84068080357143  2.7940538194444446 18.405877976190478  1.6764322916666667 17.857142857142858  C 0.5588107638888888 17.308407738095237  0 16.713169642857142  0 16.07142857142857  L 0 13.699776785714285  C 1.291232638888889 14.481026785714285  3.0544704861111116 15.071614583333332  5.289713541666666 15.47154017857143  Z M 6.233723958333334 0.4813058035714274  C 8.154296875 0.16043526785714246  10.243055555555557 0  12.5 0  C 14.756944444444445 0  16.845703125 0.16043526785714246  18.766276041666664 0.4813058035714274  C 20.686848958333336 0.8021763392857151  22.205946180555557 1.2369791666666656  23.323567708333336 1.785714285714285  C 24.441189236111107 2.334449404761904  25 2.9296875  25 3.5714285714285725  L 25 5.357142857142858  C 25 5.998883928571427  24.441189236111107 6.59412202380952  23.323567708333336 7.142857142857142  C 22.205946180555557 7.691592261904762  20.686848958333336 8.126395089285715  18.766276041666664 8.447265625  C 16.845703125 8.768136160714285  14.756944444444445 8.928571428571427  12.5 8.928571428571427  C 10.243055555555557 8.928571428571427  8.154296875 8.768136160714285  6.233723958333334 8.447265625  C 4.313151041666666 8.126395089285715  2.7940538194444446 7.691592261904762  1.6764322916666667 7.142857142857142  C 0.5588107638888888 6.59412202380952  0 5.998883928571427  0 5.357142857142858  L 0 3.5714285714285725  C 0 2.9296875  0.5588107638888888 2.334449404761904  1.6764322916666667 1.785714285714285  C 2.7940538194444446 1.2369791666666656  4.313151041666666 0.8021763392857151  6.233723958333334 0.4813058035714274  Z " fill-rule="nonzero" fill="rgba(0, 0, 0, 1)" stroke="none" transform="matrix(1 0 0 1 22 391 )" class="fill" />
    <path d="M 5.289713541666666 10.114397321428573  C 7.524956597222222 10.514322916666668  9.928385416666668 10.714285714285715  12.5 10.714285714285715  C 15.071614583333334 10.714285714285715  17.47504340277778 10.514322916666668  19.710286458333336 10.114397321428573  C 21.945529513888893 9.714471726190474  23.708767361111114 9.123883928571427  25 8.342633928571427  L 25 10.714285714285715  C 25 11.356026785714285  24.441189236111107 11.951264880952381  23.323567708333336 12.5  C 22.205946180555557 13.048735119047617  20.686848958333336 13.48353794642857  18.766276041666664 13.804408482142858  C 16.845703125 14.125279017857142  14.756944444444445 14.285714285714285  12.5 14.285714285714285  C 10.243055555555557 14.285714285714285  8.154296875 14.125279017857142  6.233723958333334 13.804408482142858  C 4.313151041666666 13.48353794642857  2.7940538194444446 13.048735119047617  1.6764322916666667 12.5  C 0.5588107638888888 11.951264880952381  0 11.356026785714285  0 10.714285714285715  L 0 8.342633928571427  C 1.291232638888889 9.123883928571427  3.0544704861111116 9.714471726190474  5.289713541666666 10.114397321428573  Z " stroke-width="0" stroke-dasharray="0" stroke="rgba(255, 255, 255, 0)" fill="none" transform="matrix(1 0 0 1 22 391 )" class="stroke" mask="url(#Clip199)" />
    <path d="M 5.289713541666666 20.828683035714285  C 7.524956597222222 21.228608630952383  9.928385416666668 21.42857142857143  12.5 21.42857142857143  C 15.071614583333334 21.42857142857143  17.47504340277778 21.228608630952383  19.710286458333336 20.828683035714285  C 21.945529513888893 20.42875744047619  23.708767361111114 19.838169642857142  25 19.056919642857142  L 25 21.42857142857143  C 25 22.0703125  24.441189236111107 22.665550595238095  23.323567708333336 23.214285714285715  C 22.205946180555557 23.763020833333332  20.686848958333336 24.197823660714285  18.766276041666664 24.518694196428573  C 16.845703125 24.839564732142858  14.756944444444445 25  12.5 25  C 10.243055555555557 25  8.154296875 24.839564732142858  6.233723958333334 24.518694196428573  C 4.313151041666666 24.197823660714285  2.7940538194444446 23.763020833333332  1.6764322916666667 23.214285714285715  C 0.5588107638888888 22.665550595238095  0 22.0703125  0 21.42857142857143  L 0 19.056919642857142  C 1.291232638888889 19.838169642857142  3.0544704861111116 20.42875744047619  5.289713541666666 20.828683035714285  Z " stroke-width="0" stroke-dasharray="0" stroke="rgba(255, 255, 255, 0)" fill="none" transform="matrix(1 0 0 1 22 391 )" class="stroke" mask="url(#Clip199)" />
    <path d="M 5.289713541666666 15.47154017857143  C 7.524956597222222 15.871465773809524  9.928385416666668 16.07142857142857  12.5 16.07142857142857  C 15.071614583333334 16.07142857142857  17.47504340277778 15.871465773809524  19.710286458333336 15.47154017857143  C 21.945529513888893 15.071614583333332  23.708767361111114 14.481026785714285  25 13.699776785714285  L 25 16.07142857142857  C 25 16.713169642857142  24.441189236111107 17.308407738095237  23.323567708333336 17.857142857142858  C 22.205946180555557 18.405877976190478  20.686848958333336 18.84068080357143  18.766276041666664 19.161551339285715  C 16.845703125 19.482421875  14.756944444444445 19.642857142857142  12.5 19.642857142857142  C 10.243055555555557 19.642857142857142  8.154296875 19.482421875  6.233723958333334 19.161551339285715  C 4.313151041666666 18.84068080357143  2.7940538194444446 18.405877976190478  1.6764322916666667 17.857142857142858  C 0.5588107638888888 17.308407738095237  0 16.713169642857142  0 16.07142857142857  L 0 13.699776785714285  C 1.291232638888889 14.481026785714285  3.0544704861111116 15.071614583333332  5.289713541666666 15.47154017857143  Z " stroke-width="0" stroke-dasharray="0" stroke="rgba(255, 255, 255, 0)" fill="none" transform="matrix(1 0 0 1 22 391 )" class="stroke" mask="url(#Clip199)" />
    <path d="M 6.233723958333334 0.4813058035714274  C 8.154296875 0.16043526785714246  10.243055555555557 0  12.5 0  C 14.756944444444445 0  16.845703125 0.16043526785714246  18.766276041666664 0.4813058035714274  C 20.686848958333336 0.8021763392857151  22.205946180555557 1.2369791666666656  23.323567708333336 1.785714285714285  C 24.441189236111107 2.334449404761904  25 2.9296875  25 3.5714285714285725  L 25 5.357142857142858  C 25 5.998883928571427  24.441189236111107 6.59412202380952  23.323567708333336 7.142857142857142  C 22.205946180555557 7.691592261904762  20.686848958333336 8.126395089285715  18.766276041666664 8.447265625  C 16.845703125 8.768136160714285  14.756944444444445 8.928571428571427  12.5 8.928571428571427  C 10.243055555555557 8.928571428571427  8.154296875 8.768136160714285  6.233723958333334 8.447265625  C 4.313151041666666 8.126395089285715  2.7940538194444446 7.691592261904762  1.6764322916666667 7.142857142857142  C 0.5588107638888888 6.59412202380952  0 5.998883928571427  0 5.357142857142858  L 0 3.5714285714285725  C 0 2.9296875  0.5588107638888888 2.334449404761904  1.6764322916666667 1.785714285714285  C 2.7940538194444446 1.2369791666666656  4.313151041666666 0.8021763392857151  6.233723958333334 0.4813058035714274  Z " stroke-width="0" stroke-dasharray="0" stroke="rgba(255, 255, 255, 0)" fill="none" transform="matrix(1 0 0 1 22 391 )" class="stroke" mask="url(#Clip199)" />
  </g>
</svg>