<?xml version="1.0" encoding="utf-8"?>
<svg version="1.1" xmlns:xlink="http://www.w3.org/1999/xlink" width="26px" height="24px" xmlns="http://www.w3.org/2000/svg">
  <defs>
    <pattern id="BGPattern" patternUnits="userSpaceOnUse" alignment="0 0" imageRepeat="None" />
    <mask fill="white" id="Clip200">
      <path d="M 16.112165178571427 8.926339285714286  C 16.494233630952383 9.279017857142854  16.685267857142858 9.705357142857139  16.685267857142858 10.205357142857142  C 16.685267857142858 10.705357142857142  16.494233630952383 11.129464285714286  16.112165178571427 11.47767857142857  C 15.730096726190476 11.825892857142858  15.268229166666668 12  14.7265625 12  L 11.055803571428571 12  L 11.055803571428571 8.39732142857143  L 14.7265625 8.39732142857143  C 15.268229166666668 8.39732142857143  15.730096726190476 8.573660714285712  16.112165178571427 8.926339285714286  Z M 17.947544642857142 13.171875  C 18.8374255952381 12.354910714285714  19.282366071428573 11.366071428571429  19.282366071428573 10.205357142857142  C 19.282366071428573 9.044642857142854  18.83984375 8.053571428571427  17.954799107142858 7.232142857142857  C 17.069754464285715 6.410714285714283  15.993675595238098 6  14.7265625 6  L 8.444196428571429 6  L 8.444196428571429 18  L 11.055803571428571 18  L 11.055803571428571 14.397321428571427  L 14.7265625 14.397321428571427  C 15.984002976190476 14.397321428571427  17.05766369047619 13.988839285714286  17.947544642857142 13.171875  Z M 24.969866071428573 7.3392857142857135  C 25.656622023809526 8.82142857142857  26 10.375  26 12  C 26 13.624999999999998  25.656622023809526 15.178571428571427  24.969866071428573 16.660714285714285  C 24.283110119047624 18.142857142857142  23.359375000000004 19.419642857142858  22.198660714285715 20.491071428571427  C 21.037946428571427 21.5625  19.65476190476191 22.415178571428573  18.049107142857142 23.049107142857142  C 16.443452380952383 23.683035714285715  14.760416666666668 24  13 24  C 11.239583333333334 24  9.55654761904762 23.683035714285715  7.950892857142858 23.049107142857142  C 6.345238095238096 22.415178571428573  4.962053571428571 21.5625  3.801339285714286 20.491071428571427  C 2.640625 19.419642857142858  1.716889880952381 18.142857142857142  1.0301339285714286 16.660714285714285  C 0.34337797619047616 15.178571428571427  0 13.624999999999998  0 12  C 0 10.375  0.34337797619047616 8.82142857142857  1.0301339285714286 7.3392857142857135  C 1.716889880952381 5.857142857142855  2.640625 4.580357142857143  3.801339285714286 3.5089285714285703  C 4.962053571428571 2.4375  6.345238095238096 1.584821428571428  7.950892857142858 0.9508928571428568  C 9.55654761904762 0.3169642857142856  11.239583333333334 0  13 0  C 14.760416666666668 0  16.443452380952383 0.3169642857142856  18.049107142857142 0.9508928571428568  C 19.65476190476191 1.584821428571428  21.037946428571427 2.4375  22.198660714285715 3.5089285714285703  C 23.359375000000004 4.580357142857143  24.283110119047624 5.857142857142855  24.969866071428573 7.3392857142857135  Z " fill-rule="evenodd" />
    </mask>
  </defs>
  <g transform="matrix(1 0 0 1 -18 -239 )">
    <path d="M 16.112165178571427 8.926339285714286  C 16.494233630952383 9.279017857142854  16.685267857142858 9.705357142857139  16.685267857142858 10.205357142857142  C 16.685267857142858 10.705357142857142  16.494233630952383 11.129464285714286  16.112165178571427 11.47767857142857  C 15.730096726190476 11.825892857142858  15.268229166666668 12  14.7265625 12  L 11.055803571428571 12  L 11.055803571428571 8.39732142857143  L 14.7265625 8.39732142857143  C 15.268229166666668 8.39732142857143  15.730096726190476 8.573660714285712  16.112165178571427 8.926339285714286  Z M 17.947544642857142 13.171875  C 18.8374255952381 12.354910714285714  19.282366071428573 11.366071428571429  19.282366071428573 10.205357142857142  C 19.282366071428573 9.044642857142854  18.83984375 8.053571428571427  17.954799107142858 7.232142857142857  C 17.069754464285715 6.410714285714283  15.993675595238098 6  14.7265625 6  L 8.444196428571429 6  L 8.444196428571429 18  L 11.055803571428571 18  L 11.055803571428571 14.397321428571427  L 14.7265625 14.397321428571427  C 15.984002976190476 14.397321428571427  17.05766369047619 13.988839285714286  17.947544642857142 13.171875  Z M 24.969866071428573 7.3392857142857135  C 25.656622023809526 8.82142857142857  26 10.375  26 12  C 26 13.624999999999998  25.656622023809526 15.178571428571427  24.969866071428573 16.660714285714285  C 24.283110119047624 18.142857142857142  23.359375000000004 19.419642857142858  22.198660714285715 20.491071428571427  C 21.037946428571427 21.5625  19.65476190476191 22.415178571428573  18.049107142857142 23.049107142857142  C 16.443452380952383 23.683035714285715  14.760416666666668 24  13 24  C 11.239583333333334 24  9.55654761904762 23.683035714285715  7.950892857142858 23.049107142857142  C 6.345238095238096 22.415178571428573  4.962053571428571 21.5625  3.801339285714286 20.491071428571427  C 2.640625 19.419642857142858  1.716889880952381 18.142857142857142  1.0301339285714286 16.660714285714285  C 0.34337797619047616 15.178571428571427  0 13.624999999999998  0 12  C 0 10.375  0.34337797619047616 8.82142857142857  1.0301339285714286 7.3392857142857135  C 1.716889880952381 5.857142857142855  2.640625 4.580357142857143  3.801339285714286 3.5089285714285703  C 4.962053571428571 2.4375  6.345238095238096 1.584821428571428  7.950892857142858 0.9508928571428568  C 9.55654761904762 0.3169642857142856  11.239583333333334 0  13 0  C 14.760416666666668 0  16.443452380952383 0.3169642857142856  18.049107142857142 0.9508928571428568  C 19.65476190476191 1.584821428571428  21.037946428571427 2.4375  22.198660714285715 3.5089285714285703  C 23.359375000000004 4.580357142857143  24.283110119047624 5.857142857142855  24.969866071428573 7.3392857142857135  Z " fill-rule="nonzero" fill="rgba(0, 0, 0, 1)" stroke="none" transform="matrix(1 0 0 1 18 239 )" class="fill" />
    <path d="M 16.112165178571427 8.926339285714286  C 16.494233630952383 9.279017857142854  16.685267857142858 9.705357142857139  16.685267857142858 10.205357142857142  C 16.685267857142858 10.705357142857142  16.494233630952383 11.129464285714286  16.112165178571427 11.47767857142857  C 15.730096726190476 11.825892857142858  15.268229166666668 12  14.7265625 12  L 11.055803571428571 12  L 11.055803571428571 8.39732142857143  L 14.7265625 8.39732142857143  C 15.268229166666668 8.39732142857143  15.730096726190476 8.573660714285712  16.112165178571427 8.926339285714286  Z " stroke-width="0" stroke-dasharray="0" stroke="rgba(255, 255, 255, 0)" fill="none" transform="matrix(1 0 0 1 18 239 )" class="stroke" mask="url(#Clip200)" />
    <path d="M 17.947544642857142 13.171875  C 18.8374255952381 12.354910714285714  19.282366071428573 11.366071428571429  19.282366071428573 10.205357142857142  C 19.282366071428573 9.044642857142854  18.83984375 8.053571428571427  17.954799107142858 7.232142857142857  C 17.069754464285715 6.410714285714283  15.993675595238098 6  14.7265625 6  L 8.444196428571429 6  L 8.444196428571429 18  L 11.055803571428571 18  L 11.055803571428571 14.397321428571427  L 14.7265625 14.397321428571427  C 15.984002976190476 14.397321428571427  17.05766369047619 13.988839285714286  17.947544642857142 13.171875  Z " stroke-width="0" stroke-dasharray="0" stroke="rgba(255, 255, 255, 0)" fill="none" transform="matrix(1 0 0 1 18 239 )" class="stroke" mask="url(#Clip200)" />
    <path d="M 24.969866071428573 7.3392857142857135  C 25.656622023809526 8.82142857142857  26 10.375  26 12  C 26 13.624999999999998  25.656622023809526 15.178571428571427  24.969866071428573 16.660714285714285  C 24.283110119047624 18.142857142857142  23.359375000000004 19.419642857142858  22.198660714285715 20.491071428571427  C 21.037946428571427 21.5625  19.65476190476191 22.415178571428573  18.049107142857142 23.049107142857142  C 16.443452380952383 23.683035714285715  14.760416666666668 24  13 24  C 11.239583333333334 24  9.55654761904762 23.683035714285715  7.950892857142858 23.049107142857142  C 6.345238095238096 22.415178571428573  4.962053571428571 21.5625  3.801339285714286 20.491071428571427  C 2.640625 19.419642857142858  1.716889880952381 18.142857142857142  1.0301339285714286 16.660714285714285  C 0.34337797619047616 15.178571428571427  0 13.624999999999998  0 12  C 0 10.375  0.34337797619047616 8.82142857142857  1.0301339285714286 7.3392857142857135  C 1.716889880952381 5.857142857142855  2.640625 4.580357142857143  3.801339285714286 3.5089285714285703  C 4.962053571428571 2.4375  6.345238095238096 1.584821428571428  7.950892857142858 0.9508928571428568  C 9.55654761904762 0.3169642857142856  11.239583333333334 0  13 0  C 14.760416666666668 0  16.443452380952383 0.3169642857142856  18.049107142857142 0.9508928571428568  C 19.65476190476191 1.584821428571428  21.037946428571427 2.4375  22.198660714285715 3.5089285714285703  C 23.359375000000004 4.580357142857143  24.283110119047624 5.857142857142855  24.969866071428573 7.3392857142857135  Z " stroke-width="0" stroke-dasharray="0" stroke="rgba(255, 255, 255, 0)" fill="none" transform="matrix(1 0 0 1 18 239 )" class="stroke" mask="url(#Clip200)" />
  </g>
</svg>