<?xml version="1.0" encoding="utf-8"?>
<svg version="1.1" xmlns:xlink="http://www.w3.org/1999/xlink" width="28px" height="28px" xmlns="http://www.w3.org/2000/svg">
  <defs>
    <pattern id="BGPattern" patternUnits="userSpaceOnUse" alignment="0 0" imageRepeat="None" />
    <mask fill="white" id="Clip398">
      <path d="M 27.176470588235293 18  L 22.235294117647058 7  L 17.294117647058826 18  L 27.176470588235293 18  Z M 10.705882352941176 18  L 5.764705882352941 7  L 0.8235294117647058 18  L 10.705882352941176 18  Z M 22.647058823529413 4.000000000000002  L 16.329044117647058 4.000000000000002  C 16.208946078431374 4.416666666666663  16.01378676470588 4.789062499999999  15.743566176470587 5.117187499999999  C 15.473345588235293 5.445312499999999  15.166666666666668 5.682291666666664  14.823529411764707 5.828124999999999  L 14.823529411764707 26  L 22.647058823529413 26  C 22.7671568627451 26  22.865808823529413 26.046875  22.94301470588235 26.140625  C 23.020220588235293 26.234375  23.058823529411764 26.354166666666668  23.058823529411764 26.5  L 23.058823529411764 27.5  C 23.058823529411764 27.645833333333332  23.020220588235293 27.765625  22.94301470588235 27.859375  C 22.865808823529413 27.953125  22.7671568627451 28  22.647058823529413 28  L 5.352941176470588 28  C 5.2328431372549025 28  5.134191176470589 27.953125  5.056985294117647 27.859375  C 4.9797794117647065 27.765625  4.9411764705882355 27.645833333333332  4.9411764705882355 27.5  L 4.9411764705882355 26.5  C 4.9411764705882355 26.354166666666668  4.9797794117647065 26.234375  5.056985294117647 26.140625  C 5.134191176470589 26.046875  5.2328431372549025 26  5.352941176470588 26  L 13.176470588235293 26  L 13.176470588235293 5.828124999999999  C 12.833333333333336 5.682291666666664  12.526654411764708 5.445312499999999  12.256433823529413 5.117187499999999  C 11.98621323529412 4.789062499999999  11.79105392156863 4.416666666666663  11.67095588235294 4.000000000000002  L 5.352941176470588 4.000000000000002  C 5.2328431372549025 4.000000000000002  5.134191176470589 3.9531249999999996  5.056985294117647 3.859374999999999  C 4.9797794117647065 3.7656249999999987  4.9411764705882355 3.6458333333333313  4.9411764705882355 3.5  L 4.9411764705882355 2.5000000000000004  C 4.9411764705882355 2.354166666666663  4.9797794117647065 2.2343749999999987  5.056985294117647 2.1406250000000013  C 5.134191176470589 2.046875000000001  5.2328431372549025 1.9999999999999991  5.352941176470588 1.9999999999999991  L 11.67095588235294 1.9999999999999991  C 11.851102941176471 1.4062500000000004  12.151348039215687 0.9244791666666647  12.571691176470587 0.5546875000000013  C 12.992034313725492 0.1848958333333348  13.468137254901961 0  14 0  C 14.53186274509804 0  15.007965686274513 0.1848958333333348  15.428308823529413 0.5546875000000013  C 15.848651960784315 0.9244791666666647  16.14889705882353 1.4062500000000004  16.329044117647058 1.9999999999999991  L 22.647058823529413 1.9999999999999991  C 22.7671568627451 1.9999999999999991  22.865808823529413 2.046875000000001  22.94301470588235 2.1406250000000013  C 23.020220588235293 2.2343749999999987  23.058823529411764 2.354166666666663  23.058823529411764 2.5000000000000004  L 23.058823529411764 3.5  C 23.058823529411764 3.6458333333333313  23.020220588235293 3.7656249999999987  22.94301470588235 3.859374999999999  C 22.865808823529413 3.9531249999999996  22.7671568627451 4.000000000000002  22.647058823529413 4.000000000000002  Z M 13.272977941176471 3.8828125  C 13.474571078431373 4.127604166666664  13.716911764705882 4.25  14 4.25  C 14.283088235294118 4.25  14.52542892156863 4.127604166666664  14.72702205882353 3.8828125  C 14.928615196078432 3.638020833333333  15.029411764705882 3.3437500000000013  15.029411764705882 2.9999999999999987  C 15.029411764705882 2.656249999999999  14.928615196078432 2.3619791666666643  14.72702205882353 2.1171875000000004  C 14.52542892156863 1.8723958333333335  14.283088235294118 1.75  14 1.75  C 13.716911764705882 1.75  13.474571078431373 1.8723958333333335  13.272977941176471 2.1171875000000004  C 13.071384803921571 2.3619791666666643  12.97058823529412 2.656249999999999  12.970588235294118 2.9999999999999987  C 12.97058823529412 3.3437500000000013  13.071384803921571 3.638020833333333  13.272977941176471 3.8828125  Z M 27.549632352941174 16.734375  C 27.849877450980394 17.463541666666664  28 17.885416666666664  28 18  C 28 18.760416666666664  27.800551470588236 19.442708333333332  27.401654411764707 20.046875  C 27.002757352941174 20.651041666666664  26.498774509803923 21.125  25.889705882352942 21.46875  C 25.280637254901965 21.8125  24.660845588235297 22.0703125  24.030330882352942 22.2421875  C 23.39981617647059 22.4140625  22.801470588235297 22.5  22.235294117647058 22.5  C 21.669117647058826 22.5  21.070772058823533 22.4140625  20.440257352941174 22.2421875  C 19.809742647058826 22.0703125  19.189950980392158 21.8125  18.580882352941174 21.46875  C 17.971813725490197 21.125  17.467830882352942 20.651041666666664  17.068933823529413 20.046875  C 16.67003676470588 19.442708333333332  16.47058823529412 18.760416666666664  16.47058823529412 18  C 16.47058823529412 17.885416666666664  16.620710784313726 17.463541666666664  16.920955882352942 16.734375  C 17.221200980392158 16.005208333333332  17.615808823529413 15.096354166666666  18.104779411764707 14.007812499999998  C 18.59375 12.919270833333334  19.052696078431374 11.901041666666664  19.481617647058826 10.953125  C 19.910539215686278 10.00520833333333  20.348039215686278 9.046875  20.794117647058826 8.078125  C 21.240196078431378 7.109375  21.480392156862745 6.588541666666664  21.514705882352942 6.515625000000002  C 21.669117647058826 6.171874999999998  21.909313725490197 6  22.235294117647058 6  C 22.561274509803923 6  22.801470588235293 6.171874999999998  22.955882352941174 6.515625000000002  C 22.990196078431378 6.588541666666664  23.230392156862745 7.109375  23.676470588235293 8.078125  C 24.122549019607845 9.046875  24.560049019607845 10.00520833333333  24.988970588235293 10.953125  C 25.417892156862745 11.901041666666664  25.876838235294123 12.919270833333334  26.365808823529413 14.007812499999998  C 26.854779411764707 15.096354166666666  27.249387254901965 16.005208333333332  27.549632352941174 16.734375  Z M 11.07904411764706 16.734375  C 11.379289215686276 17.463541666666664  11.529411764705882 17.885416666666664  11.529411764705882 18  C 11.529411764705882 18.760416666666664  11.329963235294118 19.442708333333332  10.931066176470587 20.046875  C 10.53216911764706 20.651041666666664  10.028186274509803 21.125  9.419117647058824 21.46875  C 8.810049019607845 21.8125  8.190257352941176 22.0703125  7.559742647058824 22.2421875  C 6.92922794117647 22.4140625  6.330882352941177 22.5  5.764705882352941 22.5  C 5.1985294117647065 22.5  4.600183823529412 22.4140625  3.969669117647059 22.2421875  C 3.339154411764706 22.0703125  2.719362745098039 21.8125  2.110294117647059 21.46875  C 1.5012254901960786 21.125  0.9972426470588235 20.651041666666664  0.5983455882352942 20.046875  C 0.1994485294117647 19.442708333333332  0 18.760416666666664  0 18  C 0 17.885416666666664  0.15012254901960784 17.463541666666664  0.4503676470588235 16.734375  C 0.7506127450980393 16.005208333333332  1.1452205882352942 15.096354166666666  1.6341911764705883 14.007812499999998  C 2.1231617647058822 12.919270833333334  2.582107843137255 11.901041666666664  3.011029411764706 10.953125  C 3.4399509803921573 10.00520833333333  3.8774509803921573 9.046875  4.3235294117647065 8.078125  C 4.769607843137255 7.109375  5.009803921568628 6.588541666666664  5.044117647058823 6.515625000000002  C 5.1985294117647065 6.171874999999998  5.438725490196078 6  5.764705882352941 6  C 6.090686274509804 6  6.3308823529411775 6.171874999999998  6.485294117647059 6.515625000000002  C 6.519607843137255 6.588541666666664  6.759803921568628 7.109375  7.205882352941176 8.078125  C 7.651960784313726 9.046875  8.089460784313726 10.00520833333333  8.518382352941176 10.953125  C 8.94730392156863 11.901041666666664  9.40625 12.919270833333334  9.895220588235293 14.007812499999998  C 10.384191176470587 15.096354166666666  10.778799019607845 16.005208333333332  11.07904411764706 16.734375  Z " fill-rule="evenodd" />
    </mask>
  </defs>
  <g transform="matrix(1 0 0 1 -20 -441 )">
    <path d="M 27.176470588235293 18  L 22.235294117647058 7  L 17.294117647058826 18  L 27.176470588235293 18  Z M 10.705882352941176 18  L 5.764705882352941 7  L 0.8235294117647058 18  L 10.705882352941176 18  Z M 22.647058823529413 4.000000000000002  L 16.329044117647058 4.000000000000002  C 16.208946078431374 4.416666666666663  16.01378676470588 4.789062499999999  15.743566176470587 5.117187499999999  C 15.473345588235293 5.445312499999999  15.166666666666668 5.682291666666664  14.823529411764707 5.828124999999999  L 14.823529411764707 26  L 22.647058823529413 26  C 22.7671568627451 26  22.865808823529413 26.046875  22.94301470588235 26.140625  C 23.020220588235293 26.234375  23.058823529411764 26.354166666666668  23.058823529411764 26.5  L 23.058823529411764 27.5  C 23.058823529411764 27.645833333333332  23.020220588235293 27.765625  22.94301470588235 27.859375  C 22.865808823529413 27.953125  22.7671568627451 28  22.647058823529413 28  L 5.352941176470588 28  C 5.2328431372549025 28  5.134191176470589 27.953125  5.056985294117647 27.859375  C 4.9797794117647065 27.765625  4.9411764705882355 27.645833333333332  4.9411764705882355 27.5  L 4.9411764705882355 26.5  C 4.9411764705882355 26.354166666666668  4.9797794117647065 26.234375  5.056985294117647 26.140625  C 5.134191176470589 26.046875  5.2328431372549025 26  5.352941176470588 26  L 13.176470588235293 26  L 13.176470588235293 5.828124999999999  C 12.833333333333336 5.682291666666664  12.526654411764708 5.445312499999999  12.256433823529413 5.117187499999999  C 11.98621323529412 4.789062499999999  11.79105392156863 4.416666666666663  11.67095588235294 4.000000000000002  L 5.352941176470588 4.000000000000002  C 5.2328431372549025 4.000000000000002  5.134191176470589 3.9531249999999996  5.056985294117647 3.859374999999999  C 4.9797794117647065 3.7656249999999987  4.9411764705882355 3.6458333333333313  4.9411764705882355 3.5  L 4.9411764705882355 2.5000000000000004  C 4.9411764705882355 2.354166666666663  4.9797794117647065 2.2343749999999987  5.056985294117647 2.1406250000000013  C 5.134191176470589 2.046875000000001  5.2328431372549025 1.9999999999999991  5.352941176470588 1.9999999999999991  L 11.67095588235294 1.9999999999999991  C 11.851102941176471 1.4062500000000004  12.151348039215687 0.9244791666666647  12.571691176470587 0.5546875000000013  C 12.992034313725492 0.1848958333333348  13.468137254901961 0  14 0  C 14.53186274509804 0  15.007965686274513 0.1848958333333348  15.428308823529413 0.5546875000000013  C 15.848651960784315 0.9244791666666647  16.14889705882353 1.4062500000000004  16.329044117647058 1.9999999999999991  L 22.647058823529413 1.9999999999999991  C 22.7671568627451 1.9999999999999991  22.865808823529413 2.046875000000001  22.94301470588235 2.1406250000000013  C 23.020220588235293 2.2343749999999987  23.058823529411764 2.354166666666663  23.058823529411764 2.5000000000000004  L 23.058823529411764 3.5  C 23.058823529411764 3.6458333333333313  23.020220588235293 3.7656249999999987  22.94301470588235 3.859374999999999  C 22.865808823529413 3.9531249999999996  22.7671568627451 4.000000000000002  22.647058823529413 4.000000000000002  Z M 13.272977941176471 3.8828125  C 13.474571078431373 4.127604166666664  13.716911764705882 4.25  14 4.25  C 14.283088235294118 4.25  14.52542892156863 4.127604166666664  14.72702205882353 3.8828125  C 14.928615196078432 3.638020833333333  15.029411764705882 3.3437500000000013  15.029411764705882 2.9999999999999987  C 15.029411764705882 2.656249999999999  14.928615196078432 2.3619791666666643  14.72702205882353 2.1171875000000004  C 14.52542892156863 1.8723958333333335  14.283088235294118 1.75  14 1.75  C 13.716911764705882 1.75  13.474571078431373 1.8723958333333335  13.272977941176471 2.1171875000000004  C 13.071384803921571 2.3619791666666643  12.97058823529412 2.656249999999999  12.970588235294118 2.9999999999999987  C 12.97058823529412 3.3437500000000013  13.071384803921571 3.638020833333333  13.272977941176471 3.8828125  Z M 27.549632352941174 16.734375  C 27.849877450980394 17.463541666666664  28 17.885416666666664  28 18  C 28 18.760416666666664  27.800551470588236 19.442708333333332  27.401654411764707 20.046875  C 27.002757352941174 20.651041666666664  26.498774509803923 21.125  25.889705882352942 21.46875  C 25.280637254901965 21.8125  24.660845588235297 22.0703125  24.030330882352942 22.2421875  C 23.39981617647059 22.4140625  22.801470588235297 22.5  22.235294117647058 22.5  C 21.669117647058826 22.5  21.070772058823533 22.4140625  20.440257352941174 22.2421875  C 19.809742647058826 22.0703125  19.189950980392158 21.8125  18.580882352941174 21.46875  C 17.971813725490197 21.125  17.467830882352942 20.651041666666664  17.068933823529413 20.046875  C 16.67003676470588 19.442708333333332  16.47058823529412 18.760416666666664  16.47058823529412 18  C 16.47058823529412 17.885416666666664  16.620710784313726 17.463541666666664  16.920955882352942 16.734375  C 17.221200980392158 16.005208333333332  17.615808823529413 15.096354166666666  18.104779411764707 14.007812499999998  C 18.59375 12.919270833333334  19.052696078431374 11.901041666666664  19.481617647058826 10.953125  C 19.910539215686278 10.00520833333333  20.348039215686278 9.046875  20.794117647058826 8.078125  C 21.240196078431378 7.109375  21.480392156862745 6.588541666666664  21.514705882352942 6.515625000000002  C 21.669117647058826 6.171874999999998  21.909313725490197 6  22.235294117647058 6  C 22.561274509803923 6  22.801470588235293 6.171874999999998  22.955882352941174 6.515625000000002  C 22.990196078431378 6.588541666666664  23.230392156862745 7.109375  23.676470588235293 8.078125  C 24.122549019607845 9.046875  24.560049019607845 10.00520833333333  24.988970588235293 10.953125  C 25.417892156862745 11.901041666666664  25.876838235294123 12.919270833333334  26.365808823529413 14.007812499999998  C 26.854779411764707 15.096354166666666  27.249387254901965 16.005208333333332  27.549632352941174 16.734375  Z M 11.07904411764706 16.734375  C 11.379289215686276 17.463541666666664  11.529411764705882 17.885416666666664  11.529411764705882 18  C 11.529411764705882 18.760416666666664  11.329963235294118 19.442708333333332  10.931066176470587 20.046875  C 10.53216911764706 20.651041666666664  10.028186274509803 21.125  9.419117647058824 21.46875  C 8.810049019607845 21.8125  8.190257352941176 22.0703125  7.559742647058824 22.2421875  C 6.92922794117647 22.4140625  6.330882352941177 22.5  5.764705882352941 22.5  C 5.1985294117647065 22.5  4.600183823529412 22.4140625  3.969669117647059 22.2421875  C 3.339154411764706 22.0703125  2.719362745098039 21.8125  2.110294117647059 21.46875  C 1.5012254901960786 21.125  0.9972426470588235 20.651041666666664  0.5983455882352942 20.046875  C 0.1994485294117647 19.442708333333332  0 18.760416666666664  0 18  C 0 17.885416666666664  0.15012254901960784 17.463541666666664  0.4503676470588235 16.734375  C 0.7506127450980393 16.005208333333332  1.1452205882352942 15.096354166666666  1.6341911764705883 14.007812499999998  C 2.1231617647058822 12.919270833333334  2.582107843137255 11.901041666666664  3.011029411764706 10.953125  C 3.4399509803921573 10.00520833333333  3.8774509803921573 9.046875  4.3235294117647065 8.078125  C 4.769607843137255 7.109375  5.009803921568628 6.588541666666664  5.044117647058823 6.515625000000002  C 5.1985294117647065 6.171874999999998  5.438725490196078 6  5.764705882352941 6  C 6.090686274509804 6  6.3308823529411775 6.171874999999998  6.485294117647059 6.515625000000002  C 6.519607843137255 6.588541666666664  6.759803921568628 7.109375  7.205882352941176 8.078125  C 7.651960784313726 9.046875  8.089460784313726 10.00520833333333  8.518382352941176 10.953125  C 8.94730392156863 11.901041666666664  9.40625 12.919270833333334  9.895220588235293 14.007812499999998  C 10.384191176470587 15.096354166666666  10.778799019607845 16.005208333333332  11.07904411764706 16.734375  Z " fill-rule="nonzero" fill="rgba(0, 0, 0, 1)" stroke="none" transform="matrix(1 0 0 1 20 441 )" class="fill" />
    <path d="M 27.176470588235293 18  L 22.235294117647058 7  L 17.294117647058826 18  L 27.176470588235293 18  Z " stroke-width="0" stroke-dasharray="0" stroke="rgba(255, 255, 255, 0)" fill="none" transform="matrix(1 0 0 1 20 441 )" class="stroke" mask="url(#Clip398)" />
    <path d="M 10.705882352941176 18  L 5.764705882352941 7  L 0.8235294117647058 18  L 10.705882352941176 18  Z " stroke-width="0" stroke-dasharray="0" stroke="rgba(255, 255, 255, 0)" fill="none" transform="matrix(1 0 0 1 20 441 )" class="stroke" mask="url(#Clip398)" />
    <path d="M 22.647058823529413 4.000000000000002  L 16.329044117647058 4.000000000000002  C 16.208946078431374 4.416666666666663  16.01378676470588 4.789062499999999  15.743566176470587 5.117187499999999  C 15.473345588235293 5.445312499999999  15.166666666666668 5.682291666666664  14.823529411764707 5.828124999999999  L 14.823529411764707 26  L 22.647058823529413 26  C 22.7671568627451 26  22.865808823529413 26.046875  22.94301470588235 26.140625  C 23.020220588235293 26.234375  23.058823529411764 26.354166666666668  23.058823529411764 26.5  L 23.058823529411764 27.5  C 23.058823529411764 27.645833333333332  23.020220588235293 27.765625  22.94301470588235 27.859375  C 22.865808823529413 27.953125  22.7671568627451 28  22.647058823529413 28  L 5.352941176470588 28  C 5.2328431372549025 28  5.134191176470589 27.953125  5.056985294117647 27.859375  C 4.9797794117647065 27.765625  4.9411764705882355 27.645833333333332  4.9411764705882355 27.5  L 4.9411764705882355 26.5  C 4.9411764705882355 26.354166666666668  4.9797794117647065 26.234375  5.056985294117647 26.140625  C 5.134191176470589 26.046875  5.2328431372549025 26  5.352941176470588 26  L 13.176470588235293 26  L 13.176470588235293 5.828124999999999  C 12.833333333333336 5.682291666666664  12.526654411764708 5.445312499999999  12.256433823529413 5.117187499999999  C 11.98621323529412 4.789062499999999  11.79105392156863 4.416666666666663  11.67095588235294 4.000000000000002  L 5.352941176470588 4.000000000000002  C 5.2328431372549025 4.000000000000002  5.134191176470589 3.9531249999999996  5.056985294117647 3.859374999999999  C 4.9797794117647065 3.7656249999999987  4.9411764705882355 3.6458333333333313  4.9411764705882355 3.5  L 4.9411764705882355 2.5000000000000004  C 4.9411764705882355 2.354166666666663  4.9797794117647065 2.2343749999999987  5.056985294117647 2.1406250000000013  C 5.134191176470589 2.046875000000001  5.2328431372549025 1.9999999999999991  5.352941176470588 1.9999999999999991  L 11.67095588235294 1.9999999999999991  C 11.851102941176471 1.4062500000000004  12.151348039215687 0.9244791666666647  12.571691176470587 0.5546875000000013  C 12.992034313725492 0.1848958333333348  13.468137254901961 0  14 0  C 14.53186274509804 0  15.007965686274513 0.1848958333333348  15.428308823529413 0.5546875000000013  C 15.848651960784315 0.9244791666666647  16.14889705882353 1.4062500000000004  16.329044117647058 1.9999999999999991  L 22.647058823529413 1.9999999999999991  C 22.7671568627451 1.9999999999999991  22.865808823529413 2.046875000000001  22.94301470588235 2.1406250000000013  C 23.020220588235293 2.2343749999999987  23.058823529411764 2.354166666666663  23.058823529411764 2.5000000000000004  L 23.058823529411764 3.5  C 23.058823529411764 3.6458333333333313  23.020220588235293 3.7656249999999987  22.94301470588235 3.859374999999999  C 22.865808823529413 3.9531249999999996  22.7671568627451 4.000000000000002  22.647058823529413 4.000000000000002  Z " stroke-width="0" stroke-dasharray="0" stroke="rgba(255, 255, 255, 0)" fill="none" transform="matrix(1 0 0 1 20 441 )" class="stroke" mask="url(#Clip398)" />
    <path d="M 13.272977941176471 3.8828125  C 13.474571078431373 4.127604166666664  13.716911764705882 4.25  14 4.25  C 14.283088235294118 4.25  14.52542892156863 4.127604166666664  14.72702205882353 3.8828125  C 14.928615196078432 3.638020833333333  15.029411764705882 3.3437500000000013  15.029411764705882 2.9999999999999987  C 15.029411764705882 2.656249999999999  14.928615196078432 2.3619791666666643  14.72702205882353 2.1171875000000004  C 14.52542892156863 1.8723958333333335  14.283088235294118 1.75  14 1.75  C 13.716911764705882 1.75  13.474571078431373 1.8723958333333335  13.272977941176471 2.1171875000000004  C 13.071384803921571 2.3619791666666643  12.97058823529412 2.656249999999999  12.970588235294118 2.9999999999999987  C 12.97058823529412 3.3437500000000013  13.071384803921571 3.638020833333333  13.272977941176471 3.8828125  Z " stroke-width="0" stroke-dasharray="0" stroke="rgba(255, 255, 255, 0)" fill="none" transform="matrix(1 0 0 1 20 441 )" class="stroke" mask="url(#Clip398)" />
    <path d="M 27.549632352941174 16.734375  C 27.849877450980394 17.463541666666664  28 17.885416666666664  28 18  C 28 18.760416666666664  27.800551470588236 19.442708333333332  27.401654411764707 20.046875  C 27.002757352941174 20.651041666666664  26.498774509803923 21.125  25.889705882352942 21.46875  C 25.280637254901965 21.8125  24.660845588235297 22.0703125  24.030330882352942 22.2421875  C 23.39981617647059 22.4140625  22.801470588235297 22.5  22.235294117647058 22.5  C 21.669117647058826 22.5  21.070772058823533 22.4140625  20.440257352941174 22.2421875  C 19.809742647058826 22.0703125  19.189950980392158 21.8125  18.580882352941174 21.46875  C 17.971813725490197 21.125  17.467830882352942 20.651041666666664  17.068933823529413 20.046875  C 16.67003676470588 19.442708333333332  16.47058823529412 18.760416666666664  16.47058823529412 18  C 16.47058823529412 17.885416666666664  16.620710784313726 17.463541666666664  16.920955882352942 16.734375  C 17.221200980392158 16.005208333333332  17.615808823529413 15.096354166666666  18.104779411764707 14.007812499999998  C 18.59375 12.919270833333334  19.052696078431374 11.901041666666664  19.481617647058826 10.953125  C 19.910539215686278 10.00520833333333  20.348039215686278 9.046875  20.794117647058826 8.078125  C 21.240196078431378 7.109375  21.480392156862745 6.588541666666664  21.514705882352942 6.515625000000002  C 21.669117647058826 6.171874999999998  21.909313725490197 6  22.235294117647058 6  C 22.561274509803923 6  22.801470588235293 6.171874999999998  22.955882352941174 6.515625000000002  C 22.990196078431378 6.588541666666664  23.230392156862745 7.109375  23.676470588235293 8.078125  C 24.122549019607845 9.046875  24.560049019607845 10.00520833333333  24.988970588235293 10.953125  C 25.417892156862745 11.901041666666664  25.876838235294123 12.919270833333334  26.365808823529413 14.007812499999998  C 26.854779411764707 15.096354166666666  27.249387254901965 16.005208333333332  27.549632352941174 16.734375  Z " stroke-width="0" stroke-dasharray="0" stroke="rgba(255, 255, 255, 0)" fill="none" transform="matrix(1 0 0 1 20 441 )" class="stroke" mask="url(#Clip398)" />
    <path d="M 11.07904411764706 16.734375  C 11.379289215686276 17.463541666666664  11.529411764705882 17.885416666666664  11.529411764705882 18  C 11.529411764705882 18.760416666666664  11.329963235294118 19.442708333333332  10.931066176470587 20.046875  C 10.53216911764706 20.651041666666664  10.028186274509803 21.125  9.419117647058824 21.46875  C 8.810049019607845 21.8125  8.190257352941176 22.0703125  7.559742647058824 22.2421875  C 6.92922794117647 22.4140625  6.330882352941177 22.5  5.764705882352941 22.5  C 5.1985294117647065 22.5  4.600183823529412 22.4140625  3.969669117647059 22.2421875  C 3.339154411764706 22.0703125  2.719362745098039 21.8125  2.110294117647059 21.46875  C 1.5012254901960786 21.125  0.9972426470588235 20.651041666666664  0.5983455882352942 20.046875  C 0.1994485294117647 19.442708333333332  0 18.760416666666664  0 18  C 0 17.885416666666664  0.15012254901960784 17.463541666666664  0.4503676470588235 16.734375  C 0.7506127450980393 16.005208333333332  1.1452205882352942 15.096354166666666  1.6341911764705883 14.007812499999998  C 2.1231617647058822 12.919270833333334  2.582107843137255 11.901041666666664  3.011029411764706 10.953125  C 3.4399509803921573 10.00520833333333  3.8774509803921573 9.046875  4.3235294117647065 8.078125  C 4.769607843137255 7.109375  5.009803921568628 6.588541666666664  5.044117647058823 6.515625000000002  C 5.1985294117647065 6.171874999999998  5.438725490196078 6  5.764705882352941 6  C 6.090686274509804 6  6.3308823529411775 6.171874999999998  6.485294117647059 6.515625000000002  C 6.519607843137255 6.588541666666664  6.759803921568628 7.109375  7.205882352941176 8.078125  C 7.651960784313726 9.046875  8.089460784313726 10.00520833333333  8.518382352941176 10.953125  C 8.94730392156863 11.901041666666664  9.40625 12.919270833333334  9.895220588235293 14.007812499999998  C 10.384191176470587 15.096354166666666  10.778799019607845 16.005208333333332  11.07904411764706 16.734375  Z " stroke-width="0" stroke-dasharray="0" stroke="rgba(255, 255, 255, 0)" fill="none" transform="matrix(1 0 0 1 20 441 )" class="stroke" mask="url(#Clip398)" />
  </g>
</svg>