<?xml version="1.0" encoding="utf-8"?>
<svg version="1.1" xmlns:xlink="http://www.w3.org/1999/xlink" width="171px" height="128px" xmlns="http://www.w3.org/2000/svg">
  <defs>
    <pattern id="BGPattern" patternUnits="userSpaceOnUse" alignment="0 0" imageRepeat="None" />
    <mask fill="white" id="Clip952">
      <path d="M 161.45758928571428 49.18181818181819  C 165.08370535714286 46.81818181818181  168.26450892857144 44.18181818181819  171 41.272727272727266  L 171 113.45454545454545  C 171 117.45454545454545  169.50502232142858 120.87878787878789  166.51506696428572 123.72727272727273  C 163.5251116071429 126.57575757575756  159.9308035714286 128  155.73214285714286 128  L 15.267857142857142 128  C 11.069196428571429 128  7.474888392857143 126.57575757575756  4.4849330357142865 123.72727272727273  C 1.4949776785714293 120.87878787878789  0 117.45454545454545  0 113.45454545454545  L 0 41.272727272727266  C 2.7991071428571437 44.242424242424235  6.011718750000001 46.87878787878786  9.637834821428571 49.18181818181819  C 32.66685267857143 64.0909090909091  48.47544642857143 74.54545454545455  57.06361607142857 80.54545454545455  C 60.689732142857146 83.0909090909091  63.63197544642858 85.07575757575756  65.89034598214286 86.5  C 68.14871651785715 87.92424242424241  71.15457589285715 89.37878787878788  74.90792410714286 90.86363636363637  C 78.66127232142858 92.34848484848484  82.16015625 93.0909090909091  85.40457589285714 93.0909090909091  L 85.5 93.0909090909091  L 85.59542410714286 93.0909090909091  C 88.83984375000001 93.0909090909091  92.33872767857143 92.34848484848484  96.09207589285714 90.86363636363637  C 99.84542410714288 89.37878787878788  102.85128348214288 87.92424242424241  105.10965401785714 86.5  C 107.36802455357143 85.07575757575756  110.31026785714286 83.0909090909091  113.93638392857143 80.54545454545455  C 124.75111607142858 73.0909090909091  140.5915178571429 62.63636363636364  161.45758928571428 49.18181818181819  Z M 166.46735491071428 4.272727272727266  C 169.48911830357142 7.1212121212121104  171 10.545454545454547  171 14.545454545454547  C 171 19.333333333333314  169.44140625 23.909090909090907  166.32421875 28.272727272727266  C 163.20703125 32.63636363636364  159.32645089285717 36.36363636363636  154.68247767857144 39.45454545454545  C 130.76283482142858 55.272727272727266  115.87667410714288 65.12121212121212  110.02399553571429 69  C 109.38783482142858 69.42424242424242  108.03599330357143 70.34848484848484  105.96847098214286 71.77272727272728  C 103.90094866071429 73.19696969696969  102.18331473214288 74.34848484848484  100.81556919642857 75.22727272727272  C 99.44782366071429 76.1060606060606  97.79380580357144 77.0909090909091  95.853515625 78.18181818181819  C 93.91322544642857 79.27272727272728  92.08426339285714 80.0909090909091  90.36662946428571 80.63636363636363  C 88.64899553571429 81.18181818181819  87.05859375 81.45454545454545  85.59542410714286 81.45454545454545  L 85.5 81.45454545454545  L 85.40457589285714 81.45454545454545  C 83.94140625 81.45454545454545  82.35100446428572 81.18181818181819  80.63337053571428 80.63636363636363  C 78.91573660714286 80.0909090909091  77.08677455357143 79.27272727272728  75.146484375 78.18181818181819  C 73.20619419642857 77.0909090909091  71.55217633928571 76.1060606060606  70.18443080357143 75.22727272727272  C 68.81668526785715 74.34848484848484  67.09905133928572 73.19696969696969  65.03152901785714 71.77272727272728  C 62.96400669642858 70.34848484848484  61.61216517857144 69.42424242424242  60.976004464285715 69  C 55.186941964285715 65.12121212121212  46.853236607142854 59.59090909090909  35.97488839285714 52.40909090909091  C 25.096540178571427 45.22727272727272  18.57589285714286 40.90909090909089  16.41294642857143 39.45454545454545  C 12.46875 36.90909090909089  8.747209821428573 33.40909090909091  5.248325892857144 28.954545454545453  C 1.7494419642857149 24.5  0 20.36363636363636  0 16.545454545454547  C 0 11.818181818181813  1.3200334821428577 7.878787878787861  3.960100446428572 4.727272727272734  C 6.600167410714287 1.5757575757575637  10.369419642857146 0  15.267857142857142 0  L 155.73214285714286 0  C 159.8671875 0  163.44559151785714 1.4242424242424079  166.46735491071428 4.272727272727266  Z " fill-rule="evenodd" />
    </mask>
  </defs>
  <g transform="matrix(1 0 0 1 -138 -188 )">
    <path d="M 161.45758928571428 49.18181818181819  C 165.08370535714286 46.81818181818181  168.26450892857144 44.18181818181819  171 41.272727272727266  L 171 113.45454545454545  C 171 117.45454545454545  169.50502232142858 120.87878787878789  166.51506696428572 123.72727272727273  C 163.5251116071429 126.57575757575756  159.9308035714286 128  155.73214285714286 128  L 15.267857142857142 128  C 11.069196428571429 128  7.474888392857143 126.57575757575756  4.4849330357142865 123.72727272727273  C 1.4949776785714293 120.87878787878789  0 117.45454545454545  0 113.45454545454545  L 0 41.272727272727266  C 2.7991071428571437 44.242424242424235  6.011718750000001 46.87878787878786  9.637834821428571 49.18181818181819  C 32.66685267857143 64.0909090909091  48.47544642857143 74.54545454545455  57.06361607142857 80.54545454545455  C 60.689732142857146 83.0909090909091  63.63197544642858 85.07575757575756  65.89034598214286 86.5  C 68.14871651785715 87.92424242424241  71.15457589285715 89.37878787878788  74.90792410714286 90.86363636363637  C 78.66127232142858 92.34848484848484  82.16015625 93.0909090909091  85.40457589285714 93.0909090909091  L 85.5 93.0909090909091  L 85.59542410714286 93.0909090909091  C 88.83984375000001 93.0909090909091  92.33872767857143 92.34848484848484  96.09207589285714 90.86363636363637  C 99.84542410714288 89.37878787878788  102.85128348214288 87.92424242424241  105.10965401785714 86.5  C 107.36802455357143 85.07575757575756  110.31026785714286 83.0909090909091  113.93638392857143 80.54545454545455  C 124.75111607142858 73.0909090909091  140.5915178571429 62.63636363636364  161.45758928571428 49.18181818181819  Z M 166.46735491071428 4.272727272727266  C 169.48911830357142 7.1212121212121104  171 10.545454545454547  171 14.545454545454547  C 171 19.333333333333314  169.44140625 23.909090909090907  166.32421875 28.272727272727266  C 163.20703125 32.63636363636364  159.32645089285717 36.36363636363636  154.68247767857144 39.45454545454545  C 130.76283482142858 55.272727272727266  115.87667410714288 65.12121212121212  110.02399553571429 69  C 109.38783482142858 69.42424242424242  108.03599330357143 70.34848484848484  105.96847098214286 71.77272727272728  C 103.90094866071429 73.19696969696969  102.18331473214288 74.34848484848484  100.81556919642857 75.22727272727272  C 99.44782366071429 76.1060606060606  97.79380580357144 77.0909090909091  95.853515625 78.18181818181819  C 93.91322544642857 79.27272727272728  92.08426339285714 80.0909090909091  90.36662946428571 80.63636363636363  C 88.64899553571429 81.18181818181819  87.05859375 81.45454545454545  85.59542410714286 81.45454545454545  L 85.5 81.45454545454545  L 85.40457589285714 81.45454545454545  C 83.94140625 81.45454545454545  82.35100446428572 81.18181818181819  80.63337053571428 80.63636363636363  C 78.91573660714286 80.0909090909091  77.08677455357143 79.27272727272728  75.146484375 78.18181818181819  C 73.20619419642857 77.0909090909091  71.55217633928571 76.1060606060606  70.18443080357143 75.22727272727272  C 68.81668526785715 74.34848484848484  67.09905133928572 73.19696969696969  65.03152901785714 71.77272727272728  C 62.96400669642858 70.34848484848484  61.61216517857144 69.42424242424242  60.976004464285715 69  C 55.186941964285715 65.12121212121212  46.853236607142854 59.59090909090909  35.97488839285714 52.40909090909091  C 25.096540178571427 45.22727272727272  18.57589285714286 40.90909090909089  16.41294642857143 39.45454545454545  C 12.46875 36.90909090909089  8.747209821428573 33.40909090909091  5.248325892857144 28.954545454545453  C 1.7494419642857149 24.5  0 20.36363636363636  0 16.545454545454547  C 0 11.818181818181813  1.3200334821428577 7.878787878787861  3.960100446428572 4.727272727272734  C 6.600167410714287 1.5757575757575637  10.369419642857146 0  15.267857142857142 0  L 155.73214285714286 0  C 159.8671875 0  163.44559151785714 1.4242424242424079  166.46735491071428 4.272727272727266  Z " fill-rule="nonzero" fill="rgba(0, 0, 0, 1)" stroke="none" transform="matrix(1 0 0 1 138 188 )" class="fill" />
    <path d="M 161.45758928571428 49.18181818181819  C 165.08370535714286 46.81818181818181  168.26450892857144 44.18181818181819  171 41.272727272727266  L 171 113.45454545454545  C 171 117.45454545454545  169.50502232142858 120.87878787878789  166.51506696428572 123.72727272727273  C 163.5251116071429 126.57575757575756  159.9308035714286 128  155.73214285714286 128  L 15.267857142857142 128  C 11.069196428571429 128  7.474888392857143 126.57575757575756  4.4849330357142865 123.72727272727273  C 1.4949776785714293 120.87878787878789  0 117.45454545454545  0 113.45454545454545  L 0 41.272727272727266  C 2.7991071428571437 44.242424242424235  6.011718750000001 46.87878787878786  9.637834821428571 49.18181818181819  C 32.66685267857143 64.0909090909091  48.47544642857143 74.54545454545455  57.06361607142857 80.54545454545455  C 60.689732142857146 83.0909090909091  63.63197544642858 85.07575757575756  65.89034598214286 86.5  C 68.14871651785715 87.92424242424241  71.15457589285715 89.37878787878788  74.90792410714286 90.86363636363637  C 78.66127232142858 92.34848484848484  82.16015625 93.0909090909091  85.40457589285714 93.0909090909091  L 85.5 93.0909090909091  L 85.59542410714286 93.0909090909091  C 88.83984375000001 93.0909090909091  92.33872767857143 92.34848484848484  96.09207589285714 90.86363636363637  C 99.84542410714288 89.37878787878788  102.85128348214288 87.92424242424241  105.10965401785714 86.5  C 107.36802455357143 85.07575757575756  110.31026785714286 83.0909090909091  113.93638392857143 80.54545454545455  C 124.75111607142858 73.0909090909091  140.5915178571429 62.63636363636364  161.45758928571428 49.18181818181819  Z " stroke-width="0" stroke-dasharray="0" stroke="rgba(255, 255, 255, 0)" fill="none" transform="matrix(1 0 0 1 138 188 )" class="stroke" mask="url(#Clip952)" />
    <path d="M 166.46735491071428 4.272727272727266  C 169.48911830357142 7.1212121212121104  171 10.545454545454547  171 14.545454545454547  C 171 19.333333333333314  169.44140625 23.909090909090907  166.32421875 28.272727272727266  C 163.20703125 32.63636363636364  159.32645089285717 36.36363636363636  154.68247767857144 39.45454545454545  C 130.76283482142858 55.272727272727266  115.87667410714288 65.12121212121212  110.02399553571429 69  C 109.38783482142858 69.42424242424242  108.03599330357143 70.34848484848484  105.96847098214286 71.77272727272728  C 103.90094866071429 73.19696969696969  102.18331473214288 74.34848484848484  100.81556919642857 75.22727272727272  C 99.44782366071429 76.1060606060606  97.79380580357144 77.0909090909091  95.853515625 78.18181818181819  C 93.91322544642857 79.27272727272728  92.08426339285714 80.0909090909091  90.36662946428571 80.63636363636363  C 88.64899553571429 81.18181818181819  87.05859375 81.45454545454545  85.59542410714286 81.45454545454545  L 85.5 81.45454545454545  L 85.40457589285714 81.45454545454545  C 83.94140625 81.45454545454545  82.35100446428572 81.18181818181819  80.63337053571428 80.63636363636363  C 78.91573660714286 80.0909090909091  77.08677455357143 79.27272727272728  75.146484375 78.18181818181819  C 73.20619419642857 77.0909090909091  71.55217633928571 76.1060606060606  70.18443080357143 75.22727272727272  C 68.81668526785715 74.34848484848484  67.09905133928572 73.19696969696969  65.03152901785714 71.77272727272728  C 62.96400669642858 70.34848484848484  61.61216517857144 69.42424242424242  60.976004464285715 69  C 55.186941964285715 65.12121212121212  46.853236607142854 59.59090909090909  35.97488839285714 52.40909090909091  C 25.096540178571427 45.22727272727272  18.57589285714286 40.90909090909089  16.41294642857143 39.45454545454545  C 12.46875 36.90909090909089  8.747209821428573 33.40909090909091  5.248325892857144 28.954545454545453  C 1.7494419642857149 24.5  0 20.36363636363636  0 16.545454545454547  C 0 11.818181818181813  1.3200334821428577 7.878787878787861  3.960100446428572 4.727272727272734  C 6.600167410714287 1.5757575757575637  10.369419642857146 0  15.267857142857142 0  L 155.73214285714286 0  C 159.8671875 0  163.44559151785714 1.4242424242424079  166.46735491071428 4.272727272727266  Z " stroke-width="0" stroke-dasharray="0" stroke="rgba(255, 255, 255, 0)" fill="none" transform="matrix(1 0 0 1 138 188 )" class="stroke" mask="url(#Clip952)" />
  </g>
</svg>