<?xml version="1.0" encoding="utf-8"?>
<svg version="1.1" xmlns:xlink="http://www.w3.org/1999/xlink" width="179px" height="123px" xmlns="http://www.w3.org/2000/svg">
  <defs>
    <pattern id="BGPattern" patternUnits="userSpaceOnUse" alignment="0 0" imageRepeat="None" />
    <mask fill="white" id="Clip137">
      <path d="M 34.611328125 86.17862215909092  C 37.10853794642857 83.99467329545455  38.357142857142854 81.35937499999999  38.357142857142854 78.27272727272727  C 38.357142857142854 75.18607954545452  37.10853794642857 72.55078125  34.611328125 70.36683238636363  C 32.11411830357143 68.18288352272727  29.10081845238096 67.09090909090908  25.57142857142857 67.09090909090908  C 22.042038690476193 67.09090909090908  19.028738839285715 68.18288352272727  16.531529017857142 70.36683238636363  C 14.034319196428573 72.55078125  12.785714285714285 75.18607954545452  12.785714285714285 78.27272727272727  C 12.785714285714285 81.35937499999999  14.034319196428573 83.99467329545455  16.531529017857142 86.17862215909092  C 19.028738839285715 88.36257102272727  22.042038690476193 89.45454545454545  25.57142857142857 89.45454545454545  C 29.10081845238096 89.45454545454545  32.11411830357143 88.36257102272727  34.611328125 86.17862215909092  Z M 53.78989955357143 47.04225852272727  C 56.287109375 44.858309659090914  57.53571428571429 42.22301136363636  57.53571428571429 39.13636363636364  C 57.53571428571429 36.04971590909089  56.287109375 33.41441761363636  53.78989955357143 31.23046875  C 51.29268973214286 29.046519886363644  48.27938988095239 27.954545454545457  44.75 27.954545454545457  C 41.22061011904762 27.954545454545457  38.207310267857146 29.046519886363644  35.71010044642857 31.23046875  C 33.212890625 33.41441761363636  31.964285714285715 36.04971590909089  31.964285714285715 39.13636363636364  C 31.964285714285715 42.22301136363636  33.212890625 44.858309659090914  35.71010044642857 47.04225852272727  C 38.207310267857146 49.22620738636364  41.22061011904762 50.31818181818181  44.75 50.31818181818181  C 48.27938988095239 50.31818181818181  51.29268973214286 49.22620738636364  53.78989955357143 47.04225852272727  Z M 107.47991071428572 89.10511363636363  C 106.01488095238098 85.78551136363637  103.61755952380953 83.13565340909089  100.28794642857142 81.15553977272727  L 110.37667410714286 47.78480113636364  C 110.77622767857142 46.27059659090908  110.52650669642858 44.858309659090914  109.62751116071428 43.547940340909086  C 108.728515625 42.23757102272726  107.44661458333334 41.378551136363626  105.78180803571428 40.97088068181819  C 104.11700148809526 40.56321022727272  102.51878720238098 40.75248579545454  100.98716517857142 41.53870738636364  C 99.45554315476191 42.32492897727273  98.45665922619048 43.47514204545454  97.99051339285714 44.989346590909086  L 87.90178571428571 78.36008522727273  C 83.90625 78.6512784090909  80.34356398809524 79.91796874999999  77.21372767857143 82.16015625  C 74.08389136904762 84.40234374999999  71.98623511904762 87.27059659090908  70.92075892857143 90.76491477272727  C 69.58891369047619 95.24928977272727  70.25483630952381 99.50071022727273  72.91852678571429 103.51917613636363  C 75.58221726190477 107.53764204545455  79.47786458333334 110.12926136363636  84.60546875 111.29403409090908  C 89.73307291666667 112.45880681818181  94.5943080357143 111.87642045454547  99.18917410714286 109.546875  C 103.78404017857142 107.21732954545453  106.74739583333334 103.81036931818181  108.07924107142858 99.32599431818181  C 109.14471726190477 95.83167613636363  108.94494047619048 92.42471590909092  107.47991071428572 89.10511363636363  Z M 162.46847098214286 86.17862215909092  C 164.96568080357142 83.99467329545455  166.21428571428572 81.35937499999999  166.21428571428572 78.27272727272727  C 166.21428571428572 75.18607954545452  164.96568080357142 72.55078125  162.46847098214286 70.36683238636363  C 159.97126116071428 68.18288352272727  156.95796130952382 67.09090909090908  153.42857142857142 67.09090909090908  C 149.89918154761904 67.09090909090908  146.88588169642858 68.18288352272727  144.388671875 70.36683238636363  C 141.89146205357142 72.55078125  140.64285714285714 75.18607954545452  140.64285714285714 78.27272727272727  C 140.64285714285714 81.35937499999999  141.89146205357142 83.99467329545455  144.388671875 86.17862215909092  C 146.88588169642858 88.36257102272727  149.89918154761904 89.45454545454545  153.42857142857142 89.45454545454545  C 156.95796130952382 89.45454545454545  159.97126116071428 88.36257102272727  162.46847098214286 86.17862215909092  Z M 98.53989955357142 30.26953125  C 101.037109375 28.085582386363644  102.28571428571428 25.45028409090909  102.28571428571428 22.363636363636356  C 102.28571428571428 19.276988636363626  101.037109375 16.641690340909086  98.53989955357142 14.457741477272728  C 96.04268973214286 12.273792613636358  93.0293898809524 11.181818181818185  89.5 11.181818181818185  C 85.97061011904762 11.181818181818185  82.95731026785715 12.273792613636358  80.46010044642857 14.457741477272728  C 77.962890625 16.641690340909086  76.71428571428571 19.276988636363626  76.71428571428571 22.363636363636356  C 76.71428571428571 25.45028409090909  77.962890625 28.085582386363644  80.46010044642857 30.26953125  C 82.95731026785715 32.45348011363636  85.97061011904762 33.54545454545454  89.5 33.54545454545454  C 93.0293898809524 33.54545454545454  96.04268973214286 32.45348011363636  98.53989955357142 30.26953125  Z M 143.28989955357142 47.04225852272727  C 145.787109375 44.858309659090914  147.03571428571428 42.22301136363636  147.03571428571428 39.13636363636364  C 147.03571428571428 36.04971590909089  145.787109375 33.41441761363636  143.28989955357142 31.23046875  C 140.79268973214286 29.046519886363644  137.77938988095238 27.954545454545457  134.25 27.954545454545457  C 130.72061011904762 27.954545454545457  127.70731026785714 29.046519886363644  125.21010044642858 31.23046875  C 122.712890625 33.41441761363636  121.46428571428572 36.04971590909089  121.46428571428572 39.13636363636364  C 121.46428571428572 42.22301136363636  122.712890625 44.858309659090914  125.21010044642858 47.04225852272727  C 127.70731026785714 49.22620738636364  130.72061011904762 50.31818181818181  134.25 50.31818181818181  C 137.77938988095238 50.31818181818181  140.79268973214286 49.22620738636364  143.28989955357142 47.04225852272727  Z M 171.90792410714286 47.872159090909086  C 176.63597470238096 57.53977272727273  179 67.67329545454545  179 78.27272727272727  C 179 93.47301136363637  174.30524553571428 107.53764204545455  164.91573660714286 120.46661931818181  C 163.65048363095238 122.15553977272727  161.85249255952382 123  159.52176339285714 123  L 19.478236607142858 123  C 17.147507440476193 123  15.349516369047622 122.15553977272727  14.084263392857142 120.46661931818181  C 4.694754464285714 107.59588068181819  0 93.53125000000001  0 78.27272727272727  C 0 67.67329545454545  2.3640252976190474 57.53977272727273  7.092075892857142 47.872159090909086  C 11.820126488095239 38.204545454545446  18.1796875 29.876420454545457  26.17075892857143 22.887784090909086  C 34.161830357142854 15.899147727272728  43.68452380952381 10.337357954545448  54.73883928571429 6.202414772727272  C 65.79315476190477 2.0674715909090815  77.38020833333334 0  89.5 0  C 101.61979166666667 0  113.20684523809526 2.0674715909090815  124.26116071428572 6.202414772727272  C 135.3154761904762 10.337357954545448  144.83816964285714 15.899147727272728  152.82924107142858 22.887784090909086  C 160.82031250000003 29.876420454545457  167.1798735119048 38.204545454545446  171.90792410714286 47.872159090909086  Z " fill-rule="evenodd" />
    </mask>
  </defs>
  <g transform="matrix(1 0 0 1 -371 -188 )">
    <path d="M 34.611328125 86.17862215909092  C 37.10853794642857 83.99467329545455  38.357142857142854 81.35937499999999  38.357142857142854 78.27272727272727  C 38.357142857142854 75.18607954545452  37.10853794642857 72.55078125  34.611328125 70.36683238636363  C 32.11411830357143 68.18288352272727  29.10081845238096 67.09090909090908  25.57142857142857 67.09090909090908  C 22.042038690476193 67.09090909090908  19.028738839285715 68.18288352272727  16.531529017857142 70.36683238636363  C 14.034319196428573 72.55078125  12.785714285714285 75.18607954545452  12.785714285714285 78.27272727272727  C 12.785714285714285 81.35937499999999  14.034319196428573 83.99467329545455  16.531529017857142 86.17862215909092  C 19.028738839285715 88.36257102272727  22.042038690476193 89.45454545454545  25.57142857142857 89.45454545454545  C 29.10081845238096 89.45454545454545  32.11411830357143 88.36257102272727  34.611328125 86.17862215909092  Z M 53.78989955357143 47.04225852272727  C 56.287109375 44.858309659090914  57.53571428571429 42.22301136363636  57.53571428571429 39.13636363636364  C 57.53571428571429 36.04971590909089  56.287109375 33.41441761363636  53.78989955357143 31.23046875  C 51.29268973214286 29.046519886363644  48.27938988095239 27.954545454545457  44.75 27.954545454545457  C 41.22061011904762 27.954545454545457  38.207310267857146 29.046519886363644  35.71010044642857 31.23046875  C 33.212890625 33.41441761363636  31.964285714285715 36.04971590909089  31.964285714285715 39.13636363636364  C 31.964285714285715 42.22301136363636  33.212890625 44.858309659090914  35.71010044642857 47.04225852272727  C 38.207310267857146 49.22620738636364  41.22061011904762 50.31818181818181  44.75 50.31818181818181  C 48.27938988095239 50.31818181818181  51.29268973214286 49.22620738636364  53.78989955357143 47.04225852272727  Z M 107.47991071428572 89.10511363636363  C 106.01488095238098 85.78551136363637  103.61755952380953 83.13565340909089  100.28794642857142 81.15553977272727  L 110.37667410714286 47.78480113636364  C 110.77622767857142 46.27059659090908  110.52650669642858 44.858309659090914  109.62751116071428 43.547940340909086  C 108.728515625 42.23757102272726  107.44661458333334 41.378551136363626  105.78180803571428 40.97088068181819  C 104.11700148809526 40.56321022727272  102.51878720238098 40.75248579545454  100.98716517857142 41.53870738636364  C 99.45554315476191 42.32492897727273  98.45665922619048 43.47514204545454  97.99051339285714 44.989346590909086  L 87.90178571428571 78.36008522727273  C 83.90625 78.6512784090909  80.34356398809524 79.91796874999999  77.21372767857143 82.16015625  C 74.08389136904762 84.40234374999999  71.98623511904762 87.27059659090908  70.92075892857143 90.76491477272727  C 69.58891369047619 95.24928977272727  70.25483630952381 99.50071022727273  72.91852678571429 103.51917613636363  C 75.58221726190477 107.53764204545455  79.47786458333334 110.12926136363636  84.60546875 111.29403409090908  C 89.73307291666667 112.45880681818181  94.5943080357143 111.87642045454547  99.18917410714286 109.546875  C 103.78404017857142 107.21732954545453  106.74739583333334 103.81036931818181  108.07924107142858 99.32599431818181  C 109.14471726190477 95.83167613636363  108.94494047619048 92.42471590909092  107.47991071428572 89.10511363636363  Z M 162.46847098214286 86.17862215909092  C 164.96568080357142 83.99467329545455  166.21428571428572 81.35937499999999  166.21428571428572 78.27272727272727  C 166.21428571428572 75.18607954545452  164.96568080357142 72.55078125  162.46847098214286 70.36683238636363  C 159.97126116071428 68.18288352272727  156.95796130952382 67.09090909090908  153.42857142857142 67.09090909090908  C 149.89918154761904 67.09090909090908  146.88588169642858 68.18288352272727  144.388671875 70.36683238636363  C 141.89146205357142 72.55078125  140.64285714285714 75.18607954545452  140.64285714285714 78.27272727272727  C 140.64285714285714 81.35937499999999  141.89146205357142 83.99467329545455  144.388671875 86.17862215909092  C 146.88588169642858 88.36257102272727  149.89918154761904 89.45454545454545  153.42857142857142 89.45454545454545  C 156.95796130952382 89.45454545454545  159.97126116071428 88.36257102272727  162.46847098214286 86.17862215909092  Z M 98.53989955357142 30.26953125  C 101.037109375 28.085582386363644  102.28571428571428 25.45028409090909  102.28571428571428 22.363636363636356  C 102.28571428571428 19.276988636363626  101.037109375 16.641690340909086  98.53989955357142 14.457741477272728  C 96.04268973214286 12.273792613636358  93.0293898809524 11.181818181818185  89.5 11.181818181818185  C 85.97061011904762 11.181818181818185  82.95731026785715 12.273792613636358  80.46010044642857 14.457741477272728  C 77.962890625 16.641690340909086  76.71428571428571 19.276988636363626  76.71428571428571 22.363636363636356  C 76.71428571428571 25.45028409090909  77.962890625 28.085582386363644  80.46010044642857 30.26953125  C 82.95731026785715 32.45348011363636  85.97061011904762 33.54545454545454  89.5 33.54545454545454  C 93.0293898809524 33.54545454545454  96.04268973214286 32.45348011363636  98.53989955357142 30.26953125  Z M 143.28989955357142 47.04225852272727  C 145.787109375 44.858309659090914  147.03571428571428 42.22301136363636  147.03571428571428 39.13636363636364  C 147.03571428571428 36.04971590909089  145.787109375 33.41441761363636  143.28989955357142 31.23046875  C 140.79268973214286 29.046519886363644  137.77938988095238 27.954545454545457  134.25 27.954545454545457  C 130.72061011904762 27.954545454545457  127.70731026785714 29.046519886363644  125.21010044642858 31.23046875  C 122.712890625 33.41441761363636  121.46428571428572 36.04971590909089  121.46428571428572 39.13636363636364  C 121.46428571428572 42.22301136363636  122.712890625 44.858309659090914  125.21010044642858 47.04225852272727  C 127.70731026785714 49.22620738636364  130.72061011904762 50.31818181818181  134.25 50.31818181818181  C 137.77938988095238 50.31818181818181  140.79268973214286 49.22620738636364  143.28989955357142 47.04225852272727  Z M 171.90792410714286 47.872159090909086  C 176.63597470238096 57.53977272727273  179 67.67329545454545  179 78.27272727272727  C 179 93.47301136363637  174.30524553571428 107.53764204545455  164.91573660714286 120.46661931818181  C 163.65048363095238 122.15553977272727  161.85249255952382 123  159.52176339285714 123  L 19.478236607142858 123  C 17.147507440476193 123  15.349516369047622 122.15553977272727  14.084263392857142 120.46661931818181  C 4.694754464285714 107.59588068181819  0 93.53125000000001  0 78.27272727272727  C 0 67.67329545454545  2.3640252976190474 57.53977272727273  7.092075892857142 47.872159090909086  C 11.820126488095239 38.204545454545446  18.1796875 29.876420454545457  26.17075892857143 22.887784090909086  C 34.161830357142854 15.899147727272728  43.68452380952381 10.337357954545448  54.73883928571429 6.202414772727272  C 65.79315476190477 2.0674715909090815  77.38020833333334 0  89.5 0  C 101.61979166666667 0  113.20684523809526 2.0674715909090815  124.26116071428572 6.202414772727272  C 135.3154761904762 10.337357954545448  144.83816964285714 15.899147727272728  152.82924107142858 22.887784090909086  C 160.82031250000003 29.876420454545457  167.1798735119048 38.204545454545446  171.90792410714286 47.872159090909086  Z " fill-rule="nonzero" fill="rgba(0, 0, 0, 1)" stroke="none" transform="matrix(1 0 0 1 371 188 )" class="fill" />
    <path d="M 34.611328125 86.17862215909092  C 37.10853794642857 83.99467329545455  38.357142857142854 81.35937499999999  38.357142857142854 78.27272727272727  C 38.357142857142854 75.18607954545452  37.10853794642857 72.55078125  34.611328125 70.36683238636363  C 32.11411830357143 68.18288352272727  29.10081845238096 67.09090909090908  25.57142857142857 67.09090909090908  C 22.042038690476193 67.09090909090908  19.028738839285715 68.18288352272727  16.531529017857142 70.36683238636363  C 14.034319196428573 72.55078125  12.785714285714285 75.18607954545452  12.785714285714285 78.27272727272727  C 12.785714285714285 81.35937499999999  14.034319196428573 83.99467329545455  16.531529017857142 86.17862215909092  C 19.028738839285715 88.36257102272727  22.042038690476193 89.45454545454545  25.57142857142857 89.45454545454545  C 29.10081845238096 89.45454545454545  32.11411830357143 88.36257102272727  34.611328125 86.17862215909092  Z " stroke-width="0" stroke-dasharray="0" stroke="rgba(255, 255, 255, 0)" fill="none" transform="matrix(1 0 0 1 371 188 )" class="stroke" mask="url(#Clip137)" />
    <path d="M 53.78989955357143 47.04225852272727  C 56.287109375 44.858309659090914  57.53571428571429 42.22301136363636  57.53571428571429 39.13636363636364  C 57.53571428571429 36.04971590909089  56.287109375 33.41441761363636  53.78989955357143 31.23046875  C 51.29268973214286 29.046519886363644  48.27938988095239 27.954545454545457  44.75 27.954545454545457  C 41.22061011904762 27.954545454545457  38.207310267857146 29.046519886363644  35.71010044642857 31.23046875  C 33.212890625 33.41441761363636  31.964285714285715 36.04971590909089  31.964285714285715 39.13636363636364  C 31.964285714285715 42.22301136363636  33.212890625 44.858309659090914  35.71010044642857 47.04225852272727  C 38.207310267857146 49.22620738636364  41.22061011904762 50.31818181818181  44.75 50.31818181818181  C 48.27938988095239 50.31818181818181  51.29268973214286 49.22620738636364  53.78989955357143 47.04225852272727  Z " stroke-width="0" stroke-dasharray="0" stroke="rgba(255, 255, 255, 0)" fill="none" transform="matrix(1 0 0 1 371 188 )" class="stroke" mask="url(#Clip137)" />
    <path d="M 107.47991071428572 89.10511363636363  C 106.01488095238098 85.78551136363637  103.61755952380953 83.13565340909089  100.28794642857142 81.15553977272727  L 110.37667410714286 47.78480113636364  C 110.77622767857142 46.27059659090908  110.52650669642858 44.858309659090914  109.62751116071428 43.547940340909086  C 108.728515625 42.23757102272726  107.44661458333334 41.378551136363626  105.78180803571428 40.97088068181819  C 104.11700148809526 40.56321022727272  102.51878720238098 40.75248579545454  100.98716517857142 41.53870738636364  C 99.45554315476191 42.32492897727273  98.45665922619048 43.47514204545454  97.99051339285714 44.989346590909086  L 87.90178571428571 78.36008522727273  C 83.90625 78.6512784090909  80.34356398809524 79.91796874999999  77.21372767857143 82.16015625  C 74.08389136904762 84.40234374999999  71.98623511904762 87.27059659090908  70.92075892857143 90.76491477272727  C 69.58891369047619 95.24928977272727  70.25483630952381 99.50071022727273  72.91852678571429 103.51917613636363  C 75.58221726190477 107.53764204545455  79.47786458333334 110.12926136363636  84.60546875 111.29403409090908  C 89.73307291666667 112.45880681818181  94.5943080357143 111.87642045454547  99.18917410714286 109.546875  C 103.78404017857142 107.21732954545453  106.74739583333334 103.81036931818181  108.07924107142858 99.32599431818181  C 109.14471726190477 95.83167613636363  108.94494047619048 92.42471590909092  107.47991071428572 89.10511363636363  Z " stroke-width="0" stroke-dasharray="0" stroke="rgba(255, 255, 255, 0)" fill="none" transform="matrix(1 0 0 1 371 188 )" class="stroke" mask="url(#Clip137)" />
    <path d="M 162.46847098214286 86.17862215909092  C 164.96568080357142 83.99467329545455  166.21428571428572 81.35937499999999  166.21428571428572 78.27272727272727  C 166.21428571428572 75.18607954545452  164.96568080357142 72.55078125  162.46847098214286 70.36683238636363  C 159.97126116071428 68.18288352272727  156.95796130952382 67.09090909090908  153.42857142857142 67.09090909090908  C 149.89918154761904 67.09090909090908  146.88588169642858 68.18288352272727  144.388671875 70.36683238636363  C 141.89146205357142 72.55078125  140.64285714285714 75.18607954545452  140.64285714285714 78.27272727272727  C 140.64285714285714 81.35937499999999  141.89146205357142 83.99467329545455  144.388671875 86.17862215909092  C 146.88588169642858 88.36257102272727  149.89918154761904 89.45454545454545  153.42857142857142 89.45454545454545  C 156.95796130952382 89.45454545454545  159.97126116071428 88.36257102272727  162.46847098214286 86.17862215909092  Z " stroke-width="0" stroke-dasharray="0" stroke="rgba(255, 255, 255, 0)" fill="none" transform="matrix(1 0 0 1 371 188 )" class="stroke" mask="url(#Clip137)" />
    <path d="M 98.53989955357142 30.26953125  C 101.037109375 28.085582386363644  102.28571428571428 25.45028409090909  102.28571428571428 22.363636363636356  C 102.28571428571428 19.276988636363626  101.037109375 16.641690340909086  98.53989955357142 14.457741477272728  C 96.04268973214286 12.273792613636358  93.0293898809524 11.181818181818185  89.5 11.181818181818185  C 85.97061011904762 11.181818181818185  82.95731026785715 12.273792613636358  80.46010044642857 14.457741477272728  C 77.962890625 16.641690340909086  76.71428571428571 19.276988636363626  76.71428571428571 22.363636363636356  C 76.71428571428571 25.45028409090909  77.962890625 28.085582386363644  80.46010044642857 30.26953125  C 82.95731026785715 32.45348011363636  85.97061011904762 33.54545454545454  89.5 33.54545454545454  C 93.0293898809524 33.54545454545454  96.04268973214286 32.45348011363636  98.53989955357142 30.26953125  Z " stroke-width="0" stroke-dasharray="0" stroke="rgba(255, 255, 255, 0)" fill="none" transform="matrix(1 0 0 1 371 188 )" class="stroke" mask="url(#Clip137)" />
    <path d="M 143.28989955357142 47.04225852272727  C 145.787109375 44.858309659090914  147.03571428571428 42.22301136363636  147.03571428571428 39.13636363636364  C 147.03571428571428 36.04971590909089  145.787109375 33.41441761363636  143.28989955357142 31.23046875  C 140.79268973214286 29.046519886363644  137.77938988095238 27.954545454545457  134.25 27.954545454545457  C 130.72061011904762 27.954545454545457  127.70731026785714 29.046519886363644  125.21010044642858 31.23046875  C 122.712890625 33.41441761363636  121.46428571428572 36.04971590909089  121.46428571428572 39.13636363636364  C 121.46428571428572 42.22301136363636  122.712890625 44.858309659090914  125.21010044642858 47.04225852272727  C 127.70731026785714 49.22620738636364  130.72061011904762 50.31818181818181  134.25 50.31818181818181  C 137.77938988095238 50.31818181818181  140.79268973214286 49.22620738636364  143.28989955357142 47.04225852272727  Z " stroke-width="0" stroke-dasharray="0" stroke="rgba(255, 255, 255, 0)" fill="none" transform="matrix(1 0 0 1 371 188 )" class="stroke" mask="url(#Clip137)" />
    <path d="M 171.90792410714286 47.872159090909086  C 176.63597470238096 57.53977272727273  179 67.67329545454545  179 78.27272727272727  C 179 93.47301136363637  174.30524553571428 107.53764204545455  164.91573660714286 120.46661931818181  C 163.65048363095238 122.15553977272727  161.85249255952382 123  159.52176339285714 123  L 19.478236607142858 123  C 17.147507440476193 123  15.349516369047622 122.15553977272727  14.084263392857142 120.46661931818181  C 4.694754464285714 107.59588068181819  0 93.53125000000001  0 78.27272727272727  C 0 67.67329545454545  2.3640252976190474 57.53977272727273  7.092075892857142 47.872159090909086  C 11.820126488095239 38.204545454545446  18.1796875 29.876420454545457  26.17075892857143 22.887784090909086  C 34.161830357142854 15.899147727272728  43.68452380952381 10.337357954545448  54.73883928571429 6.202414772727272  C 65.79315476190477 2.0674715909090815  77.38020833333334 0  89.5 0  C 101.61979166666667 0  113.20684523809526 2.0674715909090815  124.26116071428572 6.202414772727272  C 135.3154761904762 10.337357954545448  144.83816964285714 15.899147727272728  152.82924107142858 22.887784090909086  C 160.82031250000003 29.876420454545457  167.1798735119048 38.204545454545446  171.90792410714286 47.872159090909086  Z " stroke-width="0" stroke-dasharray="0" stroke="rgba(255, 255, 255, 0)" fill="none" transform="matrix(1 0 0 1 371 188 )" class="stroke" mask="url(#Clip137)" />
  </g>
</svg>