<?xml version="1.0" encoding="utf-8"?>
<svg version="1.1" xmlns:xlink="http://www.w3.org/1999/xlink" width="132px" height="123px" xmlns="http://www.w3.org/2000/svg">
  <defs>
    <pattern id="BGPattern" patternUnits="userSpaceOnUse" alignment="0 0" imageRepeat="None" />
    <mask fill="white" id="Clip377">
      <path d="M 35.109375 88.50920758928572  C 35.70312499999999 88.94391741071428  36 89.45870535714285  36 90.05357142857143  L 36 94.44642857142857  C 36 95.04129464285715  35.70312499999999 95.55608258928572  35.109375 95.99079241071428  C 34.515625 96.42550223214285  33.8125 96.64285714285714  33 96.64285714285714  L 27 96.64285714285714  C 26.187500000000004 96.64285714285714  25.484375000000004 96.42550223214285  24.890625 95.99079241071428  C 24.296875 95.55608258928572  24 95.04129464285715  24 94.44642857142857  L 24 90.05357142857143  C 24 89.45870535714285  24.296875 88.94391741071428  24.890625 88.50920758928572  C 25.484375000000004 88.07449776785715  26.187500000000004 87.85714285714286  27 87.85714285714286  L 33 87.85714285714286  C 33.8125 87.85714285714286  34.515625 88.07449776785715  35.109375 88.50920758928572  Z M 35.109375 70.93777901785714  C 35.70312499999999 71.37248883928571  36 71.88727678571428  36 72.48214285714286  L 36 76.875  C 36 77.46986607142856  35.70312499999999 77.98465401785714  35.109375 78.41936383928572  C 34.515625 78.8540736607143  33.8125 79.07142857142857  33 79.07142857142857  L 27 79.07142857142857  C 26.187500000000004 79.07142857142857  25.484375000000004 78.8540736607143  24.890625 78.41936383928572  C 24.296875 77.98465401785714  24 77.46986607142856  24 76.875  L 24 72.48214285714286  C 24 71.88727678571428  24.296875 71.37248883928571  24.890625 70.93777901785714  C 25.484375000000004 70.50306919642857  26.187500000000004 70.28571428571428  27 70.28571428571428  L 33 70.28571428571428  C 33.8125 70.28571428571428  34.515625 70.50306919642857  35.109375 70.93777901785714  Z M 59.109375 70.93777901785714  C 59.70312500000001 71.37248883928571  60 71.88727678571428  60 72.48214285714286  L 60 76.875  C 60 77.46986607142856  59.70312500000001 77.98465401785714  59.109375 78.41936383928572  C 58.51562500000001 78.8540736607143  57.81250000000001 79.07142857142857  57 79.07142857142857  L 51 79.07142857142857  C 50.18750000000001 79.07142857142857  49.48437500000001 78.8540736607143  48.890625 78.41936383928572  C 48.29687500000001 77.98465401785714  48 77.46986607142856  48 76.875  L 48 72.48214285714286  C 48 71.88727678571428  48.29687500000001 71.37248883928571  48.890625 70.93777901785714  C 49.48437500000001 70.50306919642857  50.18750000000001 70.28571428571428  51 70.28571428571428  L 57 70.28571428571428  C 57.81250000000001 70.28571428571428  58.51562500000001 70.50306919642857  59.109375 70.93777901785714  Z M 35.109375 53.36635044642858  C 35.70312499999999 53.80106026785713  36 54.31584821428571  36 54.910714285714285  L 36 59.30357142857142  C 36 59.89843749999999  35.70312499999999 60.41322544642857  35.109375 60.84793526785714  C 34.515625 61.28264508928571  33.8125 61.5  33 61.5  L 27 61.5  C 26.187500000000004 61.5  25.484375000000004 61.28264508928571  24.890625 60.84793526785714  C 24.296875 60.41322544642857  24 59.89843749999999  24 59.30357142857142  L 24 54.910714285714285  C 24 54.31584821428571  24.296875 53.80106026785713  24.890625 53.36635044642858  C 25.484375000000004 52.93164062500001  26.187500000000004 52.714285714285715  27 52.714285714285715  L 33 52.714285714285715  C 33.8125 52.714285714285715  34.515625 52.93164062500001  35.109375 53.36635044642858  Z M 107.109375 88.50920758928572  C 107.70312500000001 88.94391741071428  108 89.45870535714285  108 90.05357142857143  L 108 94.44642857142857  C 108 95.04129464285715  107.70312500000001 95.55608258928572  107.109375 95.99079241071428  C 106.51562500000001 96.42550223214285  105.8125 96.64285714285714  105 96.64285714285714  L 99 96.64285714285714  C 98.18750000000001 96.64285714285714  97.48437500000001 96.42550223214285  96.890625 95.99079241071428  C 96.29687500000001 95.55608258928572  96 95.04129464285715  96 94.44642857142857  L 96 90.05357142857143  C 96 89.45870535714285  96.29687500000001 88.94391741071428  96.890625 88.50920758928572  C 97.48437500000001 88.07449776785715  98.18750000000001 87.85714285714286  99 87.85714285714286  L 105 87.85714285714286  C 105.8125 87.85714285714286  106.51562500000001 88.07449776785715  107.109375 88.50920758928572  Z M 83.109375 70.93777901785714  C 83.703125 71.37248883928571  84 71.88727678571428  84 72.48214285714286  L 84 76.875  C 84 77.46986607142856  83.703125 77.98465401785714  83.109375 78.41936383928572  C 82.515625 78.8540736607143  81.81250000000001 79.07142857142857  81 79.07142857142857  L 75 79.07142857142857  C 74.1875 79.07142857142857  73.48437500000001 78.8540736607143  72.890625 78.41936383928572  C 72.296875 77.98465401785714  72 77.46986607142856  72 76.875  L 72 72.48214285714286  C 72 71.88727678571428  72.296875 71.37248883928571  72.890625 70.93777901785714  C 73.48437500000001 70.50306919642857  74.1875 70.28571428571428  75 70.28571428571428  L 81 70.28571428571428  C 81.81250000000001 70.28571428571428  82.515625 70.50306919642857  83.109375 70.93777901785714  Z M 59.109375 53.36635044642858  C 59.70312500000001 53.80106026785713  60 54.31584821428571  60 54.910714285714285  L 60 59.30357142857142  C 60 59.89843749999999  59.70312500000001 60.41322544642857  59.109375 60.84793526785714  C 58.51562500000001 61.28264508928571  57.81250000000001 61.5  57 61.5  L 51 61.5  C 50.18750000000001 61.5  49.48437500000001 61.28264508928571  48.890625 60.84793526785714  C 48.29687500000001 60.41322544642857  48 59.89843749999999  48 59.30357142857142  L 48 54.910714285714285  C 48 54.31584821428571  48.29687500000001 53.80106026785713  48.890625 53.36635044642858  C 49.48437500000001 52.93164062500001  50.18750000000001 52.714285714285715  51 52.714285714285715  L 57 52.714285714285715  C 57.81250000000001 52.714285714285715  58.51562500000001 52.93164062500001  59.109375 53.36635044642858  Z M 35.109375 35.794921875  C 35.70312499999999 36.22963169642857  36 36.74441964285713  36 37.339285714285715  L 36 41.73214285714286  C 36 42.327008928571416  35.70312499999999 42.84179687499999  35.109375 43.27650669642858  C 34.515625 43.71121651785713  33.8125 43.92857142857142  33 43.92857142857142  L 27 43.92857142857142  C 26.187500000000004 43.92857142857142  25.484375000000004 43.71121651785713  24.890625 43.27650669642858  C 24.296875 42.84179687499999  24 42.327008928571416  24 41.73214285714286  L 24 37.339285714285715  C 24 36.74441964285713  24.296875 36.22963169642857  24.890625 35.794921875  C 25.484375000000004 35.360212053571416  26.187500000000004 35.14285714285714  27 35.14285714285714  L 33 35.14285714285714  C 33.8125 35.14285714285714  34.515625 35.360212053571416  35.109375 35.794921875  Z M 107.109375 70.93777901785714  C 107.70312500000001 71.37248883928571  108 71.88727678571428  108 72.48214285714286  L 108 76.875  C 108 77.46986607142856  107.70312500000001 77.98465401785714  107.109375 78.41936383928572  C 106.51562500000001 78.8540736607143  105.8125 79.07142857142857  105 79.07142857142857  L 99 79.07142857142857  C 98.18750000000001 79.07142857142857  97.48437500000001 78.8540736607143  96.890625 78.41936383928572  C 96.29687500000001 77.98465401785714  96 77.46986607142856  96 76.875  L 96 72.48214285714286  C 96 71.88727678571428  96.29687500000001 71.37248883928571  96.890625 70.93777901785714  C 97.48437500000001 70.50306919642857  98.18750000000001 70.28571428571428  99 70.28571428571428  L 105 70.28571428571428  C 105.8125 70.28571428571428  106.51562500000001 70.50306919642857  107.109375 70.93777901785714  Z M 83.109375 53.36635044642858  C 83.703125 53.80106026785713  84 54.31584821428571  84 54.910714285714285  L 84 59.30357142857142  C 84 59.89843749999999  83.703125 60.41322544642857  83.109375 60.84793526785714  C 82.515625 61.28264508928571  81.81250000000001 61.5  81 61.5  L 75 61.5  C 74.1875 61.5  73.48437500000001 61.28264508928571  72.890625 60.84793526785714  C 72.296875 60.41322544642857  72 59.89843749999999  72 59.30357142857142  L 72 54.910714285714285  C 72 54.31584821428571  72.296875 53.80106026785713  72.890625 53.36635044642858  C 73.48437500000001 52.93164062500001  74.1875 52.714285714285715  75 52.714285714285715  L 81 52.714285714285715  C 81.81250000000001 52.714285714285715  82.515625 52.93164062500001  83.109375 53.36635044642858  Z M 59.109375 35.794921875  C 59.70312500000001 36.22963169642857  60 36.74441964285713  60 37.339285714285715  L 60 41.73214285714286  C 60 42.327008928571416  59.70312500000001 42.84179687499999  59.109375 43.27650669642858  C 58.51562500000001 43.71121651785713  57.81250000000001 43.92857142857142  57 43.92857142857142  L 51 43.92857142857142  C 50.18750000000001 43.92857142857142  49.48437500000001 43.71121651785713  48.890625 43.27650669642858  C 48.29687500000001 42.84179687499999  48 42.327008928571416  48 41.73214285714286  L 48 37.339285714285715  C 48 36.74441964285713  48.29687500000001 36.22963169642857  48.890625 35.794921875  C 49.48437500000001 35.360212053571416  50.18750000000001 35.14285714285714  51 35.14285714285714  L 57 35.14285714285714  C 57.81250000000001 35.14285714285714  58.51562500000001 35.360212053571416  59.109375 35.794921875  Z M 35.109375 18.223493303571423  C 35.70312499999999 18.65820312499999  36 19.17299107142857  36 19.767857142857142  L 36 24.16071428571428  C 36 24.75558035714284  35.70312499999999 25.270368303571416  35.109375 25.705078125  C 34.515625 26.13978794642857  33.8125 26.357142857142858  33 26.357142857142858  L 27 26.357142857142858  C 26.187500000000004 26.357142857142858  25.484375000000004 26.13978794642857  24.890625 25.705078125  C 24.296875 25.270368303571416  24 24.75558035714284  24 24.16071428571428  L 24 19.767857142857142  C 24 19.17299107142857  24.296875 18.65820312499999  24.890625 18.223493303571423  C 25.484375000000004 17.78878348214284  26.187500000000004 17.571428571428577  27 17.571428571428577  L 33 17.571428571428577  C 33.8125 17.571428571428577  34.515625 17.78878348214284  35.109375 18.223493303571423  Z M 107.109375 53.36635044642858  C 107.70312500000001 53.80106026785713  108 54.31584821428571  108 54.910714285714285  L 108 59.30357142857142  C 108 59.89843749999999  107.70312500000001 60.41322544642857  107.109375 60.84793526785714  C 106.51562500000001 61.28264508928571  105.8125 61.5  105 61.5  L 99 61.5  C 98.18750000000001 61.5  97.48437500000001 61.28264508928571  96.890625 60.84793526785714  C 96.29687500000001 60.41322544642857  96 59.89843749999999  96 59.30357142857142  L 96 54.910714285714285  C 96 54.31584821428571  96.29687500000001 53.80106026785713  96.890625 53.36635044642858  C 97.48437500000001 52.93164062500001  98.18750000000001 52.714285714285715  99 52.714285714285715  L 105 52.714285714285715  C 105.8125 52.714285714285715  106.51562500000001 52.93164062500001  107.109375 53.36635044642858  Z M 83.109375 35.794921875  C 83.703125 36.22963169642857  84 36.74441964285713  84 37.339285714285715  L 84 41.73214285714286  C 84 42.327008928571416  83.703125 42.84179687499999  83.109375 43.27650669642858  C 82.515625 43.71121651785713  81.81250000000001 43.92857142857142  81 43.92857142857142  L 75 43.92857142857142  C 74.1875 43.92857142857142  73.48437500000001 43.71121651785713  72.890625 43.27650669642858  C 72.296875 42.84179687499999  72 42.327008928571416  72 41.73214285714286  L 72 37.339285714285715  C 72 36.74441964285713  72.296875 36.22963169642857  72.890625 35.794921875  C 73.48437500000001 35.360212053571416  74.1875 35.14285714285714  75 35.14285714285714  L 81 35.14285714285714  C 81.81250000000001 35.14285714285714  82.515625 35.360212053571416  83.109375 35.794921875  Z M 59.109375 18.223493303571423  C 59.70312500000001 18.65820312499999  60 19.17299107142857  60 19.767857142857142  L 60 24.16071428571428  C 60 24.75558035714284  59.70312500000001 25.270368303571416  59.109375 25.705078125  C 58.51562500000001 26.13978794642857  57.81250000000001 26.357142857142858  57 26.357142857142858  L 51 26.357142857142858  C 50.18750000000001 26.357142857142858  49.48437500000001 26.13978794642857  48.890625 25.705078125  C 48.29687500000001 25.270368303571416  48 24.75558035714284  48 24.16071428571428  L 48 19.767857142857142  C 48 19.17299107142857  48.29687500000001 18.65820312499999  48.890625 18.223493303571423  C 49.48437500000001 17.78878348214284  50.18750000000001 17.571428571428577  51 17.571428571428577  L 57 17.571428571428577  C 57.81250000000001 17.571428571428577  58.51562500000001 17.78878348214284  59.109375 18.223493303571423  Z M 107.109375 35.794921875  C 107.70312500000001 36.22963169642857  108 36.74441964285713  108 37.339285714285715  L 108 41.73214285714286  C 108 42.327008928571416  107.70312500000001 42.84179687499999  107.109375 43.27650669642858  C 106.51562500000001 43.71121651785713  105.8125 43.92857142857142  105 43.92857142857142  L 99 43.92857142857142  C 98.18750000000001 43.92857142857142  97.48437500000001 43.71121651785713  96.890625 43.27650669642858  C 96.29687500000001 42.84179687499999  96 42.327008928571416  96 41.73214285714286  L 96 37.339285714285715  C 96 36.74441964285713  96.29687500000001 36.22963169642857  96.890625 35.794921875  C 97.48437500000001 35.360212053571416  98.18750000000001 35.14285714285714  99 35.14285714285714  L 105 35.14285714285714  C 105.8125 35.14285714285714  106.51562500000001 35.360212053571416  107.109375 35.794921875  Z M 83.109375 18.223493303571423  C 83.703125 18.65820312499999  84 19.17299107142857  84 19.767857142857142  L 84 24.16071428571428  C 84 24.75558035714284  83.703125 25.270368303571416  83.109375 25.705078125  C 82.515625 26.13978794642857  81.81250000000001 26.357142857142858  81 26.357142857142858  L 75 26.357142857142858  C 74.1875 26.357142857142858  73.48437500000001 26.13978794642857  72.890625 25.705078125  C 72.296875 25.270368303571416  72 24.75558035714284  72 24.16071428571428  L 72 19.767857142857142  C 72 19.17299107142857  72.296875 18.65820312499999  72.890625 18.223493303571423  C 73.48437500000001 17.78878348214284  74.1875 17.571428571428577  75 17.571428571428577  L 81 17.571428571428577  C 81.81250000000001 17.571428571428577  82.515625 17.78878348214284  83.109375 18.223493303571423  Z M 107.109375 18.223493303571423  C 107.70312500000001 18.65820312499999  108 19.17299107142857  108 19.767857142857142  L 108 24.16071428571428  C 108 24.75558035714284  107.70312500000001 25.270368303571416  107.109375 25.705078125  C 106.51562500000001 26.13978794642857  105.8125 26.357142857142858  105 26.357142857142858  L 99 26.357142857142858  C 98.18750000000001 26.357142857142858  97.48437500000001 26.13978794642857  96.890625 25.705078125  C 96.29687500000001 25.270368303571416  96 24.75558035714284  96 24.16071428571428  L 96 19.767857142857142  C 96 19.17299107142857  96.29687500000001 18.65820312499999  96.890625 18.223493303571423  C 97.48437500000001 17.78878348214284  98.18750000000001 17.571428571428577  99 17.571428571428577  L 105 17.571428571428577  C 105.8125 17.571428571428577  106.51562500000001 17.78878348214284  107.109375 18.223493303571423  Z M 84 98.83928571428572  L 84 114  L 120 114  L 120 9  L 12 9  L 12 114  L 48 114  L 48 98.83928571428572  C 48 98.24441964285714  48.29687500000001 97.72963169642857  48.890625 97.294921875  C 49.48437500000001 96.86021205357143  50.18750000000001 96.64285714285714  51 96  L 81 96  C 81.81250000000001 96.64285714285714  82.515625 96.86021205357143  83.109375 97.294921875  C 83.703125 97.72963169642857  84 98.24441964285714  84 98.83928571428572  Z M 130.21875 1.3041294642857182  C 131.40625 2.1735491071428408  132 3.2031249999999956  132 4.392857142857141  L 132 118.60714285714286  C 132 119.79687499999999  131.40625 120.82645089285714  130.21875 121.69587053571428  C 129.03125000000003 122.56529017857143  127.62500000000001 123  126 123  L 6 123  C 4.375000000000001 123  2.96875 122.56529017857143  1.78125 121.69587053571428  C 0.5937499999999999 120.82645089285714  0 119.79687499999999  0 118.60714285714286  L 0 4.392857142857141  C 0 3.2031249999999956  0.5937499999999999 2.1735491071428408  1.78125 1.3041294642857182  C 2.96875 0.43470982142858183  4.375000000000001 0  6 0  L 126 0  C 127.62500000000001 0  129.03125000000003 0.43470982142858183  130.21875 1.3041294642857182  Z " fill-rule="evenodd" />
    </mask>
  </defs>
  <g transform="matrix(1 0 0 1 -612 -188 )">
    <path d="M 35.109375 88.50920758928572  C 35.70312499999999 88.94391741071428  36 89.45870535714285  36 90.05357142857143  L 36 94.44642857142857  C 36 95.04129464285715  35.70312499999999 95.55608258928572  35.109375 95.99079241071428  C 34.515625 96.42550223214285  33.8125 96.64285714285714  33 96.64285714285714  L 27 96.64285714285714  C 26.187500000000004 96.64285714285714  25.484375000000004 96.42550223214285  24.890625 95.99079241071428  C 24.296875 95.55608258928572  24 95.04129464285715  24 94.44642857142857  L 24 90.05357142857143  C 24 89.45870535714285  24.296875 88.94391741071428  24.890625 88.50920758928572  C 25.484375000000004 88.07449776785715  26.187500000000004 87.85714285714286  27 87.85714285714286  L 33 87.85714285714286  C 33.8125 87.85714285714286  34.515625 88.07449776785715  35.109375 88.50920758928572  Z M 35.109375 70.93777901785714  C 35.70312499999999 71.37248883928571  36 71.88727678571428  36 72.48214285714286  L 36 76.875  C 36 77.46986607142856  35.70312499999999 77.98465401785714  35.109375 78.41936383928572  C 34.515625 78.8540736607143  33.8125 79.07142857142857  33 79.07142857142857  L 27 79.07142857142857  C 26.187500000000004 79.07142857142857  25.484375000000004 78.8540736607143  24.890625 78.41936383928572  C 24.296875 77.98465401785714  24 77.46986607142856  24 76.875  L 24 72.48214285714286  C 24 71.88727678571428  24.296875 71.37248883928571  24.890625 70.93777901785714  C 25.484375000000004 70.50306919642857  26.187500000000004 70.28571428571428  27 70.28571428571428  L 33 70.28571428571428  C 33.8125 70.28571428571428  34.515625 70.50306919642857  35.109375 70.93777901785714  Z M 59.109375 70.93777901785714  C 59.70312500000001 71.37248883928571  60 71.88727678571428  60 72.48214285714286  L 60 76.875  C 60 77.46986607142856  59.70312500000001 77.98465401785714  59.109375 78.41936383928572  C 58.51562500000001 78.8540736607143  57.81250000000001 79.07142857142857  57 79.07142857142857  L 51 79.07142857142857  C 50.18750000000001 79.07142857142857  49.48437500000001 78.8540736607143  48.890625 78.41936383928572  C 48.29687500000001 77.98465401785714  48 77.46986607142856  48 76.875  L 48 72.48214285714286  C 48 71.88727678571428  48.29687500000001 71.37248883928571  48.890625 70.93777901785714  C 49.48437500000001 70.50306919642857  50.18750000000001 70.28571428571428  51 70.28571428571428  L 57 70.28571428571428  C 57.81250000000001 70.28571428571428  58.51562500000001 70.50306919642857  59.109375 70.93777901785714  Z M 35.109375 53.36635044642858  C 35.70312499999999 53.80106026785713  36 54.31584821428571  36 54.910714285714285  L 36 59.30357142857142  C 36 59.89843749999999  35.70312499999999 60.41322544642857  35.109375 60.84793526785714  C 34.515625 61.28264508928571  33.8125 61.5  33 61.5  L 27 61.5  C 26.187500000000004 61.5  25.484375000000004 61.28264508928571  24.890625 60.84793526785714  C 24.296875 60.41322544642857  24 59.89843749999999  24 59.30357142857142  L 24 54.910714285714285  C 24 54.31584821428571  24.296875 53.80106026785713  24.890625 53.36635044642858  C 25.484375000000004 52.93164062500001  26.187500000000004 52.714285714285715  27 52.714285714285715  L 33 52.714285714285715  C 33.8125 52.714285714285715  34.515625 52.93164062500001  35.109375 53.36635044642858  Z M 107.109375 88.50920758928572  C 107.70312500000001 88.94391741071428  108 89.45870535714285  108 90.05357142857143  L 108 94.44642857142857  C 108 95.04129464285715  107.70312500000001 95.55608258928572  107.109375 95.99079241071428  C 106.51562500000001 96.42550223214285  105.8125 96.64285714285714  105 96.64285714285714  L 99 96.64285714285714  C 98.18750000000001 96.64285714285714  97.48437500000001 96.42550223214285  96.890625 95.99079241071428  C 96.29687500000001 95.55608258928572  96 95.04129464285715  96 94.44642857142857  L 96 90.05357142857143  C 96 89.45870535714285  96.29687500000001 88.94391741071428  96.890625 88.50920758928572  C 97.48437500000001 88.07449776785715  98.18750000000001 87.85714285714286  99 87.85714285714286  L 105 87.85714285714286  C 105.8125 87.85714285714286  106.51562500000001 88.07449776785715  107.109375 88.50920758928572  Z M 83.109375 70.93777901785714  C 83.703125 71.37248883928571  84 71.88727678571428  84 72.48214285714286  L 84 76.875  C 84 77.46986607142856  83.703125 77.98465401785714  83.109375 78.41936383928572  C 82.515625 78.8540736607143  81.81250000000001 79.07142857142857  81 79.07142857142857  L 75 79.07142857142857  C 74.1875 79.07142857142857  73.48437500000001 78.8540736607143  72.890625 78.41936383928572  C 72.296875 77.98465401785714  72 77.46986607142856  72 76.875  L 72 72.48214285714286  C 72 71.88727678571428  72.296875 71.37248883928571  72.890625 70.93777901785714  C 73.48437500000001 70.50306919642857  74.1875 70.28571428571428  75 70.28571428571428  L 81 70.28571428571428  C 81.81250000000001 70.28571428571428  82.515625 70.50306919642857  83.109375 70.93777901785714  Z M 59.109375 53.36635044642858  C 59.70312500000001 53.80106026785713  60 54.31584821428571  60 54.910714285714285  L 60 59.30357142857142  C 60 59.89843749999999  59.70312500000001 60.41322544642857  59.109375 60.84793526785714  C 58.51562500000001 61.28264508928571  57.81250000000001 61.5  57 61.5  L 51 61.5  C 50.18750000000001 61.5  49.48437500000001 61.28264508928571  48.890625 60.84793526785714  C 48.29687500000001 60.41322544642857  48 59.89843749999999  48 59.30357142857142  L 48 54.910714285714285  C 48 54.31584821428571  48.29687500000001 53.80106026785713  48.890625 53.36635044642858  C 49.48437500000001 52.93164062500001  50.18750000000001 52.714285714285715  51 52.714285714285715  L 57 52.714285714285715  C 57.81250000000001 52.714285714285715  58.51562500000001 52.93164062500001  59.109375 53.36635044642858  Z M 35.109375 35.794921875  C 35.70312499999999 36.22963169642857  36 36.74441964285713  36 37.339285714285715  L 36 41.73214285714286  C 36 42.327008928571416  35.70312499999999 42.84179687499999  35.109375 43.27650669642858  C 34.515625 43.71121651785713  33.8125 43.92857142857142  33 43.92857142857142  L 27 43.92857142857142  C 26.187500000000004 43.92857142857142  25.484375000000004 43.71121651785713  24.890625 43.27650669642858  C 24.296875 42.84179687499999  24 42.327008928571416  24 41.73214285714286  L 24 37.339285714285715  C 24 36.74441964285713  24.296875 36.22963169642857  24.890625 35.794921875  C 25.484375000000004 35.360212053571416  26.187500000000004 35.14285714285714  27 35.14285714285714  L 33 35.14285714285714  C 33.8125 35.14285714285714  34.515625 35.360212053571416  35.109375 35.794921875  Z M 107.109375 70.93777901785714  C 107.70312500000001 71.37248883928571  108 71.88727678571428  108 72.48214285714286  L 108 76.875  C 108 77.46986607142856  107.70312500000001 77.98465401785714  107.109375 78.41936383928572  C 106.51562500000001 78.8540736607143  105.8125 79.07142857142857  105 79.07142857142857  L 99 79.07142857142857  C 98.18750000000001 79.07142857142857  97.48437500000001 78.8540736607143  96.890625 78.41936383928572  C 96.29687500000001 77.98465401785714  96 77.46986607142856  96 76.875  L 96 72.48214285714286  C 96 71.88727678571428  96.29687500000001 71.37248883928571  96.890625 70.93777901785714  C 97.48437500000001 70.50306919642857  98.18750000000001 70.28571428571428  99 70.28571428571428  L 105 70.28571428571428  C 105.8125 70.28571428571428  106.51562500000001 70.50306919642857  107.109375 70.93777901785714  Z M 83.109375 53.36635044642858  C 83.703125 53.80106026785713  84 54.31584821428571  84 54.910714285714285  L 84 59.30357142857142  C 84 59.89843749999999  83.703125 60.41322544642857  83.109375 60.84793526785714  C 82.515625 61.28264508928571  81.81250000000001 61.5  81 61.5  L 75 61.5  C 74.1875 61.5  73.48437500000001 61.28264508928571  72.890625 60.84793526785714  C 72.296875 60.41322544642857  72 59.89843749999999  72 59.30357142857142  L 72 54.910714285714285  C 72 54.31584821428571  72.296875 53.80106026785713  72.890625 53.36635044642858  C 73.48437500000001 52.93164062500001  74.1875 52.714285714285715  75 52.714285714285715  L 81 52.714285714285715  C 81.81250000000001 52.714285714285715  82.515625 52.93164062500001  83.109375 53.36635044642858  Z M 59.109375 35.794921875  C 59.70312500000001 36.22963169642857  60 36.74441964285713  60 37.339285714285715  L 60 41.73214285714286  C 60 42.327008928571416  59.70312500000001 42.84179687499999  59.109375 43.27650669642858  C 58.51562500000001 43.71121651785713  57.81250000000001 43.92857142857142  57 43.92857142857142  L 51 43.92857142857142  C 50.18750000000001 43.92857142857142  49.48437500000001 43.71121651785713  48.890625 43.27650669642858  C 48.29687500000001 42.84179687499999  48 42.327008928571416  48 41.73214285714286  L 48 37.339285714285715  C 48 36.74441964285713  48.29687500000001 36.22963169642857  48.890625 35.794921875  C 49.48437500000001 35.360212053571416  50.18750000000001 35.14285714285714  51 35.14285714285714  L 57 35.14285714285714  C 57.81250000000001 35.14285714285714  58.51562500000001 35.360212053571416  59.109375 35.794921875  Z M 35.109375 18.223493303571423  C 35.70312499999999 18.65820312499999  36 19.17299107142857  36 19.767857142857142  L 36 24.16071428571428  C 36 24.75558035714284  35.70312499999999 25.270368303571416  35.109375 25.705078125  C 34.515625 26.13978794642857  33.8125 26.357142857142858  33 26.357142857142858  L 27 26.357142857142858  C 26.187500000000004 26.357142857142858  25.484375000000004 26.13978794642857  24.890625 25.705078125  C 24.296875 25.270368303571416  24 24.75558035714284  24 24.16071428571428  L 24 19.767857142857142  C 24 19.17299107142857  24.296875 18.65820312499999  24.890625 18.223493303571423  C 25.484375000000004 17.78878348214284  26.187500000000004 17.571428571428577  27 17.571428571428577  L 33 17.571428571428577  C 33.8125 17.571428571428577  34.515625 17.78878348214284  35.109375 18.223493303571423  Z M 107.109375 53.36635044642858  C 107.70312500000001 53.80106026785713  108 54.31584821428571  108 54.910714285714285  L 108 59.30357142857142  C 108 59.89843749999999  107.70312500000001 60.41322544642857  107.109375 60.84793526785714  C 106.51562500000001 61.28264508928571  105.8125 61.5  105 61.5  L 99 61.5  C 98.18750000000001 61.5  97.48437500000001 61.28264508928571  96.890625 60.84793526785714  C 96.29687500000001 60.41322544642857  96 59.89843749999999  96 59.30357142857142  L 96 54.910714285714285  C 96 54.31584821428571  96.29687500000001 53.80106026785713  96.890625 53.36635044642858  C 97.48437500000001 52.93164062500001  98.18750000000001 52.714285714285715  99 52.714285714285715  L 105 52.714285714285715  C 105.8125 52.714285714285715  106.51562500000001 52.93164062500001  107.109375 53.36635044642858  Z M 83.109375 35.794921875  C 83.703125 36.22963169642857  84 36.74441964285713  84 37.339285714285715  L 84 41.73214285714286  C 84 42.327008928571416  83.703125 42.84179687499999  83.109375 43.27650669642858  C 82.515625 43.71121651785713  81.81250000000001 43.92857142857142  81 43.92857142857142  L 75 43.92857142857142  C 74.1875 43.92857142857142  73.48437500000001 43.71121651785713  72.890625 43.27650669642858  C 72.296875 42.84179687499999  72 42.327008928571416  72 41.73214285714286  L 72 37.339285714285715  C 72 36.74441964285713  72.296875 36.22963169642857  72.890625 35.794921875  C 73.48437500000001 35.360212053571416  74.1875 35.14285714285714  75 35.14285714285714  L 81 35.14285714285714  C 81.81250000000001 35.14285714285714  82.515625 35.360212053571416  83.109375 35.794921875  Z M 59.109375 18.223493303571423  C 59.70312500000001 18.65820312499999  60 19.17299107142857  60 19.767857142857142  L 60 24.16071428571428  C 60 24.75558035714284  59.70312500000001 25.270368303571416  59.109375 25.705078125  C 58.51562500000001 26.13978794642857  57.81250000000001 26.357142857142858  57 26.357142857142858  L 51 26.357142857142858  C 50.18750000000001 26.357142857142858  49.48437500000001 26.13978794642857  48.890625 25.705078125  C 48.29687500000001 25.270368303571416  48 24.75558035714284  48 24.16071428571428  L 48 19.767857142857142  C 48 19.17299107142857  48.29687500000001 18.65820312499999  48.890625 18.223493303571423  C 49.48437500000001 17.78878348214284  50.18750000000001 17.571428571428577  51 17.571428571428577  L 57 17.571428571428577  C 57.81250000000001 17.571428571428577  58.51562500000001 17.78878348214284  59.109375 18.223493303571423  Z M 107.109375 35.794921875  C 107.70312500000001 36.22963169642857  108 36.74441964285713  108 37.339285714285715  L 108 41.73214285714286  C 108 42.327008928571416  107.70312500000001 42.84179687499999  107.109375 43.27650669642858  C 106.51562500000001 43.71121651785713  105.8125 43.92857142857142  105 43.92857142857142  L 99 43.92857142857142  C 98.18750000000001 43.92857142857142  97.48437500000001 43.71121651785713  96.890625 43.27650669642858  C 96.29687500000001 42.84179687499999  96 42.327008928571416  96 41.73214285714286  L 96 37.339285714285715  C 96 36.74441964285713  96.29687500000001 36.22963169642857  96.890625 35.794921875  C 97.48437500000001 35.360212053571416  98.18750000000001 35.14285714285714  99 35.14285714285714  L 105 35.14285714285714  C 105.8125 35.14285714285714  106.51562500000001 35.360212053571416  107.109375 35.794921875  Z M 83.109375 18.223493303571423  C 83.703125 18.65820312499999  84 19.17299107142857  84 19.767857142857142  L 84 24.16071428571428  C 84 24.75558035714284  83.703125 25.270368303571416  83.109375 25.705078125  C 82.515625 26.13978794642857  81.81250000000001 26.357142857142858  81 26.357142857142858  L 75 26.357142857142858  C 74.1875 26.357142857142858  73.48437500000001 26.13978794642857  72.890625 25.705078125  C 72.296875 25.270368303571416  72 24.75558035714284  72 24.16071428571428  L 72 19.767857142857142  C 72 19.17299107142857  72.296875 18.65820312499999  72.890625 18.223493303571423  C 73.48437500000001 17.78878348214284  74.1875 17.571428571428577  75 17.571428571428577  L 81 17.571428571428577  C 81.81250000000001 17.571428571428577  82.515625 17.78878348214284  83.109375 18.223493303571423  Z M 107.109375 18.223493303571423  C 107.70312500000001 18.65820312499999  108 19.17299107142857  108 19.767857142857142  L 108 24.16071428571428  C 108 24.75558035714284  107.70312500000001 25.270368303571416  107.109375 25.705078125  C 106.51562500000001 26.13978794642857  105.8125 26.357142857142858  105 26.357142857142858  L 99 26.357142857142858  C 98.18750000000001 26.357142857142858  97.48437500000001 26.13978794642857  96.890625 25.705078125  C 96.29687500000001 25.270368303571416  96 24.75558035714284  96 24.16071428571428  L 96 19.767857142857142  C 96 19.17299107142857  96.29687500000001 18.65820312499999  96.890625 18.223493303571423  C 97.48437500000001 17.78878348214284  98.18750000000001 17.571428571428577  99 17.571428571428577  L 105 17.571428571428577  C 105.8125 17.571428571428577  106.51562500000001 17.78878348214284  107.109375 18.223493303571423  Z M 84 98.83928571428572  L 84 114  L 120 114  L 120 9  L 12 9  L 12 114  L 48 114  L 48 98.83928571428572  C 48 98.24441964285714  48.29687500000001 97.72963169642857  48.890625 97.294921875  C 49.48437500000001 96.86021205357143  50.18750000000001 96.64285714285714  51 96  L 81 96  C 81.81250000000001 96.64285714285714  82.515625 96.86021205357143  83.109375 97.294921875  C 83.703125 97.72963169642857  84 98.24441964285714  84 98.83928571428572  Z M 130.21875 1.3041294642857182  C 131.40625 2.1735491071428408  132 3.2031249999999956  132 4.392857142857141  L 132 118.60714285714286  C 132 119.79687499999999  131.40625 120.82645089285714  130.21875 121.69587053571428  C 129.03125000000003 122.56529017857143  127.62500000000001 123  126 123  L 6 123  C 4.375000000000001 123  2.96875 122.56529017857143  1.78125 121.69587053571428  C 0.5937499999999999 120.82645089285714  0 119.79687499999999  0 118.60714285714286  L 0 4.392857142857141  C 0 3.2031249999999956  0.5937499999999999 2.1735491071428408  1.78125 1.3041294642857182  C 2.96875 0.43470982142858183  4.375000000000001 0  6 0  L 126 0  C 127.62500000000001 0  129.03125000000003 0.43470982142858183  130.21875 1.3041294642857182  Z " fill-rule="nonzero" fill="rgba(0, 0, 0, 1)" stroke="none" transform="matrix(1 0 0 1 612 188 )" class="fill" />
    <path d="M 35.109375 88.50920758928572  C 35.70312499999999 88.94391741071428  36 89.45870535714285  36 90.05357142857143  L 36 94.44642857142857  C 36 95.04129464285715  35.70312499999999 95.55608258928572  35.109375 95.99079241071428  C 34.515625 96.42550223214285  33.8125 96.64285714285714  33 96.64285714285714  L 27 96.64285714285714  C 26.187500000000004 96.64285714285714  25.484375000000004 96.42550223214285  24.890625 95.99079241071428  C 24.296875 95.55608258928572  24 95.04129464285715  24 94.44642857142857  L 24 90.05357142857143  C 24 89.45870535714285  24.296875 88.94391741071428  24.890625 88.50920758928572  C 25.484375000000004 88.07449776785715  26.187500000000004 87.85714285714286  27 87.85714285714286  L 33 87.85714285714286  C 33.8125 87.85714285714286  34.515625 88.07449776785715  35.109375 88.50920758928572  Z " stroke-width="0" stroke-dasharray="0" stroke="rgba(255, 255, 255, 0)" fill="none" transform="matrix(1 0 0 1 612 188 )" class="stroke" mask="url(#Clip377)" />
    <path d="M 35.109375 70.93777901785714  C 35.70312499999999 71.37248883928571  36 71.88727678571428  36 72.48214285714286  L 36 76.875  C 36 77.46986607142856  35.70312499999999 77.98465401785714  35.109375 78.41936383928572  C 34.515625 78.8540736607143  33.8125 79.07142857142857  33 79.07142857142857  L 27 79.07142857142857  C 26.187500000000004 79.07142857142857  25.484375000000004 78.8540736607143  24.890625 78.41936383928572  C 24.296875 77.98465401785714  24 77.46986607142856  24 76.875  L 24 72.48214285714286  C 24 71.88727678571428  24.296875 71.37248883928571  24.890625 70.93777901785714  C 25.484375000000004 70.50306919642857  26.187500000000004 70.28571428571428  27 70.28571428571428  L 33 70.28571428571428  C 33.8125 70.28571428571428  34.515625 70.50306919642857  35.109375 70.93777901785714  Z " stroke-width="0" stroke-dasharray="0" stroke="rgba(255, 255, 255, 0)" fill="none" transform="matrix(1 0 0 1 612 188 )" class="stroke" mask="url(#Clip377)" />
    <path d="M 59.109375 70.93777901785714  C 59.70312500000001 71.37248883928571  60 71.88727678571428  60 72.48214285714286  L 60 76.875  C 60 77.46986607142856  59.70312500000001 77.98465401785714  59.109375 78.41936383928572  C 58.51562500000001 78.8540736607143  57.81250000000001 79.07142857142857  57 79.07142857142857  L 51 79.07142857142857  C 50.18750000000001 79.07142857142857  49.48437500000001 78.8540736607143  48.890625 78.41936383928572  C 48.29687500000001 77.98465401785714  48 77.46986607142856  48 76.875  L 48 72.48214285714286  C 48 71.88727678571428  48.29687500000001 71.37248883928571  48.890625 70.93777901785714  C 49.48437500000001 70.50306919642857  50.18750000000001 70.28571428571428  51 70.28571428571428  L 57 70.28571428571428  C 57.81250000000001 70.28571428571428  58.51562500000001 70.50306919642857  59.109375 70.93777901785714  Z " stroke-width="0" stroke-dasharray="0" stroke="rgba(255, 255, 255, 0)" fill="none" transform="matrix(1 0 0 1 612 188 )" class="stroke" mask="url(#Clip377)" />
    <path d="M 35.109375 53.36635044642858  C 35.70312499999999 53.80106026785713  36 54.31584821428571  36 54.910714285714285  L 36 59.30357142857142  C 36 59.89843749999999  35.70312499999999 60.41322544642857  35.109375 60.84793526785714  C 34.515625 61.28264508928571  33.8125 61.5  33 61.5  L 27 61.5  C 26.187500000000004 61.5  25.484375000000004 61.28264508928571  24.890625 60.84793526785714  C 24.296875 60.41322544642857  24 59.89843749999999  24 59.30357142857142  L 24 54.910714285714285  C 24 54.31584821428571  24.296875 53.80106026785713  24.890625 53.36635044642858  C 25.484375000000004 52.93164062500001  26.187500000000004 52.714285714285715  27 52.714285714285715  L 33 52.714285714285715  C 33.8125 52.714285714285715  34.515625 52.93164062500001  35.109375 53.36635044642858  Z " stroke-width="0" stroke-dasharray="0" stroke="rgba(255, 255, 255, 0)" fill="none" transform="matrix(1 0 0 1 612 188 )" class="stroke" mask="url(#Clip377)" />
    <path d="M 107.109375 88.50920758928572  C 107.70312500000001 88.94391741071428  108 89.45870535714285  108 90.05357142857143  L 108 94.44642857142857  C 108 95.04129464285715  107.70312500000001 95.55608258928572  107.109375 95.99079241071428  C 106.51562500000001 96.42550223214285  105.8125 96.64285714285714  105 96.64285714285714  L 99 96.64285714285714  C 98.18750000000001 96.64285714285714  97.48437500000001 96.42550223214285  96.890625 95.99079241071428  C 96.29687500000001 95.55608258928572  96 95.04129464285715  96 94.44642857142857  L 96 90.05357142857143  C 96 89.45870535714285  96.29687500000001 88.94391741071428  96.890625 88.50920758928572  C 97.48437500000001 88.07449776785715  98.18750000000001 87.85714285714286  99 87.85714285714286  L 105 87.85714285714286  C 105.8125 87.85714285714286  106.51562500000001 88.07449776785715  107.109375 88.50920758928572  Z " stroke-width="0" stroke-dasharray="0" stroke="rgba(255, 255, 255, 0)" fill="none" transform="matrix(1 0 0 1 612 188 )" class="stroke" mask="url(#Clip377)" />
    <path d="M 83.109375 70.93777901785714  C 83.703125 71.37248883928571  84 71.88727678571428  84 72.48214285714286  L 84 76.875  C 84 77.46986607142856  83.703125 77.98465401785714  83.109375 78.41936383928572  C 82.515625 78.8540736607143  81.81250000000001 79.07142857142857  81 79.07142857142857  L 75 79.07142857142857  C 74.1875 79.07142857142857  73.48437500000001 78.8540736607143  72.890625 78.41936383928572  C 72.296875 77.98465401785714  72 77.46986607142856  72 76.875  L 72 72.48214285714286  C 72 71.88727678571428  72.296875 71.37248883928571  72.890625 70.93777901785714  C 73.48437500000001 70.50306919642857  74.1875 70.28571428571428  75 70.28571428571428  L 81 70.28571428571428  C 81.81250000000001 70.28571428571428  82.515625 70.50306919642857  83.109375 70.93777901785714  Z " stroke-width="0" stroke-dasharray="0" stroke="rgba(255, 255, 255, 0)" fill="none" transform="matrix(1 0 0 1 612 188 )" class="stroke" mask="url(#Clip377)" />
    <path d="M 59.109375 53.36635044642858  C 59.70312500000001 53.80106026785713  60 54.31584821428571  60 54.910714285714285  L 60 59.30357142857142  C 60 59.89843749999999  59.70312500000001 60.41322544642857  59.109375 60.84793526785714  C 58.51562500000001 61.28264508928571  57.81250000000001 61.5  57 61.5  L 51 61.5  C 50.18750000000001 61.5  49.48437500000001 61.28264508928571  48.890625 60.84793526785714  C 48.29687500000001 60.41322544642857  48 59.89843749999999  48 59.30357142857142  L 48 54.910714285714285  C 48 54.31584821428571  48.29687500000001 53.80106026785713  48.890625 53.36635044642858  C 49.48437500000001 52.93164062500001  50.18750000000001 52.714285714285715  51 52.714285714285715  L 57 52.714285714285715  C 57.81250000000001 52.714285714285715  58.51562500000001 52.93164062500001  59.109375 53.36635044642858  Z " stroke-width="0" stroke-dasharray="0" stroke="rgba(255, 255, 255, 0)" fill="none" transform="matrix(1 0 0 1 612 188 )" class="stroke" mask="url(#Clip377)" />
    <path d="M 35.109375 35.794921875  C 35.70312499999999 36.22963169642857  36 36.74441964285713  36 37.339285714285715  L 36 41.73214285714286  C 36 42.327008928571416  35.70312499999999 42.84179687499999  35.109375 43.27650669642858  C 34.515625 43.71121651785713  33.8125 43.92857142857142  33 43.92857142857142  L 27 43.92857142857142  C 26.187500000000004 43.92857142857142  25.484375000000004 43.71121651785713  24.890625 43.27650669642858  C 24.296875 42.84179687499999  24 42.327008928571416  24 41.73214285714286  L 24 37.339285714285715  C 24 36.74441964285713  24.296875 36.22963169642857  24.890625 35.794921875  C 25.484375000000004 35.360212053571416  26.187500000000004 35.14285714285714  27 35.14285714285714  L 33 35.14285714285714  C 33.8125 35.14285714285714  34.515625 35.360212053571416  35.109375 35.794921875  Z " stroke-width="0" stroke-dasharray="0" stroke="rgba(255, 255, 255, 0)" fill="none" transform="matrix(1 0 0 1 612 188 )" class="stroke" mask="url(#Clip377)" />
    <path d="M 107.109375 70.93777901785714  C 107.70312500000001 71.37248883928571  108 71.88727678571428  108 72.48214285714286  L 108 76.875  C 108 77.46986607142856  107.70312500000001 77.98465401785714  107.109375 78.41936383928572  C 106.51562500000001 78.8540736607143  105.8125 79.07142857142857  105 79.07142857142857  L 99 79.07142857142857  C 98.18750000000001 79.07142857142857  97.48437500000001 78.8540736607143  96.890625 78.41936383928572  C 96.29687500000001 77.98465401785714  96 77.46986607142856  96 76.875  L 96 72.48214285714286  C 96 71.88727678571428  96.29687500000001 71.37248883928571  96.890625 70.93777901785714  C 97.48437500000001 70.50306919642857  98.18750000000001 70.28571428571428  99 70.28571428571428  L 105 70.28571428571428  C 105.8125 70.28571428571428  106.51562500000001 70.50306919642857  107.109375 70.93777901785714  Z " stroke-width="0" stroke-dasharray="0" stroke="rgba(255, 255, 255, 0)" fill="none" transform="matrix(1 0 0 1 612 188 )" class="stroke" mask="url(#Clip377)" />
    <path d="M 83.109375 53.36635044642858  C 83.703125 53.80106026785713  84 54.31584821428571  84 54.910714285714285  L 84 59.30357142857142  C 84 59.89843749999999  83.703125 60.41322544642857  83.109375 60.84793526785714  C 82.515625 61.28264508928571  81.81250000000001 61.5  81 61.5  L 75 61.5  C 74.1875 61.5  73.48437500000001 61.28264508928571  72.890625 60.84793526785714  C 72.296875 60.41322544642857  72 59.89843749999999  72 59.30357142857142  L 72 54.910714285714285  C 72 54.31584821428571  72.296875 53.80106026785713  72.890625 53.36635044642858  C 73.48437500000001 52.93164062500001  74.1875 52.714285714285715  75 52.714285714285715  L 81 52.714285714285715  C 81.81250000000001 52.714285714285715  82.515625 52.93164062500001  83.109375 53.36635044642858  Z " stroke-width="0" stroke-dasharray="0" stroke="rgba(255, 255, 255, 0)" fill="none" transform="matrix(1 0 0 1 612 188 )" class="stroke" mask="url(#Clip377)" />
    <path d="M 59.109375 35.794921875  C 59.70312500000001 36.22963169642857  60 36.74441964285713  60 37.339285714285715  L 60 41.73214285714286  C 60 42.327008928571416  59.70312500000001 42.84179687499999  59.109375 43.27650669642858  C 58.51562500000001 43.71121651785713  57.81250000000001 43.92857142857142  57 43.92857142857142  L 51 43.92857142857142  C 50.18750000000001 43.92857142857142  49.48437500000001 43.71121651785713  48.890625 43.27650669642858  C 48.29687500000001 42.84179687499999  48 42.327008928571416  48 41.73214285714286  L 48 37.339285714285715  C 48 36.74441964285713  48.29687500000001 36.22963169642857  48.890625 35.794921875  C 49.48437500000001 35.360212053571416  50.18750000000001 35.14285714285714  51 35.14285714285714  L 57 35.14285714285714  C 57.81250000000001 35.14285714285714  58.51562500000001 35.360212053571416  59.109375 35.794921875  Z " stroke-width="0" stroke-dasharray="0" stroke="rgba(255, 255, 255, 0)" fill="none" transform="matrix(1 0 0 1 612 188 )" class="stroke" mask="url(#Clip377)" />
    <path d="M 35.109375 18.223493303571423  C 35.70312499999999 18.65820312499999  36 19.17299107142857  36 19.767857142857142  L 36 24.16071428571428  C 36 24.75558035714284  35.70312499999999 25.270368303571416  35.109375 25.705078125  C 34.515625 26.13978794642857  33.8125 26.357142857142858  33 26.357142857142858  L 27 26.357142857142858  C 26.187500000000004 26.357142857142858  25.484375000000004 26.13978794642857  24.890625 25.705078125  C 24.296875 25.270368303571416  24 24.75558035714284  24 24.16071428571428  L 24 19.767857142857142  C 24 19.17299107142857  24.296875 18.65820312499999  24.890625 18.223493303571423  C 25.484375000000004 17.78878348214284  26.187500000000004 17.571428571428577  27 17.571428571428577  L 33 17.571428571428577  C 33.8125 17.571428571428577  34.515625 17.78878348214284  35.109375 18.223493303571423  Z " stroke-width="0" stroke-dasharray="0" stroke="rgba(255, 255, 255, 0)" fill="none" transform="matrix(1 0 0 1 612 188 )" class="stroke" mask="url(#Clip377)" />
    <path d="M 107.109375 53.36635044642858  C 107.70312500000001 53.80106026785713  108 54.31584821428571  108 54.910714285714285  L 108 59.30357142857142  C 108 59.89843749999999  107.70312500000001 60.41322544642857  107.109375 60.84793526785714  C 106.51562500000001 61.28264508928571  105.8125 61.5  105 61.5  L 99 61.5  C 98.18750000000001 61.5  97.48437500000001 61.28264508928571  96.890625 60.84793526785714  C 96.29687500000001 60.41322544642857  96 59.89843749999999  96 59.30357142857142  L 96 54.910714285714285  C 96 54.31584821428571  96.29687500000001 53.80106026785713  96.890625 53.36635044642858  C 97.48437500000001 52.93164062500001  98.18750000000001 52.714285714285715  99 52.714285714285715  L 105 52.714285714285715  C 105.8125 52.714285714285715  106.51562500000001 52.93164062500001  107.109375 53.36635044642858  Z " stroke-width="0" stroke-dasharray="0" stroke="rgba(255, 255, 255, 0)" fill="none" transform="matrix(1 0 0 1 612 188 )" class="stroke" mask="url(#Clip377)" />
    <path d="M 83.109375 35.794921875  C 83.703125 36.22963169642857  84 36.74441964285713  84 37.339285714285715  L 84 41.73214285714286  C 84 42.327008928571416  83.703125 42.84179687499999  83.109375 43.27650669642858  C 82.515625 43.71121651785713  81.81250000000001 43.92857142857142  81 43.92857142857142  L 75 43.92857142857142  C 74.1875 43.92857142857142  73.48437500000001 43.71121651785713  72.890625 43.27650669642858  C 72.296875 42.84179687499999  72 42.327008928571416  72 41.73214285714286  L 72 37.339285714285715  C 72 36.74441964285713  72.296875 36.22963169642857  72.890625 35.794921875  C 73.48437500000001 35.360212053571416  74.1875 35.14285714285714  75 35.14285714285714  L 81 35.14285714285714  C 81.81250000000001 35.14285714285714  82.515625 35.360212053571416  83.109375 35.794921875  Z " stroke-width="0" stroke-dasharray="0" stroke="rgba(255, 255, 255, 0)" fill="none" transform="matrix(1 0 0 1 612 188 )" class="stroke" mask="url(#Clip377)" />
    <path d="M 59.109375 18.223493303571423  C 59.70312500000001 18.65820312499999  60 19.17299107142857  60 19.767857142857142  L 60 24.16071428571428  C 60 24.75558035714284  59.70312500000001 25.270368303571416  59.109375 25.705078125  C 58.51562500000001 26.13978794642857  57.81250000000001 26.357142857142858  57 26.357142857142858  L 51 26.357142857142858  C 50.18750000000001 26.357142857142858  49.48437500000001 26.13978794642857  48.890625 25.705078125  C 48.29687500000001 25.270368303571416  48 24.75558035714284  48 24.16071428571428  L 48 19.767857142857142  C 48 19.17299107142857  48.29687500000001 18.65820312499999  48.890625 18.223493303571423  C 49.48437500000001 17.78878348214284  50.18750000000001 17.571428571428577  51 17.571428571428577  L 57 17.571428571428577  C 57.81250000000001 17.571428571428577  58.51562500000001 17.78878348214284  59.109375 18.223493303571423  Z " stroke-width="0" stroke-dasharray="0" stroke="rgba(255, 255, 255, 0)" fill="none" transform="matrix(1 0 0 1 612 188 )" class="stroke" mask="url(#Clip377)" />
    <path d="M 107.109375 35.794921875  C 107.70312500000001 36.22963169642857  108 36.74441964285713  108 37.339285714285715  L 108 41.73214285714286  C 108 42.327008928571416  107.70312500000001 42.84179687499999  107.109375 43.27650669642858  C 106.51562500000001 43.71121651785713  105.8125 43.92857142857142  105 43.92857142857142  L 99 43.92857142857142  C 98.18750000000001 43.92857142857142  97.48437500000001 43.71121651785713  96.890625 43.27650669642858  C 96.29687500000001 42.84179687499999  96 42.327008928571416  96 41.73214285714286  L 96 37.339285714285715  C 96 36.74441964285713  96.29687500000001 36.22963169642857  96.890625 35.794921875  C 97.48437500000001 35.360212053571416  98.18750000000001 35.14285714285714  99 35.14285714285714  L 105 35.14285714285714  C 105.8125 35.14285714285714  106.51562500000001 35.360212053571416  107.109375 35.794921875  Z " stroke-width="0" stroke-dasharray="0" stroke="rgba(255, 255, 255, 0)" fill="none" transform="matrix(1 0 0 1 612 188 )" class="stroke" mask="url(#Clip377)" />
    <path d="M 83.109375 18.223493303571423  C 83.703125 18.65820312499999  84 19.17299107142857  84 19.767857142857142  L 84 24.16071428571428  C 84 24.75558035714284  83.703125 25.270368303571416  83.109375 25.705078125  C 82.515625 26.13978794642857  81.81250000000001 26.357142857142858  81 26.357142857142858  L 75 26.357142857142858  C 74.1875 26.357142857142858  73.48437500000001 26.13978794642857  72.890625 25.705078125  C 72.296875 25.270368303571416  72 24.75558035714284  72 24.16071428571428  L 72 19.767857142857142  C 72 19.17299107142857  72.296875 18.65820312499999  72.890625 18.223493303571423  C 73.48437500000001 17.78878348214284  74.1875 17.571428571428577  75 17.571428571428577  L 81 17.571428571428577  C 81.81250000000001 17.571428571428577  82.515625 17.78878348214284  83.109375 18.223493303571423  Z " stroke-width="0" stroke-dasharray="0" stroke="rgba(255, 255, 255, 0)" fill="none" transform="matrix(1 0 0 1 612 188 )" class="stroke" mask="url(#Clip377)" />
    <path d="M 107.109375 18.223493303571423  C 107.70312500000001 18.65820312499999  108 19.17299107142857  108 19.767857142857142  L 108 24.16071428571428  C 108 24.75558035714284  107.70312500000001 25.270368303571416  107.109375 25.705078125  C 106.51562500000001 26.13978794642857  105.8125 26.357142857142858  105 26.357142857142858  L 99 26.357142857142858  C 98.18750000000001 26.357142857142858  97.48437500000001 26.13978794642857  96.890625 25.705078125  C 96.29687500000001 25.270368303571416  96 24.75558035714284  96 24.16071428571428  L 96 19.767857142857142  C 96 19.17299107142857  96.29687500000001 18.65820312499999  96.890625 18.223493303571423  C 97.48437500000001 17.78878348214284  98.18750000000001 17.571428571428577  99 17.571428571428577  L 105 17.571428571428577  C 105.8125 17.571428571428577  106.51562500000001 17.78878348214284  107.109375 18.223493303571423  Z " stroke-width="0" stroke-dasharray="0" stroke="rgba(255, 255, 255, 0)" fill="none" transform="matrix(1 0 0 1 612 188 )" class="stroke" mask="url(#Clip377)" />
    <path d="M 84 98.83928571428572  L 84 114  L 120 114  L 120 9  L 12 9  L 12 114  L 48 114  L 48 98.83928571428572  C 48 98.24441964285714  48.29687500000001 97.72963169642857  48.890625 97.294921875  C 49.48437500000001 96.86021205357143  50.18750000000001 96.64285714285714  51 96  L 81 96  C 81.81250000000001 96.64285714285714  82.515625 96.86021205357143  83.109375 97.294921875  C 83.703125 97.72963169642857  84 98.24441964285714  84 98.83928571428572  Z " stroke-width="0" stroke-dasharray="0" stroke="rgba(255, 255, 255, 0)" fill="none" transform="matrix(1 0 0 1 612 188 )" class="stroke" mask="url(#Clip377)" />
    <path d="M 130.21875 1.3041294642857182  C 131.40625 2.1735491071428408  132 3.2031249999999956  132 4.392857142857141  L 132 118.60714285714286  C 132 119.79687499999999  131.40625 120.82645089285714  130.21875 121.69587053571428  C 129.03125000000003 122.56529017857143  127.62500000000001 123  126 123  L 6 123  C 4.375000000000001 123  2.96875 122.56529017857143  1.78125 121.69587053571428  C 0.5937499999999999 120.82645089285714  0 119.79687499999999  0 118.60714285714286  L 0 4.392857142857141  C 0 3.2031249999999956  0.5937499999999999 2.1735491071428408  1.78125 1.3041294642857182  C 2.96875 0.43470982142858183  4.375000000000001 0  6 0  L 126 0  C 127.62500000000001 0  129.03125000000003 0.43470982142858183  130.21875 1.3041294642857182  Z " stroke-width="0" stroke-dasharray="0" stroke="rgba(255, 255, 255, 0)" fill="none" transform="matrix(1 0 0 1 612 188 )" class="stroke" mask="url(#Clip377)" />
  </g>
</svg>