<?xml version="1.0" encoding="utf-8"?>
<svg version="1.1" xmlns:xlink="http://www.w3.org/1999/xlink" width="300px" height="170px" xmlns="http://www.w3.org/2000/svg">
  <defs>
    <mask fill="white" id="Clip715">
      <path d="M 41 230  L 41 65  C 41 62.225  43.225 60  46 60  L 336 60  C 338.775 60  341 62.225  341 65  L 341 230  " fill-rule="evenodd" />
    </mask>
  </defs>
  <g transform="matrix(1 0 0 1 -41 -60 )">
    <path d="M 41 60  L 341 60  L 341 230  L 41 230  L 41 60  " fill-rule="nonzero" fill="rgba(204, 204, 204, 1)" stroke="none" class="fill" mask="url(#Clip715)" />
    <path d="M 53 72  L 329 72  L 329 218  L 53 218  L 53 72  " fill-rule="nonzero" fill="rgba(255, 255, 255, 1)" stroke="none" class="fill" mask="url(#Clip715)" />
    <path d="M 209.75 111  C 202.61 111  197 105.39  197 98.25  C 197 91.11  202.61 85.5  209.75 85.5  C 216.89 85.5  222.5 91.11  222.5 98.25  C 222.5 105.39  216.89 111  209.75 111  " fill-rule="nonzero" fill="rgba(204, 204, 204, 1)" stroke="none" class="fill" mask="url(#Clip715)" />
    <path d="M 58 214  L 58 138.64999999999998  L 124.75 104.39999999999999  L 218.2 167.42000000000002  L 271.6 124.95  L 325 167.42000000000002  L 325 214  L 58 214  " fill-rule="nonzero" fill="rgba(22, 155, 213, 1)" stroke="none" class="fill" mask="url(#Clip715)" />
  </g>
</svg>