<?xml version="1.0" encoding="utf-8"?>
<svg version="1.1" xmlns:xlink="http://www.w3.org/1999/xlink" width="657px" height="277px" xmlns="http://www.w3.org/2000/svg">
  <defs>
    <pattern id="BGPattern" patternUnits="userSpaceOnUse" alignment="0 0" imageRepeat="None" />
    <mask fill="white" id="Clip1100">
      <path d="M 41 254  L 657 254  L 657 277  L 0 277  L 0 0  L 41 0  L 41 254  Z M 613.05029296875 24.706380208333343  C 614.9750976562501 25.788411458333343  615.9375000000001 27.171006944444418  616 28.854166666666657  L 616 107.30143229166666  C 615.9375000000001 109.82617187499997  613.8522949218751 111.59950086805556  609.681884765625 112.62141927083334  C 605.5114746093751 113.6433376736111  601.7153320312501 113.19249131944444  598.29345703125 111.26888020833334  L 559.4765625 89.44791666666666  L 356.40966796875 203.60221354166669  C 354.27099609375006 204.80447048611111  351.8115234375 205.40559895833331  349.03125 205.40559895833331  C 346.25097656250006 205.40559895833331  343.79150390625 204.80447048611111  341.65283203125 203.60221354166669  L 266.90625 161.58333333333331  L 133.453125 236.60416666666666  L 71.859375 201.97916666666669  L 259.52783203125 96.48111979166666  C 261.66650390625 95.27886284722221  264.12597656250006 94.677734375  266.90625 94.677734375  C 269.6865234375 94.677734375  272.14599609375 95.27886284722221  274.28466796875 96.48111979166666  L 349.03125 138.5  L 497.8828125 54.82291666666666  L 459.06591796875 33.001953125  C 455.64404296875006 31.078342013888864  454.84204101562506 28.9443359375  456.659912109375 26.599934895833343  C 458.477783203125 24.255533854166657  461.63232421875 23.083333333333343  466.12353515625 23  L 605.671875 23  C 608.666015625 23.083333333333343  611.1254882812501 23.624348958333343  613.05029296875 24.706380208333343  Z " fill-rule="evenodd" />
    </mask>
  </defs>
  <g transform="matrix(1 0 0 1 -14 -50 )">
    <path d="M 41 254  L 657 254  L 657 277  L 0 277  L 0 0  L 41 0  L 41 254  Z M 613.05029296875 24.706380208333343  C 614.9750976562501 25.788411458333343  615.9375000000001 27.171006944444418  616 28.854166666666657  L 616 107.30143229166666  C 615.9375000000001 109.82617187499997  613.8522949218751 111.59950086805556  609.681884765625 112.62141927083334  C 605.5114746093751 113.6433376736111  601.7153320312501 113.19249131944444  598.29345703125 111.26888020833334  L 559.4765625 89.44791666666666  L 356.40966796875 203.60221354166669  C 354.27099609375006 204.80447048611111  351.8115234375 205.40559895833331  349.03125 205.40559895833331  C 346.25097656250006 205.40559895833331  343.79150390625 204.80447048611111  341.65283203125 203.60221354166669  L 266.90625 161.58333333333331  L 133.453125 236.60416666666666  L 71.859375 201.97916666666669  L 259.52783203125 96.48111979166666  C 261.66650390625 95.27886284722221  264.12597656250006 94.677734375  266.90625 94.677734375  C 269.6865234375 94.677734375  272.14599609375 95.27886284722221  274.28466796875 96.48111979166666  L 349.03125 138.5  L 497.8828125 54.82291666666666  L 459.06591796875 33.001953125  C 455.64404296875006 31.078342013888864  454.84204101562506 28.9443359375  456.659912109375 26.599934895833343  C 458.477783203125 24.255533854166657  461.63232421875 23.083333333333343  466.12353515625 23  L 605.671875 23  C 608.666015625 23.083333333333343  611.1254882812501 23.624348958333343  613.05029296875 24.706380208333343  Z " fill-rule="nonzero" fill="rgba(0, 0, 0, 1)" stroke="none" transform="matrix(1 0 0 1 14 50 )" class="fill" />
    <path d="M 41 254  L 657 254  L 657 277  L 0 277  L 0 0  L 41 0  L 41 254  Z " stroke-width="0" stroke-dasharray="0" stroke="rgba(255, 255, 255, 0)" fill="none" transform="matrix(1 0 0 1 14 50 )" class="stroke" mask="url(#Clip1100)" />
    <path d="M 613.05029296875 24.706380208333343  C 614.9750976562501 25.788411458333343  615.9375000000001 27.171006944444418  616 28.854166666666657  L 616 107.30143229166666  C 615.9375000000001 109.82617187499997  613.8522949218751 111.59950086805556  609.681884765625 112.62141927083334  C 605.5114746093751 113.6433376736111  601.7153320312501 113.19249131944444  598.29345703125 111.26888020833334  L 559.4765625 89.44791666666666  L 356.40966796875 203.60221354166669  C 354.27099609375006 204.80447048611111  351.8115234375 205.40559895833331  349.03125 205.40559895833331  C 346.25097656250006 205.40559895833331  343.79150390625 204.80447048611111  341.65283203125 203.60221354166669  L 266.90625 161.58333333333331  L 133.453125 236.60416666666666  L 71.859375 201.97916666666669  L 259.52783203125 96.48111979166666  C 261.66650390625 95.27886284722221  264.12597656250006 94.677734375  266.90625 94.677734375  C 269.6865234375 94.677734375  272.14599609375 95.27886284722221  274.28466796875 96.48111979166666  L 349.03125 138.5  L 497.8828125 54.82291666666666  L 459.06591796875 33.001953125  C 455.64404296875006 31.078342013888864  454.84204101562506 28.9443359375  456.659912109375 26.599934895833343  C 458.477783203125 24.255533854166657  461.63232421875 23.083333333333343  466.12353515625 23  L 605.671875 23  C 608.666015625 23.083333333333343  611.1254882812501 23.624348958333343  613.05029296875 24.706380208333343  Z " stroke-width="0" stroke-dasharray="0" stroke="rgba(255, 255, 255, 0)" fill="none" transform="matrix(1 0 0 1 14 50 )" class="stroke" mask="url(#Clip1100)" />
  </g>
</svg>