<?xml version="1.0" encoding="utf-8"?>
<svg version="1.1" xmlns:xlink="http://www.w3.org/1999/xlink" width="18px" height="18px" viewBox="146 24 18 18" xmlns="http://www.w3.org/2000/svg">
  <path d="M 155 24  C 160.04 24  164 27.96  164 33  C 164 38.04  160.04 42  155 42  C 149.96 42  146 38.04  146 33  C 146 27.96  149.96 24  155 24  Z " fill-rule="nonzero" fill="rgba(255, 255, 255, 0)" stroke="none" class="fill" />
  <path d="M 155 25  C 159.48 25  163 28.52  163 33  C 163 37.480000000000004  159.48 41  155 41  C 150.52 41  147 37.480000000000004  147 33  C 147 28.52  150.52 25  155 25  Z " stroke-width="2" stroke-dasharray="0" stroke="rgba(121, 121, 121, 1)" fill="none" class="stroke" />
  <path d="M 155 37.5  C 152.48 37.5  150.5 35.52  150.5 33  C 150.5 30.48  152.48 28.5  155 28.5  C 157.52 28.5  159.5 30.48  159.5 33  C 159.5 35.52  157.52 37.5  155 37.5  " fill-rule="nonzero" fill="rgba(121, 121, 121, 1)" stroke="none" class="stroke btn_check" />
</svg>