<?xml version="1.0" encoding="utf-8"?>
<svg version="1.1" xmlns:xlink="http://www.w3.org/1999/xlink" width="18px" height="18px" viewBox="286 24 18 18" xmlns="http://www.w3.org/2000/svg">
  <path d="M 295 24  C 300.04 24  304 27.96  304 33  C 304 38.04  300.04 42  295 42  C 289.96 42  286 38.04  286 33  C 286 27.96  289.96 24  295 24  Z " fill-rule="nonzero" fill="rgba(98, 0, 238, 0)" stroke="none" class="fill" />
  <path d="M 295 25  C 299.48 25  303 28.52  303 33  C 303 37.480000000000004  299.48 41  295 41  C 290.52 41  287 37.480000000000004  287 33  C 287 28.52  290.52 25  295 25  Z " stroke-width="2" stroke-dasharray="0" stroke="rgba(30, 152, 215, 1)" fill="none" class="stroke" />
  <path d="M 295 37.5  C 292.48 37.5  290.5 35.52  290.5 33  C 290.5 30.48  292.48 28.5  295 28.5  C 297.52 28.5  299.5 30.48  299.5 33  C 299.5 35.52  297.52 37.5  295 37.5  " fill-rule="nonzero" fill="rgba(30, 152, 215, 1)" stroke="none" class="stroke btn_check" />
</svg>