<?xml version="1.0" encoding="utf-8"?>
<svg version="1.1" xmlns:xlink="http://www.w3.org/1999/xlink" width="18px" height="18px" viewBox="720 134 18 18" xmlns="http://www.w3.org/2000/svg">
  <path d="M 720 136  A 2 2 0 0 1 722 134 L 736 134  A 2 2 0 0 1 738 136 L 738 150  A 2 2 0 0 1 736 152 L 722 152  A 2 2 0 0 1 720 150 L 720 136  Z " fill-rule="nonzero" fill="rgba(255, 255, 255, 0)" stroke="none" class="fill" />
  <path d="M 721 136  A 1 1 0 0 1 722 135 L 736 135  A 1 1 0 0 1 737 136 L 737 150  A 1 1 0 0 1 736 151 L 722 151  A 1 1 0 0 1 721 150 L 721 136  Z " stroke-width="2" stroke-dasharray="0" stroke="rgba(121, 121, 121, 1)" fill="none" class="stroke" />
  <path d="M 723.8571428571429 143  L 727.7142857142857 146.85714285714286  L 734.1428571428571 137.85714285714286  " stroke-width="3.8571428571428577" stroke-dasharray="0" stroke="rgba(121, 121, 121, 1)" fill="none" class="stroke btn_check" />
</svg>