<?xml version="1.0" encoding="utf-8"?>
<svg version="1.1" xmlns:xlink="http://www.w3.org/1999/xlink" width="18px" height="18px" viewBox="720 168 18 18" xmlns="http://www.w3.org/2000/svg">
  <path d="M 720 170  A 2 2 0 0 1 722 168 L 736 168  A 2 2 0 0 1 738 170 L 738 184  A 2 2 0 0 1 736 186 L 722 186  A 2 2 0 0 1 720 184 L 720 170  Z " fill-rule="nonzero" fill="rgba(255, 255, 255, 0)" stroke="none" class="fill" />
  <path d="M 721 170  A 1 1 0 0 1 722 169 L 736 169  A 1 1 0 0 1 737 170 L 737 184  A 1 1 0 0 1 736 185 L 722 185  A 1 1 0 0 1 721 184 L 721 170  Z " stroke-width="2" stroke-dasharray="0" stroke="rgba(121, 121, 121, 1)" fill="none" class="stroke" />
  <path d="M 723.8571428571429 177  L 727.7142857142857 180.85714285714286  L 734.1428571428571 171.85714285714286  " stroke-width="3.8571428571428577" stroke-dasharray="0" stroke="rgba(121, 121, 121, 1)" fill="none" class="stroke btn_check" />
</svg>