<?xml version="1.0" encoding="utf-8"?>
<svg version="1.1" xmlns:xlink="http://www.w3.org/1999/xlink" width="14px" height="14px" viewBox="10 61.5 14 14" xmlns="http://www.w3.org/2000/svg">
  <path d="M 10 63.5  A 2 2 0 0 1 12 61.5 L 22 61.5  A 2 2 0 0 1 24 63.5 L 24 73.5  A 2 2 0 0 1 22 75.5 L 12 75.5  A 2 2 0 0 1 10 73.5 L 10 63.5  Z " fill-rule="nonzero" fill="rgba(255, 255, 255, 1)" stroke="none" class="fill" />
  <path d="M 10.5 63.5  A 1.5 1.5 0 0 1 12 62 L 22 62  A 1.5 1.5 0 0 1 23.5 63.5 L 23.5 73.5  A 1.5 1.5 0 0 1 22 75 L 12 75  A 1.5 1.5 0 0 1 10.5 73.5 L 10.5 63.5  Z " stroke-width="1" stroke-dasharray="0" stroke="rgba(30, 152, 215, 1)" fill="none" class="stroke" stroke-dashoffset="0.5" />
  <path d="M 13 68.5  L 16 71.5  L 21 64.5  " stroke-width="3" stroke-dasharray="0" stroke="rgba(30, 152, 215, 1)" fill="none" class="stroke btn_check" />
</svg>