<?xml version="1.0" encoding="utf-8"?>
<svg version="1.1" xmlns:xlink="http://www.w3.org/1999/xlink" width="18px" height="18px" viewBox="720 91 18 18" xmlns="http://www.w3.org/2000/svg">
  <path d="M 720 93  A 2 2 0 0 1 722 91 L 736 91  A 2 2 0 0 1 738 93 L 738 107  A 2 2 0 0 1 736 109 L 722 109  A 2 2 0 0 1 720 107 L 720 93  Z " fill-rule="nonzero" fill="rgba(255, 255, 255, 0)" stroke="none" class="fill" />
  <path d="M 721 93  A 1 1 0 0 1 722 92 L 736 92  A 1 1 0 0 1 737 93 L 737 107  A 1 1 0 0 1 736 108 L 722 108  A 1 1 0 0 1 721 107 L 721 93  Z " stroke-width="2" stroke-dasharray="0" stroke="rgba(121, 121, 121, 1)" fill="none" class="stroke" />
  <path d="M 723.8571428571429 100  L 727.7142857142857 103.85714285714285  L 734.1428571428571 94.85714285714286  " stroke-width="3.8571428571428577" stroke-dasharray="0" stroke="rgba(121, 121, 121, 1)" fill="none" class="stroke btn_check" />
</svg>