<?xml version="1.0" encoding="utf-8"?>
<svg version="1.1" xmlns:xlink="http://www.w3.org/1999/xlink" width="18px" height="18px" viewBox="200 10137 18 18" xmlns="http://www.w3.org/2000/svg">
  <path d="M 200 10139  A 2 2 0 0 1 202 10137 L 216 10137  A 2 2 0 0 1 218 10139 L 218 10153  A 2 2 0 0 1 216 10155 L 202 10155  A 2 2 0 0 1 200 10153 L 200 10139  Z " fill-rule="nonzero" fill="rgba(255, 255, 255, 0)" stroke="none" class="fill" />
  <path d="M 201 10139  A 1 1 0 0 1 202 10138 L 216 10138  A 1 1 0 0 1 217 10139 L 217 10153  A 1 1 0 0 1 216 10154 L 202 10154  A 1 1 0 0 1 201 10153 L 201 10139  Z " stroke-width="2" stroke-dasharray="0" stroke="rgba(121, 121, 121, 1)" fill="none" class="stroke" />
  <path d="M 203.85714285714286 10146  L 207.71428571428572 10149.857142857143  L 214.14285714285714 10140.857142857143  " stroke-width="3.8571428571428577" stroke-dasharray="0" stroke="rgba(121, 121, 121, 1)" fill="none" class="stroke btn_check" />
</svg>