<?xml version="1.0" encoding="utf-8"?>
<svg version="1.1" xmlns:xlink="http://www.w3.org/1999/xlink" width="18px" height="18px" viewBox="208 10299 18 18" xmlns="http://www.w3.org/2000/svg">
  <path d="M 217 10299  C 222.04 10299  226 10302.96  226 10308  C 226 10313.04  222.04 10317  217 10317  C 211.96 10317  208 10313.04  208 10308  C 208 10302.96  211.96 10299  217 10299  Z " fill-rule="nonzero" fill="rgba(98, 0, 238, 0)" stroke="none" class="fill" />
  <path d="M 217 10300  C 221.48 10300  225 10303.52  225 10308  C 225 10312.48  221.48 10316  217 10316  C 212.52 10316  209 10312.48  209 10308  C 209 10303.52  212.52 10300  217 10300  Z " stroke-width="2" stroke-dasharray="0" stroke="rgba(30, 152, 215, 1)" fill="none" class="stroke" />
  <path d="M 217 10312.5  C 214.48 10312.5  212.5 10310.52  212.5 10308  C 212.5 10305.48  214.48 10303.5  217 10303.5  C 219.52 10303.5  221.5 10305.48  221.5 10308  C 221.5 10310.52  219.52 10312.5  217 10312.5  " fill-rule="nonzero" fill="rgba(30, 152, 215, 1)" stroke="none" class="stroke btn_check" />
</svg>