<?xml version="1.0" encoding="utf-8"?>
<svg version="1.1" xmlns:xlink="http://www.w3.org/1999/xlink" width="18px" height="18px" viewBox="200 10177 18 18" xmlns="http://www.w3.org/2000/svg">
  <path d="M 200 10179  A 2 2 0 0 1 202 10177 L 216 10177  A 2 2 0 0 1 218 10179 L 218 10193  A 2 2 0 0 1 216 10195 L 202 10195  A 2 2 0 0 1 200 10193 L 200 10179  Z " fill-rule="nonzero" fill="rgba(30, 152, 215, 1)" stroke="none" class="fill" />
  <path d="M 200 10179  A 2 2 0 0 1 202 10177 L 216 10177  A 2 2 0 0 1 218 10179 L 218 10193  A 2 2 0 0 1 216 10195 L 202 10195  A 2 2 0 0 1 200 10193 L 200 10179  Z " stroke-width="0" stroke-dasharray="0" stroke="rgba(255, 255, 255, 1)" fill="none" class="stroke" />
  <path d="M 203.85714285714286 10186  L 207.71428571428572 10189.857142857143  L 214.14285714285714 10180.857142857143  " stroke-width="3.8571428571428577" stroke-dasharray="0" stroke="rgba(255, 255, 255, 1)" fill="none" class="stroke btn_check" />
</svg>