<?xml version="1.0" encoding="utf-8"?>
<svg version="1.1" xmlns:xlink="http://www.w3.org/1999/xlink" width="100px" height="51px" xmlns="http://www.w3.org/2000/svg">
  <g transform="matrix(1 0 0 1 -51 -573 )">
    <path d="M 51 573  L 151 573  L 151 624  L 51 624  L 51 573  " fill-rule="nonzero" fill="rgba(204, 204, 204, 1)" stroke="none" class="fill" />
    <path d="M 55 577  L 147 577  L 147 620  L 55 620  L 55 577  " fill-rule="nonzero" fill="rgba(255, 255, 255, 1)" stroke="none" class="fill" />
    <path d="M 106.825 588.3  C 104.683 588.3  103 586.617  103 584.4749999999999  C 103 582.333  104.683 580.65  106.825 580.65  C 108.967 580.65  110.65 582.333  110.65 584.4749999999999  C 110.65 586.617  108.967 588.3  106.825 588.3  " fill-rule="nonzero" fill="rgba(204, 204, 204, 1)" stroke="none" class="fill" />
    <path d="M 57 619  L 57 597  L 79.25 587  L 110.4 606.76  L 128.2 593  L 146 606.76  L 146 619  L 57 619  " fill-rule="nonzero" fill="rgba(22, 155, 213, 1)" stroke="none" class="fill" />
  </g>
</svg>