<?xml version="1.0" encoding="utf-8"?>
<svg version="1.1" xmlns:xlink="http://www.w3.org/1999/xlink" width="350px" height="80px" xmlns="http://www.w3.org/2000/svg">
  <defs>
    <pattern id="BGPattern" patternUnits="userSpaceOnUse" alignment="0 0" imageRepeat="None" />
    <mask fill="white" id="Clip607">
      <path d="M 0 0  L 318 0  L 322 0.45714285714285713  L 350 40  L 322 79.54285714285714  L 318 80  L 0 80  L 0 0  Z " fill-rule="evenodd" />
    </mask>
  </defs>
  <g transform="matrix(1 0 0 1 -346 -992 )">
    <path d="M 0 0  L 318 0  L 322 0.45714285714285713  L 350 40  L 322 79.54285714285714  L 318 80  L 0 80  L 0 0  Z " fill-rule="nonzero" fill="rgba(255, 255, 255, 1)" stroke="none" transform="matrix(1 0 0 1 346 992 )" class="fill" />
    <path d="M 0 0  L 318 0  L 322 0.45714285714285713  L 350 40  L 322 79.54285714285714  L 318 80  L 0 80  L 0 0  Z " stroke-width="2" stroke-dasharray="0" stroke="rgba(140, 140, 140, 1)" fill="none" transform="matrix(1 0 0 1 346 992 )" class="stroke" mask="url(#Clip607)" />
  </g>
</svg>