<?xml version="1.0" encoding="utf-8"?>
<svg version="1.1" xmlns:xlink="http://www.w3.org/1999/xlink" width="58px" height="58px" xmlns="http://www.w3.org/2000/svg">
  <defs>
    <pattern id="BGPattern" patternUnits="userSpaceOnUse" alignment="0 0" imageRepeat="None" />
    <mask fill="white" id="Clip79">
      <path d="M 0 24  C 0 10.559999999999999  10.559999999999999 0  24 0  C 37.44 0  48 10.559999999999999  48 24  C 48 37.44  37.44 48  24 48  C 10.559999999999999 48  0 37.44  0 24  Z " fill-rule="evenodd" />
    </mask>
  </defs>
  <g transform="matrix(1 0 0 1 -31 -162 )">
    <path d="M 0 24  C 0 10.559999999999999  10.559999999999999 0  24 0  C 37.44 0  48 10.559999999999999  48 24  C 48 37.44  37.44 48  24 48  C 10.559999999999999 48  0 37.44  0 24  Z " fill-rule="nonzero" fill="rgba(30, 152, 215, 1)" stroke="none" transform="matrix(1 0 0 1 36 164 )" class="fill" />
    <path d="M 0 24  C 0 10.559999999999999  10.559999999999999 0  24 0  C 37.44 0  48 10.559999999999999  48 24  C 48 37.44  37.44 48  24 48  C 10.559999999999999 48  0 37.44  0 24  Z " stroke-width="0" stroke-dasharray="0" stroke="rgba(22, 155, 213, 0)" fill="none" transform="matrix(1 0 0 1 36 164 )" class="stroke" mask="url(#Clip79)" />
  </g>
  <style>svg { filter: drop-shadow(0px 3px 2.5px rgba(0, 0, 0, 0.19607843137254902)); }</style>
</svg>