<?xml version="1.0" encoding="utf-8"?>
<svg version="1.1" xmlns:xlink="http://www.w3.org/1999/xlink" width="250px" height="80px" xmlns="http://www.w3.org/2000/svg">
  <defs>
    <pattern id="BGPattern" patternUnits="userSpaceOnUse" alignment="0 0" imageRepeat="None" />
    <mask fill="white" id="Clip130">
      <path d="M 0 0  L 218 0  L 222 0.64  L 250 40  L 222 79.36  L 218 80  L 0 80  L 0 0  Z " fill-rule="evenodd" />
    </mask>
  </defs>
  <g transform="matrix(1 0 0 1 -686 -151 )">
    <path d="M 0 0  L 218 0  L 222 0.64  L 250 40  L 222 79.36  L 218 80  L 0 80  L 0 0  Z " fill-rule="nonzero" fill="rgba(255, 255, 255, 1)" stroke="none" transform="matrix(1 0 0 1 686 151 )" class="fill" />
    <path d="M 0 0  L 218 0  L 222 0.64  L 250 40  L 222 79.36  L 218 80  L 0 80  L 0 0  Z " stroke-width="2" stroke-dasharray="0" stroke="rgba(140, 140, 140, 1)" fill="none" transform="matrix(1 0 0 1 686 151 )" class="stroke" mask="url(#Clip130)" />
  </g>
</svg>