<?xml version="1.0" encoding="utf-8"?>
<svg version="1.1" xmlns:xlink="http://www.w3.org/1999/xlink" width="23px" height="23px" xmlns="http://www.w3.org/2000/svg">
  <defs>
    <pattern id="BGPattern" patternUnits="userSpaceOnUse" alignment="0 0" imageRepeat="None" />
    <mask fill="white" id="Clip371">
      <path d="M 22.421875 10.171373555840821  C 22.807291666666668 10.515832263585793  23 10.958707744972184  23 11.5  C 23 12.031450577663673  22.807291666666668 12.479246897732134  22.421875 12.843388960205392  L 12.25 22.453786906290116  C 11.84375 22.817928968763372  11.369791666666668 23  10.828125 23  C 10.296875 23  9.828125 22.817928968763372  9.421875 22.453786906290116  L 8.25 21.346598202824133  C 7.854166666666667 20.972614462986737  7.65625 20.52481814291827  7.65625 20.00320924261874  C 7.65625 19.481600342319215  7.854166666666667 19.03380402225075  8.25 18.65982028241335  L 12.828125000000002 14  L 1.8281250000000002 14  C 1.2864583333333335 14.334403080872915  0.8463541666666667 14.14987163029525  0.5078125 13.780808729139922  C 0.16927083333333331 13.411745827984594  0 12.966409927257166  0 12.444801026957638  L 0 10.555198973042362  C 0 10.03359007274283  0.16927083333333331 9.588254172015406  0.5078125 9.219191270860078  C 0.8463541666666667 8.85012836970475  1.2864583333333335 8.665596919127086  1.8281250000000002 9  L 12.828125000000002 9  L 8.25 4.3254172015404375  C 7.854166666666667 3.971116816431322  7.65625 3.528241335044931  7.65625 2.996790757381258  C 7.65625 2.465340179717588  7.854166666666667 2.022464698331194  8.25 1.668164313222079  L 9.421875 0.5609756097560981  C 9.817708333333334 0.18699186991869765  10.286458333333334 0  10.828125 0  C 11.380208333333334 0  11.854166666666668 0.18699186991869765  12.25 0.5609756097560981  L 22.421875 10.171373555840821  Z " fill-rule="evenodd" />
    </mask>
  </defs>
  <g transform="matrix(1 0 0 1 -826 -772 )">
    <path d="M 22.421875 10.171373555840821  C 22.807291666666668 10.515832263585793  23 10.958707744972184  23 11.5  C 23 12.031450577663673  22.807291666666668 12.479246897732134  22.421875 12.843388960205392  L 12.25 22.453786906290116  C 11.84375 22.817928968763372  11.369791666666668 23  10.828125 23  C 10.296875 23  9.828125 22.817928968763372  9.421875 22.453786906290116  L 8.25 21.346598202824133  C 7.854166666666667 20.972614462986737  7.65625 20.52481814291827  7.65625 20.00320924261874  C 7.65625 19.481600342319215  7.854166666666667 19.03380402225075  8.25 18.65982028241335  L 12.828125000000002 14  L 1.8281250000000002 14  C 1.2864583333333335 14.334403080872915  0.8463541666666667 14.14987163029525  0.5078125 13.780808729139922  C 0.16927083333333331 13.411745827984594  0 12.966409927257166  0 12.444801026957638  L 0 10.555198973042362  C 0 10.03359007274283  0.16927083333333331 9.588254172015406  0.5078125 9.219191270860078  C 0.8463541666666667 8.85012836970475  1.2864583333333335 8.665596919127086  1.8281250000000002 9  L 12.828125000000002 9  L 8.25 4.3254172015404375  C 7.854166666666667 3.971116816431322  7.65625 3.528241335044931  7.65625 2.996790757381258  C 7.65625 2.465340179717588  7.854166666666667 2.022464698331194  8.25 1.668164313222079  L 9.421875 0.5609756097560981  C 9.817708333333334 0.18699186991869765  10.286458333333334 0  10.828125 0  C 11.380208333333334 0  11.854166666666668 0.18699186991869765  12.25 0.5609756097560981  L 22.421875 10.171373555840821  Z " fill-rule="nonzero" fill="rgba(0, 0, 0, 1)" stroke="none" transform="matrix(1 0 0 1 826 772 )" class="fill" />
    <path d="M 22.421875 10.171373555840821  C 22.807291666666668 10.515832263585793  23 10.958707744972184  23 11.5  C 23 12.031450577663673  22.807291666666668 12.479246897732134  22.421875 12.843388960205392  L 12.25 22.453786906290116  C 11.84375 22.817928968763372  11.369791666666668 23  10.828125 23  C 10.296875 23  9.828125 22.817928968763372  9.421875 22.453786906290116  L 8.25 21.346598202824133  C 7.854166666666667 20.972614462986737  7.65625 20.52481814291827  7.65625 20.00320924261874  C 7.65625 19.481600342319215  7.854166666666667 19.03380402225075  8.25 18.65982028241335  L 12.828125000000002 14  L 1.8281250000000002 14  C 1.2864583333333335 14.334403080872915  0.8463541666666667 14.14987163029525  0.5078125 13.780808729139922  C 0.16927083333333331 13.411745827984594  0 12.966409927257166  0 12.444801026957638  L 0 10.555198973042362  C 0 10.03359007274283  0.16927083333333331 9.588254172015406  0.5078125 9.219191270860078  C 0.8463541666666667 8.85012836970475  1.2864583333333335 8.665596919127086  1.8281250000000002 9  L 12.828125000000002 9  L 8.25 4.3254172015404375  C 7.854166666666667 3.971116816431322  7.65625 3.528241335044931  7.65625 2.996790757381258  C 7.65625 2.465340179717588  7.854166666666667 2.022464698331194  8.25 1.668164313222079  L 9.421875 0.5609756097560981  C 9.817708333333334 0.18699186991869765  10.286458333333334 0  10.828125 0  C 11.380208333333334 0  11.854166666666668 0.18699186991869765  12.25 0.5609756097560981  L 22.421875 10.171373555840821  Z " stroke-width="0" stroke-dasharray="0" stroke="rgba(255, 255, 255, 0)" fill="none" transform="matrix(1 0 0 1 826 772 )" class="stroke" mask="url(#Clip371)" />
  </g>
</svg>