<?xml version="1.0" encoding="utf-8"?>
<svg version="1.1" xmlns:xlink="http://www.w3.org/1999/xlink" width="23px" height="23px" xmlns="http://www.w3.org/2000/svg">
  <defs>
    <pattern id="BGPattern" patternUnits="userSpaceOnUse" alignment="0 0" imageRepeat="None" />
    <mask fill="white" id="Clip876">
      <path d="M 22.4921875 9.219191270860078  C 22.830729166666664 9.588254172015406  23 10.03359007274283  23 10.555198973042362  L 23 12.444801026957638  C 23 12.966409927257166  22.830729166666664 13.411745827984594  22.4921875 13.780808729139922  C 22.153645833333336 14.14987163029525  21.713541666666668 14.334403080872915  21.171875 14  L 10.171875 14  L 14.75 18.674582798459564  C 15.145833333333336 19.028883183568677  15.343750000000002 19.47175866495507  15.343750000000002 20.00320924261874  C 15.343750000000002 20.534659820282414  15.145833333333336 20.977535301668805  14.75 21.33183568677792  L 13.578125 22.453786906290116  C 13.192708333333334 22.817928968763372  12.723958333333332 23  12.171875 23  C 11.630208333333334 23  11.15625 22.817928968763372  10.75 22.453786906290116  L 0.578125 12.828626444159179  C 0.19270833333333348 12.46448438168592  0 12.021608900299528  0 11.5  C 0 10.988232777064614  0.19270833333333348 10.540436456996149  0.578125 10.156611039794608  L 10.75 0.5609756097560981  C 11.145833333333334 0.18699186991869765  11.619791666666668 0  12.171875 0  C 12.713541666666666 0  13.182291666666668 0.18699186991869765  13.578125 0.5609756097560981  L 14.75 1.6534017971758663  C 15.145833333333336 2.027385537013264  15.343750000000002 2.4751818570817257  15.343750000000002 2.996790757381258  C 15.343750000000002 3.5183996576807854  15.145833333333336 3.9661959777492495  14.75 4.34017971758665  L 10.171875 9  L 21.171875 9  C 21.713541666666668 8.665596919127086  22.153645833333336 8.85012836970475  22.4921875 9.219191270860078  Z " fill-rule="evenodd" />
    </mask>
  </defs>
  <g transform="matrix(1 0 0 1 -680 -772 )">
    <path d="M 22.4921875 9.219191270860078  C 22.830729166666664 9.588254172015406  23 10.03359007274283  23 10.555198973042362  L 23 12.444801026957638  C 23 12.966409927257166  22.830729166666664 13.411745827984594  22.4921875 13.780808729139922  C 22.153645833333336 14.14987163029525  21.713541666666668 14.334403080872915  21.171875 14  L 10.171875 14  L 14.75 18.674582798459564  C 15.145833333333336 19.028883183568677  15.343750000000002 19.47175866495507  15.343750000000002 20.00320924261874  C 15.343750000000002 20.534659820282414  15.145833333333336 20.977535301668805  14.75 21.33183568677792  L 13.578125 22.453786906290116  C 13.192708333333334 22.817928968763372  12.723958333333332 23  12.171875 23  C 11.630208333333334 23  11.15625 22.817928968763372  10.75 22.453786906290116  L 0.578125 12.828626444159179  C 0.19270833333333348 12.46448438168592  0 12.021608900299528  0 11.5  C 0 10.988232777064614  0.19270833333333348 10.540436456996149  0.578125 10.156611039794608  L 10.75 0.5609756097560981  C 11.145833333333334 0.18699186991869765  11.619791666666668 0  12.171875 0  C 12.713541666666666 0  13.182291666666668 0.18699186991869765  13.578125 0.5609756097560981  L 14.75 1.6534017971758663  C 15.145833333333336 2.027385537013264  15.343750000000002 2.4751818570817257  15.343750000000002 2.996790757381258  C 15.343750000000002 3.5183996576807854  15.145833333333336 3.9661959777492495  14.75 4.34017971758665  L 10.171875 9  L 21.171875 9  C 21.713541666666668 8.665596919127086  22.153645833333336 8.85012836970475  22.4921875 9.219191270860078  Z " fill-rule="nonzero" fill="rgba(0, 0, 0, 1)" stroke="none" transform="matrix(1 0 0 1 680 772 )" class="fill" />
    <path d="M 22.4921875 9.219191270860078  C 22.830729166666664 9.588254172015406  23 10.03359007274283  23 10.555198973042362  L 23 12.444801026957638  C 23 12.966409927257166  22.830729166666664 13.411745827984594  22.4921875 13.780808729139922  C 22.153645833333336 14.14987163029525  21.713541666666668 14.334403080872915  21.171875 14  L 10.171875 14  L 14.75 18.674582798459564  C 15.145833333333336 19.028883183568677  15.343750000000002 19.47175866495507  15.343750000000002 20.00320924261874  C 15.343750000000002 20.534659820282414  15.145833333333336 20.977535301668805  14.75 21.33183568677792  L 13.578125 22.453786906290116  C 13.192708333333334 22.817928968763372  12.723958333333332 23  12.171875 23  C 11.630208333333334 23  11.15625 22.817928968763372  10.75 22.453786906290116  L 0.578125 12.828626444159179  C 0.19270833333333348 12.46448438168592  0 12.021608900299528  0 11.5  C 0 10.988232777064614  0.19270833333333348 10.540436456996149  0.578125 10.156611039794608  L 10.75 0.5609756097560981  C 11.145833333333334 0.18699186991869765  11.619791666666668 0  12.171875 0  C 12.713541666666666 0  13.182291666666668 0.18699186991869765  13.578125 0.5609756097560981  L 14.75 1.6534017971758663  C 15.145833333333336 2.027385537013264  15.343750000000002 2.4751818570817257  15.343750000000002 2.996790757381258  C 15.343750000000002 3.5183996576807854  15.145833333333336 3.9661959777492495  14.75 4.34017971758665  L 10.171875 9  L 21.171875 9  C 21.713541666666668 8.665596919127086  22.153645833333336 8.85012836970475  22.4921875 9.219191270860078  Z " stroke-width="0" stroke-dasharray="0" stroke="rgba(255, 255, 255, 0)" fill="none" transform="matrix(1 0 0 1 680 772 )" class="stroke" mask="url(#Clip876)" />
  </g>
</svg>