<?xml version="1.0" encoding="utf-8"?>
<svg version="1.1" xmlns:xlink="http://www.w3.org/1999/xlink" width="18px" height="18px" viewBox="141 74 18 18" xmlns="http://www.w3.org/2000/svg">
  <path d="M 141 76  A 2 2 0 0 1 143 74 L 157 74  A 2 2 0 0 1 159 76 L 159 90  A 2 2 0 0 1 157 92 L 143 92  A 2 2 0 0 1 141 90 L 141 76  Z " fill-rule="nonzero" fill="rgba(30, 152, 215, 1)" stroke="none" class="fill" />
  <path d="M 141 76  A 2 2 0 0 1 143 74 L 157 74  A 2 2 0 0 1 159 76 L 159 90  A 2 2 0 0 1 157 92 L 143 92  A 2 2 0 0 1 141 90 L 141 76  Z " stroke-width="0" stroke-dasharray="0" stroke="rgba(255, 255, 255, 1)" fill="none" class="stroke" />
  <path d="M 144.85714285714286 83  L 148.71428571428572 86.85714285714285  L 155.14285714285714 77.85714285714286  " stroke-width="3.8571428571428577" stroke-dasharray="0" stroke="rgba(255, 255, 255, 1)" fill="none" class="stroke btn_check" />
</svg>