<?xml version="1.0" encoding="utf-8"?>
<svg version="1.1" xmlns:xlink="http://www.w3.org/1999/xlink" width="18px" height="18px" viewBox="141 20 18 18" xmlns="http://www.w3.org/2000/svg">
  <path d="M 141 22  A 2 2 0 0 1 143 20 L 157 20  A 2 2 0 0 1 159 22 L 159 36  A 2 2 0 0 1 157 38 L 143 38  A 2 2 0 0 1 141 36 L 141 22  Z " fill-rule="nonzero" fill="rgba(30, 152, 215, 1)" stroke="none" class="fill" />
  <path d="M 141 22  A 2 2 0 0 1 143 20 L 157 20  A 2 2 0 0 1 159 22 L 159 36  A 2 2 0 0 1 157 38 L 143 38  A 2 2 0 0 1 141 36 L 141 22  Z " stroke-width="0" stroke-dasharray="0" stroke="rgba(255, 255, 255, 1)" fill="none" class="stroke" />
  <path d="M 144.85714285714286 29  L 148.71428571428572 32.857142857142854  L 155.14285714285714 23.857142857142858  " stroke-width="3.8571428571428577" stroke-dasharray="0" stroke="rgba(255, 255, 255, 1)" fill="none" class="stroke btn_check" />
</svg>