<?xml version="1.0" encoding="utf-8"?>
<svg version="1.1" xmlns:xlink="http://www.w3.org/1999/xlink" width="18px" height="18px" viewBox="141 47 18 18" xmlns="http://www.w3.org/2000/svg">
  <path d="M 141 49  A 2 2 0 0 1 143 47 L 157 47  A 2 2 0 0 1 159 49 L 159 63  A 2 2 0 0 1 157 65 L 143 65  A 2 2 0 0 1 141 63 L 141 49  Z " fill-rule="nonzero" fill="rgba(255, 255, 255, 0)" stroke="none" class="fill" />
  <path d="M 142 49  A 1 1 0 0 1 143 48 L 157 48  A 1 1 0 0 1 158 49 L 158 63  A 1 1 0 0 1 157 64 L 143 64  A 1 1 0 0 1 142 63 L 142 49  Z " stroke-width="2" stroke-dasharray="0" stroke="rgba(121, 121, 121, 1)" fill="none" class="stroke" />
  <path d="M 144.85714285714286 56  L 148.71428571428572 59.857142857142854  L 155.14285714285714 50.85714285714286  " stroke-width="3.8571428571428577" stroke-dasharray="0" stroke="rgba(121, 121, 121, 1)" fill="none" class="stroke btn_check" />
</svg>