<?xml version="1.0" encoding="utf-8"?>
<svg version="1.1" xmlns:xlink="http://www.w3.org/1999/xlink" width="18px" height="18px" viewBox="415 47 18 18" xmlns="http://www.w3.org/2000/svg">
  <path d="M 415 49  A 2 2 0 0 1 417 47 L 431 47  A 2 2 0 0 1 433 49 L 433 63  A 2 2 0 0 1 431 65 L 417 65  A 2 2 0 0 1 415 63 L 415 49  Z " fill-rule="nonzero" fill="rgba(255, 255, 255, 0)" stroke="none" class="fill" />
  <path d="M 416 49  A 1 1 0 0 1 417 48 L 431 48  A 1 1 0 0 1 432 49 L 432 63  A 1 1 0 0 1 431 64 L 417 64  A 1 1 0 0 1 416 63 L 416 49  Z " stroke-width="2" stroke-dasharray="0" stroke="rgba(121, 121, 121, 1)" fill="none" class="stroke" />
  <path d="M 418.85714285714283 56  L 422.7142857142857 59.857142857142854  L 429.14285714285717 50.85714285714286  " stroke-width="3.8571428571428577" stroke-dasharray="0" stroke="rgba(121, 121, 121, 1)" fill="none" class="stroke btn_check" />
</svg>