<?xml version="1.0" encoding="utf-8"?>
<svg version="1.1" xmlns:xlink="http://www.w3.org/1999/xlink" width="18px" height="18px" viewBox="569 74 18 18" xmlns="http://www.w3.org/2000/svg">
  <path d="M 569 76  A 2 2 0 0 1 571 74 L 585 74  A 2 2 0 0 1 587 76 L 587 90  A 2 2 0 0 1 585 92 L 571 92  A 2 2 0 0 1 569 90 L 569 76  Z " fill-rule="nonzero" fill="rgba(255, 255, 255, 0)" stroke="none" class="fill" />
  <path d="M 570 76  A 1 1 0 0 1 571 75 L 585 75  A 1 1 0 0 1 586 76 L 586 90  A 1 1 0 0 1 585 91 L 571 91  A 1 1 0 0 1 570 90 L 570 76  Z " stroke-width="2" stroke-dasharray="0" stroke="rgba(121, 121, 121, 1)" fill="none" class="stroke" />
  <path d="M 572.8571428571429 83  L 576.7142857142857 86.85714285714285  L 583.1428571428571 77.85714285714286  " stroke-width="3.8571428571428577" stroke-dasharray="0" stroke="rgba(121, 121, 121, 1)" fill="none" class="stroke btn_check" />
</svg>