<?xml version="1.0" encoding="utf-8"?>
<svg version="1.1" xmlns:xlink="http://www.w3.org/1999/xlink" width="18px" height="18px" viewBox="415 100 18 18" xmlns="http://www.w3.org/2000/svg">
  <path d="M 415 102  A 2 2 0 0 1 417 100 L 431 100  A 2 2 0 0 1 433 102 L 433 116  A 2 2 0 0 1 431 118 L 417 118  A 2 2 0 0 1 415 116 L 415 102  Z " fill-rule="nonzero" fill="rgba(255, 255, 255, 0)" stroke="none" class="fill" />
  <path d="M 416 102  A 1 1 0 0 1 417 101 L 431 101  A 1 1 0 0 1 432 102 L 432 116  A 1 1 0 0 1 431 117 L 417 117  A 1 1 0 0 1 416 116 L 416 102  Z " stroke-width="2" stroke-dasharray="0" stroke="rgba(121, 121, 121, 1)" fill="none" class="stroke" />
  <path d="M 418.85714285714283 109  L 422.7142857142857 112.85714285714285  L 429.14285714285717 103.85714285714286  " stroke-width="3.8571428571428577" stroke-dasharray="0" stroke="rgba(121, 121, 121, 1)" fill="none" class="stroke btn_check" />
</svg>