<?xml version="1.0" encoding="utf-8"?>
<svg version="1.1" xmlns:xlink="http://www.w3.org/1999/xlink" width="18px" height="18px" viewBox="569 47 18 18" xmlns="http://www.w3.org/2000/svg">
  <path d="M 569 49  A 2 2 0 0 1 571 47 L 585 47  A 2 2 0 0 1 587 49 L 587 63  A 2 2 0 0 1 585 65 L 571 65  A 2 2 0 0 1 569 63 L 569 49  Z " fill-rule="nonzero" fill="rgba(30, 152, 215, 1)" stroke="none" class="fill" />
  <path d="M 569 49  A 2 2 0 0 1 571 47 L 585 47  A 2 2 0 0 1 587 49 L 587 63  A 2 2 0 0 1 585 65 L 571 65  A 2 2 0 0 1 569 63 L 569 49  Z " stroke-width="0" stroke-dasharray="0" stroke="rgba(255, 255, 255, 1)" fill="none" class="stroke" />
  <path d="M 572.8571428571429 56  L 576.7142857142857 59.857142857142854  L 583.1428571428571 50.85714285714286  " stroke-width="3.8571428571428577" stroke-dasharray="0" stroke="rgba(255, 255, 255, 1)" fill="none" class="stroke btn_check" />
</svg>