<?xml version="1.0" encoding="utf-8"?>
<svg version="1.1" xmlns:xlink="http://www.w3.org/1999/xlink" width="18px" height="18px" viewBox="415 74 18 18" xmlns="http://www.w3.org/2000/svg">
  <path d="M 415 76  A 2 2 0 0 1 417 74 L 431 74  A 2 2 0 0 1 433 76 L 433 90  A 2 2 0 0 1 431 92 L 417 92  A 2 2 0 0 1 415 90 L 415 76  Z " fill-rule="nonzero" fill="rgba(30, 152, 215, 1)" stroke="none" class="fill" />
  <path d="M 415 76  A 2 2 0 0 1 417 74 L 431 74  A 2 2 0 0 1 433 76 L 433 90  A 2 2 0 0 1 431 92 L 417 92  A 2 2 0 0 1 415 90 L 415 76  Z " stroke-width="0" stroke-dasharray="0" stroke="rgba(255, 255, 255, 1)" fill="none" class="stroke" />
  <path d="M 418.85714285714283 83  L 422.7142857142857 86.85714285714285  L 429.14285714285717 77.85714285714286  " stroke-width="3.8571428571428577" stroke-dasharray="0" stroke="rgba(255, 255, 255, 1)" fill="none" class="stroke btn_check" />
</svg>