<?xml version="1.0" encoding="utf-8"?>
<svg version="1.1" xmlns:xlink="http://www.w3.org/1999/xlink" width="18px" height="18px" viewBox="19 8 18 18" xmlns="http://www.w3.org/2000/svg">
  <path d="M 28 8  C 33.04 8  37 11.959999999999999  37 17  C 37 22.04  33.04 26  28 26  C 22.96 26  19 22.04  19 17  C 19 11.959999999999999  22.96 8  28 8  Z " fill-rule="nonzero" fill="rgba(98, 0, 238, 0)" stroke="none" class="fill" />
  <path d="M 28 9  C 32.480000000000004 9  36 12.52  36 17  C 36 21.48  32.480000000000004 25  28 25  C 23.52 25  20 21.48  20 17  C 20 12.52  23.52 9  28 9  Z " stroke-width="2" stroke-dasharray="0" stroke="rgba(30, 152, 215, 1)" fill="none" class="stroke" />
  <path d="M 28 21.5  C 25.48 21.5  23.5 19.52  23.5 17  C 23.5 14.48  25.48 12.5  28 12.5  C 30.52 12.5  32.5 14.48  32.5 17  C 32.5 19.52  30.52 21.5  28 21.5  " fill-rule="nonzero" fill="rgba(30, 152, 215, 1)" stroke="none" class="stroke btn_check" />
</svg>