<?xml version="1.0" encoding="utf-8"?>
<svg version="1.1" xmlns:xlink="http://www.w3.org/1999/xlink" width="18px" height="18px" viewBox="49 8 18 18" xmlns="http://www.w3.org/2000/svg">
  <path d="M 58 8  C 63.04 8  67 11.959999999999999  67 17  C 67 22.04  63.04 26  58 26  C 52.96 26  49 22.04  49 17  C 49 11.959999999999999  52.96 8  58 8  Z " fill-rule="nonzero" fill="rgba(255, 255, 255, 0)" stroke="none" class="fill" />
  <path d="M 58 9  C 62.480000000000004 9  66 12.52  66 17  C 66 21.48  62.480000000000004 25  58 25  C 53.519999999999996 25  50 21.48  50 17  C 50 12.52  53.519999999999996 9  58 9  Z " stroke-width="2" stroke-dasharray="0" stroke="rgba(121, 121, 121, 1)" fill="none" class="stroke" />
  <path d="M 58 21.5  C 55.48 21.5  53.5 19.52  53.5 17  C 53.5 14.48  55.48 12.5  58 12.5  C 60.52 12.5  62.5 14.48  62.5 17  C 62.5 19.52  60.52 21.5  58 21.5  " fill-rule="nonzero" fill="rgba(121, 121, 121, 1)" stroke="none" class="stroke btn_check" />
</svg>