<?xml version="1.0" encoding="utf-8"?>
<svg version="1.1" xmlns:xlink="http://www.w3.org/1999/xlink" width="18px" height="18px" viewBox="169 17 18 18" xmlns="http://www.w3.org/2000/svg">
  <path d="M 178 17  C 183.04 17  187 20.96  187 26  C 187 31.04  183.04 35  178 35  C 172.96 35  169 31.04  169 26  C 169 20.96  172.96 17  178 17  Z " fill-rule="nonzero" fill="rgba(255, 255, 255, 0)" stroke="none" class="fill" />
  <path d="M 178 18  C 182.48 18  186 21.52  186 26  C 186 30.48  182.48 34  178 34  C 173.52 34  170 30.48  170 26  C 170 21.52  173.52 18  178 18  Z " stroke-width="2" stroke-dasharray="0" stroke="rgba(121, 121, 121, 1)" fill="none" class="stroke" />
  <path d="M 178 30.5  C 175.48 30.5  173.5 28.52  173.5 26  C 173.5 23.48  175.48 21.5  178 21.5  C 180.52 21.5  182.5 23.48  182.5 26  C 182.5 28.52  180.52 30.5  178 30.5  " fill-rule="nonzero" fill="rgba(121, 121, 121, 1)" stroke="none" class="stroke btn_check" />
</svg>