<?xml version="1.0" encoding="utf-8"?>
<svg version="1.1" xmlns:xlink="http://www.w3.org/1999/xlink" width="18px" height="18px" viewBox="248 17 18 18" xmlns="http://www.w3.org/2000/svg">
  <path d="M 257 17  C 262.04 17  266 20.96  266 26  C 266 31.04  262.04 35  257 35  C 251.96 35  248 31.04  248 26  C 248 20.96  251.96 17  257 17  Z " fill-rule="nonzero" fill="rgba(255, 255, 255, 0)" stroke="none" class="fill" />
  <path d="M 257 18  C 261.48 18  265 21.52  265 26  C 265 30.48  261.48 34  257 34  C 252.52 34  249 30.48  249 26  C 249 21.52  252.52 18  257 18  Z " stroke-width="2" stroke-dasharray="0" stroke="rgba(121, 121, 121, 1)" fill="none" class="stroke" />
  <path d="M 257 30.5  C 254.48 30.5  252.5 28.52  252.5 26  C 252.5 23.48  254.48 21.5  257 21.5  C 259.52 21.5  261.5 23.48  261.5 26  C 261.5 28.52  259.52 30.5  257 30.5  " fill-rule="nonzero" fill="rgba(121, 121, 121, 1)" stroke="none" class="stroke btn_check" />
</svg>