<?xml version="1.0" encoding="utf-8"?>
<svg version="1.1" xmlns:xlink="http://www.w3.org/1999/xlink" width="18px" height="18px" viewBox="332 17 18 18" xmlns="http://www.w3.org/2000/svg">
  <path d="M 341 17  C 346.04 17  350 20.96  350 26  C 350 31.04  346.04 35  341 35  C 335.96 35  332 31.04  332 26  C 332 20.96  335.96 17  341 17  Z " fill-rule="nonzero" fill="rgba(98, 0, 238, 0)" stroke="none" class="fill" />
  <path d="M 341 18  C 345.48 18  349 21.52  349 26  C 349 30.48  345.48 34  341 34  C 336.52 34  333 30.48  333 26  C 333 21.52  336.52 18  341 18  Z " stroke-width="2" stroke-dasharray="0" stroke="rgba(30, 152, 215, 1)" fill="none" class="stroke" />
  <path d="M 341 30.5  C 338.48 30.5  336.5 28.52  336.5 26  C 336.5 23.48  338.48 21.5  341 21.5  C 343.52 21.5  345.5 23.48  345.5 26  C 345.5 28.52  343.52 30.5  341 30.5  " fill-rule="nonzero" fill="rgba(30, 152, 215, 1)" stroke="none" class="stroke btn_check" />
</svg>