<?xml version="1.0" encoding="utf-8"?>
<svg version="1.1" xmlns:xlink="http://www.w3.org/1999/xlink" width="18px" height="18px" viewBox="789 177 18 18" xmlns="http://www.w3.org/2000/svg">
  <path d="M 789 179  A 2 2 0 0 1 791 177 L 805 177  A 2 2 0 0 1 807 179 L 807 193  A 2 2 0 0 1 805 195 L 791 195  A 2 2 0 0 1 789 193 L 789 179  Z " fill-rule="nonzero" fill="rgba(255, 255, 255, 0)" stroke="none" class="fill" />
  <path d="M 790 179  A 1 1 0 0 1 791 178 L 805 178  A 1 1 0 0 1 806 179 L 806 193  A 1 1 0 0 1 805 194 L 791 194  A 1 1 0 0 1 790 193 L 790 179  Z " stroke-width="2" stroke-dasharray="0" stroke="rgba(121, 121, 121, 1)" fill="none" class="stroke" />
  <path d="M 792.8571428571429 186  L 796.7142857142857 189.85714285714286  L 803.1428571428571 180.85714285714286  " stroke-width="3.8571428571428577" stroke-dasharray="0" stroke="rgba(121, 121, 121, 1)" fill="none" class="stroke btn_check" />
</svg>