<?xml version="1.0" encoding="utf-8"?>
<svg version="1.1" xmlns:xlink="http://www.w3.org/1999/xlink" width="18px" height="18px" viewBox="789 143 18 18" xmlns="http://www.w3.org/2000/svg">
  <path d="M 789 145  A 2 2 0 0 1 791 143 L 805 143  A 2 2 0 0 1 807 145 L 807 159  A 2 2 0 0 1 805 161 L 791 161  A 2 2 0 0 1 789 159 L 789 145  Z " fill-rule="nonzero" fill="rgba(255, 255, 255, 0)" stroke="none" class="fill" />
  <path d="M 790 145  A 1 1 0 0 1 791 144 L 805 144  A 1 1 0 0 1 806 145 L 806 159  A 1 1 0 0 1 805 160 L 791 160  A 1 1 0 0 1 790 159 L 790 145  Z " stroke-width="2" stroke-dasharray="0" stroke="rgba(121, 121, 121, 1)" fill="none" class="stroke" />
  <path d="M 792.8571428571429 152  L 796.7142857142857 155.85714285714286  L 803.1428571428571 146.85714285714286  " stroke-width="3.8571428571428577" stroke-dasharray="0" stroke="rgba(121, 121, 121, 1)" fill="none" class="stroke btn_check" />
</svg>