<?xml version="1.0" encoding="utf-8"?>
<svg version="1.1" xmlns:xlink="http://www.w3.org/1999/xlink" width="170px" height="87px" xmlns="http://www.w3.org/2000/svg">
  <g transform="matrix(1 0 0 1 -508 -9 )">
    <path d="M 508 9  L 678 9  L 678 96  L 508 96  L 508 9  " fill-rule="nonzero" fill="rgba(204, 204, 204, 1)" stroke="none" class="fill" />
    <path d="M 514 15  L 672 15  L 672 90  L 514 90  L 514 15  " fill-rule="nonzero" fill="rgba(255, 255, 255, 1)" stroke="none" class="fill" />
    <path d="M 602.925 35.099999999999994  C 599.271 35.099999999999994  596.4 32.22899999999999  596.4 28.574999999999996  C 596.4 24.920999999999996  599.271 22.049999999999997  602.925 22.049999999999997  C 606.579 22.049999999999997  609.4499999999999 24.920999999999996  609.4499999999999 28.574999999999996  C 609.4499999999999 32.22899999999999  606.579 35.099999999999994  602.925 35.099999999999994  " fill-rule="nonzero" fill="rgba(204, 204, 204, 1)" stroke="none" class="fill" />
    <path d="M 516 88  L 516 48.949999999999996  L 554.5 31.199999999999996  L 608.4 66.19882352941177  L 639.2 41.85  L 670 66.19882352941177  L 670 88  L 516 88  " fill-rule="nonzero" fill="rgba(22, 155, 213, 1)" stroke="none" class="fill" />
  </g>
</svg>