<?xml version="1.0" encoding="utf-8"?>
<svg version="1.1" xmlns:xlink="http://www.w3.org/1999/xlink" width="20px" height="30px" xmlns="http://www.w3.org/2000/svg">
  <defs>
    <pattern id="BGPattern" patternUnits="userSpaceOnUse" alignment="0 0" imageRepeat="None" />
    <mask fill="white" id="Clip180">
      <path d="M 0 15  C 0 6.6  4.3999999999999995 0  10 0  C 15.600000000000001 0  20 6.6  20 15  C 20 23.400000000000002  15.600000000000001 30  10 30  C 4.3999999999999995 30  0 23.400000000000002  0 15  Z " fill-rule="evenodd" />
    </mask>
  </defs>
  <g transform="matrix(1 0 0 1 -344 -184 )">
    <path d="M 0 15  C 0 6.6  4.3999999999999995 0  10 0  C 15.600000000000001 0  20 6.6  20 15  C 20 23.400000000000002  15.600000000000001 30  10 30  C 4.3999999999999995 30  0 23.400000000000002  0 15  Z " fill-rule="nonzero" fill="rgba(228, 228, 228, 1)" stroke="none" transform="matrix(1 0 0 1 344 184 )" class="fill" />
    <path d="M 0 15  C 0 6.6  4.3999999999999995 0  10 0  C 15.600000000000001 0  20 6.6  20 15  C 20 23.400000000000002  15.600000000000001 30  10 30  C 4.3999999999999995 30  0 23.400000000000002  0 15  Z " stroke-width="4" stroke-dasharray="0" stroke="rgba(255, 204, 0, 1)" fill="none" transform="matrix(1 0 0 1 344 184 )" class="stroke" mask="url(#Clip180)" />
  </g>
</svg>