<?xml version="1.0" encoding="utf-8"?>
<svg version="1.1" xmlns:xlink="http://www.w3.org/1999/xlink" width="18px" height="18px" viewBox="611 20 18 18" xmlns="http://www.w3.org/2000/svg">
  <path d="M 620 20  C 625.04 20  629 23.96  629 29  C 629 34.04  625.04 38  620 38  C 614.96 38  611 34.04  611 29  C 611 23.96  614.96 20  620 20  Z " fill-rule="nonzero" fill="rgba(255, 255, 255, 0)" stroke="none" class="fill" />
  <path d="M 620 21  C 624.48 21  628 24.52  628 29  C 628 33.480000000000004  624.48 37  620 37  C 615.52 37  612 33.480000000000004  612 29  C 612 24.52  615.52 21  620 21  Z " stroke-width="2" stroke-dasharray="0" stroke="rgba(121, 121, 121, 1)" fill="none" class="stroke" />
  <path d="M 620 33.5  C 617.48 33.5  615.5 31.52  615.5 29  C 615.5 26.48  617.48 24.5  620 24.5  C 622.52 24.5  624.5 26.48  624.5 29  C 624.5 31.52  622.52 33.5  620 33.5  " fill-rule="nonzero" fill="rgba(121, 121, 121, 1)" stroke="none" class="stroke btn_check" />
</svg>