<?xml version="1.0" encoding="utf-8"?>
<svg version="1.1" xmlns:xlink="http://www.w3.org/1999/xlink" width="18px" height="18px" viewBox="795 113 18 18" xmlns="http://www.w3.org/2000/svg">
  <path d="M 795 115  A 2 2 0 0 1 797 113 L 811 113  A 2 2 0 0 1 813 115 L 813 129  A 2 2 0 0 1 811 131 L 797 131  A 2 2 0 0 1 795 129 L 795 115  Z " fill-rule="nonzero" fill="rgba(255, 255, 255, 0)" stroke="none" class="fill" />
  <path d="M 796 115  A 1 1 0 0 1 797 114 L 811 114  A 1 1 0 0 1 812 115 L 812 129  A 1 1 0 0 1 811 130 L 797 130  A 1 1 0 0 1 796 129 L 796 115  Z " stroke-width="2" stroke-dasharray="0" stroke="rgba(121, 121, 121, 1)" fill="none" class="stroke" />
  <path d="M 798.8571428571429 122  L 802.7142857142857 125.85714285714285  L 809.1428571428571 116.85714285714286  " stroke-width="3.8571428571428577" stroke-dasharray="0" stroke="rgba(121, 121, 121, 1)" fill="none" class="stroke btn_check" />
</svg>