<?xml version="1.0" encoding="utf-8"?>
<svg version="1.1" xmlns:xlink="http://www.w3.org/1999/xlink" width="18px" height="18px" viewBox="795 79 18 18" xmlns="http://www.w3.org/2000/svg">
  <path d="M 795 81  A 2 2 0 0 1 797 79 L 811 79  A 2 2 0 0 1 813 81 L 813 95  A 2 2 0 0 1 811 97 L 797 97  A 2 2 0 0 1 795 95 L 795 81  Z " fill-rule="nonzero" fill="rgba(255, 255, 255, 0)" stroke="none" class="fill" />
  <path d="M 796 81  A 1 1 0 0 1 797 80 L 811 80  A 1 1 0 0 1 812 81 L 812 95  A 1 1 0 0 1 811 96 L 797 96  A 1 1 0 0 1 796 95 L 796 81  Z " stroke-width="2" stroke-dasharray="0" stroke="rgba(121, 121, 121, 1)" fill="none" class="stroke" />
  <path d="M 798.8571428571429 88  L 802.7142857142857 91.85714285714285  L 809.1428571428571 82.85714285714286  " stroke-width="3.8571428571428577" stroke-dasharray="0" stroke="rgba(121, 121, 121, 1)" fill="none" class="stroke btn_check" />
</svg>