<?xml version="1.0" encoding="utf-8"?>
<svg version="1.1" xmlns:xlink="http://www.w3.org/1999/xlink" width="18px" height="18px" viewBox="114 20 18 18" xmlns="http://www.w3.org/2000/svg">
  <path d="M 123 20  C 128.04 20  132 23.96  132 29  C 132 34.04  128.04 38  123 38  C 117.96 38  114 34.04  114 29  C 114 23.96  117.96 20  123 20  Z " fill-rule="nonzero" fill="rgba(98, 0, 238, 0)" stroke="none" class="fill" />
  <path d="M 123 21  C 127.48 21  131 24.52  131 29  C 131 33.480000000000004  127.48 37  123 37  C 118.52 37  115 33.480000000000004  115 29  C 115 24.52  118.52 21  123 21  Z " stroke-width="2" stroke-dasharray="0" stroke="rgba(30, 152, 215, 1)" fill="none" class="stroke" />
  <path d="M 123 33.5  C 120.48 33.5  118.5 31.52  118.5 29  C 118.5 26.48  120.48 24.5  123 24.5  C 125.52 24.5  127.5 26.48  127.5 29  C 127.5 31.52  125.52 33.5  123 33.5  " fill-rule="nonzero" fill="rgba(30, 152, 215, 1)" stroke="none" class="stroke btn_check" />
</svg>