<?xml version="1.0" encoding="utf-8"?>
<svg version="1.1" xmlns:xlink="http://www.w3.org/1999/xlink" width="18px" height="18px" viewBox="175 20 18 18" xmlns="http://www.w3.org/2000/svg">
  <path d="M 184 20  C 189.04 20  193 23.96  193 29  C 193 34.04  189.04 38  184 38  C 178.96 38  175 34.04  175 29  C 175 23.96  178.96 20  184 20  Z " fill-rule="nonzero" fill="rgba(98, 0, 238, 0)" stroke="none" class="fill" />
  <path d="M 184 21  C 188.48 21  192 24.52  192 29  C 192 33.480000000000004  188.48 37  184 37  C 179.52 37  176 33.480000000000004  176 29  C 176 24.52  179.52 21  184 21  Z " stroke-width="2" stroke-dasharray="0" stroke="rgba(30, 152, 215, 1)" fill="none" class="stroke" />
  <path d="M 184 33.5  C 181.48 33.5  179.5 31.52  179.5 29  C 179.5 26.48  181.48 24.5  184 24.5  C 186.52 24.5  188.5 26.48  188.5 29  C 188.5 31.52  186.52 33.5  184 33.5  " fill-rule="nonzero" fill="rgba(30, 152, 215, 1)" stroke="none" class="stroke btn_check" />
</svg>