<?xml version="1.0" encoding="utf-8"?>
<svg version="1.1" xmlns:xlink="http://www.w3.org/1999/xlink" width="18px" height="18px" viewBox="683 20 18 18" xmlns="http://www.w3.org/2000/svg">
  <path d="M 692 20  C 697.04 20  701 23.96  701 29  C 701 34.04  697.04 38  692 38  C 686.96 38  683 34.04  683 29  C 683 23.96  686.96 20  692 20  Z " fill-rule="nonzero" fill="rgba(255, 255, 255, 0)" stroke="none" class="fill" />
  <path d="M 692 21  C 696.48 21  700 24.52  700 29  C 700 33.480000000000004  696.48 37  692 37  C 687.52 37  684 33.480000000000004  684 29  C 684 24.52  687.52 21  692 21  Z " stroke-width="2" stroke-dasharray="0" stroke="rgba(121, 121, 121, 1)" fill="none" class="stroke" />
  <path d="M 692 33.5  C 689.48 33.5  687.5 31.52  687.5 29  C 687.5 26.48  689.48 24.5  692 24.5  C 694.52 24.5  696.5 26.48  696.5 29  C 696.5 31.52  694.52 33.5  692 33.5  " fill-rule="nonzero" fill="rgba(121, 121, 121, 1)" stroke="none" class="stroke btn_check" />
</svg>