<?xml version="1.0" encoding="utf-8"?>
<svg version="1.1" xmlns:xlink="http://www.w3.org/1999/xlink" width="18px" height="18px" viewBox="61 28 18 18" xmlns="http://www.w3.org/2000/svg">
  <path d="M 70 28  C 75.04 28  79 31.96  79 37  C 79 42.04  75.04 46  70 46  C 64.96 46  61 42.04  61 37  C 61 31.96  64.96 28  70 28  Z " fill-rule="nonzero" fill="rgba(255, 255, 255, 0)" stroke="none" class="fill" />
  <path d="M 70 29  C 74.48 29  78 32.519999999999996  78 37  C 78 41.480000000000004  74.48 45  70 45  C 65.52 45  62 41.480000000000004  62 37  C 62 32.519999999999996  65.52 29  70 29  Z " stroke-width="2" stroke-dasharray="0" stroke="rgba(121, 121, 121, 1)" fill="none" class="stroke" />
  <path d="M 70 41.5  C 67.48 41.5  65.5 39.52  65.5 37  C 65.5 34.48  67.48 32.5  70 32.5  C 72.52 32.5  74.5 34.48  74.5 37  C 74.5 39.52  72.52 41.5  70 41.5  " fill-rule="nonzero" fill="rgba(121, 121, 121, 1)" stroke="none" class="stroke btn_check" />
</svg>