<?xml version="1.0" encoding="utf-8"?>
<svg version="1.1" xmlns:xlink="http://www.w3.org/1999/xlink" width="18px" height="18px" viewBox="285 28 18 18" xmlns="http://www.w3.org/2000/svg">
  <path d="M 294 28  C 299.04 28  303 31.96  303 37  C 303 42.04  299.04 46  294 46  C 288.96 46  285 42.04  285 37  C 285 31.96  288.96 28  294 28  Z " fill-rule="nonzero" fill="rgba(255, 255, 255, 0)" stroke="none" class="fill" />
  <path d="M 294 29  C 298.48 29  302 32.519999999999996  302 37  C 302 41.480000000000004  298.48 45  294 45  C 289.52 45  286 41.480000000000004  286 37  C 286 32.519999999999996  289.52 29  294 29  Z " stroke-width="2" stroke-dasharray="0" stroke="rgba(121, 121, 121, 1)" fill="none" class="stroke" />
  <path d="M 294 41.5  C 291.48 41.5  289.5 39.52  289.5 37  C 289.5 34.48  291.48 32.5  294 32.5  C 296.52 32.5  298.5 34.48  298.5 37  C 298.5 39.52  296.52 41.5  294 41.5  " fill-rule="nonzero" fill="rgba(121, 121, 121, 1)" stroke="none" class="stroke btn_check" />
</svg>