<?xml version="1.0" encoding="utf-8"?>
<svg version="1.1" xmlns:xlink="http://www.w3.org/1999/xlink" width="18px" height="18px" viewBox="791 85 18 18" xmlns="http://www.w3.org/2000/svg">
  <path d="M 791 87  A 2 2 0 0 1 793 85 L 807 85  A 2 2 0 0 1 809 87 L 809 101  A 2 2 0 0 1 807 103 L 793 103  A 2 2 0 0 1 791 101 L 791 87  Z " fill-rule="nonzero" fill="rgba(255, 255, 255, 0)" stroke="none" class="fill" />
  <path d="M 792 87  A 1 1 0 0 1 793 86 L 807 86  A 1 1 0 0 1 808 87 L 808 101  A 1 1 0 0 1 807 102 L 793 102  A 1 1 0 0 1 792 101 L 792 87  Z " stroke-width="2" stroke-dasharray="0" stroke="rgba(121, 121, 121, 1)" fill="none" class="stroke" />
  <path d="M 794.8571428571429 94  L 798.7142857142857 97.85714285714285  L 805.1428571428571 88.85714285714286  " stroke-width="3.8571428571428577" stroke-dasharray="0" stroke="rgba(121, 121, 121, 1)" fill="none" class="stroke btn_check" />
</svg>