<?xml version="1.0" encoding="utf-8"?>
<svg version="1.1" xmlns:xlink="http://www.w3.org/1999/xlink" width="18px" height="18px" viewBox="791 118 18 18" xmlns="http://www.w3.org/2000/svg">
  <path d="M 791 120  A 2 2 0 0 1 793 118 L 807 118  A 2 2 0 0 1 809 120 L 809 134  A 2 2 0 0 1 807 136 L 793 136  A 2 2 0 0 1 791 134 L 791 120  Z " fill-rule="nonzero" fill="rgba(30, 152, 215, 1)" stroke="none" class="fill" />
  <path d="M 791 120  A 2 2 0 0 1 793 118 L 807 118  A 2 2 0 0 1 809 120 L 809 134  A 2 2 0 0 1 807 136 L 793 136  A 2 2 0 0 1 791 134 L 791 120  Z " stroke-width="0" stroke-dasharray="0" stroke="rgba(255, 255, 255, 1)" fill="none" class="stroke" />
  <path d="M 794.8571428571429 127  L 798.7142857142857 130.85714285714286  L 805.1428571428571 121.85714285714286  " stroke-width="3.8571428571428577" stroke-dasharray="0" stroke="rgba(255, 255, 255, 1)" fill="none" class="stroke btn_check" />
</svg>