<?xml version="1.0" encoding="utf-8"?>
<svg version="1.1" xmlns:xlink="http://www.w3.org/1999/xlink" width="18px" height="18px" viewBox="791 152 18 18" xmlns="http://www.w3.org/2000/svg">
  <path d="M 791 154  A 2 2 0 0 1 793 152 L 807 152  A 2 2 0 0 1 809 154 L 809 168  A 2 2 0 0 1 807 170 L 793 170  A 2 2 0 0 1 791 168 L 791 154  Z " fill-rule="nonzero" fill="rgba(30, 152, 215, 1)" stroke="none" class="fill" />
  <path d="M 791 154  A 2 2 0 0 1 793 152 L 807 152  A 2 2 0 0 1 809 154 L 809 168  A 2 2 0 0 1 807 170 L 793 170  A 2 2 0 0 1 791 168 L 791 154  Z " stroke-width="0" stroke-dasharray="0" stroke="rgba(255, 255, 255, 1)" fill="none" class="stroke" />
  <path d="M 794.8571428571429 161  L 798.7142857142857 164.85714285714286  L 805.1428571428571 155.85714285714286  " stroke-width="3.8571428571428577" stroke-dasharray="0" stroke="rgba(255, 255, 255, 1)" fill="none" class="stroke btn_check" />
</svg>