<?xml version="1.0" encoding="utf-8"?>
<svg version="1.1" xmlns:xlink="http://www.w3.org/1999/xlink" width="50px" height="39px" xmlns="http://www.w3.org/2000/svg">
  <defs>
    <pattern id="BGPattern" patternUnits="userSpaceOnUse" alignment="0 0" imageRepeat="None" />
    <mask fill="white" id="Clip336">
      <path d="M 6.877790178571429 32.17223011363637  C 7.054501488095238 32.34765625  7.142857142857142 32.55539772727273  7.142857142857142 32.79545454545455  L 7.142857142857142 38.11363636363637  C 7.142857142857142 38.35369318181819  7.054501488095238 38.56143465909091  6.877790178571429 38.73686079545455  C 6.7010788690476195 38.91228693181818  6.491815476190476 39  6.25 39  L 0.8928571428571428 39  C 0.6510416666666667 39  0.4417782738095238 38.91228693181818  0.2650669642857143 38.73686079545455  C 0.08835565476190477 38.56143465909091  0 38.35369318181819  0 38.11363636363637  L 0 32.79545454545455  C 0 32.55539772727273  0.08835565476190477 32.34765625  0.2650669642857143 32.17223011363637  C 0.4417782738095238 31.99680397727273  0.6510416666666667 31.909090909090907  0.8928571428571428 31.909090909090907  L 6.25 31.909090909090907  C 6.491815476190476 31.909090909090907  6.7010788690476195 31.99680397727273  6.877790178571429 32.17223011363637  Z M 6.877790178571429 21.53586647727273  C 7.054501488095238 21.71129261363636  7.142857142857142 21.91903409090909  7.142857142857142 22.159090909090907  L 7.142857142857142 27.47727272727273  C 7.142857142857142 27.71732954545454  7.054501488095238 27.925071022727266  6.877790178571429 28.100497159090907  C 6.7010788690476195 28.275923295454547  6.491815476190476 28.363636363636363  6.25 28.363636363636363  L 0.8928571428571428 28.363636363636363  C 0.6510416666666667 28.363636363636363  0.4417782738095238 28.275923295454547  0.2650669642857143 28.100497159090907  C 0.08835565476190477 27.925071022727266  0 27.71732954545454  0 27.47727272727273  L 0 22.159090909090907  C 0 21.91903409090909  0.08835565476190477 21.71129261363636  0.2650669642857143 21.53586647727273  C 0.4417782738095238 21.360440340909086  0.6510416666666667 21.27272727272727  0.8928571428571428 21.27272727272727  L 6.25 21.27272727272727  C 6.491815476190476 21.27272727272727  6.7010788690476195 21.360440340909086  6.877790178571429 21.53586647727273  Z M 6.877790178571429 10.899502840909088  C 7.054501488095238 11.074928977272727  7.142857142857142 11.28267045454545  7.142857142857142 11.522727272727272  L 7.142857142857142 16.84090909090909  C 7.142857142857142 17.08096590909091  7.054501488095238 17.288707386363633  6.877790178571429 17.46413352272727  C 6.7010788690476195 17.639559659090907  6.491815476190476 17.72727272727273  6.25 17.72727272727273  L 0.8928571428571428 17.72727272727273  C 0.6510416666666667 17.72727272727273  0.4417782738095238 17.639559659090907  0.2650669642857143 17.46413352272727  C 0.08835565476190477 17.288707386363633  0 17.08096590909091  0 16.84090909090909  L 0 11.522727272727272  C 0 11.28267045454545  0.08835565476190477 11.074928977272727  0.2650669642857143 10.899502840909088  C 0.4417782738095238 10.724076704545451  0.6510416666666667 10.636363636363635  0.8928571428571428 10.636363636363635  L 6.25 10.636363636363635  C 6.491815476190476 10.636363636363635  6.7010788690476195 10.724076704545451  6.877790178571429 10.899502840909088  Z M 49.734933035714285 32.17223011363637  C 49.9116443452381 32.34765625  50 32.55539772727273  50 32.79545454545455  L 50 38.11363636363637  C 50 38.35369318181819  49.9116443452381 38.56143465909091  49.734933035714285 38.73686079545455  C 49.55822172619048 38.91228693181818  49.34895833333334 39  49.107142857142854 39  L 11.607142857142858 39  C 11.365327380952381 39  11.156063988095239 38.91228693181818  10.979352678571429 38.73686079545455  C 10.802641369047619 38.56143465909091  10.714285714285714 38.35369318181819  10.714285714285714 38.11363636363637  L 10.714285714285714 32.79545454545455  C 10.714285714285714 32.55539772727273  10.802641369047619 32.34765625  10.979352678571429 32.17223011363637  C 11.156063988095239 31.99680397727273  11.365327380952381 31.909090909090907  11.607142857142858 32  L 49.107142857142854 32  C 49.34895833333334 31.909090909090907  49.55822172619048 31.99680397727273  49.734933035714285 32.17223011363637  Z M 6.877790178571429 0.26313920454545336  C 7.054501488095238 0.4385653409090904  7.142857142857142 0.6463068181818149  7.142857142857142 0.8863636363636356  L 7.142857142857142 6.204545454545453  C 7.142857142857142 6.44460227272727  7.054501488095238 6.652343749999995  6.877790178571429 6.827769886363636  C 6.7010788690476195 7.0031960227272725  6.491815476190476 7.090909090909089  6.25 7.090909090909089  L 0.8928571428571428 7.090909090909089  C 0.6510416666666667 7.090909090909089  0.4417782738095238 7.0031960227272725  0.2650669642857143 6.827769886363636  C 0.08835565476190477 6.652343749999995  0 6.44460227272727  0 6.204545454545453  L 0 0.8863636363636356  C 0 0.6463068181818149  0.08835565476190477 0.4385653409090904  0.2650669642857143 0.26313920454545336  C 0.4417782738095238 0.08771306818181202  0.6510416666666667 0  0.8928571428571428 0  L 6.25 0  C 6.491815476190476 0  6.7010788690476195 0.08771306818181202  6.877790178571429 0.26313920454545336  Z M 49.734933035714285 21.53586647727273  C 49.9116443452381 21.71129261363636  50 21.91903409090909  50 22.159090909090907  L 50 27.47727272727273  C 50 27.71732954545454  49.9116443452381 27.925071022727266  49.734933035714285 28.100497159090907  C 49.55822172619048 28.275923295454547  49.34895833333334 28.363636363636363  49.107142857142854 28  L 11.607142857142858 28  C 11.365327380952381 28.363636363636363  11.156063988095239 28.275923295454547  10.979352678571429 28.100497159090907  C 10.802641369047619 27.925071022727266  10.714285714285714 27.71732954545454  10.714285714285714 27.47727272727273  L 10.714285714285714 22.159090909090907  C 10.714285714285714 21.91903409090909  10.802641369047619 21.71129261363636  10.979352678571429 21.53586647727273  C 11.156063988095239 21.360440340909086  11.365327380952381 21.27272727272727  11.607142857142858 21  L 49.107142857142854 21  C 49.34895833333334 21.27272727272727  49.55822172619048 21.360440340909086  49.734933035714285 21.53586647727273  Z M 49.734933035714285 10.899502840909088  C 49.9116443452381 11.074928977272727  50 11.28267045454545  50 11.522727272727272  L 50 16.84090909090909  C 50 17.08096590909091  49.9116443452381 17.288707386363633  49.734933035714285 17.46413352272727  C 49.55822172619048 17.639559659090907  49.34895833333334 17.72727272727273  49.107142857142854 18  L 11.607142857142858 18  C 11.365327380952381 17.72727272727273  11.156063988095239 17.639559659090907  10.979352678571429 17.46413352272727  C 10.802641369047619 17.288707386363633  10.714285714285714 17.08096590909091  10.714285714285714 16.84090909090909  L 10.714285714285714 11.522727272727272  C 10.714285714285714 11.28267045454545  10.802641369047619 11.074928977272727  10.979352678571429 10.899502840909088  C 11.156063988095239 10.724076704545451  11.365327380952381 10.636363636363635  11.607142857142858 11  L 49.107142857142854 11  C 49.34895833333334 10.636363636363635  49.55822172619048 10.724076704545451  49.734933035714285 10.899502840909088  Z M 49.734933035714285 0.26313920454545336  C 49.9116443452381 0.4385653409090904  50 0.6463068181818149  50 0.8863636363636356  L 50 6.204545454545453  C 50 6.44460227272727  49.9116443452381 6.652343749999995  49.734933035714285 6.827769886363636  C 49.55822172619048 7.0031960227272725  49.34895833333334 7.090909090909089  49.107142857142854 7  L 11.607142857142858 7  C 11.365327380952381 7.090909090909089  11.156063988095239 7.0031960227272725  10.979352678571429 6.827769886363636  C 10.802641369047619 6.652343749999995  10.714285714285714 6.44460227272727  10.714285714285714 6.204545454545453  L 10.714285714285714 0.8863636363636356  C 10.714285714285714 0.6463068181818149  10.802641369047619 0.4385653409090904  10.979352678571429 0.26313920454545336  C 11.156063988095239 0.08771306818181202  11.365327380952381 0  11.607142857142858 0  L 49.107142857142854 0  C 49.34895833333334 0  49.55822172619048 0.08771306818181202  49.734933035714285 0.26313920454545336  Z " fill-rule="evenodd" />
    </mask>
  </defs>
  <g transform="matrix(1 0 0 1 -23 -6 )">
    <path d="M 6.877790178571429 32.17223011363637  C 7.054501488095238 32.34765625  7.142857142857142 32.55539772727273  7.142857142857142 32.79545454545455  L 7.142857142857142 38.11363636363637  C 7.142857142857142 38.35369318181819  7.054501488095238 38.56143465909091  6.877790178571429 38.73686079545455  C 6.7010788690476195 38.91228693181818  6.491815476190476 39  6.25 39  L 0.8928571428571428 39  C 0.6510416666666667 39  0.4417782738095238 38.91228693181818  0.2650669642857143 38.73686079545455  C 0.08835565476190477 38.56143465909091  0 38.35369318181819  0 38.11363636363637  L 0 32.79545454545455  C 0 32.55539772727273  0.08835565476190477 32.34765625  0.2650669642857143 32.17223011363637  C 0.4417782738095238 31.99680397727273  0.6510416666666667 31.909090909090907  0.8928571428571428 31.909090909090907  L 6.25 31.909090909090907  C 6.491815476190476 31.909090909090907  6.7010788690476195 31.99680397727273  6.877790178571429 32.17223011363637  Z M 6.877790178571429 21.53586647727273  C 7.054501488095238 21.71129261363636  7.142857142857142 21.91903409090909  7.142857142857142 22.159090909090907  L 7.142857142857142 27.47727272727273  C 7.142857142857142 27.71732954545454  7.054501488095238 27.925071022727266  6.877790178571429 28.100497159090907  C 6.7010788690476195 28.275923295454547  6.491815476190476 28.363636363636363  6.25 28.363636363636363  L 0.8928571428571428 28.363636363636363  C 0.6510416666666667 28.363636363636363  0.4417782738095238 28.275923295454547  0.2650669642857143 28.100497159090907  C 0.08835565476190477 27.925071022727266  0 27.71732954545454  0 27.47727272727273  L 0 22.159090909090907  C 0 21.91903409090909  0.08835565476190477 21.71129261363636  0.2650669642857143 21.53586647727273  C 0.4417782738095238 21.360440340909086  0.6510416666666667 21.27272727272727  0.8928571428571428 21.27272727272727  L 6.25 21.27272727272727  C 6.491815476190476 21.27272727272727  6.7010788690476195 21.360440340909086  6.877790178571429 21.53586647727273  Z M 6.877790178571429 10.899502840909088  C 7.054501488095238 11.074928977272727  7.142857142857142 11.28267045454545  7.142857142857142 11.522727272727272  L 7.142857142857142 16.84090909090909  C 7.142857142857142 17.08096590909091  7.054501488095238 17.288707386363633  6.877790178571429 17.46413352272727  C 6.7010788690476195 17.639559659090907  6.491815476190476 17.72727272727273  6.25 17.72727272727273  L 0.8928571428571428 17.72727272727273  C 0.6510416666666667 17.72727272727273  0.4417782738095238 17.639559659090907  0.2650669642857143 17.46413352272727  C 0.08835565476190477 17.288707386363633  0 17.08096590909091  0 16.84090909090909  L 0 11.522727272727272  C 0 11.28267045454545  0.08835565476190477 11.074928977272727  0.2650669642857143 10.899502840909088  C 0.4417782738095238 10.724076704545451  0.6510416666666667 10.636363636363635  0.8928571428571428 10.636363636363635  L 6.25 10.636363636363635  C 6.491815476190476 10.636363636363635  6.7010788690476195 10.724076704545451  6.877790178571429 10.899502840909088  Z M 49.734933035714285 32.17223011363637  C 49.9116443452381 32.34765625  50 32.55539772727273  50 32.79545454545455  L 50 38.11363636363637  C 50 38.35369318181819  49.9116443452381 38.56143465909091  49.734933035714285 38.73686079545455  C 49.55822172619048 38.91228693181818  49.34895833333334 39  49.107142857142854 39  L 11.607142857142858 39  C 11.365327380952381 39  11.156063988095239 38.91228693181818  10.979352678571429 38.73686079545455  C 10.802641369047619 38.56143465909091  10.714285714285714 38.35369318181819  10.714285714285714 38.11363636363637  L 10.714285714285714 32.79545454545455  C 10.714285714285714 32.55539772727273  10.802641369047619 32.34765625  10.979352678571429 32.17223011363637  C 11.156063988095239 31.99680397727273  11.365327380952381 31.909090909090907  11.607142857142858 32  L 49.107142857142854 32  C 49.34895833333334 31.909090909090907  49.55822172619048 31.99680397727273  49.734933035714285 32.17223011363637  Z M 6.877790178571429 0.26313920454545336  C 7.054501488095238 0.4385653409090904  7.142857142857142 0.6463068181818149  7.142857142857142 0.8863636363636356  L 7.142857142857142 6.204545454545453  C 7.142857142857142 6.44460227272727  7.054501488095238 6.652343749999995  6.877790178571429 6.827769886363636  C 6.7010788690476195 7.0031960227272725  6.491815476190476 7.090909090909089  6.25 7.090909090909089  L 0.8928571428571428 7.090909090909089  C 0.6510416666666667 7.090909090909089  0.4417782738095238 7.0031960227272725  0.2650669642857143 6.827769886363636  C 0.08835565476190477 6.652343749999995  0 6.44460227272727  0 6.204545454545453  L 0 0.8863636363636356  C 0 0.6463068181818149  0.08835565476190477 0.4385653409090904  0.2650669642857143 0.26313920454545336  C 0.4417782738095238 0.08771306818181202  0.6510416666666667 0  0.8928571428571428 0  L 6.25 0  C 6.491815476190476 0  6.7010788690476195 0.08771306818181202  6.877790178571429 0.26313920454545336  Z M 49.734933035714285 21.53586647727273  C 49.9116443452381 21.71129261363636  50 21.91903409090909  50 22.159090909090907  L 50 27.47727272727273  C 50 27.71732954545454  49.9116443452381 27.925071022727266  49.734933035714285 28.100497159090907  C 49.55822172619048 28.275923295454547  49.34895833333334 28.363636363636363  49.107142857142854 28  L 11.607142857142858 28  C 11.365327380952381 28.363636363636363  11.156063988095239 28.275923295454547  10.979352678571429 28.100497159090907  C 10.802641369047619 27.925071022727266  10.714285714285714 27.71732954545454  10.714285714285714 27.47727272727273  L 10.714285714285714 22.159090909090907  C 10.714285714285714 21.91903409090909  10.802641369047619 21.71129261363636  10.979352678571429 21.53586647727273  C 11.156063988095239 21.360440340909086  11.365327380952381 21.27272727272727  11.607142857142858 21  L 49.107142857142854 21  C 49.34895833333334 21.27272727272727  49.55822172619048 21.360440340909086  49.734933035714285 21.53586647727273  Z M 49.734933035714285 10.899502840909088  C 49.9116443452381 11.074928977272727  50 11.28267045454545  50 11.522727272727272  L 50 16.84090909090909  C 50 17.08096590909091  49.9116443452381 17.288707386363633  49.734933035714285 17.46413352272727  C 49.55822172619048 17.639559659090907  49.34895833333334 17.72727272727273  49.107142857142854 18  L 11.607142857142858 18  C 11.365327380952381 17.72727272727273  11.156063988095239 17.639559659090907  10.979352678571429 17.46413352272727  C 10.802641369047619 17.288707386363633  10.714285714285714 17.08096590909091  10.714285714285714 16.84090909090909  L 10.714285714285714 11.522727272727272  C 10.714285714285714 11.28267045454545  10.802641369047619 11.074928977272727  10.979352678571429 10.899502840909088  C 11.156063988095239 10.724076704545451  11.365327380952381 10.636363636363635  11.607142857142858 11  L 49.107142857142854 11  C 49.34895833333334 10.636363636363635  49.55822172619048 10.724076704545451  49.734933035714285 10.899502840909088  Z M 49.734933035714285 0.26313920454545336  C 49.9116443452381 0.4385653409090904  50 0.6463068181818149  50 0.8863636363636356  L 50 6.204545454545453  C 50 6.44460227272727  49.9116443452381 6.652343749999995  49.734933035714285 6.827769886363636  C 49.55822172619048 7.0031960227272725  49.34895833333334 7.090909090909089  49.107142857142854 7  L 11.607142857142858 7  C 11.365327380952381 7.090909090909089  11.156063988095239 7.0031960227272725  10.979352678571429 6.827769886363636  C 10.802641369047619 6.652343749999995  10.714285714285714 6.44460227272727  10.714285714285714 6.204545454545453  L 10.714285714285714 0.8863636363636356  C 10.714285714285714 0.6463068181818149  10.802641369047619 0.4385653409090904  10.979352678571429 0.26313920454545336  C 11.156063988095239 0.08771306818181202  11.365327380952381 0  11.607142857142858 0  L 49.107142857142854 0  C 49.34895833333334 0  49.55822172619048 0.08771306818181202  49.734933035714285 0.26313920454545336  Z " fill-rule="nonzero" fill="rgba(0, 0, 0, 1)" stroke="none" transform="matrix(1 0 0 1 23 6 )" class="fill" />
    <path d="M 6.877790178571429 32.17223011363637  C 7.054501488095238 32.34765625  7.142857142857142 32.55539772727273  7.142857142857142 32.79545454545455  L 7.142857142857142 38.11363636363637  C 7.142857142857142 38.35369318181819  7.054501488095238 38.56143465909091  6.877790178571429 38.73686079545455  C 6.7010788690476195 38.91228693181818  6.491815476190476 39  6.25 39  L 0.8928571428571428 39  C 0.6510416666666667 39  0.4417782738095238 38.91228693181818  0.2650669642857143 38.73686079545455  C 0.08835565476190477 38.56143465909091  0 38.35369318181819  0 38.11363636363637  L 0 32.79545454545455  C 0 32.55539772727273  0.08835565476190477 32.34765625  0.2650669642857143 32.17223011363637  C 0.4417782738095238 31.99680397727273  0.6510416666666667 31.909090909090907  0.8928571428571428 31.909090909090907  L 6.25 31.909090909090907  C 6.491815476190476 31.909090909090907  6.7010788690476195 31.99680397727273  6.877790178571429 32.17223011363637  Z " stroke-width="0" stroke-dasharray="0" stroke="rgba(255, 255, 255, 0)" fill="none" transform="matrix(1 0 0 1 23 6 )" class="stroke" mask="url(#Clip336)" />
    <path d="M 6.877790178571429 21.53586647727273  C 7.054501488095238 21.71129261363636  7.142857142857142 21.91903409090909  7.142857142857142 22.159090909090907  L 7.142857142857142 27.47727272727273  C 7.142857142857142 27.71732954545454  7.054501488095238 27.925071022727266  6.877790178571429 28.100497159090907  C 6.7010788690476195 28.275923295454547  6.491815476190476 28.363636363636363  6.25 28.363636363636363  L 0.8928571428571428 28.363636363636363  C 0.6510416666666667 28.363636363636363  0.4417782738095238 28.275923295454547  0.2650669642857143 28.100497159090907  C 0.08835565476190477 27.925071022727266  0 27.71732954545454  0 27.47727272727273  L 0 22.159090909090907  C 0 21.91903409090909  0.08835565476190477 21.71129261363636  0.2650669642857143 21.53586647727273  C 0.4417782738095238 21.360440340909086  0.6510416666666667 21.27272727272727  0.8928571428571428 21.27272727272727  L 6.25 21.27272727272727  C 6.491815476190476 21.27272727272727  6.7010788690476195 21.360440340909086  6.877790178571429 21.53586647727273  Z " stroke-width="0" stroke-dasharray="0" stroke="rgba(255, 255, 255, 0)" fill="none" transform="matrix(1 0 0 1 23 6 )" class="stroke" mask="url(#Clip336)" />
    <path d="M 6.877790178571429 10.899502840909088  C 7.054501488095238 11.074928977272727  7.142857142857142 11.28267045454545  7.142857142857142 11.522727272727272  L 7.142857142857142 16.84090909090909  C 7.142857142857142 17.08096590909091  7.054501488095238 17.288707386363633  6.877790178571429 17.46413352272727  C 6.7010788690476195 17.639559659090907  6.491815476190476 17.72727272727273  6.25 17.72727272727273  L 0.8928571428571428 17.72727272727273  C 0.6510416666666667 17.72727272727273  0.4417782738095238 17.639559659090907  0.2650669642857143 17.46413352272727  C 0.08835565476190477 17.288707386363633  0 17.08096590909091  0 16.84090909090909  L 0 11.522727272727272  C 0 11.28267045454545  0.08835565476190477 11.074928977272727  0.2650669642857143 10.899502840909088  C 0.4417782738095238 10.724076704545451  0.6510416666666667 10.636363636363635  0.8928571428571428 10.636363636363635  L 6.25 10.636363636363635  C 6.491815476190476 10.636363636363635  6.7010788690476195 10.724076704545451  6.877790178571429 10.899502840909088  Z " stroke-width="0" stroke-dasharray="0" stroke="rgba(255, 255, 255, 0)" fill="none" transform="matrix(1 0 0 1 23 6 )" class="stroke" mask="url(#Clip336)" />
    <path d="M 49.734933035714285 32.17223011363637  C 49.9116443452381 32.34765625  50 32.55539772727273  50 32.79545454545455  L 50 38.11363636363637  C 50 38.35369318181819  49.9116443452381 38.56143465909091  49.734933035714285 38.73686079545455  C 49.55822172619048 38.91228693181818  49.34895833333334 39  49.107142857142854 39  L 11.607142857142858 39  C 11.365327380952381 39  11.156063988095239 38.91228693181818  10.979352678571429 38.73686079545455  C 10.802641369047619 38.56143465909091  10.714285714285714 38.35369318181819  10.714285714285714 38.11363636363637  L 10.714285714285714 32.79545454545455  C 10.714285714285714 32.55539772727273  10.802641369047619 32.34765625  10.979352678571429 32.17223011363637  C 11.156063988095239 31.99680397727273  11.365327380952381 31.909090909090907  11.607142857142858 32  L 49.107142857142854 32  C 49.34895833333334 31.909090909090907  49.55822172619048 31.99680397727273  49.734933035714285 32.17223011363637  Z " stroke-width="0" stroke-dasharray="0" stroke="rgba(255, 255, 255, 0)" fill="none" transform="matrix(1 0 0 1 23 6 )" class="stroke" mask="url(#Clip336)" />
    <path d="M 6.877790178571429 0.26313920454545336  C 7.054501488095238 0.4385653409090904  7.142857142857142 0.6463068181818149  7.142857142857142 0.8863636363636356  L 7.142857142857142 6.204545454545453  C 7.142857142857142 6.44460227272727  7.054501488095238 6.652343749999995  6.877790178571429 6.827769886363636  C 6.7010788690476195 7.0031960227272725  6.491815476190476 7.090909090909089  6.25 7.090909090909089  L 0.8928571428571428 7.090909090909089  C 0.6510416666666667 7.090909090909089  0.4417782738095238 7.0031960227272725  0.2650669642857143 6.827769886363636  C 0.08835565476190477 6.652343749999995  0 6.44460227272727  0 6.204545454545453  L 0 0.8863636363636356  C 0 0.6463068181818149  0.08835565476190477 0.4385653409090904  0.2650669642857143 0.26313920454545336  C 0.4417782738095238 0.08771306818181202  0.6510416666666667 0  0.8928571428571428 0  L 6.25 0  C 6.491815476190476 0  6.7010788690476195 0.08771306818181202  6.877790178571429 0.26313920454545336  Z " stroke-width="0" stroke-dasharray="0" stroke="rgba(255, 255, 255, 0)" fill="none" transform="matrix(1 0 0 1 23 6 )" class="stroke" mask="url(#Clip336)" />
    <path d="M 49.734933035714285 21.53586647727273  C 49.9116443452381 21.71129261363636  50 21.91903409090909  50 22.159090909090907  L 50 27.47727272727273  C 50 27.71732954545454  49.9116443452381 27.925071022727266  49.734933035714285 28.100497159090907  C 49.55822172619048 28.275923295454547  49.34895833333334 28.363636363636363  49.107142857142854 28  L 11.607142857142858 28  C 11.365327380952381 28.363636363636363  11.156063988095239 28.275923295454547  10.979352678571429 28.100497159090907  C 10.802641369047619 27.925071022727266  10.714285714285714 27.71732954545454  10.714285714285714 27.47727272727273  L 10.714285714285714 22.159090909090907  C 10.714285714285714 21.91903409090909  10.802641369047619 21.71129261363636  10.979352678571429 21.53586647727273  C 11.156063988095239 21.360440340909086  11.365327380952381 21.27272727272727  11.607142857142858 21  L 49.107142857142854 21  C 49.34895833333334 21.27272727272727  49.55822172619048 21.360440340909086  49.734933035714285 21.53586647727273  Z " stroke-width="0" stroke-dasharray="0" stroke="rgba(255, 255, 255, 0)" fill="none" transform="matrix(1 0 0 1 23 6 )" class="stroke" mask="url(#Clip336)" />
    <path d="M 49.734933035714285 10.899502840909088  C 49.9116443452381 11.074928977272727  50 11.28267045454545  50 11.522727272727272  L 50 16.84090909090909  C 50 17.08096590909091  49.9116443452381 17.288707386363633  49.734933035714285 17.46413352272727  C 49.55822172619048 17.639559659090907  49.34895833333334 17.72727272727273  49.107142857142854 18  L 11.607142857142858 18  C 11.365327380952381 17.72727272727273  11.156063988095239 17.639559659090907  10.979352678571429 17.46413352272727  C 10.802641369047619 17.288707386363633  10.714285714285714 17.08096590909091  10.714285714285714 16.84090909090909  L 10.714285714285714 11.522727272727272  C 10.714285714285714 11.28267045454545  10.802641369047619 11.074928977272727  10.979352678571429 10.899502840909088  C 11.156063988095239 10.724076704545451  11.365327380952381 10.636363636363635  11.607142857142858 11  L 49.107142857142854 11  C 49.34895833333334 10.636363636363635  49.55822172619048 10.724076704545451  49.734933035714285 10.899502840909088  Z " stroke-width="0" stroke-dasharray="0" stroke="rgba(255, 255, 255, 0)" fill="none" transform="matrix(1 0 0 1 23 6 )" class="stroke" mask="url(#Clip336)" />
    <path d="M 49.734933035714285 0.26313920454545336  C 49.9116443452381 0.4385653409090904  50 0.6463068181818149  50 0.8863636363636356  L 50 6.204545454545453  C 50 6.44460227272727  49.9116443452381 6.652343749999995  49.734933035714285 6.827769886363636  C 49.55822172619048 7.0031960227272725  49.34895833333334 7.090909090909089  49.107142857142854 7  L 11.607142857142858 7  C 11.365327380952381 7.090909090909089  11.156063988095239 7.0031960227272725  10.979352678571429 6.827769886363636  C 10.802641369047619 6.652343749999995  10.714285714285714 6.44460227272727  10.714285714285714 6.204545454545453  L 10.714285714285714 0.8863636363636356  C 10.714285714285714 0.6463068181818149  10.802641369047619 0.4385653409090904  10.979352678571429 0.26313920454545336  C 11.156063988095239 0.08771306818181202  11.365327380952381 0  11.607142857142858 0  L 49.107142857142854 0  C 49.34895833333334 0  49.55822172619048 0.08771306818181202  49.734933035714285 0.26313920454545336  Z " stroke-width="0" stroke-dasharray="0" stroke="rgba(255, 255, 255, 0)" fill="none" transform="matrix(1 0 0 1 23 6 )" class="stroke" mask="url(#Clip336)" />
  </g>
</svg>