<?xml version="1.0" encoding="utf-8"?>
<svg version="1.1" xmlns:xlink="http://www.w3.org/1999/xlink" width="50px" height="38px" xmlns="http://www.w3.org/2000/svg">
  <defs>
    <pattern id="BGPattern" patternUnits="userSpaceOnUse" alignment="0 0" imageRepeat="None" />
    <mask fill="white" id="Clip525">
      <path d="M 4 34.83333333333333  L 50 34.83333333333333  L 50 38  L 0 38  L 0 0  L 4 0  L 4 34.83333333333333  Z M 46.6552734375 3.389322916666668  C 46.80175781250001 3.537760416666668  46.87500000000001 3.727430555555552  46 3.958333333333332  L 46 14.720052083333332  C 46.87500000000001 15.066406249999996  46.71630859375001 15.309678819444445  46.39892578125 15.449869791666668  C 46.08154296875001 15.590060763888888  45.79264322916667 15.528211805555555  45.5322265625 15.264322916666668  L 42.578125 12.270833333333332  L 27.1240234375 27.930989583333336  C 26.961263020833336 28.09592013888889  26.774088541666668 28.178385416666664  26.5625 28.178385416666664  C 26.350911458333336 28.178385416666664  26.163736979166668 28.09592013888889  26.0009765625 27.930989583333336  L 20.3125 22.166666666666664  L 10.15625 32.45833333333333  L 5.46875 27.708333333333336  L 19.7509765625 13.235677083333332  C 19.913736979166668 13.070746527777775  20.100911458333336 12.98828125  20.3125 12.98828125  C 20.524088541666668 12.98828125  20.711263020833336 13.070746527777775  20.8740234375 13.235677083333332  L 26.5625 19  L 37.890625 7.520833333333332  L 34.9365234375 4.52734375  C 34.676106770833336 4.263454861111108  34.615071614583336 3.970703125  34.75341796875 3.649088541666668  C 34.89176432291667 3.327473958333332  35.1318359375 3.166666666666668  35.4736328125 3.166666666666668  L 46.09375 3.166666666666668  C 46.321614583333336 3.166666666666668  46.50878906250001 3.240885416666668  46.6552734375 3.389322916666668  Z " fill-rule="evenodd" />
    </mask>
  </defs>
  <g transform="matrix(1 0 0 1 -118 -8 )">
    <path d="M 4 34.83333333333333  L 50 34.83333333333333  L 50 38  L 0 38  L 0 0  L 4 0  L 4 34.83333333333333  Z M 46.6552734375 3.389322916666668  C 46.80175781250001 3.537760416666668  46.87500000000001 3.727430555555552  46 3.958333333333332  L 46 14.720052083333332  C 46.87500000000001 15.066406249999996  46.71630859375001 15.309678819444445  46.39892578125 15.449869791666668  C 46.08154296875001 15.590060763888888  45.79264322916667 15.528211805555555  45.5322265625 15.264322916666668  L 42.578125 12.270833333333332  L 27.1240234375 27.930989583333336  C 26.961263020833336 28.09592013888889  26.774088541666668 28.178385416666664  26.5625 28.178385416666664  C 26.350911458333336 28.178385416666664  26.163736979166668 28.09592013888889  26.0009765625 27.930989583333336  L 20.3125 22.166666666666664  L 10.15625 32.45833333333333  L 5.46875 27.708333333333336  L 19.7509765625 13.235677083333332  C 19.913736979166668 13.070746527777775  20.100911458333336 12.98828125  20.3125 12.98828125  C 20.524088541666668 12.98828125  20.711263020833336 13.070746527777775  20.8740234375 13.235677083333332  L 26.5625 19  L 37.890625 7.520833333333332  L 34.9365234375 4.52734375  C 34.676106770833336 4.263454861111108  34.615071614583336 3.970703125  34.75341796875 3.649088541666668  C 34.89176432291667 3.327473958333332  35.1318359375 3.166666666666668  35.4736328125 3.166666666666668  L 46.09375 3.166666666666668  C 46.321614583333336 3.166666666666668  46.50878906250001 3.240885416666668  46.6552734375 3.389322916666668  Z " fill-rule="nonzero" fill="rgba(0, 0, 0, 1)" stroke="none" transform="matrix(1 0 0 1 118 8 )" class="fill" />
    <path d="M 4 34.83333333333333  L 50 34.83333333333333  L 50 38  L 0 38  L 0 0  L 4 0  L 4 34.83333333333333  Z " stroke-width="0" stroke-dasharray="0" stroke="rgba(255, 255, 255, 0)" fill="none" transform="matrix(1 0 0 1 118 8 )" class="stroke" mask="url(#Clip525)" />
    <path d="M 46.6552734375 3.389322916666668  C 46.80175781250001 3.537760416666668  46.87500000000001 3.727430555555552  46 3.958333333333332  L 46 14.720052083333332  C 46.87500000000001 15.066406249999996  46.71630859375001 15.309678819444445  46.39892578125 15.449869791666668  C 46.08154296875001 15.590060763888888  45.79264322916667 15.528211805555555  45.5322265625 15.264322916666668  L 42.578125 12.270833333333332  L 27.1240234375 27.930989583333336  C 26.961263020833336 28.09592013888889  26.774088541666668 28.178385416666664  26.5625 28.178385416666664  C 26.350911458333336 28.178385416666664  26.163736979166668 28.09592013888889  26.0009765625 27.930989583333336  L 20.3125 22.166666666666664  L 10.15625 32.45833333333333  L 5.46875 27.708333333333336  L 19.7509765625 13.235677083333332  C 19.913736979166668 13.070746527777775  20.100911458333336 12.98828125  20.3125 12.98828125  C 20.524088541666668 12.98828125  20.711263020833336 13.070746527777775  20.8740234375 13.235677083333332  L 26.5625 19  L 37.890625 7.520833333333332  L 34.9365234375 4.52734375  C 34.676106770833336 4.263454861111108  34.615071614583336 3.970703125  34.75341796875 3.649088541666668  C 34.89176432291667 3.327473958333332  35.1318359375 3.166666666666668  35.4736328125 3.166666666666668  L 46.09375 3.166666666666668  C 46.321614583333336 3.166666666666668  46.50878906250001 3.240885416666668  46.6552734375 3.389322916666668  Z " stroke-width="0" stroke-dasharray="0" stroke="rgba(255, 255, 255, 0)" fill="none" transform="matrix(1 0 0 1 118 8 )" class="stroke" mask="url(#Clip525)" />
  </g>
</svg>