<?xml version="1.0" encoding="utf-8"?>
<svg version="1.1" xmlns:xlink="http://www.w3.org/1999/xlink" width="18px" height="18px" viewBox="49 21 18 18" xmlns="http://www.w3.org/2000/svg">
  <path d="M 58 21  C 63.04 21  67 24.96  67 30  C 67 35.04  63.04 39  58 39  C 52.96 39  49 35.04  49 30  C 49 24.96  52.96 21  58 21  Z " fill-rule="nonzero" fill="rgba(255, 255, 255, 0)" stroke="none" class="fill" />
  <path d="M 58 22  C 62.480000000000004 22  66 25.52  66 30  C 66 34.480000000000004  62.480000000000004 38  58 38  C 53.519999999999996 38  50 34.480000000000004  50 30  C 50 25.52  53.519999999999996 22  58 22  Z " stroke-width="2" stroke-dasharray="0" stroke="rgba(121, 121, 121, 1)" fill="none" class="stroke" />
  <path d="M 58 34.5  C 55.48 34.5  53.5 32.52  53.5 30  C 53.5 27.48  55.48 25.5  58 25.5  C 60.52 25.5  62.5 27.48  62.5 30  C 62.5 32.52  60.52 34.5  58 34.5  " fill-rule="nonzero" fill="rgba(121, 121, 121, 1)" stroke="none" class="stroke btn_check" />
</svg>