<?xml version="1.0" encoding="utf-8"?>
<svg version="1.1" xmlns:xlink="http://www.w3.org/1999/xlink" width="18px" height="18px" viewBox="128 21 18 18" xmlns="http://www.w3.org/2000/svg">
  <path d="M 137 21  C 142.04 21  146 24.96  146 30  C 146 35.04  142.04 39  137 39  C 131.96 39  128 35.04  128 30  C 128 24.96  131.96 21  137 21  Z " fill-rule="nonzero" fill="rgba(255, 255, 255, 0)" stroke="none" class="fill" />
  <path d="M 137 22  C 141.48 22  145 25.52  145 30  C 145 34.480000000000004  141.48 38  137 38  C 132.52 38  129 34.480000000000004  129 30  C 129 25.52  132.52 22  137 22  Z " stroke-width="2" stroke-dasharray="0" stroke="rgba(121, 121, 121, 1)" fill="none" class="stroke" />
  <path d="M 137 34.5  C 134.48 34.5  132.5 32.52  132.5 30  C 132.5 27.48  134.48 25.5  137 25.5  C 139.52 25.5  141.5 27.48  141.5 30  C 141.5 32.52  139.52 34.5  137 34.5  " fill-rule="nonzero" fill="rgba(121, 121, 121, 1)" stroke="none" class="stroke btn_check" />
</svg>