<?xml version="1.0" encoding="utf-8"?>
<svg version="1.1" xmlns:xlink="http://www.w3.org/1999/xlink" width="18px" height="18px" viewBox="212 21 18 18" xmlns="http://www.w3.org/2000/svg">
  <path d="M 221 21  C 226.04 21  230 24.96  230 30  C 230 35.04  226.04 39  221 39  C 215.96 39  212 35.04  212 30  C 212 24.96  215.96 21  221 21  Z " fill-rule="nonzero" fill="rgba(98, 0, 238, 0)" stroke="none" class="fill" />
  <path d="M 221 22  C 225.48 22  229 25.52  229 30  C 229 34.480000000000004  225.48 38  221 38  C 216.52 38  213 34.480000000000004  213 30  C 213 25.52  216.52 22  221 22  Z " stroke-width="2" stroke-dasharray="0" stroke="rgba(30, 152, 215, 1)" fill="none" class="stroke" />
  <path d="M 221 34.5  C 218.48 34.5  216.5 32.52  216.5 30  C 216.5 27.48  218.48 25.5  221 25.5  C 223.52 25.5  225.5 27.48  225.5 30  C 225.5 32.52  223.52 34.5  221 34.5  " fill-rule="nonzero" fill="rgba(30, 152, 215, 1)" stroke="none" class="stroke btn_check" />
</svg>