<?xml version="1.0" encoding="utf-8"?>
<svg version="1.1" xmlns:xlink="http://www.w3.org/1999/xlink" width="18px" height="18px" viewBox="795 147 18 18" xmlns="http://www.w3.org/2000/svg">
  <path d="M 795 149  A 2 2 0 0 1 797 147 L 811 147  A 2 2 0 0 1 813 149 L 813 163  A 2 2 0 0 1 811 165 L 797 165  A 2 2 0 0 1 795 163 L 795 149  Z " fill-rule="nonzero" fill="rgba(255, 255, 255, 0)" stroke="none" class="fill" />
  <path d="M 796 149  A 1 1 0 0 1 797 148 L 811 148  A 1 1 0 0 1 812 149 L 812 163  A 1 1 0 0 1 811 164 L 797 164  A 1 1 0 0 1 796 163 L 796 149  Z " stroke-width="2" stroke-dasharray="0" stroke="rgba(121, 121, 121, 1)" fill="none" class="stroke" />
  <path d="M 798.8571428571429 156  L 802.7142857142857 159.85714285714286  L 809.1428571428571 150.85714285714286  " stroke-width="3.8571428571428577" stroke-dasharray="0" stroke="rgba(121, 121, 121, 1)" fill="none" class="stroke btn_check" />
</svg>