<?xml version="1.0" encoding="utf-8"?>
<svg version="1.1" xmlns:xlink="http://www.w3.org/1999/xlink" width="187px" height="191px" xmlns="http://www.w3.org/2000/svg">
  <defs>
    <pattern id="BGPattern" patternUnits="userSpaceOnUse" alignment="0 0" imageRepeat="None" />
    <mask fill="white" id="Clip439">
      <path d="M 34 139  L 51 139  L 51 156  L 34 156  L 34 139  Z M 34 35  L 51 35  L 51 52  L 34 52  L 34 35  Z M 136 35  L 153 35  L 153 52  L 136 52  L 136 35  Z M 17 121  L 17 173  L 68 173  L 68 121  L 17 121  Z M 17 18  L 17 70  L 68 70  L 68 18  L 17 18  Z M 119 18  L 119 70  L 170 70  L 170 18  L 119 18  Z M 0 104  L 85 104  L 85 191  L 0 191  L 0 104  Z M 136 173  L 153 173  L 153 191  L 136 191  L 136 173  Z M 170 173  L 187 173  L 187 191  L 170 191  L 170 173  Z M 170 104  L 187 104  L 187 156  L 136 156  L 136 139  L 119 139  L 119 191  L 102 191  L 102 104  L 153 104  L 153 121  L 170 121  L 170 104  Z M 0 0  L 85 0  L 85 87  L 0 87  L 0 0  Z M 102 0  L 187 0  L 187 87  L 102 87  L 102 0  Z " fill-rule="evenodd" />
    </mask>
  </defs>
  <g transform="matrix(1 0 0 1 -315 -252 )">
    <path d="M 34 139  L 51 139  L 51 156  L 34 156  L 34 139  Z M 34 35  L 51 35  L 51 52  L 34 52  L 34 35  Z M 136 35  L 153 35  L 153 52  L 136 52  L 136 35  Z M 17 121  L 17 173  L 68 173  L 68 121  L 17 121  Z M 17 18  L 17 70  L 68 70  L 68 18  L 17 18  Z M 119 18  L 119 70  L 170 70  L 170 18  L 119 18  Z M 0 104  L 85 104  L 85 191  L 0 191  L 0 104  Z M 136 173  L 153 173  L 153 191  L 136 191  L 136 173  Z M 170 173  L 187 173  L 187 191  L 170 191  L 170 173  Z M 170 104  L 187 104  L 187 156  L 136 156  L 136 139  L 119 139  L 119 191  L 102 191  L 102 104  L 153 104  L 153 121  L 170 121  L 170 104  Z M 0 0  L 85 0  L 85 87  L 0 87  L 0 0  Z M 102 0  L 187 0  L 187 87  L 102 87  L 102 0  Z " fill-rule="nonzero" fill="rgba(0, 0, 0, 1)" stroke="none" transform="matrix(1 0 0 1 315 252 )" class="fill" />
    <path d="M 34 139  L 51 139  L 51 156  L 34 156  L 34 139  Z " stroke-width="0" stroke-dasharray="0" stroke="rgba(255, 255, 255, 0)" fill="none" transform="matrix(1 0 0 1 315 252 )" class="stroke" mask="url(#Clip439)" />
    <path d="M 34 35  L 51 35  L 51 52  L 34 52  L 34 35  Z " stroke-width="0" stroke-dasharray="0" stroke="rgba(255, 255, 255, 0)" fill="none" transform="matrix(1 0 0 1 315 252 )" class="stroke" mask="url(#Clip439)" />
    <path d="M 136 35  L 153 35  L 153 52  L 136 52  L 136 35  Z " stroke-width="0" stroke-dasharray="0" stroke="rgba(255, 255, 255, 0)" fill="none" transform="matrix(1 0 0 1 315 252 )" class="stroke" mask="url(#Clip439)" />
    <path d="M 17 121  L 17 173  L 68 173  L 68 121  L 17 121  Z " stroke-width="0" stroke-dasharray="0" stroke="rgba(255, 255, 255, 0)" fill="none" transform="matrix(1 0 0 1 315 252 )" class="stroke" mask="url(#Clip439)" />
    <path d="M 17 18  L 17 70  L 68 70  L 68 18  L 17 18  Z " stroke-width="0" stroke-dasharray="0" stroke="rgba(255, 255, 255, 0)" fill="none" transform="matrix(1 0 0 1 315 252 )" class="stroke" mask="url(#Clip439)" />
    <path d="M 119 18  L 119 70  L 170 70  L 170 18  L 119 18  Z " stroke-width="0" stroke-dasharray="0" stroke="rgba(255, 255, 255, 0)" fill="none" transform="matrix(1 0 0 1 315 252 )" class="stroke" mask="url(#Clip439)" />
    <path d="M 0 104  L 85 104  L 85 191  L 0 191  L 0 104  Z " stroke-width="0" stroke-dasharray="0" stroke="rgba(255, 255, 255, 0)" fill="none" transform="matrix(1 0 0 1 315 252 )" class="stroke" mask="url(#Clip439)" />
    <path d="M 136 173  L 153 173  L 153 191  L 136 191  L 136 173  Z " stroke-width="0" stroke-dasharray="0" stroke="rgba(255, 255, 255, 0)" fill="none" transform="matrix(1 0 0 1 315 252 )" class="stroke" mask="url(#Clip439)" />
    <path d="M 170 173  L 187 173  L 187 191  L 170 191  L 170 173  Z " stroke-width="0" stroke-dasharray="0" stroke="rgba(255, 255, 255, 0)" fill="none" transform="matrix(1 0 0 1 315 252 )" class="stroke" mask="url(#Clip439)" />
    <path d="M 170 104  L 187 104  L 187 156  L 136 156  L 136 139  L 119 139  L 119 191  L 102 191  L 102 104  L 153 104  L 153 121  L 170 121  L 170 104  Z " stroke-width="0" stroke-dasharray="0" stroke="rgba(255, 255, 255, 0)" fill="none" transform="matrix(1 0 0 1 315 252 )" class="stroke" mask="url(#Clip439)" />
    <path d="M 0 0  L 85 0  L 85 87  L 0 87  L 0 0  Z " stroke-width="0" stroke-dasharray="0" stroke="rgba(255, 255, 255, 0)" fill="none" transform="matrix(1 0 0 1 315 252 )" class="stroke" mask="url(#Clip439)" />
    <path d="M 102 0  L 187 0  L 187 87  L 102 87  L 102 0  Z " stroke-width="0" stroke-dasharray="0" stroke="rgba(255, 255, 255, 0)" fill="none" transform="matrix(1 0 0 1 315 252 )" class="stroke" mask="url(#Clip439)" />
  </g>
</svg>